<?xml version="1.0" encoding="utf-8" standalone="no"?>
<!DOCTYPE svg PUBLIC "-//W3C//DTD SVG 1.1//EN"
  "http://www.w3.org/Graphics/SVG/1.1/DTD/svg11.dtd">
<svg xmlns:xlink="http://www.w3.org/1999/xlink" width="724.054688pt" height="413.766594pt" viewBox="0 0 724.054688 413.766594" xmlns="http://www.w3.org/2000/svg" version="1.1">
 <metadata>
  <rdf:RDF xmlns:dc="http://purl.org/dc/elements/1.1/" xmlns:cc="http://creativecommons.org/ns#" xmlns:rdf="http://www.w3.org/1999/02/22-rdf-syntax-ns#">
   <cc:Work>
    <dc:type rdf:resource="http://purl.org/dc/dcmitype/StillImage"/>
    <dc:format>image/svg+xml</dc:format>
    <dc:creator>
     <cc:Agent>
      <dc:title>template_gold_refinement</dc:title>
     </cc:Agent>
    </dc:creator>
   </cc:Work>
  </rdf:RDF>
 </metadata>
 <defs>
  <style type="text/css">*{stroke-linejoin: round; stroke-linecap: butt}</style>
 </defs>
 <g id="figure_1">
  <g id="patch_1">
   <path d="M 0 413.766594
L 724.054688 413.766594
L 724.054688 0
L 0 0
z
" style="fill: #ffffff"/>
  </g>
  <g id="axes_1">
   <g id="patch_2">
    <path d="M 103.054688 375.565812
L 716.854688 375.565812
L 716.854688 31.837812
L 103.054688 31.837812
z
" style="fill: #ffffff"/>
   </g>
   <g id="matplotlib.axis_1">
    <g id="xtick_1">
     <g id="line2d_1">
      <path d="M 103.054688 375.565812
L 103.054688 31.837812
" clip-path="url(#pd0264d2c07)" style="fill: none; stroke: #b0b0b0; stroke-opacity: 0.22; stroke-width: 0.8; stroke-linecap: square"/>
     </g>
     <g id="line2d_2">
      <defs>
       <path id="mc314ece0ef" d="M 0 0
L 0 3.5
" style="stroke: #000000; stroke-width: 0.8"/>
      </defs>
      <g>
       <use xlink:href="#mc314ece0ef" x="103.054688" y="375.565812" style="stroke: #000000; stroke-width: 0.8"/>
      </g>
     </g>
     <g id="text_1">
      <!-- 0.0 -->
      <g transform="translate(95.103125 390.163469) scale(0.1 -0.1)">
       <defs>
        <path id="DejaVuSans-13" d="M 2034 4250
Q 1547 4250 1301 3770
Q 1056 3291 1056 2328
Q 1056 1369 1301 889
Q 1547 409 2034 409
Q 2525 409 2770 889
Q 3016 1369 3016 2328
Q 3016 3291 2770 3770
Q 2525 4250 2034 4250
z
M 2034 4750
Q 2819 4750 3233 4129
Q 3647 3509 3647 2328
Q 3647 1150 3233 529
Q 2819 -91 2034 -91
Q 1250 -91 836 529
Q 422 1150 422 2328
Q 422 3509 836 4129
Q 1250 4750 2034 4750
z
" transform="scale(0.015625)"/>
        <path id="DejaVuSans-11" d="M 684 794
L 1344 794
L 1344 0
L 684 0
L 684 794
z
" transform="scale(0.015625)"/>
       </defs>
       <use xlink:href="#DejaVuSans-13"/>
       <use xlink:href="#DejaVuSans-11" transform="translate(63.625 0)"/>
       <use xlink:href="#DejaVuSans-13" transform="translate(95.40625 0)"/>
      </g>
     </g>
    </g>
    <g id="xtick_2">
     <g id="line2d_3">
      <path d="M 189.262553 375.565812
L 189.262553 31.837812
" clip-path="url(#pd0264d2c07)" style="fill: none; stroke: #b0b0b0; stroke-opacity: 0.22; stroke-width: 0.8; stroke-linecap: square"/>
     </g>
     <g id="line2d_4">
      <g>
       <use xlink:href="#mc314ece0ef" x="189.262553" y="375.565812" style="stroke: #000000; stroke-width: 0.8"/>
      </g>
     </g>
     <g id="text_2">
      <!-- 0.5 -->
      <g transform="translate(181.31099 390.163469) scale(0.1 -0.1)">
       <defs>
        <path id="DejaVuSans-18" d="M 691 4666
L 3169 4666
L 3169 4134
L 1269 4134
L 1269 2991
Q 1406 3038 1543 3061
Q 1681 3084 1819 3084
Q 2600 3084 3056 2656
Q 3513 2228 3513 1497
Q 3513 744 3044 326
Q 2575 -91 1722 -91
Q 1428 -91 1123 -41
Q 819 9 494 109
L 494 744
Q 775 591 1075 516
Q 1375 441 1709 441
Q 2250 441 2565 725
Q 2881 1009 2881 1497
Q 2881 1984 2565 2268
Q 2250 2553 1709 2553
Q 1456 2553 1204 2497
Q 953 2441 691 2322
L 691 4666
z
" transform="scale(0.015625)"/>
       </defs>
       <use xlink:href="#DejaVuSans-13"/>
       <use xlink:href="#DejaVuSans-11" transform="translate(63.625 0)"/>
       <use xlink:href="#DejaVuSans-18" transform="translate(95.40625 0)"/>
      </g>
     </g>
    </g>
    <g id="xtick_3">
     <g id="line2d_5">
      <path d="M 275.470418 375.565812
L 275.470418 31.837812
" clip-path="url(#pd0264d2c07)" style="fill: none; stroke: #b0b0b0; stroke-opacity: 0.22; stroke-width: 0.8; stroke-linecap: square"/>
     </g>
     <g id="line2d_6">
      <g>
       <use xlink:href="#mc314ece0ef" x="275.470418" y="375.565812" style="stroke: #000000; stroke-width: 0.8"/>
      </g>
     </g>
     <g id="text_3">
      <!-- 1.0 -->
      <g transform="translate(267.518855 390.163469) scale(0.1 -0.1)">
       <defs>
        <path id="DejaVuSans-14" d="M 794 531
L 1825 531
L 1825 4091
L 703 3866
L 703 4441
L 1819 4666
L 2450 4666
L 2450 531
L 3481 531
L 3481 0
L 794 0
L 794 531
z
" transform="scale(0.015625)"/>
       </defs>
       <use xlink:href="#DejaVuSans-14"/>
       <use xlink:href="#DejaVuSans-11" transform="translate(63.625 0)"/>
       <use xlink:href="#DejaVuSans-13" transform="translate(95.40625 0)"/>
      </g>
     </g>
    </g>
    <g id="xtick_4">
     <g id="line2d_7">
      <path d="M 361.678283 375.565812
L 361.678283 31.837812
" clip-path="url(#pd0264d2c07)" style="fill: none; stroke: #b0b0b0; stroke-opacity: 0.22; stroke-width: 0.8; stroke-linecap: square"/>
     </g>
     <g id="line2d_8">
      <g>
       <use xlink:href="#mc314ece0ef" x="361.678283" y="375.565812" style="stroke: #000000; stroke-width: 0.8"/>
      </g>
     </g>
     <g id="text_4">
      <!-- 1.5 -->
      <g transform="translate(353.726721 390.163469) scale(0.1 -0.1)">
       <use xlink:href="#DejaVuSans-14"/>
       <use xlink:href="#DejaVuSans-11" transform="translate(63.625 0)"/>
       <use xlink:href="#DejaVuSans-18" transform="translate(95.40625 0)"/>
      </g>
     </g>
    </g>
    <g id="xtick_5">
     <g id="line2d_9">
      <path d="M 447.886148 375.565812
L 447.886148 31.837812
" clip-path="url(#pd0264d2c07)" style="fill: none; stroke: #b0b0b0; stroke-opacity: 0.22; stroke-width: 0.8; stroke-linecap: square"/>
     </g>
     <g id="line2d_10">
      <g>
       <use xlink:href="#mc314ece0ef" x="447.886148" y="375.565812" style="stroke: #000000; stroke-width: 0.8"/>
      </g>
     </g>
     <g id="text_5">
      <!-- 2.0 -->
      <g transform="translate(439.934586 390.163469) scale(0.1 -0.1)">
       <defs>
        <path id="DejaVuSans-15" d="M 1228 531
L 3431 531
L 3431 0
L 469 0
L 469 531
Q 828 903 1448 1529
Q 2069 2156 2228 2338
Q 2531 2678 2651 2914
Q 2772 3150 2772 3378
Q 2772 3750 2511 3984
Q 2250 4219 1831 4219
Q 1534 4219 1204 4116
Q 875 4013 500 3803
L 500 4441
Q 881 4594 1212 4672
Q 1544 4750 1819 4750
Q 2544 4750 2975 4387
Q 3406 4025 3406 3419
Q 3406 3131 3298 2873
Q 3191 2616 2906 2266
Q 2828 2175 2409 1742
Q 1991 1309 1228 531
z
" transform="scale(0.015625)"/>
       </defs>
       <use xlink:href="#DejaVuSans-15"/>
       <use xlink:href="#DejaVuSans-11" transform="translate(63.625 0)"/>
       <use xlink:href="#DejaVuSans-13" transform="translate(95.40625 0)"/>
      </g>
     </g>
    </g>
    <g id="xtick_6">
     <g id="line2d_11">
      <path d="M 534.094013 375.565812
L 534.094013 31.837812
" clip-path="url(#pd0264d2c07)" style="fill: none; stroke: #b0b0b0; stroke-opacity: 0.22; stroke-width: 0.8; stroke-linecap: square"/>
     </g>
     <g id="line2d_12">
      <g>
       <use xlink:href="#mc314ece0ef" x="534.094013" y="375.565812" style="stroke: #000000; stroke-width: 0.8"/>
      </g>
     </g>
     <g id="text_6">
      <!-- 2.5 -->
      <g transform="translate(526.142451 390.163469) scale(0.1 -0.1)">
       <use xlink:href="#DejaVuSans-15"/>
       <use xlink:href="#DejaVuSans-11" transform="translate(63.625 0)"/>
       <use xlink:href="#DejaVuSans-18" transform="translate(95.40625 0)"/>
      </g>
     </g>
    </g>
    <g id="xtick_7">
     <g id="line2d_13">
      <path d="M 620.301879 375.565812
L 620.301879 31.837812
" clip-path="url(#pd0264d2c07)" style="fill: none; stroke: #b0b0b0; stroke-opacity: 0.22; stroke-width: 0.8; stroke-linecap: square"/>
     </g>
     <g id="line2d_14">
      <g>
       <use xlink:href="#mc314ece0ef" x="620.301879" y="375.565812" style="stroke: #000000; stroke-width: 0.8"/>
      </g>
     </g>
     <g id="text_7">
      <!-- 3.0 -->
      <g transform="translate(612.350316 390.163469) scale(0.1 -0.1)">
       <defs>
        <path id="DejaVuSans-16" d="M 2597 2516
Q 3050 2419 3304 2112
Q 3559 1806 3559 1356
Q 3559 666 3084 287
Q 2609 -91 1734 -91
Q 1441 -91 1130 -33
Q 819 25 488 141
L 488 750
Q 750 597 1062 519
Q 1375 441 1716 441
Q 2309 441 2620 675
Q 2931 909 2931 1356
Q 2931 1769 2642 2001
Q 2353 2234 1838 2234
L 1294 2234
L 1294 2753
L 1863 2753
Q 2328 2753 2575 2939
Q 2822 3125 2822 3475
Q 2822 3834 2567 4026
Q 2313 4219 1838 4219
Q 1578 4219 1281 4162
Q 984 4106 628 3988
L 628 4550
Q 988 4650 1302 4700
Q 1616 4750 1894 4750
Q 2613 4750 3031 4423
Q 3450 4097 3450 3541
Q 3450 3153 3228 2886
Q 3006 2619 2597 2516
z
" transform="scale(0.015625)"/>
       </defs>
       <use xlink:href="#DejaVuSans-16"/>
       <use xlink:href="#DejaVuSans-11" transform="translate(63.625 0)"/>
       <use xlink:href="#DejaVuSans-13" transform="translate(95.40625 0)"/>
      </g>
     </g>
    </g>
    <g id="xtick_8">
     <g id="line2d_15">
      <path d="M 706.509744 375.565812
L 706.509744 31.837812
" clip-path="url(#pd0264d2c07)" style="fill: none; stroke: #b0b0b0; stroke-opacity: 0.22; stroke-width: 0.8; stroke-linecap: square"/>
     </g>
     <g id="line2d_16">
      <g>
       <use xlink:href="#mc314ece0ef" x="706.509744" y="375.565812" style="stroke: #000000; stroke-width: 0.8"/>
      </g>
     </g>
     <g id="text_8">
      <!-- 3.5 -->
      <g transform="translate(698.558181 390.163469) scale(0.1 -0.1)">
       <use xlink:href="#DejaVuSans-16"/>
       <use xlink:href="#DejaVuSans-11" transform="translate(63.625 0)"/>
       <use xlink:href="#DejaVuSans-18" transform="translate(95.40625 0)"/>
      </g>
     </g>
    </g>
    <g id="text_9">
     <!-- Evidence facts or model surfaces -->
     <g transform="translate(326.939063 404.16425) scale(0.1 -0.1)">
      <defs>
       <path id="DejaVuSans-28" d="M 628 4666
L 3578 4666
L 3578 4134
L 1259 4134
L 1259 2753
L 3481 2753
L 3481 2222
L 1259 2222
L 1259 531
L 3634 531
L 3634 0
L 628 0
L 628 4666
z
" transform="scale(0.015625)"/>
       <path id="DejaVuSans-59" d="M 191 3500
L 800 3500
L 1894 563
L 2988 3500
L 3597 3500
L 2284 0
L 1503 0
L 191 3500
z
" transform="scale(0.015625)"/>
       <path id="DejaVuSans-4c" d="M 603 3500
L 1178 3500
L 1178 0
L 603 0
L 603 3500
z
M 603 4863
L 1178 4863
L 1178 4134
L 603 4134
L 603 4863
z
" transform="scale(0.015625)"/>
       <path id="DejaVuSans-47" d="M 2906 2969
L 2906 4863
L 3481 4863
L 3481 0
L 2906 0
L 2906 525
Q 2725 213 2448 61
Q 2172 -91 1784 -91
Q 1150 -91 751 415
Q 353 922 353 1747
Q 353 2572 751 3078
Q 1150 3584 1784 3584
Q 2172 3584 2448 3432
Q 2725 3281 2906 2969
z
M 947 1747
Q 947 1113 1208 752
Q 1469 391 1925 391
Q 2381 391 2643 752
Q 2906 1113 2906 1747
Q 2906 2381 2643 2742
Q 2381 3103 1925 3103
Q 1469 3103 1208 2742
Q 947 2381 947 1747
z
" transform="scale(0.015625)"/>
       <path id="DejaVuSans-48" d="M 3597 1894
L 3597 1613
L 953 1613
Q 991 1019 1311 708
Q 1631 397 2203 397
Q 2534 397 2845 478
Q 3156 559 3463 722
L 3463 178
Q 3153 47 2828 -22
Q 2503 -91 2169 -91
Q 1331 -91 842 396
Q 353 884 353 1716
Q 353 2575 817 3079
Q 1281 3584 2069 3584
Q 2775 3584 3186 3129
Q 3597 2675 3597 1894
z
M 3022 2063
Q 3016 2534 2758 2815
Q 2500 3097 2075 3097
Q 1594 3097 1305 2825
Q 1016 2553 972 2059
L 3022 2063
z
" transform="scale(0.015625)"/>
       <path id="DejaVuSans-51" d="M 3513 2113
L 3513 0
L 2938 0
L 2938 2094
Q 2938 2591 2744 2837
Q 2550 3084 2163 3084
Q 1697 3084 1428 2787
Q 1159 2491 1159 1978
L 1159 0
L 581 0
L 581 3500
L 1159 3500
L 1159 2956
Q 1366 3272 1645 3428
Q 1925 3584 2291 3584
Q 2894 3584 3203 3211
Q 3513 2838 3513 2113
z
" transform="scale(0.015625)"/>
       <path id="DejaVuSans-46" d="M 3122 3366
L 3122 2828
Q 2878 2963 2633 3030
Q 2388 3097 2138 3097
Q 1578 3097 1268 2742
Q 959 2388 959 1747
Q 959 1106 1268 751
Q 1578 397 2138 397
Q 2388 397 2633 464
Q 2878 531 3122 666
L 3122 134
Q 2881 22 2623 -34
Q 2366 -91 2075 -91
Q 1284 -91 818 406
Q 353 903 353 1747
Q 353 2603 823 3093
Q 1294 3584 2113 3584
Q 2378 3584 2631 3529
Q 2884 3475 3122 3366
z
" transform="scale(0.015625)"/>
       <path id="DejaVuSans-3" transform="scale(0.015625)"/>
       <path id="DejaVuSans-49" d="M 2375 4863
L 2375 4384
L 1825 4384
Q 1516 4384 1395 4259
Q 1275 4134 1275 3809
L 1275 3500
L 2222 3500
L 2222 3053
L 1275 3053
L 1275 0
L 697 0
L 697 3053
L 147 3053
L 147 3500
L 697 3500
L 697 3744
Q 697 4328 969 4595
Q 1241 4863 1831 4863
L 2375 4863
z
" transform="scale(0.015625)"/>
       <path id="DejaVuSans-44" d="M 2194 1759
Q 1497 1759 1228 1600
Q 959 1441 959 1056
Q 959 750 1161 570
Q 1363 391 1709 391
Q 2188 391 2477 730
Q 2766 1069 2766 1631
L 2766 1759
L 2194 1759
z
M 3341 1997
L 3341 0
L 2766 0
L 2766 531
Q 2569 213 2275 61
Q 1981 -91 1556 -91
Q 1019 -91 701 211
Q 384 513 384 1019
Q 384 1609 779 1909
Q 1175 2209 1959 2209
L 2766 2209
L 2766 2266
Q 2766 2663 2505 2880
Q 2244 3097 1772 3097
Q 1472 3097 1187 3025
Q 903 2953 641 2809
L 641 3341
Q 956 3463 1253 3523
Q 1550 3584 1831 3584
Q 2591 3584 2966 3190
Q 3341 2797 3341 1997
z
" transform="scale(0.015625)"/>
       <path id="DejaVuSans-57" d="M 1172 4494
L 1172 3500
L 2356 3500
L 2356 3053
L 1172 3053
L 1172 1153
Q 1172 725 1289 603
Q 1406 481 1766 481
L 2356 481
L 2356 0
L 1766 0
Q 1100 0 847 248
Q 594 497 594 1153
L 594 3053
L 172 3053
L 172 3500
L 594 3500
L 594 4494
L 1172 4494
z
" transform="scale(0.015625)"/>
       <path id="DejaVuSans-56" d="M 2834 3397
L 2834 2853
Q 2591 2978 2328 3040
Q 2066 3103 1784 3103
Q 1356 3103 1142 2972
Q 928 2841 928 2578
Q 928 2378 1081 2264
Q 1234 2150 1697 2047
L 1894 2003
Q 2506 1872 2764 1633
Q 3022 1394 3022 966
Q 3022 478 2636 193
Q 2250 -91 1575 -91
Q 1294 -91 989 -36
Q 684 19 347 128
L 347 722
Q 666 556 975 473
Q 1284 391 1588 391
Q 1994 391 2212 530
Q 2431 669 2431 922
Q 2431 1156 2273 1281
Q 2116 1406 1581 1522
L 1381 1569
Q 847 1681 609 1914
Q 372 2147 372 2553
Q 372 3047 722 3315
Q 1072 3584 1716 3584
Q 2034 3584 2315 3537
Q 2597 3491 2834 3397
z
" transform="scale(0.015625)"/>
       <path id="DejaVuSans-52" d="M 1959 3097
Q 1497 3097 1228 2736
Q 959 2375 959 1747
Q 959 1119 1226 758
Q 1494 397 1959 397
Q 2419 397 2687 759
Q 2956 1122 2956 1747
Q 2956 2369 2687 2733
Q 2419 3097 1959 3097
z
M 1959 3584
Q 2709 3584 3137 3096
Q 3566 2609 3566 1747
Q 3566 888 3137 398
Q 2709 -91 1959 -91
Q 1206 -91 779 398
Q 353 888 353 1747
Q 353 2609 779 3096
Q 1206 3584 1959 3584
z
" transform="scale(0.015625)"/>
       <path id="DejaVuSans-55" d="M 2631 2963
Q 2534 3019 2420 3045
Q 2306 3072 2169 3072
Q 1681 3072 1420 2755
Q 1159 2438 1159 1844
L 1159 0
L 581 0
L 581 3500
L 1159 3500
L 1159 2956
Q 1341 3275 1631 3429
Q 1922 3584 2338 3584
Q 2397 3584 2469 3576
Q 2541 3569 2628 3553
L 2631 2963
z
" transform="scale(0.015625)"/>
       <path id="DejaVuSans-50" d="M 3328 2828
Q 3544 3216 3844 3400
Q 4144 3584 4550 3584
Q 5097 3584 5394 3201
Q 5691 2819 5691 2113
L 5691 0
L 5113 0
L 5113 2094
Q 5113 2597 4934 2840
Q 4756 3084 4391 3084
Q 3944 3084 3684 2787
Q 3425 2491 3425 1978
L 3425 0
L 2847 0
L 2847 2094
Q 2847 2600 2669 2842
Q 2491 3084 2119 3084
Q 1678 3084 1418 2786
Q 1159 2488 1159 1978
L 1159 0
L 581 0
L 581 3500
L 1159 3500
L 1159 2956
Q 1356 3278 1631 3431
Q 1906 3584 2284 3584
Q 2666 3584 2933 3390
Q 3200 3197 3328 2828
z
" transform="scale(0.015625)"/>
       <path id="DejaVuSans-4f" d="M 603 4863
L 1178 4863
L 1178 0
L 603 0
L 603 4863
z
" transform="scale(0.015625)"/>
       <path id="DejaVuSans-58" d="M 544 1381
L 544 3500
L 1119 3500
L 1119 1403
Q 1119 906 1312 657
Q 1506 409 1894 409
Q 2359 409 2629 706
Q 2900 1003 2900 1516
L 2900 3500
L 3475 3500
L 3475 0
L 2900 0
L 2900 538
Q 2691 219 2414 64
Q 2138 -91 1772 -91
Q 1169 -91 856 284
Q 544 659 544 1381
z
M 1991 3584
L 1991 3584
z
" transform="scale(0.015625)"/>
      </defs>
      <use xlink:href="#DejaVuSans-28"/>
      <use xlink:href="#DejaVuSans-59" transform="translate(63.1875 0)"/>
      <use xlink:href="#DejaVuSans-4c" transform="translate(122.375 0)"/>
      <use xlink:href="#DejaVuSans-47" transform="translate(150.15625 0)"/>
      <use xlink:href="#DejaVuSans-48" transform="translate(213.640625 0)"/>
      <use xlink:href="#DejaVuSans-51" transform="translate(275.171875 0)"/>
      <use xlink:href="#DejaVuSans-46" transform="translate(338.546875 0)"/>
      <use xlink:href="#DejaVuSans-48" transform="translate(393.53125 0)"/>
      <use xlink:href="#DejaVuSans-3" transform="translate(455.0625 0)"/>
      <use xlink:href="#DejaVuSans-49" transform="translate(486.84375 0)"/>
      <use xlink:href="#DejaVuSans-44" transform="translate(522.046875 0)"/>
      <use xlink:href="#DejaVuSans-46" transform="translate(583.328125 0)"/>
      <use xlink:href="#DejaVuSans-57" transform="translate(638.3125 0)"/>
      <use xlink:href="#DejaVuSans-56" transform="translate(677.515625 0)"/>
      <use xlink:href="#DejaVuSans-3" transform="translate(729.609375 0)"/>
      <use xlink:href="#DejaVuSans-52" transform="translate(761.390625 0)"/>
      <use xlink:href="#DejaVuSans-55" transform="translate(822.578125 0)"/>
      <use xlink:href="#DejaVuSans-3" transform="translate(863.6875 0)"/>
      <use xlink:href="#DejaVuSans-50" transform="translate(895.46875 0)"/>
      <use xlink:href="#DejaVuSans-52" transform="translate(992.875 0)"/>
      <use xlink:href="#DejaVuSans-47" transform="translate(1054.0625 0)"/>
      <use xlink:href="#DejaVuSans-48" transform="translate(1117.546875 0)"/>
      <use xlink:href="#DejaVuSans-4f" transform="translate(1179.078125 0)"/>
      <use xlink:href="#DejaVuSans-3" transform="translate(1206.859375 0)"/>
      <use xlink:href="#DejaVuSans-56" transform="translate(1238.640625 0)"/>
      <use xlink:href="#DejaVuSans-58" transform="translate(1290.734375 0)"/>
      <use xlink:href="#DejaVuSans-55" transform="translate(1354.109375 0)"/>
      <use xlink:href="#DejaVuSans-49" transform="translate(1395.21875 0)"/>
      <use xlink:href="#DejaVuSans-44" transform="translate(1430.421875 0)"/>
      <use xlink:href="#DejaVuSans-46" transform="translate(1491.703125 0)"/>
      <use xlink:href="#DejaVuSans-48" transform="translate(1546.6875 0)"/>
      <use xlink:href="#DejaVuSans-56" transform="translate(1608.21875 0)"/>
     </g>
    </g>
   </g>
   <g id="matplotlib.axis_2">
    <g id="ytick_1">
     <g id="line2d_17">
      <defs>
       <path id="m60b724e8b3" d="M 0 0
L -3.5 0
" style="stroke: #000000; stroke-width: 0.8"/>
      </defs>
      <g>
       <use xlink:href="#m60b724e8b3" x="103.054688" y="65.842989" style="stroke: #000000; stroke-width: 0.8"/>
      </g>
     </g>
     <g id="text_10">
      <!-- validation -->
      <g transform="translate(46.820313 69.642208) scale(0.1 -0.1)">
       <use xlink:href="#DejaVuSans-59"/>
       <use xlink:href="#DejaVuSans-44" transform="translate(59.1875 0)"/>
       <use xlink:href="#DejaVuSans-4f" transform="translate(120.46875 0)"/>
       <use xlink:href="#DejaVuSans-4c" transform="translate(148.25 0)"/>
       <use xlink:href="#DejaVuSans-47" transform="translate(176.03125 0)"/>
       <use xlink:href="#DejaVuSans-44" transform="translate(239.515625 0)"/>
       <use xlink:href="#DejaVuSans-57" transform="translate(300.796875 0)"/>
       <use xlink:href="#DejaVuSans-4c" transform="translate(340 0)"/>
       <use xlink:href="#DejaVuSans-52" transform="translate(367.78125 0)"/>
       <use xlink:href="#DejaVuSans-51" transform="translate(428.96875 0)"/>
      </g>
     </g>
    </g>
    <g id="ytick_2">
     <g id="line2d_18">
      <g>
       <use xlink:href="#m60b724e8b3" x="103.054688" y="111.79593" style="stroke: #000000; stroke-width: 0.8"/>
      </g>
     </g>
     <g id="text_11">
      <!-- source_code -->
      <g transform="translate(33.728125 115.595149) scale(0.1 -0.1)">
       <defs>
        <path id="DejaVuSans-42" d="M 3263 -1063
L 3263 -1509
L -63 -1509
L -63 -1063
L 3263 -1063
z
" transform="scale(0.015625)"/>
       </defs>
       <use xlink:href="#DejaVuSans-56"/>
       <use xlink:href="#DejaVuSans-52" transform="translate(52.09375 0)"/>
       <use xlink:href="#DejaVuSans-58" transform="translate(113.28125 0)"/>
       <use xlink:href="#DejaVuSans-55" transform="translate(176.65625 0)"/>
       <use xlink:href="#DejaVuSans-46" transform="translate(215.5625 0)"/>
       <use xlink:href="#DejaVuSans-48" transform="translate(270.546875 0)"/>
       <use xlink:href="#DejaVuSans-42" transform="translate(332.078125 0)"/>
       <use xlink:href="#DejaVuSans-46" transform="translate(382.078125 0)"/>
       <use xlink:href="#DejaVuSans-52" transform="translate(437.0625 0)"/>
       <use xlink:href="#DejaVuSans-47" transform="translate(498.25 0)"/>
       <use xlink:href="#DejaVuSans-48" transform="translate(561.734375 0)"/>
      </g>
     </g>
    </g>
    <g id="ytick_3">
     <g id="line2d_19">
      <g>
       <use xlink:href="#m60b724e8b3" x="103.054688" y="157.748871" style="stroke: #000000; stroke-width: 0.8"/>
      </g>
     </g>
     <g id="text_12">
      <!-- config -->
      <g transform="translate(65.453125 161.54809) scale(0.1 -0.1)">
       <defs>
        <path id="DejaVuSans-13af" d="M 3431 3500
L 3431 0
L 2853 0
L 2853 3053
L 1275 3053
L 1275 0
L 697 0
L 697 3053
L 147 3053
L 147 3500
L 697 3500
L 697 3744
Q 697 4316 967 4589
Q 1238 4863 1797 4863
L 2375 4863
L 2375 4384
L 1825 4384
Q 1516 4384 1395 4259
Q 1275 4134 1275 3809
L 1275 3500
L 3431 3500
z
M 2853 4856
L 3431 4856
L 3431 4128
L 2853 4128
L 2853 4856
z
" transform="scale(0.015625)"/>
        <path id="DejaVuSans-4a" d="M 2906 1791
Q 2906 2416 2648 2759
Q 2391 3103 1925 3103
Q 1463 3103 1205 2759
Q 947 2416 947 1791
Q 947 1169 1205 825
Q 1463 481 1925 481
Q 2391 481 2648 825
Q 2906 1169 2906 1791
z
M 3481 434
Q 3481 -459 3084 -895
Q 2688 -1331 1869 -1331
Q 1566 -1331 1297 -1286
Q 1028 -1241 775 -1147
L 775 -588
Q 1028 -725 1275 -790
Q 1522 -856 1778 -856
Q 2344 -856 2625 -561
Q 2906 -266 2906 331
L 2906 616
Q 2728 306 2450 153
Q 2172 0 1784 0
Q 1141 0 747 490
Q 353 981 353 1791
Q 353 2603 747 3093
Q 1141 3584 1784 3584
Q 2172 3584 2450 3431
Q 2728 3278 2906 2969
L 2906 3500
L 3481 3500
L 3481 434
z
" transform="scale(0.015625)"/>
       </defs>
       <use xlink:href="#DejaVuSans-46"/>
       <use xlink:href="#DejaVuSans-52" transform="translate(54.984375 0)"/>
       <use xlink:href="#DejaVuSans-51" transform="translate(116.171875 0)"/>
       <use xlink:href="#DejaVuSans-13af" transform="translate(179.546875 0)"/>
       <use xlink:href="#DejaVuSans-4a" transform="translate(242.53125 0)"/>
      </g>
     </g>
    </g>
    <g id="ytick_4">
     <g id="line2d_20">
      <g>
       <use xlink:href="#m60b724e8b3" x="103.054688" y="203.701812" style="stroke: #000000; stroke-width: 0.8"/>
      </g>
     </g>
     <g id="text_13">
      <!-- claim_ledger -->
      <g transform="translate(32.239063 207.501031) scale(0.1 -0.1)">
       <use xlink:href="#DejaVuSans-46"/>
       <use xlink:href="#DejaVuSans-4f" transform="translate(54.984375 0)"/>
       <use xlink:href="#DejaVuSans-44" transform="translate(82.765625 0)"/>
       <use xlink:href="#DejaVuSans-4c" transform="translate(144.046875 0)"/>
       <use xlink:href="#DejaVuSans-50" transform="translate(171.828125 0)"/>
       <use xlink:href="#DejaVuSans-42" transform="translate(269.234375 0)"/>
       <use xlink:href="#DejaVuSans-4f" transform="translate(319.234375 0)"/>
       <use xlink:href="#DejaVuSans-48" transform="translate(347.015625 0)"/>
       <use xlink:href="#DejaVuSans-47" transform="translate(408.546875 0)"/>
       <use xlink:href="#DejaVuSans-4a" transform="translate(472.03125 0)"/>
       <use xlink:href="#DejaVuSans-48" transform="translate(535.515625 0)"/>
       <use xlink:href="#DejaVuSans-55" transform="translate(597.046875 0)"/>
      </g>
     </g>
    </g>
    <g id="ytick_5">
     <g id="line2d_21">
      <g>
       <use xlink:href="#m60b724e8b3" x="103.054688" y="249.654754" style="stroke: #000000; stroke-width: 0.8"/>
      </g>
     </g>
     <g id="text_14">
      <!-- generated_metric -->
      <g transform="translate(7.2 253.453972) scale(0.1 -0.1)">
       <use xlink:href="#DejaVuSans-4a"/>
       <use xlink:href="#DejaVuSans-48" transform="translate(63.484375 0)"/>
       <use xlink:href="#DejaVuSans-51" transform="translate(125.015625 0)"/>
       <use xlink:href="#DejaVuSans-48" transform="translate(188.390625 0)"/>
       <use xlink:href="#DejaVuSans-55" transform="translate(249.921875 0)"/>
       <use xlink:href="#DejaVuSans-44" transform="translate(291.03125 0)"/>
       <use xlink:href="#DejaVuSans-57" transform="translate(352.3125 0)"/>
       <use xlink:href="#DejaVuSans-48" transform="translate(391.515625 0)"/>
       <use xlink:href="#DejaVuSans-47" transform="translate(453.046875 0)"/>
       <use xlink:href="#DejaVuSans-42" transform="translate(516.53125 0)"/>
       <use xlink:href="#DejaVuSans-50" transform="translate(566.53125 0)"/>
       <use xlink:href="#DejaVuSans-48" transform="translate(663.9375 0)"/>
       <use xlink:href="#DejaVuSans-57" transform="translate(725.46875 0)"/>
       <use xlink:href="#DejaVuSans-55" transform="translate(764.671875 0)"/>
       <use xlink:href="#DejaVuSans-4c" transform="translate(805.78125 0)"/>
       <use xlink:href="#DejaVuSans-46" transform="translate(833.5625 0)"/>
      </g>
     </g>
    </g>
    <g id="ytick_6">
     <g id="line2d_22">
      <g>
       <use xlink:href="#m60b724e8b3" x="103.054688" y="295.607695" style="stroke: #000000; stroke-width: 0.8"/>
      </g>
     </g>
     <g id="text_15">
      <!-- artifact -->
      <g transform="translate(60.05 299.406914) scale(0.1 -0.1)">
       <use xlink:href="#DejaVuSans-44"/>
       <use xlink:href="#DejaVuSans-55" transform="translate(61.28125 0)"/>
       <use xlink:href="#DejaVuSans-57" transform="translate(102.390625 0)"/>
       <use xlink:href="#DejaVuSans-4c" transform="translate(141.59375 0)"/>
       <use xlink:href="#DejaVuSans-49" transform="translate(169.375 0)"/>
       <use xlink:href="#DejaVuSans-44" transform="translate(204.578125 0)"/>
       <use xlink:href="#DejaVuSans-46" transform="translate(265.859375 0)"/>
       <use xlink:href="#DejaVuSans-57" transform="translate(320.84375 0)"/>
      </g>
     </g>
    </g>
    <g id="ytick_7">
     <g id="line2d_23">
      <g>
       <use xlink:href="#m60b724e8b3" x="103.054688" y="341.560636" style="stroke: #000000; stroke-width: 0.8"/>
      </g>
     </g>
     <g id="text_16">
      <!-- bibliography -->
      <g transform="translate(33.7125 345.359855) scale(0.1 -0.1)">
       <defs>
        <path id="DejaVuSans-45" d="M 3116 1747
Q 3116 2381 2855 2742
Q 2594 3103 2138 3103
Q 1681 3103 1420 2742
Q 1159 2381 1159 1747
Q 1159 1113 1420 752
Q 1681 391 2138 391
Q 2594 391 2855 752
Q 3116 1113 3116 1747
z
M 1159 2969
Q 1341 3281 1617 3432
Q 1894 3584 2278 3584
Q 2916 3584 3314 3078
Q 3713 2572 3713 1747
Q 3713 922 3314 415
Q 2916 -91 2278 -91
Q 1894 -91 1617 61
Q 1341 213 1159 525
L 1159 0
L 581 0
L 581 4863
L 1159 4863
L 1159 2969
z
" transform="scale(0.015625)"/>
        <path id="DejaVuSans-53" d="M 1159 525
L 1159 -1331
L 581 -1331
L 581 3500
L 1159 3500
L 1159 2969
Q 1341 3281 1617 3432
Q 1894 3584 2278 3584
Q 2916 3584 3314 3078
Q 3713 2572 3713 1747
Q 3713 922 3314 415
Q 2916 -91 2278 -91
Q 1894 -91 1617 61
Q 1341 213 1159 525
z
M 3116 1747
Q 3116 2381 2855 2742
Q 2594 3103 2138 3103
Q 1681 3103 1420 2742
Q 1159 2381 1159 1747
Q 1159 1113 1420 752
Q 1681 391 2138 391
Q 2594 391 2855 752
Q 3116 1113 3116 1747
z
" transform="scale(0.015625)"/>
        <path id="DejaVuSans-4b" d="M 3513 2113
L 3513 0
L 2938 0
L 2938 2094
Q 2938 2591 2744 2837
Q 2550 3084 2163 3084
Q 1697 3084 1428 2787
Q 1159 2491 1159 1978
L 1159 0
L 581 0
L 581 4863
L 1159 4863
L 1159 2956
Q 1366 3272 1645 3428
Q 1925 3584 2291 3584
Q 2894 3584 3203 3211
Q 3513 2838 3513 2113
z
" transform="scale(0.015625)"/>
        <path id="DejaVuSans-5c" d="M 2059 -325
Q 1816 -950 1584 -1140
Q 1353 -1331 966 -1331
L 506 -1331
L 506 -850
L 844 -850
Q 1081 -850 1212 -737
Q 1344 -625 1503 -206
L 1606 56
L 191 3500
L 800 3500
L 1894 763
L 2988 3500
L 3597 3500
L 2059 -325
z
" transform="scale(0.015625)"/>
       </defs>
       <use xlink:href="#DejaVuSans-45"/>
       <use xlink:href="#DejaVuSans-4c" transform="translate(63.484375 0)"/>
       <use xlink:href="#DejaVuSans-45" transform="translate(91.265625 0)"/>
       <use xlink:href="#DejaVuSans-4f" transform="translate(154.75 0)"/>
       <use xlink:href="#DejaVuSans-4c" transform="translate(182.53125 0)"/>
       <use xlink:href="#DejaVuSans-52" transform="translate(210.3125 0)"/>
       <use xlink:href="#DejaVuSans-4a" transform="translate(271.5 0)"/>
       <use xlink:href="#DejaVuSans-55" transform="translate(334.984375 0)"/>
       <use xlink:href="#DejaVuSans-44" transform="translate(376.09375 0)"/>
       <use xlink:href="#DejaVuSans-53" transform="translate(437.375 0)"/>
       <use xlink:href="#DejaVuSans-4b" transform="translate(500.859375 0)"/>
       <use xlink:href="#DejaVuSans-5c" transform="translate(564.234375 0)"/>
      </g>
     </g>
    </g>
   </g>
   <g id="patch_3">
    <path d="M 103.054688 47.461812
L 275.470418 47.461812
L 275.470418 84.224165
L 103.054688 84.224165
z
" clip-path="url(#pd0264d2c07)" style="fill: #e76f51; opacity: 0.86"/>
   </g>
   <g id="patch_4">
    <path d="M 103.054688 93.414754
L 447.886148 93.414754
L 447.886148 130.177107
L 103.054688 130.177107
z
" clip-path="url(#pd0264d2c07)" style="fill: #264653; opacity: 0.86"/>
   </g>
   <g id="patch_5">
    <path d="M 103.054688 139.367695
L 275.470418 139.367695
L 275.470418 176.130048
L 103.054688 176.130048
z
" clip-path="url(#pd0264d2c07)" style="fill: #577590; opacity: 0.86"/>
   </g>
   <g id="patch_6">
    <path d="M 103.054688 185.320636
L 275.470418 185.320636
L 275.470418 222.082989
L 103.054688 222.082989
z
" clip-path="url(#pd0264d2c07)" style="fill: #f4a261; opacity: 0.86"/>
   </g>
   <g id="patch_7">
    <path d="M 103.054688 231.273577
L 275.470418 231.273577
L 275.470418 268.03593
L 103.054688 268.03593
z
" clip-path="url(#pd0264d2c07)" style="fill: #3a0ca3; opacity: 0.86"/>
   </g>
   <g id="patch_8">
    <path d="M 103.054688 277.226518
L 447.886148 277.226518
L 447.886148 313.988871
L 103.054688 313.988871
z
" clip-path="url(#pd0264d2c07)" style="fill: #2a9d8f; opacity: 0.86"/>
   </g>
   <g id="patch_9">
    <path d="M 103.054688 323.17946
L 275.470418 323.17946
L 275.470418 359.941813
L 103.054688 359.941813
z
" clip-path="url(#pd0264d2c07)" style="fill: #90be6d; opacity: 0.86"/>
   </g>
   <g id="patch_10">
    <path d="M 103.054688 375.565812
L 103.054688 31.837812
" style="fill: none; stroke: #000000; stroke-width: 0.8; stroke-linejoin: miter; stroke-linecap: square"/>
   </g>
   <g id="patch_11">
    <path d="M 103.054688 375.565812
L 716.854688 375.565812
" style="fill: none; stroke: #000000; stroke-width: 0.8; stroke-linejoin: miter; stroke-linecap: square"/>
   </g>
   <g id="text_17">
    <!-- 1 (11%) | Template gates and test results -->
    <g transform="translate(282.367047 67.938926) scale(0.08 -0.08)">
     <defs>
      <path id="DejaVuSans-b" d="M 1984 4856
Q 1566 4138 1362 3434
Q 1159 2731 1159 2009
Q 1159 1288 1364 580
Q 1569 -128 1984 -844
L 1484 -844
Q 1016 -109 783 600
Q 550 1309 550 2009
Q 550 2706 781 3412
Q 1013 4119 1484 4856
L 1984 4856
z
" transform="scale(0.015625)"/>
      <path id="DejaVuSans-8" d="M 4653 2053
Q 4381 2053 4226 1822
Q 4072 1591 4072 1178
Q 4072 772 4226 539
Q 4381 306 4653 306
Q 4919 306 5073 539
Q 5228 772 5228 1178
Q 5228 1588 5073 1820
Q 4919 2053 4653 2053
z
M 4653 2450
Q 5147 2450 5437 2106
Q 5728 1763 5728 1178
Q 5728 594 5436 251
Q 5144 -91 4653 -91
Q 4153 -91 3862 251
Q 3572 594 3572 1178
Q 3572 1766 3864 2108
Q 4156 2450 4653 2450
z
M 1428 4353
Q 1159 4353 1004 4120
Q 850 3888 850 3481
Q 850 3069 1003 2837
Q 1156 2606 1428 2606
Q 1700 2606 1854 2837
Q 2009 3069 2009 3481
Q 2009 3884 1853 4118
Q 1697 4353 1428 4353
z
M 4250 4750
L 4750 4750
L 1831 -91
L 1331 -91
L 4250 4750
z
M 1428 4750
Q 1922 4750 2215 4408
Q 2509 4066 2509 3481
Q 2509 2891 2217 2550
Q 1925 2209 1428 2209
Q 931 2209 642 2551
Q 353 2894 353 3481
Q 353 4063 643 4406
Q 934 4750 1428 4750
z
" transform="scale(0.015625)"/>
      <path id="DejaVuSans-c" d="M 513 4856
L 1013 4856
Q 1481 4119 1714 3412
Q 1947 2706 1947 2009
Q 1947 1309 1714 600
Q 1481 -109 1013 -844
L 513 -844
Q 928 -128 1133 580
Q 1338 1288 1338 2009
Q 1338 2731 1133 3434
Q 928 4138 513 4856
z
" transform="scale(0.015625)"/>
      <path id="DejaVuSans-5f" d="M 1344 4891
L 1344 -1509
L 813 -1509
L 813 4891
L 1344 4891
z
" transform="scale(0.015625)"/>
      <path id="DejaVuSans-37" d="M -19 4666
L 3928 4666
L 3928 4134
L 2272 4134
L 2272 0
L 1638 0
L 1638 4134
L -19 4134
L -19 4666
z
" transform="scale(0.015625)"/>
     </defs>
     <use xlink:href="#DejaVuSans-14"/>
     <use xlink:href="#DejaVuSans-3" transform="translate(63.625 0)"/>
     <use xlink:href="#DejaVuSans-b" transform="translate(95.40625 0)"/>
     <use xlink:href="#DejaVuSans-14" transform="translate(134.421875 0)"/>
     <use xlink:href="#DejaVuSans-14" transform="translate(198.046875 0)"/>
     <use xlink:href="#DejaVuSans-8" transform="translate(261.671875 0)"/>
     <use xlink:href="#DejaVuSans-c" transform="translate(356.6875 0)"/>
     <use xlink:href="#DejaVuSans-3" transform="translate(395.703125 0)"/>
     <use xlink:href="#DejaVuSans-5f" transform="translate(427.484375 0)"/>
     <use xlink:href="#DejaVuSans-3" transform="translate(461.171875 0)"/>
     <use xlink:href="#DejaVuSans-37" transform="translate(492.953125 0)"/>
     <use xlink:href="#DejaVuSans-48" transform="translate(537.046875 0)"/>
     <use xlink:href="#DejaVuSans-50" transform="translate(598.578125 0)"/>
     <use xlink:href="#DejaVuSans-53" transform="translate(695.984375 0)"/>
     <use xlink:href="#DejaVuSans-4f" transform="translate(759.46875 0)"/>
     <use xlink:href="#DejaVuSans-44" transform="translate(787.25 0)"/>
     <use xlink:href="#DejaVuSans-57" transform="translate(848.53125 0)"/>
     <use xlink:href="#DejaVuSans-48" transform="translate(887.734375 0)"/>
     <use xlink:href="#DejaVuSans-3" transform="translate(949.265625 0)"/>
     <use xlink:href="#DejaVuSans-4a" transform="translate(981.046875 0)"/>
     <use xlink:href="#DejaVuSans-44" transform="translate(1044.53125 0)"/>
     <use xlink:href="#DejaVuSans-57" transform="translate(1105.8125 0)"/>
     <use xlink:href="#DejaVuSans-48" transform="translate(1145.015625 0)"/>
     <use xlink:href="#DejaVuSans-56" transform="translate(1206.546875 0)"/>
     <use xlink:href="#DejaVuSans-3" transform="translate(1258.640625 0)"/>
     <use xlink:href="#DejaVuSans-44" transform="translate(1290.421875 0)"/>
     <use xlink:href="#DejaVuSans-51" transform="translate(1351.703125 0)"/>
     <use xlink:href="#DejaVuSans-47" transform="translate(1415.078125 0)"/>
     <use xlink:href="#DejaVuSans-3" transform="translate(1478.5625 0)"/>
     <use xlink:href="#DejaVuSans-57" transform="translate(1510.34375 0)"/>
     <use xlink:href="#DejaVuSans-48" transform="translate(1549.546875 0)"/>
     <use xlink:href="#DejaVuSans-56" transform="translate(1611.078125 0)"/>
     <use xlink:href="#DejaVuSans-57" transform="translate(1663.171875 0)"/>
     <use xlink:href="#DejaVuSans-3" transform="translate(1702.375 0)"/>
     <use xlink:href="#DejaVuSans-55" transform="translate(1734.15625 0)"/>
     <use xlink:href="#DejaVuSans-48" transform="translate(1773.0625 0)"/>
     <use xlink:href="#DejaVuSans-56" transform="translate(1834.59375 0)"/>
     <use xlink:href="#DejaVuSans-58" transform="translate(1886.6875 0)"/>
     <use xlink:href="#DejaVuSans-4f" transform="translate(1950.0625 0)"/>
     <use xlink:href="#DejaVuSans-57" transform="translate(1977.84375 0)"/>
     <use xlink:href="#DejaVuSans-56" transform="translate(2017.046875 0)"/>
    </g>
   </g>
   <g id="text_18">
    <!-- 2 (22%) | Executable source files and symbols -->
    <g transform="translate(454.782777 113.891868) scale(0.08 -0.08)">
     <defs>
      <path id="DejaVuSans-5b" d="M 3513 3500
L 2247 1797
L 3578 0
L 2900 0
L 1881 1375
L 863 0
L 184 0
L 1544 1831
L 300 3500
L 978 3500
L 1906 2253
L 2834 3500
L 3513 3500
z
" transform="scale(0.015625)"/>
     </defs>
     <use xlink:href="#DejaVuSans-15"/>
     <use xlink:href="#DejaVuSans-3" transform="translate(63.625 0)"/>
     <use xlink:href="#DejaVuSans-b" transform="translate(95.40625 0)"/>
     <use xlink:href="#DejaVuSans-15" transform="translate(134.421875 0)"/>
     <use xlink:href="#DejaVuSans-15" transform="translate(198.046875 0)"/>
     <use xlink:href="#DejaVuSans-8" transform="translate(261.671875 0)"/>
     <use xlink:href="#DejaVuSans-c" transform="translate(356.6875 0)"/>
     <use xlink:href="#DejaVuSans-3" transform="translate(395.703125 0)"/>
     <use xlink:href="#DejaVuSans-5f" transform="translate(427.484375 0)"/>
     <use xlink:href="#DejaVuSans-3" transform="translate(461.171875 0)"/>
     <use xlink:href="#DejaVuSans-28" transform="translate(492.953125 0)"/>
     <use xlink:href="#DejaVuSans-5b" transform="translate(556.140625 0)"/>
     <use xlink:href="#DejaVuSans-48" transform="translate(612.25 0)"/>
     <use xlink:href="#DejaVuSans-46" transform="translate(673.78125 0)"/>
     <use xlink:href="#DejaVuSans-58" transform="translate(728.765625 0)"/>
     <use xlink:href="#DejaVuSans-57" transform="translate(792.140625 0)"/>
     <use xlink:href="#DejaVuSans-44" transform="translate(831.34375 0)"/>
     <use xlink:href="#DejaVuSans-45" transform="translate(892.625 0)"/>
     <use xlink:href="#DejaVuSans-4f" transform="translate(956.109375 0)"/>
     <use xlink:href="#DejaVuSans-48" transform="translate(983.890625 0)"/>
     <use xlink:href="#DejaVuSans-3" transform="translate(1045.421875 0)"/>
     <use xlink:href="#DejaVuSans-56" transform="translate(1077.203125 0)"/>
     <use xlink:href="#DejaVuSans-52" transform="translate(1129.296875 0)"/>
     <use xlink:href="#DejaVuSans-58" transform="translate(1190.484375 0)"/>
     <use xlink:href="#DejaVuSans-55" transform="translate(1253.859375 0)"/>
     <use xlink:href="#DejaVuSans-46" transform="translate(1292.765625 0)"/>
     <use xlink:href="#DejaVuSans-48" transform="translate(1347.75 0)"/>
     <use xlink:href="#DejaVuSans-3" transform="translate(1409.28125 0)"/>
     <use xlink:href="#DejaVuSans-13af" transform="translate(1441.0625 0)"/>
     <use xlink:href="#DejaVuSans-4f" transform="translate(1504.046875 0)"/>
     <use xlink:href="#DejaVuSans-48" transform="translate(1531.828125 0)"/>
     <use xlink:href="#DejaVuSans-56" transform="translate(1593.359375 0)"/>
     <use xlink:href="#DejaVuSans-3" transform="translate(1645.453125 0)"/>
     <use xlink:href="#DejaVuSans-44" transform="translate(1677.234375 0)"/>
     <use xlink:href="#DejaVuSans-51" transform="translate(1738.515625 0)"/>
     <use xlink:href="#DejaVuSans-47" transform="translate(1801.890625 0)"/>
     <use xlink:href="#DejaVuSans-3" transform="translate(1865.375 0)"/>
     <use xlink:href="#DejaVuSans-56" transform="translate(1897.15625 0)"/>
     <use xlink:href="#DejaVuSans-5c" transform="translate(1949.25 0)"/>
     <use xlink:href="#DejaVuSans-50" transform="translate(2008.4375 0)"/>
     <use xlink:href="#DejaVuSans-45" transform="translate(2105.84375 0)"/>
     <use xlink:href="#DejaVuSans-52" transform="translate(2169.328125 0)"/>
     <use xlink:href="#DejaVuSans-4f" transform="translate(2230.515625 0)"/>
     <use xlink:href="#DejaVuSans-56" transform="translate(2258.296875 0)"/>
    </g>
   </g>
   <g id="text_19">
    <!-- 1 (11%) | Author-controlled project configuration -->
    <g transform="translate(282.367047 159.844809) scale(0.08 -0.08)">
     <defs>
      <path id="DejaVuSans-24" d="M 2188 4044
L 1331 1722
L 3047 1722
L 2188 4044
z
M 1831 4666
L 2547 4666
L 4325 0
L 3669 0
L 3244 1197
L 1141 1197
L 716 0
L 50 0
L 1831 4666
z
" transform="scale(0.015625)"/>
      <path id="DejaVuSans-10" d="M 313 2009
L 1997 2009
L 1997 1497
L 313 1497
L 313 2009
z
" transform="scale(0.015625)"/>
      <path id="DejaVuSans-4d" d="M 603 3500
L 1178 3500
L 1178 -63
Q 1178 -731 923 -1031
Q 669 -1331 103 -1331
L -116 -1331
L -116 -844
L 38 -844
Q 366 -844 484 -692
Q 603 -541 603 -63
L 603 3500
z
M 603 4863
L 1178 4863
L 1178 4134
L 603 4134
L 603 4863
z
" transform="scale(0.015625)"/>
     </defs>
     <use xlink:href="#DejaVuSans-14"/>
     <use xlink:href="#DejaVuSans-3" transform="translate(63.625 0)"/>
     <use xlink:href="#DejaVuSans-b" transform="translate(95.40625 0)"/>
     <use xlink:href="#DejaVuSans-14" transform="translate(134.421875 0)"/>
     <use xlink:href="#DejaVuSans-14" transform="translate(198.046875 0)"/>
     <use xlink:href="#DejaVuSans-8" transform="translate(261.671875 0)"/>
     <use xlink:href="#DejaVuSans-c" transform="translate(356.6875 0)"/>
     <use xlink:href="#DejaVuSans-3" transform="translate(395.703125 0)"/>
     <use xlink:href="#DejaVuSans-5f" transform="translate(427.484375 0)"/>
     <use xlink:href="#DejaVuSans-3" transform="translate(461.171875 0)"/>
     <use xlink:href="#DejaVuSans-24" transform="translate(492.953125 0)"/>
     <use xlink:href="#DejaVuSans-58" transform="translate(561.359375 0)"/>
     <use xlink:href="#DejaVuSans-57" transform="translate(624.734375 0)"/>
     <use xlink:href="#DejaVuSans-4b" transform="translate(663.9375 0)"/>
     <use xlink:href="#DejaVuSans-52" transform="translate(727.3125 0)"/>
     <use xlink:href="#DejaVuSans-55" transform="translate(788.5 0)"/>
     <use xlink:href="#DejaVuSans-10" transform="translate(823.21875 0)"/>
     <use xlink:href="#DejaVuSans-46" transform="translate(859.296875 0)"/>
     <use xlink:href="#DejaVuSans-52" transform="translate(914.28125 0)"/>
     <use xlink:href="#DejaVuSans-51" transform="translate(975.46875 0)"/>
     <use xlink:href="#DejaVuSans-57" transform="translate(1038.84375 0)"/>
     <use xlink:href="#DejaVuSans-55" transform="translate(1078.046875 0)"/>
     <use xlink:href="#DejaVuSans-52" transform="translate(1116.953125 0)"/>
     <use xlink:href="#DejaVuSans-4f" transform="translate(1178.140625 0)"/>
     <use xlink:href="#DejaVuSans-4f" transform="translate(1205.921875 0)"/>
     <use xlink:href="#DejaVuSans-48" transform="translate(1233.703125 0)"/>
     <use xlink:href="#DejaVuSans-47" transform="translate(1295.234375 0)"/>
     <use xlink:href="#DejaVuSans-3" transform="translate(1358.71875 0)"/>
     <use xlink:href="#DejaVuSans-53" transform="translate(1390.5 0)"/>
     <use xlink:href="#DejaVuSans-55" transform="translate(1453.984375 0)"/>
     <use xlink:href="#DejaVuSans-52" transform="translate(1492.890625 0)"/>
     <use xlink:href="#DejaVuSans-4d" transform="translate(1554.078125 0)"/>
     <use xlink:href="#DejaVuSans-48" transform="translate(1581.859375 0)"/>
     <use xlink:href="#DejaVuSans-46" transform="translate(1643.390625 0)"/>
     <use xlink:href="#DejaVuSans-57" transform="translate(1698.375 0)"/>
     <use xlink:href="#DejaVuSans-3" transform="translate(1737.578125 0)"/>
     <use xlink:href="#DejaVuSans-46" transform="translate(1769.359375 0)"/>
     <use xlink:href="#DejaVuSans-52" transform="translate(1824.34375 0)"/>
     <use xlink:href="#DejaVuSans-51" transform="translate(1885.53125 0)"/>
     <use xlink:href="#DejaVuSans-13af" transform="translate(1948.90625 0)"/>
     <use xlink:href="#DejaVuSans-4a" transform="translate(2011.890625 0)"/>
     <use xlink:href="#DejaVuSans-58" transform="translate(2075.375 0)"/>
     <use xlink:href="#DejaVuSans-55" transform="translate(2138.75 0)"/>
     <use xlink:href="#DejaVuSans-44" transform="translate(2179.859375 0)"/>
     <use xlink:href="#DejaVuSans-57" transform="translate(2241.140625 0)"/>
     <use xlink:href="#DejaVuSans-4c" transform="translate(2280.34375 0)"/>
     <use xlink:href="#DejaVuSans-52" transform="translate(2308.125 0)"/>
     <use xlink:href="#DejaVuSans-51" transform="translate(2369.3125 0)"/>
    </g>
   </g>
   <g id="text_20">
    <!-- 1 (11%) | Source-owned claim and fact declarations -->
    <g transform="translate(282.367047 205.79775) scale(0.08 -0.08)">
     <defs>
      <path id="DejaVuSans-36" d="M 3425 4513
L 3425 3897
Q 3066 4069 2747 4153
Q 2428 4238 2131 4238
Q 1616 4238 1336 4038
Q 1056 3838 1056 3469
Q 1056 3159 1242 3001
Q 1428 2844 1947 2747
L 2328 2669
Q 3034 2534 3370 2195
Q 3706 1856 3706 1288
Q 3706 609 3251 259
Q 2797 -91 1919 -91
Q 1588 -91 1214 -16
Q 841 59 441 206
L 441 856
Q 825 641 1194 531
Q 1563 422 1919 422
Q 2459 422 2753 634
Q 3047 847 3047 1241
Q 3047 1584 2836 1778
Q 2625 1972 2144 2069
L 1759 2144
Q 1053 2284 737 2584
Q 422 2884 422 3419
Q 422 4038 858 4394
Q 1294 4750 2059 4750
Q 2388 4750 2728 4690
Q 3069 4631 3425 4513
z
" transform="scale(0.015625)"/>
      <path id="DejaVuSans-5a" d="M 269 3500
L 844 3500
L 1563 769
L 2278 3500
L 2956 3500
L 3675 769
L 4391 3500
L 4966 3500
L 4050 0
L 3372 0
L 2619 2869
L 1863 0
L 1184 0
L 269 3500
z
" transform="scale(0.015625)"/>
     </defs>
     <use xlink:href="#DejaVuSans-14"/>
     <use xlink:href="#DejaVuSans-3" transform="translate(63.625 0)"/>
     <use xlink:href="#DejaVuSans-b" transform="translate(95.40625 0)"/>
     <use xlink:href="#DejaVuSans-14" transform="translate(134.421875 0)"/>
     <use xlink:href="#DejaVuSans-14" transform="translate(198.046875 0)"/>
     <use xlink:href="#DejaVuSans-8" transform="translate(261.671875 0)"/>
     <use xlink:href="#DejaVuSans-c" transform="translate(356.6875 0)"/>
     <use xlink:href="#DejaVuSans-3" transform="translate(395.703125 0)"/>
     <use xlink:href="#DejaVuSans-5f" transform="translate(427.484375 0)"/>
     <use xlink:href="#DejaVuSans-3" transform="translate(461.171875 0)"/>
     <use xlink:href="#DejaVuSans-36" transform="translate(492.953125 0)"/>
     <use xlink:href="#DejaVuSans-52" transform="translate(556.4375 0)"/>
     <use xlink:href="#DejaVuSans-58" transform="translate(617.625 0)"/>
     <use xlink:href="#DejaVuSans-55" transform="translate(681 0)"/>
     <use xlink:href="#DejaVuSans-46" transform="translate(719.90625 0)"/>
     <use xlink:href="#DejaVuSans-48" transform="translate(774.890625 0)"/>
     <use xlink:href="#DejaVuSans-10" transform="translate(836.421875 0)"/>
     <use xlink:href="#DejaVuSans-52" transform="translate(874.359375 0)"/>
     <use xlink:href="#DejaVuSans-5a" transform="translate(935.546875 0)"/>
     <use xlink:href="#DejaVuSans-51" transform="translate(1017.328125 0)"/>
     <use xlink:href="#DejaVuSans-48" transform="translate(1080.703125 0)"/>
     <use xlink:href="#DejaVuSans-47" transform="translate(1142.234375 0)"/>
     <use xlink:href="#DejaVuSans-3" transform="translate(1205.71875 0)"/>
     <use xlink:href="#DejaVuSans-46" transform="translate(1237.5 0)"/>
     <use xlink:href="#DejaVuSans-4f" transform="translate(1292.484375 0)"/>
     <use xlink:href="#DejaVuSans-44" transform="translate(1320.265625 0)"/>
     <use xlink:href="#DejaVuSans-4c" transform="translate(1381.546875 0)"/>
     <use xlink:href="#DejaVuSans-50" transform="translate(1409.328125 0)"/>
     <use xlink:href="#DejaVuSans-3" transform="translate(1506.734375 0)"/>
     <use xlink:href="#DejaVuSans-44" transform="translate(1538.515625 0)"/>
     <use xlink:href="#DejaVuSans-51" transform="translate(1599.796875 0)"/>
     <use xlink:href="#DejaVuSans-47" transform="translate(1663.171875 0)"/>
     <use xlink:href="#DejaVuSans-3" transform="translate(1726.65625 0)"/>
     <use xlink:href="#DejaVuSans-49" transform="translate(1758.4375 0)"/>
     <use xlink:href="#DejaVuSans-44" transform="translate(1793.640625 0)"/>
     <use xlink:href="#DejaVuSans-46" transform="translate(1854.921875 0)"/>
     <use xlink:href="#DejaVuSans-57" transform="translate(1909.90625 0)"/>
     <use xlink:href="#DejaVuSans-3" transform="translate(1949.109375 0)"/>
     <use xlink:href="#DejaVuSans-47" transform="translate(1980.890625 0)"/>
     <use xlink:href="#DejaVuSans-48" transform="translate(2044.375 0)"/>
     <use xlink:href="#DejaVuSans-46" transform="translate(2105.90625 0)"/>
     <use xlink:href="#DejaVuSans-4f" transform="translate(2160.890625 0)"/>
     <use xlink:href="#DejaVuSans-44" transform="translate(2188.671875 0)"/>
     <use xlink:href="#DejaVuSans-55" transform="translate(2249.953125 0)"/>
     <use xlink:href="#DejaVuSans-44" transform="translate(2291.0625 0)"/>
     <use xlink:href="#DejaVuSans-57" transform="translate(2352.34375 0)"/>
     <use xlink:href="#DejaVuSans-4c" transform="translate(2391.546875 0)"/>
     <use xlink:href="#DejaVuSans-52" transform="translate(2419.328125 0)"/>
     <use xlink:href="#DejaVuSans-51" transform="translate(2480.515625 0)"/>
     <use xlink:href="#DejaVuSans-56" transform="translate(2543.890625 0)"/>
    </g>
   </g>
   <g id="text_21">
    <!-- 1 (11%) | Numbers regenerated from project analysis -->
    <g transform="translate(282.367047 251.750691) scale(0.08 -0.08)">
     <defs>
      <path id="DejaVuSans-31" d="M 628 4666
L 1478 4666
L 3547 763
L 3547 4666
L 4159 4666
L 4159 0
L 3309 0
L 1241 3903
L 1241 0
L 628 0
L 628 4666
z
" transform="scale(0.015625)"/>
     </defs>
     <use xlink:href="#DejaVuSans-14"/>
     <use xlink:href="#DejaVuSans-3" transform="translate(63.625 0)"/>
     <use xlink:href="#DejaVuSans-b" transform="translate(95.40625 0)"/>
     <use xlink:href="#DejaVuSans-14" transform="translate(134.421875 0)"/>
     <use xlink:href="#DejaVuSans-14" transform="translate(198.046875 0)"/>
     <use xlink:href="#DejaVuSans-8" transform="translate(261.671875 0)"/>
     <use xlink:href="#DejaVuSans-c" transform="translate(356.6875 0)"/>
     <use xlink:href="#DejaVuSans-3" transform="translate(395.703125 0)"/>
     <use xlink:href="#DejaVuSans-5f" transform="translate(427.484375 0)"/>
     <use xlink:href="#DejaVuSans-3" transform="translate(461.171875 0)"/>
     <use xlink:href="#DejaVuSans-31" transform="translate(492.953125 0)"/>
     <use xlink:href="#DejaVuSans-58" transform="translate(567.765625 0)"/>
     <use xlink:href="#DejaVuSans-50" transform="translate(631.140625 0)"/>
     <use xlink:href="#DejaVuSans-45" transform="translate(728.546875 0)"/>
     <use xlink:href="#DejaVuSans-48" transform="translate(792.03125 0)"/>
     <use xlink:href="#DejaVuSans-55" transform="translate(853.5625 0)"/>
     <use xlink:href="#DejaVuSans-56" transform="translate(894.671875 0)"/>
     <use xlink:href="#DejaVuSans-3" transform="translate(946.765625 0)"/>
     <use xlink:href="#DejaVuSans-55" transform="translate(978.546875 0)"/>
     <use xlink:href="#DejaVuSans-48" transform="translate(1017.453125 0)"/>
     <use xlink:href="#DejaVuSans-4a" transform="translate(1078.984375 0)"/>
     <use xlink:href="#DejaVuSans-48" transform="translate(1142.46875 0)"/>
     <use xlink:href="#DejaVuSans-51" transform="translate(1204 0)"/>
     <use xlink:href="#DejaVuSans-48" transform="translate(1267.375 0)"/>
     <use xlink:href="#DejaVuSans-55" transform="translate(1328.90625 0)"/>
     <use xlink:href="#DejaVuSans-44" transform="translate(1370.015625 0)"/>
     <use xlink:href="#DejaVuSans-57" transform="translate(1431.296875 0)"/>
     <use xlink:href="#DejaVuSans-48" transform="translate(1470.5 0)"/>
     <use xlink:href="#DejaVuSans-47" transform="translate(1532.03125 0)"/>
     <use xlink:href="#DejaVuSans-3" transform="translate(1595.515625 0)"/>
     <use xlink:href="#DejaVuSans-49" transform="translate(1627.296875 0)"/>
     <use xlink:href="#DejaVuSans-55" transform="translate(1662.5 0)"/>
     <use xlink:href="#DejaVuSans-52" transform="translate(1701.40625 0)"/>
     <use xlink:href="#DejaVuSans-50" transform="translate(1762.59375 0)"/>
     <use xlink:href="#DejaVuSans-3" transform="translate(1860 0)"/>
     <use xlink:href="#DejaVuSans-53" transform="translate(1891.78125 0)"/>
     <use xlink:href="#DejaVuSans-55" transform="translate(1955.265625 0)"/>
     <use xlink:href="#DejaVuSans-52" transform="translate(1994.171875 0)"/>
     <use xlink:href="#DejaVuSans-4d" transform="translate(2055.359375 0)"/>
     <use xlink:href="#DejaVuSans-48" transform="translate(2083.140625 0)"/>
     <use xlink:href="#DejaVuSans-46" transform="translate(2144.671875 0)"/>
     <use xlink:href="#DejaVuSans-57" transform="translate(2199.65625 0)"/>
     <use xlink:href="#DejaVuSans-3" transform="translate(2238.859375 0)"/>
     <use xlink:href="#DejaVuSans-44" transform="translate(2270.640625 0)"/>
     <use xlink:href="#DejaVuSans-51" transform="translate(2331.921875 0)"/>
     <use xlink:href="#DejaVuSans-44" transform="translate(2395.296875 0)"/>
     <use xlink:href="#DejaVuSans-4f" transform="translate(2456.578125 0)"/>
     <use xlink:href="#DejaVuSans-5c" transform="translate(2484.359375 0)"/>
     <use xlink:href="#DejaVuSans-56" transform="translate(2543.546875 0)"/>
     <use xlink:href="#DejaVuSans-4c" transform="translate(2595.640625 0)"/>
     <use xlink:href="#DejaVuSans-56" transform="translate(2623.421875 0)"/>
    </g>
   </g>
   <g id="text_22">
    <!-- 2 (22%) | Generated artifacts exposed to readers -->
    <g transform="translate(454.782777 297.703632) scale(0.08 -0.08)">
     <defs>
      <path id="DejaVuSans-2a" d="M 3809 666
L 3809 1919
L 2778 1919
L 2778 2438
L 4434 2438
L 4434 434
Q 4069 175 3628 42
Q 3188 -91 2688 -91
Q 1594 -91 976 548
Q 359 1188 359 2328
Q 359 3472 976 4111
Q 1594 4750 2688 4750
Q 3144 4750 3555 4637
Q 3966 4525 4313 4306
L 4313 3634
Q 3963 3931 3569 4081
Q 3175 4231 2741 4231
Q 1884 4231 1454 3753
Q 1025 3275 1025 2328
Q 1025 1384 1454 906
Q 1884 428 2741 428
Q 3075 428 3337 486
Q 3600 544 3809 666
z
" transform="scale(0.015625)"/>
     </defs>
     <use xlink:href="#DejaVuSans-15"/>
     <use xlink:href="#DejaVuSans-3" transform="translate(63.625 0)"/>
     <use xlink:href="#DejaVuSans-b" transform="translate(95.40625 0)"/>
     <use xlink:href="#DejaVuSans-15" transform="translate(134.421875 0)"/>
     <use xlink:href="#DejaVuSans-15" transform="translate(198.046875 0)"/>
     <use xlink:href="#DejaVuSans-8" transform="translate(261.671875 0)"/>
     <use xlink:href="#DejaVuSans-c" transform="translate(356.6875 0)"/>
     <use xlink:href="#DejaVuSans-3" transform="translate(395.703125 0)"/>
     <use xlink:href="#DejaVuSans-5f" transform="translate(427.484375 0)"/>
     <use xlink:href="#DejaVuSans-3" transform="translate(461.171875 0)"/>
     <use xlink:href="#DejaVuSans-2a" transform="translate(492.953125 0)"/>
     <use xlink:href="#DejaVuSans-48" transform="translate(570.4375 0)"/>
     <use xlink:href="#DejaVuSans-51" transform="translate(631.96875 0)"/>
     <use xlink:href="#DejaVuSans-48" transform="translate(695.34375 0)"/>
     <use xlink:href="#DejaVuSans-55" transform="translate(756.875 0)"/>
     <use xlink:href="#DejaVuSans-44" transform="translate(797.984375 0)"/>
     <use xlink:href="#DejaVuSans-57" transform="translate(859.265625 0)"/>
     <use xlink:href="#DejaVuSans-48" transform="translate(898.46875 0)"/>
     <use xlink:href="#DejaVuSans-47" transform="translate(960 0)"/>
     <use xlink:href="#DejaVuSans-3" transform="translate(1023.484375 0)"/>
     <use xlink:href="#DejaVuSans-44" transform="translate(1055.265625 0)"/>
     <use xlink:href="#DejaVuSans-55" transform="translate(1116.546875 0)"/>
     <use xlink:href="#DejaVuSans-57" transform="translate(1157.65625 0)"/>
     <use xlink:href="#DejaVuSans-4c" transform="translate(1196.859375 0)"/>
     <use xlink:href="#DejaVuSans-49" transform="translate(1224.640625 0)"/>
     <use xlink:href="#DejaVuSans-44" transform="translate(1259.84375 0)"/>
     <use xlink:href="#DejaVuSans-46" transform="translate(1321.125 0)"/>
     <use xlink:href="#DejaVuSans-57" transform="translate(1376.109375 0)"/>
     <use xlink:href="#DejaVuSans-56" transform="translate(1415.3125 0)"/>
     <use xlink:href="#DejaVuSans-3" transform="translate(1467.40625 0)"/>
     <use xlink:href="#DejaVuSans-48" transform="translate(1499.1875 0)"/>
     <use xlink:href="#DejaVuSans-5b" transform="translate(1558.96875 0)"/>
     <use xlink:href="#DejaVuSans-53" transform="translate(1618.15625 0)"/>
     <use xlink:href="#DejaVuSans-52" transform="translate(1681.640625 0)"/>
     <use xlink:href="#DejaVuSans-56" transform="translate(1742.828125 0)"/>
     <use xlink:href="#DejaVuSans-48" transform="translate(1794.921875 0)"/>
     <use xlink:href="#DejaVuSans-47" transform="translate(1856.453125 0)"/>
     <use xlink:href="#DejaVuSans-3" transform="translate(1919.9375 0)"/>
     <use xlink:href="#DejaVuSans-57" transform="translate(1951.71875 0)"/>
     <use xlink:href="#DejaVuSans-52" transform="translate(1990.921875 0)"/>
     <use xlink:href="#DejaVuSans-3" transform="translate(2052.109375 0)"/>
     <use xlink:href="#DejaVuSans-55" transform="translate(2083.890625 0)"/>
     <use xlink:href="#DejaVuSans-48" transform="translate(2122.796875 0)"/>
     <use xlink:href="#DejaVuSans-44" transform="translate(2184.328125 0)"/>
     <use xlink:href="#DejaVuSans-47" transform="translate(2245.609375 0)"/>
     <use xlink:href="#DejaVuSans-48" transform="translate(2309.09375 0)"/>
     <use xlink:href="#DejaVuSans-55" transform="translate(2370.625 0)"/>
     <use xlink:href="#DejaVuSans-56" transform="translate(2411.734375 0)"/>
    </g>
   </g>
   <g id="text_23">
    <!-- 1 (11%) | Reference records and citation metadata -->
    <g transform="translate(282.367047 343.656574) scale(0.08 -0.08)">
     <defs>
      <path id="DejaVuSans-35" d="M 2841 2188
Q 3044 2119 3236 1894
Q 3428 1669 3622 1275
L 4263 0
L 3584 0
L 2988 1197
Q 2756 1666 2539 1819
Q 2322 1972 1947 1972
L 1259 1972
L 1259 0
L 628 0
L 628 4666
L 2053 4666
Q 2853 4666 3247 4331
Q 3641 3997 3641 3322
Q 3641 2881 3436 2590
Q 3231 2300 2841 2188
z
M 1259 4147
L 1259 2491
L 2053 2491
Q 2509 2491 2742 2702
Q 2975 2913 2975 3322
Q 2975 3731 2742 3939
Q 2509 4147 2053 4147
L 1259 4147
z
" transform="scale(0.015625)"/>
     </defs>
     <use xlink:href="#DejaVuSans-14"/>
     <use xlink:href="#DejaVuSans-3" transform="translate(63.625 0)"/>
     <use xlink:href="#DejaVuSans-b" transform="translate(95.40625 0)"/>
     <use xlink:href="#DejaVuSans-14" transform="translate(134.421875 0)"/>
     <use xlink:href="#DejaVuSans-14" transform="translate(198.046875 0)"/>
     <use xlink:href="#DejaVuSans-8" transform="translate(261.671875 0)"/>
     <use xlink:href="#DejaVuSans-c" transform="translate(356.6875 0)"/>
     <use xlink:href="#DejaVuSans-3" transform="translate(395.703125 0)"/>
     <use xlink:href="#DejaVuSans-5f" transform="translate(427.484375 0)"/>
     <use xlink:href="#DejaVuSans-3" transform="translate(461.171875 0)"/>
     <use xlink:href="#DejaVuSans-35" transform="translate(492.953125 0)"/>
     <use xlink:href="#DejaVuSans-48" transform="translate(557.953125 0)"/>
     <use xlink:href="#DejaVuSans-49" transform="translate(619.484375 0)"/>
     <use xlink:href="#DejaVuSans-48" transform="translate(654.6875 0)"/>
     <use xlink:href="#DejaVuSans-55" transform="translate(716.21875 0)"/>
     <use xlink:href="#DejaVuSans-48" transform="translate(755.125 0)"/>
     <use xlink:href="#DejaVuSans-51" transform="translate(816.65625 0)"/>
     <use xlink:href="#DejaVuSans-46" transform="translate(880.03125 0)"/>
     <use xlink:href="#DejaVuSans-48" transform="translate(935.015625 0)"/>
     <use xlink:href="#DejaVuSans-3" transform="translate(996.546875 0)"/>
     <use xlink:href="#DejaVuSans-55" transform="translate(1028.328125 0)"/>
     <use xlink:href="#DejaVuSans-48" transform="translate(1067.234375 0)"/>
     <use xlink:href="#DejaVuSans-46" transform="translate(1128.765625 0)"/>
     <use xlink:href="#DejaVuSans-52" transform="translate(1183.75 0)"/>
     <use xlink:href="#DejaVuSans-55" transform="translate(1244.9375 0)"/>
     <use xlink:href="#DejaVuSans-47" transform="translate(1284.296875 0)"/>
     <use xlink:href="#DejaVuSans-56" transform="translate(1347.78125 0)"/>
     <use xlink:href="#DejaVuSans-3" transform="translate(1399.875 0)"/>
     <use xlink:href="#DejaVuSans-44" transform="translate(1431.65625 0)"/>
     <use xlink:href="#DejaVuSans-51" transform="translate(1492.9375 0)"/>
     <use xlink:href="#DejaVuSans-47" transform="translate(1556.3125 0)"/>
     <use xlink:href="#DejaVuSans-3" transform="translate(1619.796875 0)"/>
     <use xlink:href="#DejaVuSans-46" transform="translate(1651.578125 0)"/>
     <use xlink:href="#DejaVuSans-4c" transform="translate(1706.5625 0)"/>
     <use xlink:href="#DejaVuSans-57" transform="translate(1734.34375 0)"/>
     <use xlink:href="#DejaVuSans-44" transform="translate(1773.546875 0)"/>
     <use xlink:href="#DejaVuSans-57" transform="translate(1834.828125 0)"/>
     <use xlink:href="#DejaVuSans-4c" transform="translate(1874.03125 0)"/>
     <use xlink:href="#DejaVuSans-52" transform="translate(1901.8125 0)"/>
     <use xlink:href="#DejaVuSans-51" transform="translate(1963 0)"/>
     <use xlink:href="#DejaVuSans-3" transform="translate(2026.375 0)"/>
     <use xlink:href="#DejaVuSans-50" transform="translate(2058.15625 0)"/>
     <use xlink:href="#DejaVuSans-48" transform="translate(2155.5625 0)"/>
     <use xlink:href="#DejaVuSans-57" transform="translate(2217.09375 0)"/>
     <use xlink:href="#DejaVuSans-44" transform="translate(2256.296875 0)"/>
     <use xlink:href="#DejaVuSans-47" transform="translate(2317.578125 0)"/>
     <use xlink:href="#DejaVuSans-44" transform="translate(2381.0625 0)"/>
     <use xlink:href="#DejaVuSans-57" transform="translate(2442.34375 0)"/>
     <use xlink:href="#DejaVuSans-44" transform="translate(2481.546875 0)"/>
    </g>
   </g>
   <g id="text_24">
    <!-- Evidence-Tier Ladder -->
    <g transform="translate(336.54 17.837812) scale(0.14 -0.14)">
     <defs>
      <path id="DejaVuSans-2f" d="M 628 4666
L 1259 4666
L 1259 531
L 3531 531
L 3531 0
L 628 0
L 628 4666
z
" transform="scale(0.015625)"/>
     </defs>
     <use xlink:href="#DejaVuSans-28"/>
     <use xlink:href="#DejaVuSans-59" transform="translate(63.1875 0)"/>
     <use xlink:href="#DejaVuSans-4c" transform="translate(122.375 0)"/>
     <use xlink:href="#DejaVuSans-47" transform="translate(150.15625 0)"/>
     <use xlink:href="#DejaVuSans-48" transform="translate(213.640625 0)"/>
     <use xlink:href="#DejaVuSans-51" transform="translate(275.171875 0)"/>
     <use xlink:href="#DejaVuSans-46" transform="translate(338.546875 0)"/>
     <use xlink:href="#DejaVuSans-48" transform="translate(393.53125 0)"/>
     <use xlink:href="#DejaVuSans-10" transform="translate(455.0625 0)"/>
     <use xlink:href="#DejaVuSans-37" transform="translate(481.96875 0)"/>
     <use xlink:href="#DejaVuSans-4c" transform="translate(539.96875 0)"/>
     <use xlink:href="#DejaVuSans-48" transform="translate(567.75 0)"/>
     <use xlink:href="#DejaVuSans-55" transform="translate(629.28125 0)"/>
     <use xlink:href="#DejaVuSans-3" transform="translate(670.390625 0)"/>
     <use xlink:href="#DejaVuSans-2f" transform="translate(702.171875 0)"/>
     <use xlink:href="#DejaVuSans-44" transform="translate(757.890625 0)"/>
     <use xlink:href="#DejaVuSans-47" transform="translate(819.171875 0)"/>
     <use xlink:href="#DejaVuSans-47" transform="translate(882.65625 0)"/>
     <use xlink:href="#DejaVuSans-48" transform="translate(946.140625 0)"/>
     <use xlink:href="#DejaVuSans-55" transform="translate(1007.671875 0)"/>
    </g>
   </g>
  </g>
 </g>
 <defs>
  <clipPath id="pd0264d2c07">
   <rect x="103.054688" y="31.837812" width="613.8" height="343.728"/>
  </clipPath>
 </defs>
</svg>
