<?xml version="1.0" encoding="utf-8" standalone="no"?>
<!DOCTYPE svg PUBLIC "-//W3C//DTD SVG 1.1//EN"
  "http://www.w3.org/Graphics/SVG/1.1/DTD/svg11.dtd">
<svg xmlns:xlink="http://www.w3.org/1999/xlink" width="795.6pt" height="431.335412pt" viewBox="0 0 795.6 431.335412" xmlns="http://www.w3.org/2000/svg" version="1.1">
 <metadata>
  <rdf:RDF xmlns:dc="http://purl.org/dc/elements/1.1/" xmlns:cc="http://creativecommons.org/ns#" xmlns:rdf="http://www.w3.org/1999/02/22-rdf-syntax-ns#">
   <cc:Work>
    <dc:type rdf:resource="http://purl.org/dc/dcmitype/StillImage"/>
    <dc:format>image/svg+xml</dc:format>
    <dc:creator>
     <cc:Agent>
      <dc:title>template_gold_refinement</dc:title>
     </cc:Agent>
    </dc:creator>
   </cc:Work>
  </rdf:RDF>
 </metadata>
 <defs>
  <style type="text/css">*{stroke-linejoin: round; stroke-linecap: butt}</style>
 </defs>
 <g id="figure_1">
  <g id="patch_1">
   <path d="M 0 431.335412
L 795.6 431.335412
L 795.6 0
L 0 0
z
" style="fill: #ffffff"/>
  </g>
  <g id="axes_1">
   <g id="patch_2">
    <path d="M 83.607692 68.544218
Q 228.706758 82.240688 372.247504 68.69175
" clip-path="url(#p1575585143)" style="fill: none; stroke: #475569; stroke-width: 1.4; stroke-linecap: round"/>
    <path d="M 366.40916 66.43039
L 372.247504 68.69175
L 366.93541 72.005609
z
" clip-path="url(#p1575585143)" style="fill: #475569; stroke: #475569; stroke-width: 1.4; stroke-linecap: round"/>
   </g>
   <g id="patch_3">
    <path d="M 391.048288 68.546659
Q 551.51824 83.775584 710.429945 68.694684
" clip-path="url(#p1575585143)" style="fill: none; stroke: #475569; stroke-width: 1.4; stroke-linecap: round"/>
    <path d="M 704.590459 66.436277
L 710.429945 68.694684
L 705.119528 72.011229
z
" clip-path="url(#p1575585143)" style="fill: #475569; stroke: #475569; stroke-width: 1.4; stroke-linecap: round"/>
   </g>
   <g id="patch_4">
    <path d="M 83.607692 122.304218
Q 228.706758 136.000688 372.247504 122.45175
" clip-path="url(#p1575585143)" style="fill: none; stroke: #475569; stroke-width: 1.4; stroke-linecap: round"/>
    <path d="M 366.40916 120.19039
L 372.247504 122.45175
L 366.93541 125.765609
z
" clip-path="url(#p1575585143)" style="fill: #475569; stroke: #475569; stroke-width: 1.4; stroke-linecap: round"/>
   </g>
   <g id="patch_5">
    <path d="M 391.048288 122.306659
Q 551.51824 137.535584 710.429945 122.454684
" clip-path="url(#p1575585143)" style="fill: none; stroke: #475569; stroke-width: 1.4; stroke-linecap: round"/>
    <path d="M 704.590459 120.196277
L 710.429945 122.454684
L 705.119528 125.771229
z
" clip-path="url(#p1575585143)" style="fill: #475569; stroke: #475569; stroke-width: 1.4; stroke-linecap: round"/>
   </g>
   <g id="patch_6">
    <path d="M 83.607692 176.064218
Q 228.706758 189.760688 372.247504 176.21175
" clip-path="url(#p1575585143)" style="fill: none; stroke: #475569; stroke-width: 1.4; stroke-linecap: round"/>
    <path d="M 366.40916 173.95039
L 372.247504 176.21175
L 366.93541 179.525609
z
" clip-path="url(#p1575585143)" style="fill: #475569; stroke: #475569; stroke-width: 1.4; stroke-linecap: round"/>
   </g>
   <g id="patch_7">
    <path d="M 391.048288 176.066659
Q 551.51824 191.295584 710.429945 176.214684
" clip-path="url(#p1575585143)" style="fill: none; stroke: #475569; stroke-width: 1.4; stroke-linecap: round"/>
    <path d="M 704.590459 173.956277
L 710.429945 176.214684
L 705.119528 179.531229
z
" clip-path="url(#p1575585143)" style="fill: #475569; stroke: #475569; stroke-width: 1.4; stroke-linecap: round"/>
   </g>
   <g id="patch_8">
    <path d="M 83.607692 229.824218
Q 228.706758 243.520688 372.247504 229.97175
" clip-path="url(#p1575585143)" style="fill: none; stroke: #475569; stroke-width: 1.4; stroke-linecap: round"/>
    <path d="M 366.40916 227.71039
L 372.247504 229.97175
L 366.93541 233.285609
z
" clip-path="url(#p1575585143)" style="fill: #475569; stroke: #475569; stroke-width: 1.4; stroke-linecap: round"/>
   </g>
   <g id="patch_9">
    <path d="M 391.048288 229.826659
Q 551.51824 245.055584 710.429945 229.974684
" clip-path="url(#p1575585143)" style="fill: none; stroke: #475569; stroke-width: 1.4; stroke-linecap: round"/>
    <path d="M 704.590459 227.716277
L 710.429945 229.974684
L 705.119528 233.291229
z
" clip-path="url(#p1575585143)" style="fill: #475569; stroke: #475569; stroke-width: 1.4; stroke-linecap: round"/>
   </g>
   <g id="patch_10">
    <path d="M 83.607692 283.584218
Q 228.706758 297.280688 372.247504 283.73175
" clip-path="url(#p1575585143)" style="fill: none; stroke: #475569; stroke-width: 1.4; stroke-linecap: round"/>
    <path d="M 366.40916 281.47039
L 372.247504 283.73175
L 366.93541 287.045609
z
" clip-path="url(#p1575585143)" style="fill: #475569; stroke: #475569; stroke-width: 1.4; stroke-linecap: round"/>
   </g>
   <g id="patch_11">
    <path d="M 391.048288 283.586659
Q 551.51824 298.815584 710.429945 283.734684
" clip-path="url(#p1575585143)" style="fill: none; stroke: #475569; stroke-width: 1.4; stroke-linecap: round"/>
    <path d="M 704.590459 281.476277
L 710.429945 283.734684
L 705.119528 287.051229
z
" clip-path="url(#p1575585143)" style="fill: #475569; stroke: #475569; stroke-width: 1.4; stroke-linecap: round"/>
   </g>
   <g id="patch_12">
    <path d="M 83.607692 337.344218
Q 228.706758 351.040688 372.247504 337.49175
" clip-path="url(#p1575585143)" style="fill: none; stroke: #475569; stroke-width: 1.4; stroke-linecap: round"/>
    <path d="M 366.40916 335.23039
L 372.247504 337.49175
L 366.93541 340.805609
z
" clip-path="url(#p1575585143)" style="fill: #475569; stroke: #475569; stroke-width: 1.4; stroke-linecap: round"/>
   </g>
   <g id="patch_13">
    <path d="M 391.048288 337.346659
Q 551.51824 352.575584 710.429945 337.494684
" clip-path="url(#p1575585143)" style="fill: none; stroke: #475569; stroke-width: 1.4; stroke-linecap: round"/>
    <path d="M 704.590459 335.236277
L 710.429945 337.494684
L 705.119528 340.811229
z
" clip-path="url(#p1575585143)" style="fill: #475569; stroke: #475569; stroke-width: 1.4; stroke-linecap: round"/>
   </g>
   <g id="patch_14">
    <path d="M 83.607692 391.104218
Q 228.706758 404.800688 372.247504 391.25175
" clip-path="url(#p1575585143)" style="fill: none; stroke: #475569; stroke-width: 1.4; stroke-linecap: round"/>
    <path d="M 366.40916 388.99039
L 372.247504 391.25175
L 366.93541 394.565609
z
" clip-path="url(#p1575585143)" style="fill: #475569; stroke: #475569; stroke-width: 1.4; stroke-linecap: round"/>
   </g>
   <g id="patch_15">
    <path d="M 391.048288 391.106659
Q 551.51824 406.335584 710.429945 391.254684
" clip-path="url(#p1575585143)" style="fill: none; stroke: #475569; stroke-width: 1.4; stroke-linecap: round"/>
    <path d="M 704.590459 388.996277
L 710.429945 391.254684
L 705.119528 394.571229
z
" clip-path="url(#p1575585143)" style="fill: #475569; stroke: #475569; stroke-width: 1.4; stroke-linecap: round"/>
   </g>
   <g id="text_1">
    <g id="patch_16">
     <path d="M 217.462655 71.006847
L 239.962655 71.006847
L 239.962655 64.406378
L 217.462655 64.406378
z
" clip-path="url(#p1575585143)" style="fill: #ffffff; opacity: 0.75"/>
    </g>
    <g clip-path="url(#p1575585143)">
     <!-- defines -->
     <g style="fill: #334155" transform="translate(217.762655 69.265441) scale(0.06 -0.06)">
      <defs>
       <path id="DejaVuSans-47" d="M 2906 2969
L 2906 4863
L 3481 4863
L 3481 0
L 2906 0
L 2906 525
Q 2725 213 2448 61
Q 2172 -91 1784 -91
Q 1150 -91 751 415
Q 353 922 353 1747
Q 353 2572 751 3078
Q 1150 3584 1784 3584
Q 2172 3584 2448 3432
Q 2725 3281 2906 2969
z
M 947 1747
Q 947 1113 1208 752
Q 1469 391 1925 391
Q 2381 391 2643 752
Q 2906 1113 2906 1747
Q 2906 2381 2643 2742
Q 2381 3103 1925 3103
Q 1469 3103 1208 2742
Q 947 2381 947 1747
z
" transform="scale(0.015625)"/>
       <path id="DejaVuSans-48" d="M 3597 1894
L 3597 1613
L 953 1613
Q 991 1019 1311 708
Q 1631 397 2203 397
Q 2534 397 2845 478
Q 3156 559 3463 722
L 3463 178
Q 3153 47 2828 -22
Q 2503 -91 2169 -91
Q 1331 -91 842 396
Q 353 884 353 1716
Q 353 2575 817 3079
Q 1281 3584 2069 3584
Q 2775 3584 3186 3129
Q 3597 2675 3597 1894
z
M 3022 2063
Q 3016 2534 2758 2815
Q 2500 3097 2075 3097
Q 1594 3097 1305 2825
Q 1016 2553 972 2059
L 3022 2063
z
" transform="scale(0.015625)"/>
       <path id="DejaVuSans-13af" d="M 3431 3500
L 3431 0
L 2853 0
L 2853 3053
L 1275 3053
L 1275 0
L 697 0
L 697 3053
L 147 3053
L 147 3500
L 697 3500
L 697 3744
Q 697 4316 967 4589
Q 1238 4863 1797 4863
L 2375 4863
L 2375 4384
L 1825 4384
Q 1516 4384 1395 4259
Q 1275 4134 1275 3809
L 1275 3500
L 3431 3500
z
M 2853 4856
L 3431 4856
L 3431 4128
L 2853 4128
L 2853 4856
z
" transform="scale(0.015625)"/>
       <path id="DejaVuSans-51" d="M 3513 2113
L 3513 0
L 2938 0
L 2938 2094
Q 2938 2591 2744 2837
Q 2550 3084 2163 3084
Q 1697 3084 1428 2787
Q 1159 2491 1159 1978
L 1159 0
L 581 0
L 581 3500
L 1159 3500
L 1159 2956
Q 1366 3272 1645 3428
Q 1925 3584 2291 3584
Q 2894 3584 3203 3211
Q 3513 2838 3513 2113
z
" transform="scale(0.015625)"/>
       <path id="DejaVuSans-56" d="M 2834 3397
L 2834 2853
Q 2591 2978 2328 3040
Q 2066 3103 1784 3103
Q 1356 3103 1142 2972
Q 928 2841 928 2578
Q 928 2378 1081 2264
Q 1234 2150 1697 2047
L 1894 2003
Q 2506 1872 2764 1633
Q 3022 1394 3022 966
Q 3022 478 2636 193
Q 2250 -91 1575 -91
Q 1294 -91 989 -36
Q 684 19 347 128
L 347 722
Q 666 556 975 473
Q 1284 391 1588 391
Q 1994 391 2212 530
Q 2431 669 2431 922
Q 2431 1156 2273 1281
Q 2116 1406 1581 1522
L 1381 1569
Q 847 1681 609 1914
Q 372 2147 372 2553
Q 372 3047 722 3315
Q 1072 3584 1716 3584
Q 2034 3584 2315 3537
Q 2597 3491 2834 3397
z
" transform="scale(0.015625)"/>
      </defs>
      <use xlink:href="#DejaVuSans-47"/>
      <use xlink:href="#DejaVuSans-48" transform="translate(63.484375 0)"/>
      <use xlink:href="#DejaVuSans-13af" transform="translate(125.015625 0)"/>
      <use xlink:href="#DejaVuSans-51" transform="translate(188 0)"/>
      <use xlink:href="#DejaVuSans-48" transform="translate(251.375 0)"/>
      <use xlink:href="#DejaVuSans-56" transform="translate(312.90625 0)"/>
     </g>
    </g>
   </g>
   <g id="text_2">
    <g id="patch_17">
     <path d="M 536.644934 71.006847
L 566.393684 71.006847
L 566.393684 64.406378
L 536.644934 64.406378
z
" clip-path="url(#p1575585143)" style="fill: #ffffff; opacity: 0.75"/>
    </g>
    <g clip-path="url(#p1575585143)">
     <!-- owned by -->
     <g style="fill: #334155" transform="translate(536.944934 69.265441) scale(0.06 -0.06)">
      <defs>
       <path id="DejaVuSans-52" d="M 1959 3097
Q 1497 3097 1228 2736
Q 959 2375 959 1747
Q 959 1119 1226 758
Q 1494 397 1959 397
Q 2419 397 2687 759
Q 2956 1122 2956 1747
Q 2956 2369 2687 2733
Q 2419 3097 1959 3097
z
M 1959 3584
Q 2709 3584 3137 3096
Q 3566 2609 3566 1747
Q 3566 888 3137 398
Q 2709 -91 1959 -91
Q 1206 -91 779 398
Q 353 888 353 1747
Q 353 2609 779 3096
Q 1206 3584 1959 3584
z
" transform="scale(0.015625)"/>
       <path id="DejaVuSans-5a" d="M 269 3500
L 844 3500
L 1563 769
L 2278 3500
L 2956 3500
L 3675 769
L 4391 3500
L 4966 3500
L 4050 0
L 3372 0
L 2619 2869
L 1863 0
L 1184 0
L 269 3500
z
" transform="scale(0.015625)"/>
       <path id="DejaVuSans-3" transform="scale(0.015625)"/>
       <path id="DejaVuSans-45" d="M 3116 1747
Q 3116 2381 2855 2742
Q 2594 3103 2138 3103
Q 1681 3103 1420 2742
Q 1159 2381 1159 1747
Q 1159 1113 1420 752
Q 1681 391 2138 391
Q 2594 391 2855 752
Q 3116 1113 3116 1747
z
M 1159 2969
Q 1341 3281 1617 3432
Q 1894 3584 2278 3584
Q 2916 3584 3314 3078
Q 3713 2572 3713 1747
Q 3713 922 3314 415
Q 2916 -91 2278 -91
Q 1894 -91 1617 61
Q 1341 213 1159 525
L 1159 0
L 581 0
L 581 4863
L 1159 4863
L 1159 2969
z
" transform="scale(0.015625)"/>
       <path id="DejaVuSans-5c" d="M 2059 -325
Q 1816 -950 1584 -1140
Q 1353 -1331 966 -1331
L 506 -1331
L 506 -850
L 844 -850
Q 1081 -850 1212 -737
Q 1344 -625 1503 -206
L 1606 56
L 191 3500
L 800 3500
L 1894 763
L 2988 3500
L 3597 3500
L 2059 -325
z
" transform="scale(0.015625)"/>
      </defs>
      <use xlink:href="#DejaVuSans-52"/>
      <use xlink:href="#DejaVuSans-5a" transform="translate(61.1875 0)"/>
      <use xlink:href="#DejaVuSans-51" transform="translate(142.96875 0)"/>
      <use xlink:href="#DejaVuSans-48" transform="translate(206.34375 0)"/>
      <use xlink:href="#DejaVuSans-47" transform="translate(267.875 0)"/>
      <use xlink:href="#DejaVuSans-3" transform="translate(331.359375 0)"/>
      <use xlink:href="#DejaVuSans-45" transform="translate(363.140625 0)"/>
      <use xlink:href="#DejaVuSans-5c" transform="translate(426.625 0)"/>
     </g>
    </g>
   </g>
   <g id="text_3">
    <g id="patch_18">
     <path d="M 217.462655 124.766847
L 239.962655 124.766847
L 239.962655 118.166378
L 217.462655 118.166378
z
" clip-path="url(#p1575585143)" style="fill: #ffffff; opacity: 0.75"/>
    </g>
    <g clip-path="url(#p1575585143)">
     <!-- defines -->
     <g style="fill: #334155" transform="translate(217.762655 123.025441) scale(0.06 -0.06)">
      <use xlink:href="#DejaVuSans-47"/>
      <use xlink:href="#DejaVuSans-48" transform="translate(63.484375 0)"/>
      <use xlink:href="#DejaVuSans-13af" transform="translate(125.015625 0)"/>
      <use xlink:href="#DejaVuSans-51" transform="translate(188 0)"/>
      <use xlink:href="#DejaVuSans-48" transform="translate(251.375 0)"/>
      <use xlink:href="#DejaVuSans-56" transform="translate(312.90625 0)"/>
     </g>
    </g>
   </g>
   <g id="text_4">
    <g id="patch_19">
     <path d="M 536.644934 124.766847
L 566.393684 124.766847
L 566.393684 118.166378
L 536.644934 118.166378
z
" clip-path="url(#p1575585143)" style="fill: #ffffff; opacity: 0.75"/>
    </g>
    <g clip-path="url(#p1575585143)">
     <!-- owned by -->
     <g style="fill: #334155" transform="translate(536.944934 123.025441) scale(0.06 -0.06)">
      <use xlink:href="#DejaVuSans-52"/>
      <use xlink:href="#DejaVuSans-5a" transform="translate(61.1875 0)"/>
      <use xlink:href="#DejaVuSans-51" transform="translate(142.96875 0)"/>
      <use xlink:href="#DejaVuSans-48" transform="translate(206.34375 0)"/>
      <use xlink:href="#DejaVuSans-47" transform="translate(267.875 0)"/>
      <use xlink:href="#DejaVuSans-3" transform="translate(331.359375 0)"/>
      <use xlink:href="#DejaVuSans-45" transform="translate(363.140625 0)"/>
      <use xlink:href="#DejaVuSans-5c" transform="translate(426.625 0)"/>
     </g>
    </g>
   </g>
   <g id="text_5">
    <g id="patch_20">
     <path d="M 217.462655 178.526847
L 239.962655 178.526847
L 239.962655 171.926378
L 217.462655 171.926378
z
" clip-path="url(#p1575585143)" style="fill: #ffffff; opacity: 0.75"/>
    </g>
    <g clip-path="url(#p1575585143)">
     <!-- defines -->
     <g style="fill: #334155" transform="translate(217.762655 176.785441) scale(0.06 -0.06)">
      <use xlink:href="#DejaVuSans-47"/>
      <use xlink:href="#DejaVuSans-48" transform="translate(63.484375 0)"/>
      <use xlink:href="#DejaVuSans-13af" transform="translate(125.015625 0)"/>
      <use xlink:href="#DejaVuSans-51" transform="translate(188 0)"/>
      <use xlink:href="#DejaVuSans-48" transform="translate(251.375 0)"/>
      <use xlink:href="#DejaVuSans-56" transform="translate(312.90625 0)"/>
     </g>
    </g>
   </g>
   <g id="text_6">
    <g id="patch_21">
     <path d="M 536.644934 178.526847
L 566.393684 178.526847
L 566.393684 171.926378
L 536.644934 171.926378
z
" clip-path="url(#p1575585143)" style="fill: #ffffff; opacity: 0.75"/>
    </g>
    <g clip-path="url(#p1575585143)">
     <!-- owned by -->
     <g style="fill: #334155" transform="translate(536.944934 176.785441) scale(0.06 -0.06)">
      <use xlink:href="#DejaVuSans-52"/>
      <use xlink:href="#DejaVuSans-5a" transform="translate(61.1875 0)"/>
      <use xlink:href="#DejaVuSans-51" transform="translate(142.96875 0)"/>
      <use xlink:href="#DejaVuSans-48" transform="translate(206.34375 0)"/>
      <use xlink:href="#DejaVuSans-47" transform="translate(267.875 0)"/>
      <use xlink:href="#DejaVuSans-3" transform="translate(331.359375 0)"/>
      <use xlink:href="#DejaVuSans-45" transform="translate(363.140625 0)"/>
      <use xlink:href="#DejaVuSans-5c" transform="translate(426.625 0)"/>
     </g>
    </g>
   </g>
   <g id="text_7">
    <g id="patch_22">
     <path d="M 217.462655 232.286847
L 239.962655 232.286847
L 239.962655 225.686378
L 217.462655 225.686378
z
" clip-path="url(#p1575585143)" style="fill: #ffffff; opacity: 0.75"/>
    </g>
    <g clip-path="url(#p1575585143)">
     <!-- defines -->
     <g style="fill: #334155" transform="translate(217.762655 230.545441) scale(0.06 -0.06)">
      <use xlink:href="#DejaVuSans-47"/>
      <use xlink:href="#DejaVuSans-48" transform="translate(63.484375 0)"/>
      <use xlink:href="#DejaVuSans-13af" transform="translate(125.015625 0)"/>
      <use xlink:href="#DejaVuSans-51" transform="translate(188 0)"/>
      <use xlink:href="#DejaVuSans-48" transform="translate(251.375 0)"/>
      <use xlink:href="#DejaVuSans-56" transform="translate(312.90625 0)"/>
     </g>
    </g>
   </g>
   <g id="text_8">
    <g id="patch_23">
     <path d="M 536.644934 232.286847
L 566.393684 232.286847
L 566.393684 225.686378
L 536.644934 225.686378
z
" clip-path="url(#p1575585143)" style="fill: #ffffff; opacity: 0.75"/>
    </g>
    <g clip-path="url(#p1575585143)">
     <!-- owned by -->
     <g style="fill: #334155" transform="translate(536.944934 230.545441) scale(0.06 -0.06)">
      <use xlink:href="#DejaVuSans-52"/>
      <use xlink:href="#DejaVuSans-5a" transform="translate(61.1875 0)"/>
      <use xlink:href="#DejaVuSans-51" transform="translate(142.96875 0)"/>
      <use xlink:href="#DejaVuSans-48" transform="translate(206.34375 0)"/>
      <use xlink:href="#DejaVuSans-47" transform="translate(267.875 0)"/>
      <use xlink:href="#DejaVuSans-3" transform="translate(331.359375 0)"/>
      <use xlink:href="#DejaVuSans-45" transform="translate(363.140625 0)"/>
      <use xlink:href="#DejaVuSans-5c" transform="translate(426.625 0)"/>
     </g>
    </g>
   </g>
   <g id="text_9">
    <g id="patch_24">
     <path d="M 217.462655 286.046847
L 239.962655 286.046847
L 239.962655 279.446378
L 217.462655 279.446378
z
" clip-path="url(#p1575585143)" style="fill: #ffffff; opacity: 0.75"/>
    </g>
    <g clip-path="url(#p1575585143)">
     <!-- defines -->
     <g style="fill: #334155" transform="translate(217.762655 284.305441) scale(0.06 -0.06)">
      <use xlink:href="#DejaVuSans-47"/>
      <use xlink:href="#DejaVuSans-48" transform="translate(63.484375 0)"/>
      <use xlink:href="#DejaVuSans-13af" transform="translate(125.015625 0)"/>
      <use xlink:href="#DejaVuSans-51" transform="translate(188 0)"/>
      <use xlink:href="#DejaVuSans-48" transform="translate(251.375 0)"/>
      <use xlink:href="#DejaVuSans-56" transform="translate(312.90625 0)"/>
     </g>
    </g>
   </g>
   <g id="text_10">
    <g id="patch_25">
     <path d="M 536.644934 286.046847
L 566.393684 286.046847
L 566.393684 279.446378
L 536.644934 279.446378
z
" clip-path="url(#p1575585143)" style="fill: #ffffff; opacity: 0.75"/>
    </g>
    <g clip-path="url(#p1575585143)">
     <!-- owned by -->
     <g style="fill: #334155" transform="translate(536.944934 284.305441) scale(0.06 -0.06)">
      <use xlink:href="#DejaVuSans-52"/>
      <use xlink:href="#DejaVuSans-5a" transform="translate(61.1875 0)"/>
      <use xlink:href="#DejaVuSans-51" transform="translate(142.96875 0)"/>
      <use xlink:href="#DejaVuSans-48" transform="translate(206.34375 0)"/>
      <use xlink:href="#DejaVuSans-47" transform="translate(267.875 0)"/>
      <use xlink:href="#DejaVuSans-3" transform="translate(331.359375 0)"/>
      <use xlink:href="#DejaVuSans-45" transform="translate(363.140625 0)"/>
      <use xlink:href="#DejaVuSans-5c" transform="translate(426.625 0)"/>
     </g>
    </g>
   </g>
   <g id="text_11">
    <g id="patch_26">
     <path d="M 217.462655 339.806847
L 239.962655 339.806847
L 239.962655 333.206378
L 217.462655 333.206378
z
" clip-path="url(#p1575585143)" style="fill: #ffffff; opacity: 0.75"/>
    </g>
    <g clip-path="url(#p1575585143)">
     <!-- defines -->
     <g style="fill: #334155" transform="translate(217.762655 338.065441) scale(0.06 -0.06)">
      <use xlink:href="#DejaVuSans-47"/>
      <use xlink:href="#DejaVuSans-48" transform="translate(63.484375 0)"/>
      <use xlink:href="#DejaVuSans-13af" transform="translate(125.015625 0)"/>
      <use xlink:href="#DejaVuSans-51" transform="translate(188 0)"/>
      <use xlink:href="#DejaVuSans-48" transform="translate(251.375 0)"/>
      <use xlink:href="#DejaVuSans-56" transform="translate(312.90625 0)"/>
     </g>
    </g>
   </g>
   <g id="text_12">
    <g id="patch_27">
     <path d="M 536.644934 339.806847
L 566.393684 339.806847
L 566.393684 333.206378
L 536.644934 333.206378
z
" clip-path="url(#p1575585143)" style="fill: #ffffff; opacity: 0.75"/>
    </g>
    <g clip-path="url(#p1575585143)">
     <!-- owned by -->
     <g style="fill: #334155" transform="translate(536.944934 338.065441) scale(0.06 -0.06)">
      <use xlink:href="#DejaVuSans-52"/>
      <use xlink:href="#DejaVuSans-5a" transform="translate(61.1875 0)"/>
      <use xlink:href="#DejaVuSans-51" transform="translate(142.96875 0)"/>
      <use xlink:href="#DejaVuSans-48" transform="translate(206.34375 0)"/>
      <use xlink:href="#DejaVuSans-47" transform="translate(267.875 0)"/>
      <use xlink:href="#DejaVuSans-3" transform="translate(331.359375 0)"/>
      <use xlink:href="#DejaVuSans-45" transform="translate(363.140625 0)"/>
      <use xlink:href="#DejaVuSans-5c" transform="translate(426.625 0)"/>
     </g>
    </g>
   </g>
   <g id="text_13">
    <g id="patch_28">
     <path d="M 217.462655 393.566847
L 239.962655 393.566847
L 239.962655 386.966378
L 217.462655 386.966378
z
" clip-path="url(#p1575585143)" style="fill: #ffffff; opacity: 0.75"/>
    </g>
    <g clip-path="url(#p1575585143)">
     <!-- defines -->
     <g style="fill: #334155" transform="translate(217.762655 391.825441) scale(0.06 -0.06)">
      <use xlink:href="#DejaVuSans-47"/>
      <use xlink:href="#DejaVuSans-48" transform="translate(63.484375 0)"/>
      <use xlink:href="#DejaVuSans-13af" transform="translate(125.015625 0)"/>
      <use xlink:href="#DejaVuSans-51" transform="translate(188 0)"/>
      <use xlink:href="#DejaVuSans-48" transform="translate(251.375 0)"/>
      <use xlink:href="#DejaVuSans-56" transform="translate(312.90625 0)"/>
     </g>
    </g>
   </g>
   <g id="text_14">
    <g id="patch_29">
     <path d="M 536.644934 393.566847
L 566.393684 393.566847
L 566.393684 386.966378
L 536.644934 386.966378
z
" clip-path="url(#p1575585143)" style="fill: #ffffff; opacity: 0.75"/>
    </g>
    <g clip-path="url(#p1575585143)">
     <!-- owned by -->
     <g style="fill: #334155" transform="translate(536.944934 391.825441) scale(0.06 -0.06)">
      <use xlink:href="#DejaVuSans-52"/>
      <use xlink:href="#DejaVuSans-5a" transform="translate(61.1875 0)"/>
      <use xlink:href="#DejaVuSans-51" transform="translate(142.96875 0)"/>
      <use xlink:href="#DejaVuSans-48" transform="translate(206.34375 0)"/>
      <use xlink:href="#DejaVuSans-47" transform="translate(267.875 0)"/>
      <use xlink:href="#DejaVuSans-3" transform="translate(331.359375 0)"/>
      <use xlink:href="#DejaVuSans-45" transform="translate(363.140625 0)"/>
      <use xlink:href="#DejaVuSans-5c" transform="translate(426.625 0)"/>
     </g>
    </g>
   </g>
   <g id="PathCollection_1">
    <defs>
     <path id="C0_0_48efccff12" d="M 0 23.979158
C 6.359347 23.979158 12.459088 21.452562 16.955825 16.955825
C 21.452562 12.459088 23.979158 6.359347 23.979158 -0
C 23.979158 -6.359347 21.452562 -12.459088 16.955825 -16.955825
C 12.459088 -21.452562 6.359347 -23.979158 0 -23.979158
C -6.359347 -23.979158 -12.459088 -21.452562 -16.955825 -16.955825
C -21.452562 -12.459088 -23.979158 -6.359347 -23.979158 0
C -23.979158 6.359347 -21.452562 12.459088 -16.955825 16.955825
C -12.459088 21.452562 -6.359347 23.979158 0 23.979158
z
"/>
    </defs>
    <g clip-path="url(#p1575585143)">
     <use xlink:href="#C0_0_48efccff12" x="74.990083" y="67.706612" style="fill: #577590; fill-opacity: 0.94; stroke: #111827; stroke-opacity: 0.94; stroke-width: 0.8"/>
    </g>
    <g clip-path="url(#p1575585143)">
     <use xlink:href="#C0_0_48efccff12" x="382.428099" y="67.706612" style="fill: #e9c46a; fill-opacity: 0.94; stroke: #111827; stroke-opacity: 0.94; stroke-width: 0.8"/>
    </g>
    <g clip-path="url(#p1575585143)">
     <use xlink:href="#C0_0_48efccff12" x="720.609917" y="67.706612" style="fill: #264653; fill-opacity: 0.94; stroke: #111827; stroke-opacity: 0.94; stroke-width: 0.8"/>
    </g>
    <g clip-path="url(#p1575585143)">
     <use xlink:href="#C0_0_48efccff12" x="74.990083" y="121.466612" style="fill: #577590; fill-opacity: 0.94; stroke: #111827; stroke-opacity: 0.94; stroke-width: 0.8"/>
    </g>
    <g clip-path="url(#p1575585143)">
     <use xlink:href="#C0_0_48efccff12" x="382.428099" y="121.466612" style="fill: #e9c46a; fill-opacity: 0.94; stroke: #111827; stroke-opacity: 0.94; stroke-width: 0.8"/>
    </g>
    <g clip-path="url(#p1575585143)">
     <use xlink:href="#C0_0_48efccff12" x="720.609917" y="121.466612" style="fill: #264653; fill-opacity: 0.94; stroke: #111827; stroke-opacity: 0.94; stroke-width: 0.8"/>
    </g>
    <g clip-path="url(#p1575585143)">
     <use xlink:href="#C0_0_48efccff12" x="74.990083" y="175.226612" style="fill: #577590; fill-opacity: 0.94; stroke: #111827; stroke-opacity: 0.94; stroke-width: 0.8"/>
    </g>
    <g clip-path="url(#p1575585143)">
     <use xlink:href="#C0_0_48efccff12" x="382.428099" y="175.226612" style="fill: #e9c46a; fill-opacity: 0.94; stroke: #111827; stroke-opacity: 0.94; stroke-width: 0.8"/>
    </g>
    <g clip-path="url(#p1575585143)">
     <use xlink:href="#C0_0_48efccff12" x="720.609917" y="175.226612" style="fill: #264653; fill-opacity: 0.94; stroke: #111827; stroke-opacity: 0.94; stroke-width: 0.8"/>
    </g>
    <g clip-path="url(#p1575585143)">
     <use xlink:href="#C0_0_48efccff12" x="74.990083" y="228.986612" style="fill: #577590; fill-opacity: 0.94; stroke: #111827; stroke-opacity: 0.94; stroke-width: 0.8"/>
    </g>
    <g clip-path="url(#p1575585143)">
     <use xlink:href="#C0_0_48efccff12" x="382.428099" y="228.986612" style="fill: #e9c46a; fill-opacity: 0.94; stroke: #111827; stroke-opacity: 0.94; stroke-width: 0.8"/>
    </g>
    <g clip-path="url(#p1575585143)">
     <use xlink:href="#C0_0_48efccff12" x="720.609917" y="228.986612" style="fill: #264653; fill-opacity: 0.94; stroke: #111827; stroke-opacity: 0.94; stroke-width: 0.8"/>
    </g>
    <g clip-path="url(#p1575585143)">
     <use xlink:href="#C0_0_48efccff12" x="74.990083" y="282.746612" style="fill: #577590; fill-opacity: 0.94; stroke: #111827; stroke-opacity: 0.94; stroke-width: 0.8"/>
    </g>
    <g clip-path="url(#p1575585143)">
     <use xlink:href="#C0_0_48efccff12" x="382.428099" y="282.746612" style="fill: #e9c46a; fill-opacity: 0.94; stroke: #111827; stroke-opacity: 0.94; stroke-width: 0.8"/>
    </g>
    <g clip-path="url(#p1575585143)">
     <use xlink:href="#C0_0_48efccff12" x="720.609917" y="282.746612" style="fill: #264653; fill-opacity: 0.94; stroke: #111827; stroke-opacity: 0.94; stroke-width: 0.8"/>
    </g>
    <g clip-path="url(#p1575585143)">
     <use xlink:href="#C0_0_48efccff12" x="74.990083" y="336.506612" style="fill: #577590; fill-opacity: 0.94; stroke: #111827; stroke-opacity: 0.94; stroke-width: 0.8"/>
    </g>
    <g clip-path="url(#p1575585143)">
     <use xlink:href="#C0_0_48efccff12" x="382.428099" y="336.506612" style="fill: #e9c46a; fill-opacity: 0.94; stroke: #111827; stroke-opacity: 0.94; stroke-width: 0.8"/>
    </g>
    <g clip-path="url(#p1575585143)">
     <use xlink:href="#C0_0_48efccff12" x="720.609917" y="336.506612" style="fill: #264653; fill-opacity: 0.94; stroke: #111827; stroke-opacity: 0.94; stroke-width: 0.8"/>
    </g>
    <g clip-path="url(#p1575585143)">
     <use xlink:href="#C0_0_48efccff12" x="74.990083" y="390.266612" style="fill: #577590; fill-opacity: 0.94; stroke: #111827; stroke-opacity: 0.94; stroke-width: 0.8"/>
    </g>
    <g clip-path="url(#p1575585143)">
     <use xlink:href="#C0_0_48efccff12" x="382.428099" y="390.266612" style="fill: #e9c46a; fill-opacity: 0.94; stroke: #111827; stroke-opacity: 0.94; stroke-width: 0.8"/>
    </g>
    <g clip-path="url(#p1575585143)">
     <use xlink:href="#C0_0_48efccff12" x="720.609917" y="390.266612" style="fill: #264653; fill-opacity: 0.94; stroke: #111827; stroke-opacity: 0.94; stroke-width: 0.8"/>
    </g>
   </g>
   <g id="text_15">
    <g clip-path="url(#p1575585143)">
     <!-- F1: Purity -->
     <g style="fill: #111827" transform="translate(58.812458 65.392355) scale(0.068 -0.068)">
      <defs>
       <path id="DejaVuSans-29" d="M 628 4666
L 3309 4666
L 3309 4134
L 1259 4134
L 1259 2759
L 3109 2759
L 3109 2228
L 1259 2228
L 1259 0
L 628 0
L 628 4666
z
" transform="scale(0.015625)"/>
       <path id="DejaVuSans-14" d="M 794 531
L 1825 531
L 1825 4091
L 703 3866
L 703 4441
L 1819 4666
L 2450 4666
L 2450 531
L 3481 531
L 3481 0
L 794 0
L 794 531
z
" transform="scale(0.015625)"/>
       <path id="DejaVuSans-1d" d="M 750 794
L 1409 794
L 1409 0
L 750 0
L 750 794
z
M 750 3309
L 1409 3309
L 1409 2516
L 750 2516
L 750 3309
z
" transform="scale(0.015625)"/>
       <path id="DejaVuSans-33" d="M 1259 4147
L 1259 2394
L 2053 2394
Q 2494 2394 2734 2622
Q 2975 2850 2975 3272
Q 2975 3691 2734 3919
Q 2494 4147 2053 4147
L 1259 4147
z
M 628 4666
L 2053 4666
Q 2838 4666 3239 4311
Q 3641 3956 3641 3272
Q 3641 2581 3239 2228
Q 2838 1875 2053 1875
L 1259 1875
L 1259 0
L 628 0
L 628 4666
z
" transform="scale(0.015625)"/>
       <path id="DejaVuSans-58" d="M 544 1381
L 544 3500
L 1119 3500
L 1119 1403
Q 1119 906 1312 657
Q 1506 409 1894 409
Q 2359 409 2629 706
Q 2900 1003 2900 1516
L 2900 3500
L 3475 3500
L 3475 0
L 2900 0
L 2900 538
Q 2691 219 2414 64
Q 2138 -91 1772 -91
Q 1169 -91 856 284
Q 544 659 544 1381
z
M 1991 3584
L 1991 3584
z
" transform="scale(0.015625)"/>
       <path id="DejaVuSans-55" d="M 2631 2963
Q 2534 3019 2420 3045
Q 2306 3072 2169 3072
Q 1681 3072 1420 2755
Q 1159 2438 1159 1844
L 1159 0
L 581 0
L 581 3500
L 1159 3500
L 1159 2956
Q 1341 3275 1631 3429
Q 1922 3584 2338 3584
Q 2397 3584 2469 3576
Q 2541 3569 2628 3553
L 2631 2963
z
" transform="scale(0.015625)"/>
       <path id="DejaVuSans-4c" d="M 603 3500
L 1178 3500
L 1178 0
L 603 0
L 603 3500
z
M 603 4863
L 1178 4863
L 1178 4134
L 603 4134
L 603 4863
z
" transform="scale(0.015625)"/>
       <path id="DejaVuSans-57" d="M 1172 4494
L 1172 3500
L 2356 3500
L 2356 3053
L 1172 3053
L 1172 1153
Q 1172 725 1289 603
Q 1406 481 1766 481
L 2356 481
L 2356 0
L 1766 0
Q 1100 0 847 248
Q 594 497 594 1153
L 594 3053
L 172 3053
L 172 3500
L 594 3500
L 594 4494
L 1172 4494
z
" transform="scale(0.015625)"/>
      </defs>
      <use xlink:href="#DejaVuSans-29"/>
      <use xlink:href="#DejaVuSans-14" transform="translate(57.515625 0)"/>
      <use xlink:href="#DejaVuSans-1d" transform="translate(121.140625 0)"/>
      <use xlink:href="#DejaVuSans-3" transform="translate(154.828125 0)"/>
      <use xlink:href="#DejaVuSans-33" transform="translate(186.609375 0)"/>
      <use xlink:href="#DejaVuSans-58" transform="translate(245.15625 0)"/>
      <use xlink:href="#DejaVuSans-55" transform="translate(308.53125 0)"/>
      <use xlink:href="#DejaVuSans-4c" transform="translate(349.640625 0)"/>
      <use xlink:href="#DejaVuSans-57" transform="translate(377.421875 0)"/>
      <use xlink:href="#DejaVuSans-5c" transform="translate(416.625 0)"/>
     </g>
    </g>
    <g clip-path="url(#p1575585143)">
     <!-- functional -->
     <g style="fill: #111827" transform="translate(58.073489 73.554214) scale(0.068 -0.068)">
      <defs>
       <path id="DejaVuSans-49" d="M 2375 4863
L 2375 4384
L 1825 4384
Q 1516 4384 1395 4259
Q 1275 4134 1275 3809
L 1275 3500
L 2222 3500
L 2222 3053
L 1275 3053
L 1275 0
L 697 0
L 697 3053
L 147 3053
L 147 3500
L 697 3500
L 697 3744
Q 697 4328 969 4595
Q 1241 4863 1831 4863
L 2375 4863
z
" transform="scale(0.015625)"/>
       <path id="DejaVuSans-46" d="M 3122 3366
L 3122 2828
Q 2878 2963 2633 3030
Q 2388 3097 2138 3097
Q 1578 3097 1268 2742
Q 959 2388 959 1747
Q 959 1106 1268 751
Q 1578 397 2138 397
Q 2388 397 2633 464
Q 2878 531 3122 666
L 3122 134
Q 2881 22 2623 -34
Q 2366 -91 2075 -91
Q 1284 -91 818 406
Q 353 903 353 1747
Q 353 2603 823 3093
Q 1294 3584 2113 3584
Q 2378 3584 2631 3529
Q 2884 3475 3122 3366
z
" transform="scale(0.015625)"/>
       <path id="DejaVuSans-44" d="M 2194 1759
Q 1497 1759 1228 1600
Q 959 1441 959 1056
Q 959 750 1161 570
Q 1363 391 1709 391
Q 2188 391 2477 730
Q 2766 1069 2766 1631
L 2766 1759
L 2194 1759
z
M 3341 1997
L 3341 0
L 2766 0
L 2766 531
Q 2569 213 2275 61
Q 1981 -91 1556 -91
Q 1019 -91 701 211
Q 384 513 384 1019
Q 384 1609 779 1909
Q 1175 2209 1959 2209
L 2766 2209
L 2766 2266
Q 2766 2663 2505 2880
Q 2244 3097 1772 3097
Q 1472 3097 1187 3025
Q 903 2953 641 2809
L 641 3341
Q 956 3463 1253 3523
Q 1550 3584 1831 3584
Q 2591 3584 2966 3190
Q 3341 2797 3341 1997
z
" transform="scale(0.015625)"/>
       <path id="DejaVuSans-4f" d="M 603 4863
L 1178 4863
L 1178 0
L 603 0
L 603 4863
z
" transform="scale(0.015625)"/>
      </defs>
      <use xlink:href="#DejaVuSans-49"/>
      <use xlink:href="#DejaVuSans-58" transform="translate(35.203125 0)"/>
      <use xlink:href="#DejaVuSans-51" transform="translate(98.578125 0)"/>
      <use xlink:href="#DejaVuSans-46" transform="translate(161.953125 0)"/>
      <use xlink:href="#DejaVuSans-57" transform="translate(216.9375 0)"/>
      <use xlink:href="#DejaVuSans-4c" transform="translate(256.140625 0)"/>
      <use xlink:href="#DejaVuSans-52" transform="translate(283.921875 0)"/>
      <use xlink:href="#DejaVuSans-51" transform="translate(345.109375 0)"/>
      <use xlink:href="#DejaVuSans-44" transform="translate(408.484375 0)"/>
      <use xlink:href="#DejaVuSans-4f" transform="translate(469.765625 0)"/>
     </g>
    </g>
   </g>
   <g id="text_16">
    <g clip-path="url(#p1575585143)">
     <!-- eq:purity_function -->
     <g style="fill: #111827" transform="translate(351.442943 65.392355) scale(0.068 -0.068)">
      <defs>
       <path id="DejaVuSans-54" d="M 947 1747
Q 947 1113 1208 752
Q 1469 391 1925 391
Q 2381 391 2643 752
Q 2906 1113 2906 1747
Q 2906 2381 2643 2742
Q 2381 3103 1925 3103
Q 1469 3103 1208 2742
Q 947 2381 947 1747
z
M 2906 525
Q 2725 213 2448 61
Q 2172 -91 1784 -91
Q 1150 -91 751 415
Q 353 922 353 1747
Q 353 2572 751 3078
Q 1150 3584 1784 3584
Q 2172 3584 2448 3432
Q 2725 3281 2906 2969
L 2906 3500
L 3481 3500
L 3481 -1331
L 2906 -1331
L 2906 525
z
" transform="scale(0.015625)"/>
       <path id="DejaVuSans-53" d="M 1159 525
L 1159 -1331
L 581 -1331
L 581 3500
L 1159 3500
L 1159 2969
Q 1341 3281 1617 3432
Q 1894 3584 2278 3584
Q 2916 3584 3314 3078
Q 3713 2572 3713 1747
Q 3713 922 3314 415
Q 2916 -91 2278 -91
Q 1894 -91 1617 61
Q 1341 213 1159 525
z
M 3116 1747
Q 3116 2381 2855 2742
Q 2594 3103 2138 3103
Q 1681 3103 1420 2742
Q 1159 2381 1159 1747
Q 1159 1113 1420 752
Q 1681 391 2138 391
Q 2594 391 2855 752
Q 3116 1113 3116 1747
z
" transform="scale(0.015625)"/>
       <path id="DejaVuSans-42" d="M 3263 -1063
L 3263 -1509
L -63 -1509
L -63 -1063
L 3263 -1063
z
" transform="scale(0.015625)"/>
      </defs>
      <use xlink:href="#DejaVuSans-48"/>
      <use xlink:href="#DejaVuSans-54" transform="translate(61.53125 0)"/>
      <use xlink:href="#DejaVuSans-1d" transform="translate(125.015625 0)"/>
      <use xlink:href="#DejaVuSans-53" transform="translate(158.703125 0)"/>
      <use xlink:href="#DejaVuSans-58" transform="translate(222.1875 0)"/>
      <use xlink:href="#DejaVuSans-55" transform="translate(285.5625 0)"/>
      <use xlink:href="#DejaVuSans-4c" transform="translate(326.671875 0)"/>
      <use xlink:href="#DejaVuSans-57" transform="translate(354.453125 0)"/>
      <use xlink:href="#DejaVuSans-5c" transform="translate(393.65625 0)"/>
      <use xlink:href="#DejaVuSans-42" transform="translate(452.84375 0)"/>
      <use xlink:href="#DejaVuSans-49" transform="translate(502.84375 0)"/>
      <use xlink:href="#DejaVuSans-58" transform="translate(538.046875 0)"/>
      <use xlink:href="#DejaVuSans-51" transform="translate(601.421875 0)"/>
      <use xlink:href="#DejaVuSans-46" transform="translate(664.796875 0)"/>
      <use xlink:href="#DejaVuSans-57" transform="translate(719.78125 0)"/>
      <use xlink:href="#DejaVuSans-4c" transform="translate(758.984375 0)"/>
      <use xlink:href="#DejaVuSans-52" transform="translate(786.765625 0)"/>
      <use xlink:href="#DejaVuSans-51" transform="translate(847.953125 0)"/>
     </g>
    </g>
    <g clip-path="url(#p1575585143)">
     <!-- al -->
     <g style="fill: #111827" transform="translate(379.399974 73.554214) scale(0.068 -0.068)">
      <use xlink:href="#DejaVuSans-44"/>
      <use xlink:href="#DejaVuSans-4f" transform="translate(61.28125 0)"/>
     </g>
    </g>
   </g>
   <g id="text_17">
    <g clip-path="url(#p1575585143)">
     <!-- purity.py -->
     <g style="fill: #111827" transform="translate(705.84223 69.473284) scale(0.068 -0.068)">
      <defs>
       <path id="DejaVuSans-11" d="M 684 794
L 1344 794
L 1344 0
L 684 0
L 684 794
z
" transform="scale(0.015625)"/>
      </defs>
      <use xlink:href="#DejaVuSans-53"/>
      <use xlink:href="#DejaVuSans-58" transform="translate(63.484375 0)"/>
      <use xlink:href="#DejaVuSans-55" transform="translate(126.859375 0)"/>
      <use xlink:href="#DejaVuSans-4c" transform="translate(167.96875 0)"/>
      <use xlink:href="#DejaVuSans-57" transform="translate(195.75 0)"/>
      <use xlink:href="#DejaVuSans-5c" transform="translate(234.953125 0)"/>
      <use xlink:href="#DejaVuSans-11" transform="translate(279.890625 0)"/>
      <use xlink:href="#DejaVuSans-53" transform="translate(311.671875 0)"/>
      <use xlink:href="#DejaVuSans-5c" transform="translate(375.15625 0)"/>
     </g>
    </g>
   </g>
   <g id="text_18">
    <g clip-path="url(#p1575585143)">
     <!-- F2: Monotone -->
     <g style="fill: #111827" transform="translate(51.736208 119.152089) scale(0.068 -0.068)">
      <defs>
       <path id="DejaVuSans-15" d="M 1228 531
L 3431 531
L 3431 0
L 469 0
L 469 531
Q 828 903 1448 1529
Q 2069 2156 2228 2338
Q 2531 2678 2651 2914
Q 2772 3150 2772 3378
Q 2772 3750 2511 3984
Q 2250 4219 1831 4219
Q 1534 4219 1204 4116
Q 875 4013 500 3803
L 500 4441
Q 881 4594 1212 4672
Q 1544 4750 1819 4750
Q 2544 4750 2975 4387
Q 3406 4025 3406 3419
Q 3406 3131 3298 2873
Q 3191 2616 2906 2266
Q 2828 2175 2409 1742
Q 1991 1309 1228 531
z
" transform="scale(0.015625)"/>
       <path id="DejaVuSans-30" d="M 628 4666
L 1569 4666
L 2759 1491
L 3956 4666
L 4897 4666
L 4897 0
L 4281 0
L 4281 4097
L 3078 897
L 2444 897
L 1241 4097
L 1241 0
L 628 0
L 628 4666
z
" transform="scale(0.015625)"/>
      </defs>
      <use xlink:href="#DejaVuSans-29"/>
      <use xlink:href="#DejaVuSans-15" transform="translate(57.515625 0)"/>
      <use xlink:href="#DejaVuSans-1d" transform="translate(121.140625 0)"/>
      <use xlink:href="#DejaVuSans-3" transform="translate(154.828125 0)"/>
      <use xlink:href="#DejaVuSans-30" transform="translate(186.609375 0)"/>
      <use xlink:href="#DejaVuSans-52" transform="translate(272.890625 0)"/>
      <use xlink:href="#DejaVuSans-51" transform="translate(334.078125 0)"/>
      <use xlink:href="#DejaVuSans-52" transform="translate(397.453125 0)"/>
      <use xlink:href="#DejaVuSans-57" transform="translate(458.640625 0)"/>
      <use xlink:href="#DejaVuSans-52" transform="translate(497.84375 0)"/>
      <use xlink:href="#DejaVuSans-51" transform="translate(559.03125 0)"/>
      <use xlink:href="#DejaVuSans-48" transform="translate(622.40625 0)"/>
     </g>
    </g>
    <g clip-path="url(#p1575585143)">
     <!-- refinement -->
     <g style="fill: #111827" transform="translate(56.295395 127.313948) scale(0.068 -0.068)">
      <defs>
       <path id="DejaVuSans-50" d="M 3328 2828
Q 3544 3216 3844 3400
Q 4144 3584 4550 3584
Q 5097 3584 5394 3201
Q 5691 2819 5691 2113
L 5691 0
L 5113 0
L 5113 2094
Q 5113 2597 4934 2840
Q 4756 3084 4391 3084
Q 3944 3084 3684 2787
Q 3425 2491 3425 1978
L 3425 0
L 2847 0
L 2847 2094
Q 2847 2600 2669 2842
Q 2491 3084 2119 3084
Q 1678 3084 1418 2786
Q 1159 2488 1159 1978
L 1159 0
L 581 0
L 581 3500
L 1159 3500
L 1159 2956
Q 1356 3278 1631 3431
Q 1906 3584 2284 3584
Q 2666 3584 2933 3390
Q 3200 3197 3328 2828
z
" transform="scale(0.015625)"/>
      </defs>
      <use xlink:href="#DejaVuSans-55"/>
      <use xlink:href="#DejaVuSans-48" transform="translate(38.90625 0)"/>
      <use xlink:href="#DejaVuSans-13af" transform="translate(100.4375 0)"/>
      <use xlink:href="#DejaVuSans-51" transform="translate(163.421875 0)"/>
      <use xlink:href="#DejaVuSans-48" transform="translate(226.796875 0)"/>
      <use xlink:href="#DejaVuSans-50" transform="translate(288.328125 0)"/>
      <use xlink:href="#DejaVuSans-48" transform="translate(385.734375 0)"/>
      <use xlink:href="#DejaVuSans-51" transform="translate(447.265625 0)"/>
      <use xlink:href="#DejaVuSans-57" transform="translate(510.640625 0)"/>
     </g>
    </g>
   </g>
   <g id="text_19">
    <g clip-path="url(#p1575585143)">
     <!-- eq:monotone_refine -->
     <g style="fill: #111827" transform="translate(348.24163 119.15262) scale(0.068 -0.068)">
      <use xlink:href="#DejaVuSans-48"/>
      <use xlink:href="#DejaVuSans-54" transform="translate(61.53125 0)"/>
      <use xlink:href="#DejaVuSans-1d" transform="translate(125.015625 0)"/>
      <use xlink:href="#DejaVuSans-50" transform="translate(158.703125 0)"/>
      <use xlink:href="#DejaVuSans-52" transform="translate(256.109375 0)"/>
      <use xlink:href="#DejaVuSans-51" transform="translate(317.296875 0)"/>
      <use xlink:href="#DejaVuSans-52" transform="translate(380.671875 0)"/>
      <use xlink:href="#DejaVuSans-57" transform="translate(441.859375 0)"/>
      <use xlink:href="#DejaVuSans-52" transform="translate(481.0625 0)"/>
      <use xlink:href="#DejaVuSans-51" transform="translate(542.25 0)"/>
      <use xlink:href="#DejaVuSans-48" transform="translate(605.625 0)"/>
      <use xlink:href="#DejaVuSans-42" transform="translate(667.15625 0)"/>
      <use xlink:href="#DejaVuSans-55" transform="translate(717.15625 0)"/>
      <use xlink:href="#DejaVuSans-48" transform="translate(756.0625 0)"/>
      <use xlink:href="#DejaVuSans-13af" transform="translate(817.59375 0)"/>
      <use xlink:href="#DejaVuSans-51" transform="translate(880.578125 0)"/>
      <use xlink:href="#DejaVuSans-48" transform="translate(943.953125 0)"/>
     </g>
    </g>
    <g clip-path="url(#p1575585143)">
     <!-- ry -->
     <g style="fill: #111827" transform="translate(379.018005 127.313948) scale(0.068 -0.068)">
      <use xlink:href="#DejaVuSans-55"/>
      <use xlink:href="#DejaVuSans-5c" transform="translate(41.109375 0)"/>
     </g>
    </g>
   </g>
   <g id="text_20">
    <g clip-path="url(#p1575585143)">
     <!-- purity.py -->
     <g style="fill: #111827" transform="translate(705.84223 123.233284) scale(0.068 -0.068)">
      <use xlink:href="#DejaVuSans-53"/>
      <use xlink:href="#DejaVuSans-58" transform="translate(63.484375 0)"/>
      <use xlink:href="#DejaVuSans-55" transform="translate(126.859375 0)"/>
      <use xlink:href="#DejaVuSans-4c" transform="translate(167.96875 0)"/>
      <use xlink:href="#DejaVuSans-57" transform="translate(195.75 0)"/>
      <use xlink:href="#DejaVuSans-5c" transform="translate(234.953125 0)"/>
      <use xlink:href="#DejaVuSans-11" transform="translate(279.890625 0)"/>
      <use xlink:href="#DejaVuSans-53" transform="translate(311.671875 0)"/>
      <use xlink:href="#DejaVuSans-5c" transform="translate(375.15625 0)"/>
     </g>
    </g>
   </g>
   <g id="text_21">
    <g clip-path="url(#p1575585143)">
     <!-- F3: Token- -->
     <g style="fill: #111827" transform="translate(57.744645 172.912355) scale(0.068 -0.068)">
      <defs>
       <path id="DejaVuSans-16" d="M 2597 2516
Q 3050 2419 3304 2112
Q 3559 1806 3559 1356
Q 3559 666 3084 287
Q 2609 -91 1734 -91
Q 1441 -91 1130 -33
Q 819 25 488 141
L 488 750
Q 750 597 1062 519
Q 1375 441 1716 441
Q 2309 441 2620 675
Q 2931 909 2931 1356
Q 2931 1769 2642 2001
Q 2353 2234 1838 2234
L 1294 2234
L 1294 2753
L 1863 2753
Q 2328 2753 2575 2939
Q 2822 3125 2822 3475
Q 2822 3834 2567 4026
Q 2313 4219 1838 4219
Q 1578 4219 1281 4162
Q 984 4106 628 3988
L 628 4550
Q 988 4650 1302 4700
Q 1616 4750 1894 4750
Q 2613 4750 3031 4423
Q 3450 4097 3450 3541
Q 3450 3153 3228 2886
Q 3006 2619 2597 2516
z
" transform="scale(0.015625)"/>
       <path id="DejaVuSans-37" d="M -19 4666
L 3928 4666
L 3928 4134
L 2272 4134
L 2272 0
L 1638 0
L 1638 4134
L -19 4134
L -19 4666
z
" transform="scale(0.015625)"/>
       <path id="DejaVuSans-4e" d="M 581 4863
L 1159 4863
L 1159 1991
L 2875 3500
L 3609 3500
L 1753 1863
L 3688 0
L 2938 0
L 1159 1709
L 1159 0
L 581 0
L 581 4863
z
" transform="scale(0.015625)"/>
       <path id="DejaVuSans-10" d="M 313 2009
L 1997 2009
L 1997 1497
L 313 1497
L 313 2009
z
" transform="scale(0.015625)"/>
      </defs>
      <use xlink:href="#DejaVuSans-29"/>
      <use xlink:href="#DejaVuSans-16" transform="translate(57.515625 0)"/>
      <use xlink:href="#DejaVuSans-1d" transform="translate(121.140625 0)"/>
      <use xlink:href="#DejaVuSans-3" transform="translate(154.828125 0)"/>
      <use xlink:href="#DejaVuSans-37" transform="translate(186.609375 0)"/>
      <use xlink:href="#DejaVuSans-52" transform="translate(230.703125 0)"/>
      <use xlink:href="#DejaVuSans-4e" transform="translate(291.890625 0)"/>
      <use xlink:href="#DejaVuSans-48" transform="translate(346.234375 0)"/>
      <use xlink:href="#DejaVuSans-51" transform="translate(407.765625 0)"/>
      <use xlink:href="#DejaVuSans-10" transform="translate(471.140625 0)"/>
     </g>
    </g>
    <g clip-path="url(#p1575585143)">
     <!-- selection digest -->
     <g style="fill: #111827" transform="translate(48.169926 181.074214) scale(0.068 -0.068)">
      <defs>
       <path id="DejaVuSans-4a" d="M 2906 1791
Q 2906 2416 2648 2759
Q 2391 3103 1925 3103
Q 1463 3103 1205 2759
Q 947 2416 947 1791
Q 947 1169 1205 825
Q 1463 481 1925 481
Q 2391 481 2648 825
Q 2906 1169 2906 1791
z
M 3481 434
Q 3481 -459 3084 -895
Q 2688 -1331 1869 -1331
Q 1566 -1331 1297 -1286
Q 1028 -1241 775 -1147
L 775 -588
Q 1028 -725 1275 -790
Q 1522 -856 1778 -856
Q 2344 -856 2625 -561
Q 2906 -266 2906 331
L 2906 616
Q 2728 306 2450 153
Q 2172 0 1784 0
Q 1141 0 747 490
Q 353 981 353 1791
Q 353 2603 747 3093
Q 1141 3584 1784 3584
Q 2172 3584 2450 3431
Q 2728 3278 2906 2969
L 2906 3500
L 3481 3500
L 3481 434
z
" transform="scale(0.015625)"/>
      </defs>
      <use xlink:href="#DejaVuSans-56"/>
      <use xlink:href="#DejaVuSans-48" transform="translate(52.09375 0)"/>
      <use xlink:href="#DejaVuSans-4f" transform="translate(113.625 0)"/>
      <use xlink:href="#DejaVuSans-48" transform="translate(141.40625 0)"/>
      <use xlink:href="#DejaVuSans-46" transform="translate(202.9375 0)"/>
      <use xlink:href="#DejaVuSans-57" transform="translate(257.921875 0)"/>
      <use xlink:href="#DejaVuSans-4c" transform="translate(297.125 0)"/>
      <use xlink:href="#DejaVuSans-52" transform="translate(324.90625 0)"/>
      <use xlink:href="#DejaVuSans-51" transform="translate(386.09375 0)"/>
      <use xlink:href="#DejaVuSans-3" transform="translate(449.46875 0)"/>
      <use xlink:href="#DejaVuSans-47" transform="translate(481.25 0)"/>
      <use xlink:href="#DejaVuSans-4c" transform="translate(544.734375 0)"/>
      <use xlink:href="#DejaVuSans-4a" transform="translate(572.515625 0)"/>
      <use xlink:href="#DejaVuSans-48" transform="translate(636 0)"/>
      <use xlink:href="#DejaVuSans-56" transform="translate(697.53125 0)"/>
      <use xlink:href="#DejaVuSans-57" transform="translate(749.625 0)"/>
     </g>
    </g>
   </g>
   <g id="text_22">
    <g clip-path="url(#p1575585143)">
     <!-- eq:token_digest -->
     <g style="fill: #111827" transform="translate(355.366755 176.993284) scale(0.068 -0.068)">
      <use xlink:href="#DejaVuSans-48"/>
      <use xlink:href="#DejaVuSans-54" transform="translate(61.53125 0)"/>
      <use xlink:href="#DejaVuSans-1d" transform="translate(125.015625 0)"/>
      <use xlink:href="#DejaVuSans-57" transform="translate(158.703125 0)"/>
      <use xlink:href="#DejaVuSans-52" transform="translate(197.90625 0)"/>
      <use xlink:href="#DejaVuSans-4e" transform="translate(259.09375 0)"/>
      <use xlink:href="#DejaVuSans-48" transform="translate(313.4375 0)"/>
      <use xlink:href="#DejaVuSans-51" transform="translate(374.96875 0)"/>
      <use xlink:href="#DejaVuSans-42" transform="translate(438.34375 0)"/>
      <use xlink:href="#DejaVuSans-47" transform="translate(488.34375 0)"/>
      <use xlink:href="#DejaVuSans-4c" transform="translate(551.828125 0)"/>
      <use xlink:href="#DejaVuSans-4a" transform="translate(579.609375 0)"/>
      <use xlink:href="#DejaVuSans-48" transform="translate(643.09375 0)"/>
      <use xlink:href="#DejaVuSans-56" transform="translate(704.625 0)"/>
      <use xlink:href="#DejaVuSans-57" transform="translate(756.71875 0)"/>
     </g>
    </g>
   </g>
   <g id="text_23">
    <g clip-path="url(#p1575585143)">
     <!-- composition.py -->
     <g style="fill: #111827" transform="translate(694.629667 176.993284) scale(0.068 -0.068)">
      <use xlink:href="#DejaVuSans-46"/>
      <use xlink:href="#DejaVuSans-52" transform="translate(54.984375 0)"/>
      <use xlink:href="#DejaVuSans-50" transform="translate(116.171875 0)"/>
      <use xlink:href="#DejaVuSans-53" transform="translate(213.578125 0)"/>
      <use xlink:href="#DejaVuSans-52" transform="translate(277.0625 0)"/>
      <use xlink:href="#DejaVuSans-56" transform="translate(338.25 0)"/>
      <use xlink:href="#DejaVuSans-4c" transform="translate(390.34375 0)"/>
      <use xlink:href="#DejaVuSans-57" transform="translate(418.125 0)"/>
      <use xlink:href="#DejaVuSans-4c" transform="translate(457.328125 0)"/>
      <use xlink:href="#DejaVuSans-52" transform="translate(485.109375 0)"/>
      <use xlink:href="#DejaVuSans-51" transform="translate(546.296875 0)"/>
      <use xlink:href="#DejaVuSans-11" transform="translate(609.671875 0)"/>
      <use xlink:href="#DejaVuSans-53" transform="translate(641.453125 0)"/>
      <use xlink:href="#DejaVuSans-5c" transform="translate(704.9375 0)"/>
     </g>
    </g>
   </g>
   <g id="text_24">
    <g clip-path="url(#p1575585143)">
     <!-- F4: Claim-support -->
     <g style="fill: #111827" transform="translate(44.706176 226.672355) scale(0.068 -0.068)">
      <defs>
       <path id="DejaVuSans-17" d="M 2419 4116
L 825 1625
L 2419 1625
L 2419 4116
z
M 2253 4666
L 3047 4666
L 3047 1625
L 3713 1625
L 3713 1100
L 3047 1100
L 3047 0
L 2419 0
L 2419 1100
L 313 1100
L 313 1709
L 2253 4666
z
" transform="scale(0.015625)"/>
       <path id="DejaVuSans-26" d="M 4122 4306
L 4122 3641
Q 3803 3938 3442 4084
Q 3081 4231 2675 4231
Q 1875 4231 1450 3742
Q 1025 3253 1025 2328
Q 1025 1406 1450 917
Q 1875 428 2675 428
Q 3081 428 3442 575
Q 3803 722 4122 1019
L 4122 359
Q 3791 134 3420 21
Q 3050 -91 2638 -91
Q 1578 -91 968 557
Q 359 1206 359 2328
Q 359 3453 968 4101
Q 1578 4750 2638 4750
Q 3056 4750 3426 4639
Q 3797 4528 4122 4306
z
" transform="scale(0.015625)"/>
      </defs>
      <use xlink:href="#DejaVuSans-29"/>
      <use xlink:href="#DejaVuSans-17" transform="translate(57.515625 0)"/>
      <use xlink:href="#DejaVuSans-1d" transform="translate(121.140625 0)"/>
      <use xlink:href="#DejaVuSans-3" transform="translate(154.828125 0)"/>
      <use xlink:href="#DejaVuSans-26" transform="translate(186.609375 0)"/>
      <use xlink:href="#DejaVuSans-4f" transform="translate(256.4375 0)"/>
      <use xlink:href="#DejaVuSans-44" transform="translate(284.21875 0)"/>
      <use xlink:href="#DejaVuSans-4c" transform="translate(345.5 0)"/>
      <use xlink:href="#DejaVuSans-50" transform="translate(373.28125 0)"/>
      <use xlink:href="#DejaVuSans-10" transform="translate(470.6875 0)"/>
      <use xlink:href="#DejaVuSans-56" transform="translate(506.765625 0)"/>
      <use xlink:href="#DejaVuSans-58" transform="translate(558.859375 0)"/>
      <use xlink:href="#DejaVuSans-53" transform="translate(622.234375 0)"/>
      <use xlink:href="#DejaVuSans-53" transform="translate(685.71875 0)"/>
      <use xlink:href="#DejaVuSans-52" transform="translate(749.203125 0)"/>
      <use xlink:href="#DejaVuSans-55" transform="translate(810.390625 0)"/>
      <use xlink:href="#DejaVuSans-57" transform="translate(851.5 0)"/>
     </g>
    </g>
    <g clip-path="url(#p1575585143)">
     <!-- fraction -->
     <g style="fill: #111827" transform="translate(61.929833 234.834214) scale(0.068 -0.068)">
      <use xlink:href="#DejaVuSans-49"/>
      <use xlink:href="#DejaVuSans-55" transform="translate(35.203125 0)"/>
      <use xlink:href="#DejaVuSans-44" transform="translate(76.3125 0)"/>
      <use xlink:href="#DejaVuSans-46" transform="translate(137.59375 0)"/>
      <use xlink:href="#DejaVuSans-57" transform="translate(192.578125 0)"/>
      <use xlink:href="#DejaVuSans-4c" transform="translate(231.78125 0)"/>
      <use xlink:href="#DejaVuSans-52" transform="translate(259.5625 0)"/>
      <use xlink:href="#DejaVuSans-51" transform="translate(320.75 0)"/>
     </g>
    </g>
   </g>
   <g id="text_25">
    <g clip-path="url(#p1575585143)">
     <!-- eq:claim_support -->
     <g style="fill: #111827" transform="translate(353.124349 230.753284) scale(0.068 -0.068)">
      <use xlink:href="#DejaVuSans-48"/>
      <use xlink:href="#DejaVuSans-54" transform="translate(61.53125 0)"/>
      <use xlink:href="#DejaVuSans-1d" transform="translate(125.015625 0)"/>
      <use xlink:href="#DejaVuSans-46" transform="translate(158.703125 0)"/>
      <use xlink:href="#DejaVuSans-4f" transform="translate(213.6875 0)"/>
      <use xlink:href="#DejaVuSans-44" transform="translate(241.46875 0)"/>
      <use xlink:href="#DejaVuSans-4c" transform="translate(302.75 0)"/>
      <use xlink:href="#DejaVuSans-50" transform="translate(330.53125 0)"/>
      <use xlink:href="#DejaVuSans-42" transform="translate(427.9375 0)"/>
      <use xlink:href="#DejaVuSans-56" transform="translate(477.9375 0)"/>
      <use xlink:href="#DejaVuSans-58" transform="translate(530.03125 0)"/>
      <use xlink:href="#DejaVuSans-53" transform="translate(593.40625 0)"/>
      <use xlink:href="#DejaVuSans-53" transform="translate(656.890625 0)"/>
      <use xlink:href="#DejaVuSans-52" transform="translate(720.375 0)"/>
      <use xlink:href="#DejaVuSans-55" transform="translate(781.5625 0)"/>
      <use xlink:href="#DejaVuSans-57" transform="translate(822.671875 0)"/>
     </g>
    </g>
   </g>
   <g id="text_26">
    <g clip-path="url(#p1575585143)">
     <!-- evidence.py -->
     <g style="fill: #111827" transform="translate(699.942699 230.753284) scale(0.068 -0.068)">
      <defs>
       <path id="DejaVuSans-59" d="M 191 3500
L 800 3500
L 1894 563
L 2988 3500
L 3597 3500
L 2284 0
L 1503 0
L 191 3500
z
" transform="scale(0.015625)"/>
      </defs>
      <use xlink:href="#DejaVuSans-48"/>
      <use xlink:href="#DejaVuSans-59" transform="translate(61.53125 0)"/>
      <use xlink:href="#DejaVuSans-4c" transform="translate(120.71875 0)"/>
      <use xlink:href="#DejaVuSans-47" transform="translate(148.5 0)"/>
      <use xlink:href="#DejaVuSans-48" transform="translate(211.984375 0)"/>
      <use xlink:href="#DejaVuSans-51" transform="translate(273.515625 0)"/>
      <use xlink:href="#DejaVuSans-46" transform="translate(336.890625 0)"/>
      <use xlink:href="#DejaVuSans-48" transform="translate(391.875 0)"/>
      <use xlink:href="#DejaVuSans-11" transform="translate(453.40625 0)"/>
      <use xlink:href="#DejaVuSans-53" transform="translate(485.1875 0)"/>
      <use xlink:href="#DejaVuSans-5c" transform="translate(548.671875 0)"/>
     </g>
    </g>
   </g>
   <g id="text_27">
    <g clip-path="url(#p1575585143)">
     <!-- F5: Integrity -->
     <g style="fill: #111827" transform="translate(54.216614 280.43262) scale(0.068 -0.068)">
      <defs>
       <path id="DejaVuSans-18" d="M 691 4666
L 3169 4666
L 3169 4134
L 1269 4134
L 1269 2991
Q 1406 3038 1543 3061
Q 1681 3084 1819 3084
Q 2600 3084 3056 2656
Q 3513 2228 3513 1497
Q 3513 744 3044 326
Q 2575 -91 1722 -91
Q 1428 -91 1123 -41
Q 819 9 494 109
L 494 744
Q 775 591 1075 516
Q 1375 441 1709 441
Q 2250 441 2565 725
Q 2881 1009 2881 1497
Q 2881 1984 2565 2268
Q 2250 2553 1709 2553
Q 1456 2553 1204 2497
Q 953 2441 691 2322
L 691 4666
z
" transform="scale(0.015625)"/>
       <path id="DejaVuSans-2c" d="M 628 4666
L 1259 4666
L 1259 0
L 628 0
L 628 4666
z
" transform="scale(0.015625)"/>
      </defs>
      <use xlink:href="#DejaVuSans-29"/>
      <use xlink:href="#DejaVuSans-18" transform="translate(57.515625 0)"/>
      <use xlink:href="#DejaVuSans-1d" transform="translate(121.140625 0)"/>
      <use xlink:href="#DejaVuSans-3" transform="translate(154.828125 0)"/>
      <use xlink:href="#DejaVuSans-2c" transform="translate(186.609375 0)"/>
      <use xlink:href="#DejaVuSans-51" transform="translate(216.109375 0)"/>
      <use xlink:href="#DejaVuSans-57" transform="translate(279.484375 0)"/>
      <use xlink:href="#DejaVuSans-48" transform="translate(318.6875 0)"/>
      <use xlink:href="#DejaVuSans-4a" transform="translate(380.21875 0)"/>
      <use xlink:href="#DejaVuSans-55" transform="translate(443.703125 0)"/>
      <use xlink:href="#DejaVuSans-4c" transform="translate(484.8125 0)"/>
      <use xlink:href="#DejaVuSans-57" transform="translate(512.59375 0)"/>
      <use xlink:href="#DejaVuSans-5c" transform="translate(551.796875 0)"/>
     </g>
    </g>
    <g clip-path="url(#p1575585143)">
     <!-- vector -->
     <g style="fill: #111827" transform="translate(64.205176 288.593948) scale(0.068 -0.068)">
      <use xlink:href="#DejaVuSans-59"/>
      <use xlink:href="#DejaVuSans-48" transform="translate(59.1875 0)"/>
      <use xlink:href="#DejaVuSans-46" transform="translate(120.71875 0)"/>
      <use xlink:href="#DejaVuSans-57" transform="translate(175.703125 0)"/>
      <use xlink:href="#DejaVuSans-52" transform="translate(214.90625 0)"/>
      <use xlink:href="#DejaVuSans-55" transform="translate(276.09375 0)"/>
     </g>
    </g>
   </g>
   <g id="text_28">
    <g clip-path="url(#p1575585143)">
     <!-- eq:integrity_vecto -->
     <g style="fill: #111827" transform="translate(351.574693 280.43262) scale(0.068 -0.068)">
      <use xlink:href="#DejaVuSans-48"/>
      <use xlink:href="#DejaVuSans-54" transform="translate(61.53125 0)"/>
      <use xlink:href="#DejaVuSans-1d" transform="translate(125.015625 0)"/>
      <use xlink:href="#DejaVuSans-4c" transform="translate(158.703125 0)"/>
      <use xlink:href="#DejaVuSans-51" transform="translate(186.484375 0)"/>
      <use xlink:href="#DejaVuSans-57" transform="translate(249.859375 0)"/>
      <use xlink:href="#DejaVuSans-48" transform="translate(289.0625 0)"/>
      <use xlink:href="#DejaVuSans-4a" transform="translate(350.59375 0)"/>
      <use xlink:href="#DejaVuSans-55" transform="translate(414.078125 0)"/>
      <use xlink:href="#DejaVuSans-4c" transform="translate(455.1875 0)"/>
      <use xlink:href="#DejaVuSans-57" transform="translate(482.96875 0)"/>
      <use xlink:href="#DejaVuSans-5c" transform="translate(522.171875 0)"/>
      <use xlink:href="#DejaVuSans-42" transform="translate(581.359375 0)"/>
      <use xlink:href="#DejaVuSans-59" transform="translate(631.359375 0)"/>
      <use xlink:href="#DejaVuSans-48" transform="translate(690.546875 0)"/>
      <use xlink:href="#DejaVuSans-46" transform="translate(752.078125 0)"/>
      <use xlink:href="#DejaVuSans-57" transform="translate(807.0625 0)"/>
      <use xlink:href="#DejaVuSans-52" transform="translate(846.265625 0)"/>
     </g>
    </g>
    <g clip-path="url(#p1575585143)">
     <!-- r -->
     <g style="fill: #111827" transform="translate(381.03038 288.593948) scale(0.068 -0.068)">
      <use xlink:href="#DejaVuSans-55"/>
     </g>
    </g>
   </g>
   <g id="text_29">
    <g clip-path="url(#p1575585143)">
     <!-- config.yaml -->
     <g style="fill: #111827" transform="translate(700.772511 284.513284) scale(0.068 -0.068)">
      <use xlink:href="#DejaVuSans-46"/>
      <use xlink:href="#DejaVuSans-52" transform="translate(54.984375 0)"/>
      <use xlink:href="#DejaVuSans-51" transform="translate(116.171875 0)"/>
      <use xlink:href="#DejaVuSans-13af" transform="translate(179.546875 0)"/>
      <use xlink:href="#DejaVuSans-4a" transform="translate(242.53125 0)"/>
      <use xlink:href="#DejaVuSans-11" transform="translate(306.015625 0)"/>
      <use xlink:href="#DejaVuSans-5c" transform="translate(337.796875 0)"/>
      <use xlink:href="#DejaVuSans-44" transform="translate(396.984375 0)"/>
      <use xlink:href="#DejaVuSans-50" transform="translate(458.265625 0)"/>
      <use xlink:href="#DejaVuSans-4f" transform="translate(555.671875 0)"/>
     </g>
    </g>
   </g>
   <g id="text_30">
    <g clip-path="url(#p1575585143)">
     <!-- F6: Certification -->
     <g style="fill: #111827" transform="translate(47.896864 334.192355) scale(0.068 -0.068)">
      <defs>
       <path id="DejaVuSans-19" d="M 2113 2584
Q 1688 2584 1439 2293
Q 1191 2003 1191 1497
Q 1191 994 1439 701
Q 1688 409 2113 409
Q 2538 409 2786 701
Q 3034 994 3034 1497
Q 3034 2003 2786 2293
Q 2538 2584 2113 2584
z
M 3366 4563
L 3366 3988
Q 3128 4100 2886 4159
Q 2644 4219 2406 4219
Q 1781 4219 1451 3797
Q 1122 3375 1075 2522
Q 1259 2794 1537 2939
Q 1816 3084 2150 3084
Q 2853 3084 3261 2657
Q 3669 2231 3669 1497
Q 3669 778 3244 343
Q 2819 -91 2113 -91
Q 1303 -91 875 529
Q 447 1150 447 2328
Q 447 3434 972 4092
Q 1497 4750 2381 4750
Q 2619 4750 2861 4703
Q 3103 4656 3366 4563
z
" transform="scale(0.015625)"/>
      </defs>
      <use xlink:href="#DejaVuSans-29"/>
      <use xlink:href="#DejaVuSans-19" transform="translate(57.515625 0)"/>
      <use xlink:href="#DejaVuSans-1d" transform="translate(121.140625 0)"/>
      <use xlink:href="#DejaVuSans-3" transform="translate(154.828125 0)"/>
      <use xlink:href="#DejaVuSans-26" transform="translate(186.609375 0)"/>
      <use xlink:href="#DejaVuSans-48" transform="translate(256.4375 0)"/>
      <use xlink:href="#DejaVuSans-55" transform="translate(317.96875 0)"/>
      <use xlink:href="#DejaVuSans-57" transform="translate(359.078125 0)"/>
      <use xlink:href="#DejaVuSans-4c" transform="translate(398.28125 0)"/>
      <use xlink:href="#DejaVuSans-13af" transform="translate(426.0625 0)"/>
      <use xlink:href="#DejaVuSans-46" transform="translate(489.046875 0)"/>
      <use xlink:href="#DejaVuSans-44" transform="translate(544.03125 0)"/>
      <use xlink:href="#DejaVuSans-57" transform="translate(605.3125 0)"/>
      <use xlink:href="#DejaVuSans-4c" transform="translate(644.515625 0)"/>
      <use xlink:href="#DejaVuSans-52" transform="translate(672.296875 0)"/>
      <use xlink:href="#DejaVuSans-51" transform="translate(733.484375 0)"/>
     </g>
    </g>
    <g clip-path="url(#p1575585143)">
     <!-- predicate -->
     <g style="fill: #111827" transform="translate(58.935708 342.354214) scale(0.068 -0.068)">
      <use xlink:href="#DejaVuSans-53"/>
      <use xlink:href="#DejaVuSans-55" transform="translate(63.484375 0)"/>
      <use xlink:href="#DejaVuSans-48" transform="translate(102.390625 0)"/>
      <use xlink:href="#DejaVuSans-47" transform="translate(163.921875 0)"/>
      <use xlink:href="#DejaVuSans-4c" transform="translate(227.40625 0)"/>
      <use xlink:href="#DejaVuSans-46" transform="translate(255.1875 0)"/>
      <use xlink:href="#DejaVuSans-44" transform="translate(310.171875 0)"/>
      <use xlink:href="#DejaVuSans-57" transform="translate(371.453125 0)"/>
      <use xlink:href="#DejaVuSans-48" transform="translate(410.65625 0)"/>
     </g>
    </g>
   </g>
   <g id="text_31">
    <g clip-path="url(#p1575585143)">
     <!-- eq:certification_p -->
     <g style="fill: #111827" transform="translate(352.929912 334.192355) scale(0.068 -0.068)">
      <use xlink:href="#DejaVuSans-48"/>
      <use xlink:href="#DejaVuSans-54" transform="translate(61.53125 0)"/>
      <use xlink:href="#DejaVuSans-1d" transform="translate(125.015625 0)"/>
      <use xlink:href="#DejaVuSans-46" transform="translate(158.703125 0)"/>
      <use xlink:href="#DejaVuSans-48" transform="translate(213.6875 0)"/>
      <use xlink:href="#DejaVuSans-55" transform="translate(275.21875 0)"/>
      <use xlink:href="#DejaVuSans-57" transform="translate(316.328125 0)"/>
      <use xlink:href="#DejaVuSans-4c" transform="translate(355.53125 0)"/>
      <use xlink:href="#DejaVuSans-13af" transform="translate(383.3125 0)"/>
      <use xlink:href="#DejaVuSans-46" transform="translate(446.296875 0)"/>
      <use xlink:href="#DejaVuSans-44" transform="translate(501.28125 0)"/>
      <use xlink:href="#DejaVuSans-57" transform="translate(562.5625 0)"/>
      <use xlink:href="#DejaVuSans-4c" transform="translate(601.765625 0)"/>
      <use xlink:href="#DejaVuSans-52" transform="translate(629.546875 0)"/>
      <use xlink:href="#DejaVuSans-51" transform="translate(690.734375 0)"/>
      <use xlink:href="#DejaVuSans-42" transform="translate(754.109375 0)"/>
      <use xlink:href="#DejaVuSans-53" transform="translate(804.109375 0)"/>
     </g>
    </g>
    <g clip-path="url(#p1575585143)">
     <!-- redicate -->
     <g style="fill: #111827" transform="translate(368.532193 342.354214) scale(0.068 -0.068)">
      <use xlink:href="#DejaVuSans-55"/>
      <use xlink:href="#DejaVuSans-48" transform="translate(38.90625 0)"/>
      <use xlink:href="#DejaVuSans-47" transform="translate(100.4375 0)"/>
      <use xlink:href="#DejaVuSans-4c" transform="translate(163.921875 0)"/>
      <use xlink:href="#DejaVuSans-46" transform="translate(191.703125 0)"/>
      <use xlink:href="#DejaVuSans-44" transform="translate(246.6875 0)"/>
      <use xlink:href="#DejaVuSans-57" transform="translate(307.96875 0)"/>
      <use xlink:href="#DejaVuSans-48" transform="translate(347.171875 0)"/>
     </g>
    </g>
   </g>
   <g id="text_32">
    <g clip-path="url(#p1575585143)">
     <!-- refinery.py -->
     <g style="fill: #111827" transform="translate(702.629761 338.273284) scale(0.068 -0.068)">
      <use xlink:href="#DejaVuSans-55"/>
      <use xlink:href="#DejaVuSans-48" transform="translate(38.90625 0)"/>
      <use xlink:href="#DejaVuSans-13af" transform="translate(100.4375 0)"/>
      <use xlink:href="#DejaVuSans-51" transform="translate(163.421875 0)"/>
      <use xlink:href="#DejaVuSans-48" transform="translate(226.796875 0)"/>
      <use xlink:href="#DejaVuSans-55" transform="translate(288.328125 0)"/>
      <use xlink:href="#DejaVuSans-5c" transform="translate(329.4375 0)"/>
      <use xlink:href="#DejaVuSans-11" transform="translate(374.375 0)"/>
      <use xlink:href="#DejaVuSans-53" transform="translate(406.15625 0)"/>
      <use xlink:href="#DejaVuSans-5c" transform="translate(469.640625 0)"/>
     </g>
    </g>
   </g>
   <g id="text_33">
    <g clip-path="url(#p1575585143)">
     <!-- F7: Adversarial -->
     <g style="fill: #111827" transform="translate(49.49327 387.95262) scale(0.068 -0.068)">
      <defs>
       <path id="DejaVuSans-1a" d="M 525 4666
L 3525 4666
L 3525 4397
L 1831 0
L 1172 0
L 2766 4134
L 525 4134
L 525 4666
z
" transform="scale(0.015625)"/>
       <path id="DejaVuSans-24" d="M 2188 4044
L 1331 1722
L 3047 1722
L 2188 4044
z
M 1831 4666
L 2547 4666
L 4325 0
L 3669 0
L 3244 1197
L 1141 1197
L 716 0
L 50 0
L 1831 4666
z
" transform="scale(0.015625)"/>
      </defs>
      <use xlink:href="#DejaVuSans-29"/>
      <use xlink:href="#DejaVuSans-1a" transform="translate(57.515625 0)"/>
      <use xlink:href="#DejaVuSans-1d" transform="translate(121.140625 0)"/>
      <use xlink:href="#DejaVuSans-3" transform="translate(154.828125 0)"/>
      <use xlink:href="#DejaVuSans-24" transform="translate(186.609375 0)"/>
      <use xlink:href="#DejaVuSans-47" transform="translate(253.265625 0)"/>
      <use xlink:href="#DejaVuSans-59" transform="translate(316.75 0)"/>
      <use xlink:href="#DejaVuSans-48" transform="translate(375.9375 0)"/>
      <use xlink:href="#DejaVuSans-55" transform="translate(437.46875 0)"/>
      <use xlink:href="#DejaVuSans-56" transform="translate(478.578125 0)"/>
      <use xlink:href="#DejaVuSans-44" transform="translate(530.671875 0)"/>
      <use xlink:href="#DejaVuSans-55" transform="translate(591.953125 0)"/>
      <use xlink:href="#DejaVuSans-4c" transform="translate(633.0625 0)"/>
      <use xlink:href="#DejaVuSans-44" transform="translate(660.84375 0)"/>
      <use xlink:href="#DejaVuSans-4f" transform="translate(722.125 0)"/>
     </g>
    </g>
    <g clip-path="url(#p1575585143)">
     <!-- assay -->
     <g style="fill: #111827" transform="translate(65.268208 396.113948) scale(0.068 -0.068)">
      <use xlink:href="#DejaVuSans-44"/>
      <use xlink:href="#DejaVuSans-56" transform="translate(61.28125 0)"/>
      <use xlink:href="#DejaVuSans-56" transform="translate(113.375 0)"/>
      <use xlink:href="#DejaVuSans-44" transform="translate(165.46875 0)"/>
      <use xlink:href="#DejaVuSans-5c" transform="translate(226.75 0)"/>
     </g>
    </g>
   </g>
   <g id="text_34">
    <g clip-path="url(#p1575585143)">
     <!-- eq:adversarial_ass -->
     <g style="fill: #111827" transform="translate(350.736912 387.95262) scale(0.068 -0.068)">
      <use xlink:href="#DejaVuSans-48"/>
      <use xlink:href="#DejaVuSans-54" transform="translate(61.53125 0)"/>
      <use xlink:href="#DejaVuSans-1d" transform="translate(125.015625 0)"/>
      <use xlink:href="#DejaVuSans-44" transform="translate(158.703125 0)"/>
      <use xlink:href="#DejaVuSans-47" transform="translate(219.984375 0)"/>
      <use xlink:href="#DejaVuSans-59" transform="translate(283.46875 0)"/>
      <use xlink:href="#DejaVuSans-48" transform="translate(342.65625 0)"/>
      <use xlink:href="#DejaVuSans-55" transform="translate(404.1875 0)"/>
      <use xlink:href="#DejaVuSans-56" transform="translate(445.296875 0)"/>
      <use xlink:href="#DejaVuSans-44" transform="translate(497.390625 0)"/>
      <use xlink:href="#DejaVuSans-55" transform="translate(558.671875 0)"/>
      <use xlink:href="#DejaVuSans-4c" transform="translate(599.78125 0)"/>
      <use xlink:href="#DejaVuSans-44" transform="translate(627.5625 0)"/>
      <use xlink:href="#DejaVuSans-4f" transform="translate(688.84375 0)"/>
      <use xlink:href="#DejaVuSans-42" transform="translate(716.625 0)"/>
      <use xlink:href="#DejaVuSans-44" transform="translate(766.625 0)"/>
      <use xlink:href="#DejaVuSans-56" transform="translate(827.90625 0)"/>
      <use xlink:href="#DejaVuSans-56" transform="translate(880 0)"/>
     </g>
    </g>
    <g clip-path="url(#p1575585143)">
     <!-- ay -->
     <g style="fill: #111827" transform="translate(378.332162 396.113948) scale(0.068 -0.068)">
      <use xlink:href="#DejaVuSans-44"/>
      <use xlink:href="#DejaVuSans-5c" transform="translate(61.28125 0)"/>
     </g>
    </g>
   </g>
   <g id="text_35">
    <g clip-path="url(#p1575585143)">
     <!-- security_assay.py -->
     <g style="fill: #111827" transform="translate(690.846105 392.033284) scale(0.068 -0.068)">
      <use xlink:href="#DejaVuSans-56"/>
      <use xlink:href="#DejaVuSans-48" transform="translate(52.09375 0)"/>
      <use xlink:href="#DejaVuSans-46" transform="translate(113.625 0)"/>
      <use xlink:href="#DejaVuSans-58" transform="translate(168.609375 0)"/>
      <use xlink:href="#DejaVuSans-55" transform="translate(231.984375 0)"/>
      <use xlink:href="#DejaVuSans-4c" transform="translate(273.09375 0)"/>
      <use xlink:href="#DejaVuSans-57" transform="translate(300.875 0)"/>
      <use xlink:href="#DejaVuSans-5c" transform="translate(340.078125 0)"/>
      <use xlink:href="#DejaVuSans-42" transform="translate(399.265625 0)"/>
      <use xlink:href="#DejaVuSans-44" transform="translate(449.265625 0)"/>
      <use xlink:href="#DejaVuSans-56" transform="translate(510.546875 0)"/>
      <use xlink:href="#DejaVuSans-56" transform="translate(562.640625 0)"/>
      <use xlink:href="#DejaVuSans-44" transform="translate(614.734375 0)"/>
      <use xlink:href="#DejaVuSans-5c" transform="translate(676.015625 0)"/>
      <use xlink:href="#DejaVuSans-11" transform="translate(720.953125 0)"/>
      <use xlink:href="#DejaVuSans-53" transform="translate(752.734375 0)"/>
      <use xlink:href="#DejaVuSans-5c" transform="translate(816.21875 0)"/>
     </g>
    </g>
   </g>
   <g id="text_36">
    <!-- Formalism -->
    <g transform="translate(110.6915 53.352692) scale(0.1 -0.1)">
     <defs>
      <path id="DejaVuSans-Bold-29" d="M 588 4666
L 3834 4666
L 3834 3756
L 1791 3756
L 1791 2888
L 3713 2888
L 3713 1978
L 1791 1978
L 1791 0
L 588 0
L 588 4666
z
" transform="scale(0.015625)"/>
      <path id="DejaVuSans-Bold-52" d="M 2203 2784
Q 1831 2784 1636 2517
Q 1441 2250 1441 1747
Q 1441 1244 1636 976
Q 1831 709 2203 709
Q 2569 709 2762 976
Q 2956 1244 2956 1747
Q 2956 2250 2762 2517
Q 2569 2784 2203 2784
z
M 2203 3584
Q 3106 3584 3614 3096
Q 4122 2609 4122 1747
Q 4122 884 3614 396
Q 3106 -91 2203 -91
Q 1297 -91 786 396
Q 275 884 275 1747
Q 275 2609 786 3096
Q 1297 3584 2203 3584
z
" transform="scale(0.015625)"/>
      <path id="DejaVuSans-Bold-55" d="M 3138 2547
Q 2991 2616 2845 2648
Q 2700 2681 2553 2681
Q 2122 2681 1889 2404
Q 1656 2128 1656 1613
L 1656 0
L 538 0
L 538 3500
L 1656 3500
L 1656 2925
Q 1872 3269 2151 3426
Q 2431 3584 2822 3584
Q 2878 3584 2943 3579
Q 3009 3575 3134 3559
L 3138 2547
z
" transform="scale(0.015625)"/>
      <path id="DejaVuSans-Bold-50" d="M 3781 2919
Q 3994 3244 4286 3414
Q 4578 3584 4928 3584
Q 5531 3584 5847 3212
Q 6163 2841 6163 2131
L 6163 0
L 5038 0
L 5038 1825
Q 5041 1866 5042 1909
Q 5044 1953 5044 2034
Q 5044 2406 4934 2573
Q 4825 2741 4581 2741
Q 4263 2741 4089 2478
Q 3916 2216 3909 1719
L 3909 0
L 2784 0
L 2784 1825
Q 2784 2406 2684 2573
Q 2584 2741 2328 2741
Q 2006 2741 1831 2477
Q 1656 2213 1656 1722
L 1656 0
L 531 0
L 531 3500
L 1656 3500
L 1656 2988
Q 1863 3284 2130 3434
Q 2397 3584 2719 3584
Q 3081 3584 3359 3409
Q 3638 3234 3781 2919
z
" transform="scale(0.015625)"/>
      <path id="DejaVuSans-Bold-44" d="M 2106 1575
Q 1756 1575 1579 1456
Q 1403 1338 1403 1106
Q 1403 894 1545 773
Q 1688 653 1941 653
Q 2256 653 2472 879
Q 2688 1106 2688 1447
L 2688 1575
L 2106 1575
z
M 3816 1997
L 3816 0
L 2688 0
L 2688 519
Q 2463 200 2181 54
Q 1900 -91 1497 -91
Q 953 -91 614 226
Q 275 544 275 1050
Q 275 1666 698 1953
Q 1122 2241 2028 2241
L 2688 2241
L 2688 2328
Q 2688 2594 2478 2717
Q 2269 2841 1825 2841
Q 1466 2841 1156 2769
Q 847 2697 581 2553
L 581 3406
Q 941 3494 1303 3539
Q 1666 3584 2028 3584
Q 2975 3584 3395 3211
Q 3816 2838 3816 1997
z
" transform="scale(0.015625)"/>
      <path id="DejaVuSans-Bold-4f" d="M 538 4863
L 1656 4863
L 1656 0
L 538 0
L 538 4863
z
" transform="scale(0.015625)"/>
      <path id="DejaVuSans-Bold-4c" d="M 538 3500
L 1656 3500
L 1656 0
L 538 0
L 538 3500
z
M 538 4863
L 1656 4863
L 1656 3950
L 538 3950
L 538 4863
z
" transform="scale(0.015625)"/>
      <path id="DejaVuSans-Bold-56" d="M 3272 3391
L 3272 2541
Q 2913 2691 2578 2766
Q 2244 2841 1947 2841
Q 1628 2841 1473 2761
Q 1319 2681 1319 2516
Q 1319 2381 1436 2309
Q 1553 2238 1856 2203
L 2053 2175
Q 2913 2066 3209 1816
Q 3506 1566 3506 1031
Q 3506 472 3093 190
Q 2681 -91 1863 -91
Q 1516 -91 1145 -36
Q 775 19 384 128
L 384 978
Q 719 816 1070 734
Q 1422 653 1784 653
Q 2113 653 2278 743
Q 2444 834 2444 1013
Q 2444 1163 2330 1236
Q 2216 1309 1875 1350
L 1678 1375
Q 931 1469 631 1722
Q 331 1975 331 2491
Q 331 3047 712 3315
Q 1094 3584 1881 3584
Q 2191 3584 2531 3537
Q 2872 3491 3272 3391
z
" transform="scale(0.015625)"/>
     </defs>
     <use xlink:href="#DejaVuSans-Bold-29"/>
     <use xlink:href="#DejaVuSans-Bold-52" transform="translate(64.265625 0)"/>
     <use xlink:href="#DejaVuSans-Bold-55" transform="translate(132.96875 0)"/>
     <use xlink:href="#DejaVuSans-Bold-50" transform="translate(182.28125 0)"/>
     <use xlink:href="#DejaVuSans-Bold-44" transform="translate(286.484375 0)"/>
     <use xlink:href="#DejaVuSans-Bold-4f" transform="translate(353.96875 0)"/>
     <use xlink:href="#DejaVuSans-Bold-4c" transform="translate(388.25 0)"/>
     <use xlink:href="#DejaVuSans-Bold-56" transform="translate(422.53125 0)"/>
     <use xlink:href="#DejaVuSans-Bold-50" transform="translate(482.046875 0)"/>
    </g>
   </g>
   <g id="text_37">
    <!-- Equation label -->
    <g transform="translate(357.260156 53.352692) scale(0.1 -0.1)">
     <defs>
      <path id="DejaVuSans-Bold-28" d="M 588 4666
L 3834 4666
L 3834 3756
L 1791 3756
L 1791 2888
L 3713 2888
L 3713 1978
L 1791 1978
L 1791 909
L 3903 909
L 3903 0
L 588 0
L 588 4666
z
" transform="scale(0.015625)"/>
      <path id="DejaVuSans-Bold-54" d="M 2181 2772
Q 1825 2772 1636 2509
Q 1447 2247 1447 1747
Q 1447 1247 1636 984
Q 1825 722 2181 722
Q 2541 722 2730 984
Q 2919 1247 2919 1747
Q 2919 2247 2730 2509
Q 2541 2772 2181 2772
z
M 2919 506
Q 2688 197 2409 53
Q 2131 -91 1766 -91
Q 1119 -91 703 423
Q 288 938 288 1747
Q 288 2556 703 3067
Q 1119 3578 1766 3578
Q 2131 3578 2409 3434
Q 2688 3291 2919 2981
L 2919 3500
L 4044 3500
L 4044 -1331
L 2919 -1331
L 2919 506
z
" transform="scale(0.015625)"/>
      <path id="DejaVuSans-Bold-58" d="M 500 1363
L 500 3500
L 1625 3500
L 1625 3150
Q 1625 2866 1622 2436
Q 1619 2006 1619 1863
Q 1619 1441 1641 1255
Q 1663 1069 1716 984
Q 1784 875 1895 815
Q 2006 756 2150 756
Q 2500 756 2700 1025
Q 2900 1294 2900 1772
L 2900 3500
L 4019 3500
L 4019 0
L 2900 0
L 2900 506
Q 2647 200 2364 54
Q 2081 -91 1741 -91
Q 1134 -91 817 281
Q 500 653 500 1363
z
" transform="scale(0.015625)"/>
      <path id="DejaVuSans-Bold-57" d="M 1759 4494
L 1759 3500
L 2913 3500
L 2913 2700
L 1759 2700
L 1759 1216
Q 1759 972 1856 886
Q 1953 800 2241 800
L 2816 800
L 2816 0
L 1856 0
Q 1194 0 917 276
Q 641 553 641 1216
L 641 2700
L 84 2700
L 84 3500
L 641 3500
L 641 4494
L 1759 4494
z
" transform="scale(0.015625)"/>
      <path id="DejaVuSans-Bold-51" d="M 4056 2131
L 4056 0
L 2931 0
L 2931 347
L 2931 1631
Q 2931 2084 2911 2256
Q 2891 2428 2841 2509
Q 2775 2619 2662 2680
Q 2550 2741 2406 2741
Q 2056 2741 1856 2470
Q 1656 2200 1656 1722
L 1656 0
L 538 0
L 538 3500
L 1656 3500
L 1656 2988
Q 1909 3294 2193 3439
Q 2478 3584 2822 3584
Q 3428 3584 3742 3212
Q 4056 2841 4056 2131
z
" transform="scale(0.015625)"/>
      <path id="DejaVuSans-Bold-3" transform="scale(0.015625)"/>
      <path id="DejaVuSans-Bold-45" d="M 2400 722
Q 2759 722 2948 984
Q 3138 1247 3138 1747
Q 3138 2247 2948 2509
Q 2759 2772 2400 2772
Q 2041 2772 1848 2508
Q 1656 2244 1656 1747
Q 1656 1250 1848 986
Q 2041 722 2400 722
z
M 1656 2988
Q 1888 3294 2169 3439
Q 2450 3584 2816 3584
Q 3463 3584 3878 3070
Q 4294 2556 4294 1747
Q 4294 938 3878 423
Q 3463 -91 2816 -91
Q 2450 -91 2169 54
Q 1888 200 1656 506
L 1656 0
L 538 0
L 538 4863
L 1656 4863
L 1656 2988
z
" transform="scale(0.015625)"/>
      <path id="DejaVuSans-Bold-48" d="M 4031 1759
L 4031 1441
L 1416 1441
Q 1456 1047 1700 850
Q 1944 653 2381 653
Q 2734 653 3104 758
Q 3475 863 3866 1075
L 3866 213
Q 3469 63 3072 -14
Q 2675 -91 2278 -91
Q 1328 -91 801 392
Q 275 875 275 1747
Q 275 2603 792 3093
Q 1309 3584 2216 3584
Q 3041 3584 3536 3087
Q 4031 2591 4031 1759
z
M 2881 2131
Q 2881 2450 2695 2645
Q 2509 2841 2209 2841
Q 1884 2841 1681 2658
Q 1478 2475 1428 2131
L 2881 2131
z
" transform="scale(0.015625)"/>
     </defs>
     <use xlink:href="#DejaVuSans-Bold-28"/>
     <use xlink:href="#DejaVuSans-Bold-54" transform="translate(68.3125 0)"/>
     <use xlink:href="#DejaVuSans-Bold-58" transform="translate(139.890625 0)"/>
     <use xlink:href="#DejaVuSans-Bold-44" transform="translate(211.078125 0)"/>
     <use xlink:href="#DejaVuSans-Bold-57" transform="translate(278.5625 0)"/>
     <use xlink:href="#DejaVuSans-Bold-4c" transform="translate(326.359375 0)"/>
     <use xlink:href="#DejaVuSans-Bold-52" transform="translate(360.640625 0)"/>
     <use xlink:href="#DejaVuSans-Bold-51" transform="translate(429.34375 0)"/>
     <use xlink:href="#DejaVuSans-Bold-3" transform="translate(500.53125 0)"/>
     <use xlink:href="#DejaVuSans-Bold-4f" transform="translate(535.34375 0)"/>
     <use xlink:href="#DejaVuSans-Bold-44" transform="translate(569.625 0)"/>
     <use xlink:href="#DejaVuSans-Bold-45" transform="translate(637.109375 0)"/>
     <use xlink:href="#DejaVuSans-Bold-48" transform="translate(708.6875 0)"/>
     <use xlink:href="#DejaVuSans-Bold-4f" transform="translate(776.515625 0)"/>
    </g>
   </g>
   <g id="text_38">
    <!-- Source owner -->
    <g transform="translate(616.967875 53.352692) scale(0.1 -0.1)">
     <defs>
      <path id="DejaVuSans-Bold-36" d="M 3834 4519
L 3834 3531
Q 3450 3703 3084 3790
Q 2719 3878 2394 3878
Q 1963 3878 1756 3759
Q 1550 3641 1550 3391
Q 1550 3203 1689 3098
Q 1828 2994 2194 2919
L 2706 2816
Q 3484 2659 3812 2340
Q 4141 2022 4141 1434
Q 4141 663 3683 286
Q 3225 -91 2284 -91
Q 1841 -91 1394 -6
Q 947 78 500 244
L 500 1259
Q 947 1022 1364 901
Q 1781 781 2169 781
Q 2563 781 2772 912
Q 2981 1044 2981 1288
Q 2981 1506 2839 1625
Q 2697 1744 2272 1838
L 1806 1941
Q 1106 2091 782 2419
Q 459 2747 459 3303
Q 459 4000 909 4375
Q 1359 4750 2203 4750
Q 2588 4750 2994 4692
Q 3400 4634 3834 4519
z
" transform="scale(0.015625)"/>
      <path id="DejaVuSans-Bold-46" d="M 3366 3391
L 3366 2478
Q 3138 2634 2908 2709
Q 2678 2784 2431 2784
Q 1963 2784 1702 2511
Q 1441 2238 1441 1747
Q 1441 1256 1702 982
Q 1963 709 2431 709
Q 2694 709 2930 787
Q 3166 866 3366 1019
L 3366 103
Q 3103 6 2833 -42
Q 2563 -91 2291 -91
Q 1344 -91 809 395
Q 275 881 275 1747
Q 275 2613 809 3098
Q 1344 3584 2291 3584
Q 2566 3584 2833 3536
Q 3100 3488 3366 3391
z
" transform="scale(0.015625)"/>
      <path id="DejaVuSans-Bold-5a" d="M 225 3500
L 1313 3500
L 1900 1088
L 2491 3500
L 3425 3500
L 4013 1113
L 4603 3500
L 5691 3500
L 4769 0
L 3547 0
L 2956 2406
L 2369 0
L 1147 0
L 225 3500
z
" transform="scale(0.015625)"/>
     </defs>
     <use xlink:href="#DejaVuSans-Bold-36"/>
     <use xlink:href="#DejaVuSans-Bold-52" transform="translate(72.015625 0)"/>
     <use xlink:href="#DejaVuSans-Bold-58" transform="translate(140.71875 0)"/>
     <use xlink:href="#DejaVuSans-Bold-55" transform="translate(211.90625 0)"/>
     <use xlink:href="#DejaVuSans-Bold-46" transform="translate(261.21875 0)"/>
     <use xlink:href="#DejaVuSans-Bold-48" transform="translate(320.5 0)"/>
     <use xlink:href="#DejaVuSans-Bold-3" transform="translate(388.328125 0)"/>
     <use xlink:href="#DejaVuSans-Bold-52" transform="translate(423.140625 0)"/>
     <use xlink:href="#DejaVuSans-Bold-5a" transform="translate(491.84375 0)"/>
     <use xlink:href="#DejaVuSans-Bold-51" transform="translate(584.234375 0)"/>
     <use xlink:href="#DejaVuSans-Bold-48" transform="translate(655.421875 0)"/>
     <use xlink:href="#DejaVuSans-Bold-55" transform="translate(723.25 0)"/>
    </g>
   </g>
   <g id="text_39">
    <!-- Formalism Traceability Graph -->
    <g transform="translate(295.577031 17.837812) scale(0.14 -0.14)">
     <defs>
      <path id="DejaVuSans-2a" d="M 3809 666
L 3809 1919
L 2778 1919
L 2778 2438
L 4434 2438
L 4434 434
Q 4069 175 3628 42
Q 3188 -91 2688 -91
Q 1594 -91 976 548
Q 359 1188 359 2328
Q 359 3472 976 4111
Q 1594 4750 2688 4750
Q 3144 4750 3555 4637
Q 3966 4525 4313 4306
L 4313 3634
Q 3963 3931 3569 4081
Q 3175 4231 2741 4231
Q 1884 4231 1454 3753
Q 1025 3275 1025 2328
Q 1025 1384 1454 906
Q 1884 428 2741 428
Q 3075 428 3337 486
Q 3600 544 3809 666
z
" transform="scale(0.015625)"/>
      <path id="DejaVuSans-4b" d="M 3513 2113
L 3513 0
L 2938 0
L 2938 2094
Q 2938 2591 2744 2837
Q 2550 3084 2163 3084
Q 1697 3084 1428 2787
Q 1159 2491 1159 1978
L 1159 0
L 581 0
L 581 4863
L 1159 4863
L 1159 2956
Q 1366 3272 1645 3428
Q 1925 3584 2291 3584
Q 2894 3584 3203 3211
Q 3513 2838 3513 2113
z
" transform="scale(0.015625)"/>
     </defs>
     <use xlink:href="#DejaVuSans-29"/>
     <use xlink:href="#DejaVuSans-52" transform="translate(53.953125 0)"/>
     <use xlink:href="#DejaVuSans-55" transform="translate(115.140625 0)"/>
     <use xlink:href="#DejaVuSans-50" transform="translate(154.5 0)"/>
     <use xlink:href="#DejaVuSans-44" transform="translate(251.90625 0)"/>
     <use xlink:href="#DejaVuSans-4f" transform="translate(313.1875 0)"/>
     <use xlink:href="#DejaVuSans-4c" transform="translate(340.96875 0)"/>
     <use xlink:href="#DejaVuSans-56" transform="translate(368.75 0)"/>
     <use xlink:href="#DejaVuSans-50" transform="translate(420.84375 0)"/>
     <use xlink:href="#DejaVuSans-3" transform="translate(518.25 0)"/>
     <use xlink:href="#DejaVuSans-37" transform="translate(550.03125 0)"/>
     <use xlink:href="#DejaVuSans-55" transform="translate(596.40625 0)"/>
     <use xlink:href="#DejaVuSans-44" transform="translate(637.515625 0)"/>
     <use xlink:href="#DejaVuSans-46" transform="translate(698.796875 0)"/>
     <use xlink:href="#DejaVuSans-48" transform="translate(753.78125 0)"/>
     <use xlink:href="#DejaVuSans-44" transform="translate(815.3125 0)"/>
     <use xlink:href="#DejaVuSans-45" transform="translate(876.59375 0)"/>
     <use xlink:href="#DejaVuSans-4c" transform="translate(940.078125 0)"/>
     <use xlink:href="#DejaVuSans-4f" transform="translate(967.859375 0)"/>
     <use xlink:href="#DejaVuSans-4c" transform="translate(995.640625 0)"/>
     <use xlink:href="#DejaVuSans-57" transform="translate(1023.421875 0)"/>
     <use xlink:href="#DejaVuSans-5c" transform="translate(1062.625 0)"/>
     <use xlink:href="#DejaVuSans-3" transform="translate(1121.8125 0)"/>
     <use xlink:href="#DejaVuSans-2a" transform="translate(1153.59375 0)"/>
     <use xlink:href="#DejaVuSans-55" transform="translate(1231.078125 0)"/>
     <use xlink:href="#DejaVuSans-44" transform="translate(1272.1875 0)"/>
     <use xlink:href="#DejaVuSans-53" transform="translate(1333.46875 0)"/>
     <use xlink:href="#DejaVuSans-4b" transform="translate(1396.953125 0)"/>
    </g>
   </g>
  </g>
 </g>
 <defs>
  <clipPath id="p1575585143">
   <rect x="7.2" y="33.837812" width="781.2" height="390.2976"/>
  </clipPath>
 </defs>
</svg>
