<?xml version="1.0" encoding="utf-8" standalone="no"?>
<!DOCTYPE svg PUBLIC "-//W3C//DTD SVG 1.1//EN"
  "http://www.w3.org/Graphics/SVG/1.1/DTD/svg11.dtd">
<svg xmlns:xlink="http://www.w3.org/1999/xlink" width="711.9pt" height="442.205812pt" viewBox="0 0 711.9 442.205812" xmlns="http://www.w3.org/2000/svg" version="1.1">
 <metadata>
  <rdf:RDF xmlns:dc="http://purl.org/dc/elements/1.1/" xmlns:cc="http://creativecommons.org/ns#" xmlns:rdf="http://www.w3.org/1999/02/22-rdf-syntax-ns#">
   <cc:Work>
    <dc:type rdf:resource="http://purl.org/dc/dcmitype/StillImage"/>
    <dc:format>image/svg+xml</dc:format>
    <dc:creator>
     <cc:Agent>
      <dc:title>template_gold_refinement</dc:title>
     </cc:Agent>
    </dc:creator>
   </cc:Work>
  </rdf:RDF>
 </metadata>
 <defs>
  <style type="text/css">*{stroke-linejoin: round; stroke-linecap: butt}</style>
 </defs>
 <g id="figure_1">
  <g id="patch_1">
   <path d="M 0 442.205812
L 711.9 442.205812
L 711.9 -0
L 0 -0
z
" style="fill: #ffffff"/>
  </g>
  <g id="axes_1">
   <g id="patch_2">
    <path d="M 73.090845 228.602189
Q 128.448112 157.807432 169.358228 79.552683
" clip-path="url(#p608f50c3d5)" style="fill: none; stroke: #475569; stroke-width: 1.4; stroke-linecap: round"/>
    <path d="M 164.282417 83.218218
L 169.358228 79.552683
L 169.24517 85.812652
z
" clip-path="url(#p608f50c3d5)" style="fill: #475569; stroke: #475569; stroke-width: 1.4; stroke-linecap: round"/>
   </g>
   <g id="patch_3">
    <path d="M 71.705457 243.092636
Q 113.340802 322.734476 167.733967 392.296153
" clip-path="url(#p608f50c3d5)" style="fill: none; stroke: #475569; stroke-width: 1.4; stroke-linecap: round"/>
    <path d="M 166.490194 386.159946
L 167.733967 392.296153
L 162.078738 389.609447
z
" clip-path="url(#p608f50c3d5)" style="fill: #475569; stroke: #475569; stroke-width: 1.4; stroke-linecap: round"/>
   </g>
   <g id="patch_4">
    <path d="M 182.684981 71.276389
Q 235.625306 75.828856 287.00614 71.410248
" clip-path="url(#p608f50c3d5)" style="fill: none; stroke: #475569; stroke-width: 1.4; stroke-linecap: round"/>
    <path d="M 281.186827 69.100358
L 287.00614 71.410248
L 281.66664 74.679765
z
" clip-path="url(#p608f50c3d5)" style="fill: #475569; stroke: #475569; stroke-width: 1.4; stroke-linecap: round"/>
   </g>
   <g id="patch_5">
    <path d="M 182.684981 401.129101
Q 235.625306 405.681568 287.00614 401.26296
" clip-path="url(#p608f50c3d5)" style="fill: none; stroke: #475569; stroke-width: 1.4; stroke-linecap: round"/>
    <path d="M 281.186827 398.95307
L 287.00614 401.26296
L 281.66664 404.532476
z
" clip-path="url(#p608f50c3d5)" style="fill: #475569; stroke: #475569; stroke-width: 1.4; stroke-linecap: round"/>
   </g>
   <g id="patch_6">
    <path d="M 301.990098 77.683472
Q 356.740315 159.131379 424.321766 228.119216
" clip-path="url(#p608f50c3d5)" style="fill: none; stroke: #475569; stroke-width: 1.4; stroke-linecap: round"/>
    <path d="M 422.403136 222.159447
L 424.321766 228.119216
L 418.402772 226.078259
z
" clip-path="url(#p608f50c3d5)" style="fill: #475569; stroke: #475569; stroke-width: 1.4; stroke-linecap: round"/>
   </g>
   <g id="patch_7">
    <path d="M 303.273188 394.163097
Q 371.94992 324.057075 425.826855 243.90815
" clip-path="url(#p608f50c3d5)" style="fill: none; stroke: #475569; stroke-width: 1.4; stroke-linecap: round"/>
    <path d="M 420.378941 246.993639
L 425.826855 243.90815
L 425.026498 250.117774
z
" clip-path="url(#p608f50c3d5)" style="fill: #475569; stroke: #475569; stroke-width: 1.4; stroke-linecap: round"/>
   </g>
   <g id="patch_8">
    <path d="M 440.128717 236.19685
Q 487.470579 240.201433 533.252764 236.328571
" clip-path="url(#p608f50c3d5)" style="fill: none; stroke: #475569; stroke-width: 1.4; stroke-linecap: round"/>
    <path d="M 527.436676 234.010572
L 533.252764 236.328571
L 527.908712 239.590642
z
" clip-path="url(#p608f50c3d5)" style="fill: #475569; stroke: #475569; stroke-width: 1.4; stroke-linecap: round"/>
   </g>
   <g id="patch_9">
    <path d="M 552.058326 236.189324
Q 593.804879 239.649263 633.991533 236.318475
" clip-path="url(#p608f50c3d5)" style="fill: none; stroke: #475569; stroke-width: 1.4; stroke-linecap: round"/>
    <path d="M 628.179391 233.990601
L 633.991533 236.318475
L 628.641949 239.571465
z
" clip-path="url(#p608f50c3d5)" style="fill: #475569; stroke: #475569; stroke-width: 1.4; stroke-linecap: round"/>
   </g>
   <g id="patch_10">
    <path d="M 635.557584 234.552125
Q 355.950599 207.427227 77.901548 234.400873
" clip-path="url(#p608f50c3d5)" style="fill: none; stroke: #475569; stroke-width: 1.4; stroke-linecap: round"/>
    <path d="M 83.745742 236.64707
L 77.901548 234.400873
L 83.205022 231.073237
z
" clip-path="url(#p608f50c3d5)" style="fill: #475569; stroke: #475569; stroke-width: 1.4; stroke-linecap: round"/>
   </g>
   <g id="text_1">
    <g id="patch_11">
     <path d="M 109.17848 156.455695
L 132.61248 156.455695
L 132.61248 149.415695
L 109.17848 149.415695
z
" clip-path="url(#p608f50c3d5)" style="fill: #ffffff; opacity: 0.75"/>
    </g>
    <g clip-path="url(#p608f50c3d5)">
     <!-- targets -->
     <g style="fill: #334155" transform="translate(109.49848 154.598195) scale(0.064 -0.064)">
      <defs>
       <path id="DejaVuSans-57" d="M 1172 4494
L 1172 3500
L 2356 3500
L 2356 3053
L 1172 3053
L 1172 1153
Q 1172 725 1289 603
Q 1406 481 1766 481
L 2356 481
L 2356 0
L 1766 0
Q 1100 0 847 248
Q 594 497 594 1153
L 594 3053
L 172 3053
L 172 3500
L 594 3500
L 594 4494
L 1172 4494
z
" transform="scale(0.015625)"/>
       <path id="DejaVuSans-44" d="M 2194 1759
Q 1497 1759 1228 1600
Q 959 1441 959 1056
Q 959 750 1161 570
Q 1363 391 1709 391
Q 2188 391 2477 730
Q 2766 1069 2766 1631
L 2766 1759
L 2194 1759
z
M 3341 1997
L 3341 0
L 2766 0
L 2766 531
Q 2569 213 2275 61
Q 1981 -91 1556 -91
Q 1019 -91 701 211
Q 384 513 384 1019
Q 384 1609 779 1909
Q 1175 2209 1959 2209
L 2766 2209
L 2766 2266
Q 2766 2663 2505 2880
Q 2244 3097 1772 3097
Q 1472 3097 1187 3025
Q 903 2953 641 2809
L 641 3341
Q 956 3463 1253 3523
Q 1550 3584 1831 3584
Q 2591 3584 2966 3190
Q 3341 2797 3341 1997
z
" transform="scale(0.015625)"/>
       <path id="DejaVuSans-55" d="M 2631 2963
Q 2534 3019 2420 3045
Q 2306 3072 2169 3072
Q 1681 3072 1420 2755
Q 1159 2438 1159 1844
L 1159 0
L 581 0
L 581 3500
L 1159 3500
L 1159 2956
Q 1341 3275 1631 3429
Q 1922 3584 2338 3584
Q 2397 3584 2469 3576
Q 2541 3569 2628 3553
L 2631 2963
z
" transform="scale(0.015625)"/>
       <path id="DejaVuSans-4a" d="M 2906 1791
Q 2906 2416 2648 2759
Q 2391 3103 1925 3103
Q 1463 3103 1205 2759
Q 947 2416 947 1791
Q 947 1169 1205 825
Q 1463 481 1925 481
Q 2391 481 2648 825
Q 2906 1169 2906 1791
z
M 3481 434
Q 3481 -459 3084 -895
Q 2688 -1331 1869 -1331
Q 1566 -1331 1297 -1286
Q 1028 -1241 775 -1147
L 775 -588
Q 1028 -725 1275 -790
Q 1522 -856 1778 -856
Q 2344 -856 2625 -561
Q 2906 -266 2906 331
L 2906 616
Q 2728 306 2450 153
Q 2172 0 1784 0
Q 1141 0 747 490
Q 353 981 353 1791
Q 353 2603 747 3093
Q 1141 3584 1784 3584
Q 2172 3584 2450 3431
Q 2728 3278 2906 2969
L 2906 3500
L 3481 3500
L 3481 434
z
" transform="scale(0.015625)"/>
       <path id="DejaVuSans-48" d="M 3597 1894
L 3597 1613
L 953 1613
Q 991 1019 1311 708
Q 1631 397 2203 397
Q 2534 397 2845 478
Q 3156 559 3463 722
L 3463 178
Q 3153 47 2828 -22
Q 2503 -91 2169 -91
Q 1331 -91 842 396
Q 353 884 353 1716
Q 353 2575 817 3079
Q 1281 3584 2069 3584
Q 2775 3584 3186 3129
Q 3597 2675 3597 1894
z
M 3022 2063
Q 3016 2534 2758 2815
Q 2500 3097 2075 3097
Q 1594 3097 1305 2825
Q 1016 2553 972 2059
L 3022 2063
z
" transform="scale(0.015625)"/>
       <path id="DejaVuSans-56" d="M 2834 3397
L 2834 2853
Q 2591 2978 2328 3040
Q 2066 3103 1784 3103
Q 1356 3103 1142 2972
Q 928 2841 928 2578
Q 928 2378 1081 2264
Q 1234 2150 1697 2047
L 1894 2003
Q 2506 1872 2764 1633
Q 3022 1394 3022 966
Q 3022 478 2636 193
Q 2250 -91 1575 -91
Q 1294 -91 989 -36
Q 684 19 347 128
L 347 722
Q 666 556 975 473
Q 1284 391 1588 391
Q 1994 391 2212 530
Q 2431 669 2431 922
Q 2431 1156 2273 1281
Q 2116 1406 1581 1522
L 1381 1569
Q 847 1681 609 1914
Q 372 2147 372 2553
Q 372 3047 722 3315
Q 1072 3584 1716 3584
Q 2034 3584 2315 3537
Q 2597 3491 2834 3397
z
" transform="scale(0.015625)"/>
      </defs>
      <use xlink:href="#DejaVuSans-57"/>
      <use xlink:href="#DejaVuSans-44" transform="translate(39.203125 0)"/>
      <use xlink:href="#DejaVuSans-55" transform="translate(100.484375 0)"/>
      <use xlink:href="#DejaVuSans-4a" transform="translate(139.84375 0)"/>
      <use xlink:href="#DejaVuSans-48" transform="translate(203.328125 0)"/>
      <use xlink:href="#DejaVuSans-57" transform="translate(264.859375 0)"/>
      <use xlink:href="#DejaVuSans-56" transform="translate(304.0625 0)"/>
     </g>
    </g>
   </g>
   <g id="text_2">
    <g id="patch_12">
     <path d="M 113.13998 321.386163
L 128.65098 321.386163
L 128.65098 314.345663
L 113.13998 314.345663
z
" clip-path="url(#p608f50c3d5)" style="fill: #ffffff; opacity: 0.75"/>
    </g>
    <g clip-path="url(#p608f50c3d5)">
     <!-- slots -->
     <g style="fill: #334155" transform="translate(113.45998 319.528663) scale(0.064 -0.064)">
      <defs>
       <path id="DejaVuSans-4f" d="M 603 4863
L 1178 4863
L 1178 0
L 603 0
L 603 4863
z
" transform="scale(0.015625)"/>
       <path id="DejaVuSans-52" d="M 1959 3097
Q 1497 3097 1228 2736
Q 959 2375 959 1747
Q 959 1119 1226 758
Q 1494 397 1959 397
Q 2419 397 2687 759
Q 2956 1122 2956 1747
Q 2956 2369 2687 2733
Q 2419 3097 1959 3097
z
M 1959 3584
Q 2709 3584 3137 3096
Q 3566 2609 3566 1747
Q 3566 888 3137 398
Q 2709 -91 1959 -91
Q 1206 -91 779 398
Q 353 888 353 1747
Q 353 2609 779 3096
Q 1206 3584 1959 3584
z
" transform="scale(0.015625)"/>
      </defs>
      <use xlink:href="#DejaVuSans-56"/>
      <use xlink:href="#DejaVuSans-4f" transform="translate(52.09375 0)"/>
      <use xlink:href="#DejaVuSans-52" transform="translate(79.875 0)"/>
      <use xlink:href="#DejaVuSans-57" transform="translate(141.0625 0)"/>
      <use xlink:href="#DejaVuSans-56" transform="translate(180.265625 0)"/>
     </g>
    </g>
   </g>
   <g id="text_3">
    <g id="patch_13">
     <path d="M 219.408049 73.994698
L 251.841049 73.994698
L 251.841049 66.954198
L 219.408049 66.954198
z
" clip-path="url(#p608f50c3d5)" style="fill: #ffffff; opacity: 0.75"/>
    </g>
    <g clip-path="url(#p608f50c3d5)">
     <!-- purity law -->
     <g style="fill: #334155" transform="translate(219.728049 72.137198) scale(0.064 -0.064)">
      <defs>
       <path id="DejaVuSans-53" d="M 1159 525
L 1159 -1331
L 581 -1331
L 581 3500
L 1159 3500
L 1159 2969
Q 1341 3281 1617 3432
Q 1894 3584 2278 3584
Q 2916 3584 3314 3078
Q 3713 2572 3713 1747
Q 3713 922 3314 415
Q 2916 -91 2278 -91
Q 1894 -91 1617 61
Q 1341 213 1159 525
z
M 3116 1747
Q 3116 2381 2855 2742
Q 2594 3103 2138 3103
Q 1681 3103 1420 2742
Q 1159 2381 1159 1747
Q 1159 1113 1420 752
Q 1681 391 2138 391
Q 2594 391 2855 752
Q 3116 1113 3116 1747
z
" transform="scale(0.015625)"/>
       <path id="DejaVuSans-58" d="M 544 1381
L 544 3500
L 1119 3500
L 1119 1403
Q 1119 906 1312 657
Q 1506 409 1894 409
Q 2359 409 2629 706
Q 2900 1003 2900 1516
L 2900 3500
L 3475 3500
L 3475 0
L 2900 0
L 2900 538
Q 2691 219 2414 64
Q 2138 -91 1772 -91
Q 1169 -91 856 284
Q 544 659 544 1381
z
M 1991 3584
L 1991 3584
z
" transform="scale(0.015625)"/>
       <path id="DejaVuSans-4c" d="M 603 3500
L 1178 3500
L 1178 0
L 603 0
L 603 3500
z
M 603 4863
L 1178 4863
L 1178 4134
L 603 4134
L 603 4863
z
" transform="scale(0.015625)"/>
       <path id="DejaVuSans-5c" d="M 2059 -325
Q 1816 -950 1584 -1140
Q 1353 -1331 966 -1331
L 506 -1331
L 506 -850
L 844 -850
Q 1081 -850 1212 -737
Q 1344 -625 1503 -206
L 1606 56
L 191 3500
L 800 3500
L 1894 763
L 2988 3500
L 3597 3500
L 2059 -325
z
" transform="scale(0.015625)"/>
       <path id="DejaVuSans-3" transform="scale(0.015625)"/>
       <path id="DejaVuSans-5a" d="M 269 3500
L 844 3500
L 1563 769
L 2278 3500
L 2956 3500
L 3675 769
L 4391 3500
L 4966 3500
L 4050 0
L 3372 0
L 2619 2869
L 1863 0
L 1184 0
L 269 3500
z
" transform="scale(0.015625)"/>
      </defs>
      <use xlink:href="#DejaVuSans-53"/>
      <use xlink:href="#DejaVuSans-58" transform="translate(63.484375 0)"/>
      <use xlink:href="#DejaVuSans-55" transform="translate(126.859375 0)"/>
      <use xlink:href="#DejaVuSans-4c" transform="translate(167.96875 0)"/>
      <use xlink:href="#DejaVuSans-57" transform="translate(195.75 0)"/>
      <use xlink:href="#DejaVuSans-5c" transform="translate(234.953125 0)"/>
      <use xlink:href="#DejaVuSans-3" transform="translate(294.140625 0)"/>
      <use xlink:href="#DejaVuSans-4f" transform="translate(325.921875 0)"/>
      <use xlink:href="#DejaVuSans-44" transform="translate(353.703125 0)"/>
      <use xlink:href="#DejaVuSans-5a" transform="translate(414.984375 0)"/>
     </g>
    </g>
   </g>
   <g id="text_4">
    <g id="patch_14">
     <path d="M 220.447049 403.84716
L 250.802049 403.84716
L 250.802049 396.80716
L 220.447049 396.80716
z
" clip-path="url(#p608f50c3d5)" style="fill: #ffffff; opacity: 0.75"/>
    </g>
    <g clip-path="url(#p608f50c3d5)">
     <!-- coverage -->
     <g style="fill: #334155" transform="translate(220.767049 401.98966) scale(0.064 -0.064)">
      <defs>
       <path id="DejaVuSans-46" d="M 3122 3366
L 3122 2828
Q 2878 2963 2633 3030
Q 2388 3097 2138 3097
Q 1578 3097 1268 2742
Q 959 2388 959 1747
Q 959 1106 1268 751
Q 1578 397 2138 397
Q 2388 397 2633 464
Q 2878 531 3122 666
L 3122 134
Q 2881 22 2623 -34
Q 2366 -91 2075 -91
Q 1284 -91 818 406
Q 353 903 353 1747
Q 353 2603 823 3093
Q 1294 3584 2113 3584
Q 2378 3584 2631 3529
Q 2884 3475 3122 3366
z
" transform="scale(0.015625)"/>
       <path id="DejaVuSans-59" d="M 191 3500
L 800 3500
L 1894 563
L 2988 3500
L 3597 3500
L 2284 0
L 1503 0
L 191 3500
z
" transform="scale(0.015625)"/>
      </defs>
      <use xlink:href="#DejaVuSans-46"/>
      <use xlink:href="#DejaVuSans-52" transform="translate(54.984375 0)"/>
      <use xlink:href="#DejaVuSans-59" transform="translate(116.171875 0)"/>
      <use xlink:href="#DejaVuSans-48" transform="translate(175.359375 0)"/>
      <use xlink:href="#DejaVuSans-55" transform="translate(236.890625 0)"/>
      <use xlink:href="#DejaVuSans-44" transform="translate(278 0)"/>
      <use xlink:href="#DejaVuSans-4a" transform="translate(339.28125 0)"/>
      <use xlink:href="#DejaVuSans-48" transform="translate(402.765625 0)"/>
     </g>
    </g>
   </g>
   <g id="text_5">
    <g id="patch_15">
     <path d="M 348.240138 156.459459
L 380.452138 156.459459
L 380.452138 149.418959
L 348.240138 149.418959
z
" clip-path="url(#p608f50c3d5)" style="fill: #ffffff; opacity: 0.75"/>
    </g>
    <g clip-path="url(#p608f50c3d5)">
     <!-- equations -->
     <g style="fill: #334155" transform="translate(348.560138 154.601959) scale(0.064 -0.064)">
      <defs>
       <path id="DejaVuSans-54" d="M 947 1747
Q 947 1113 1208 752
Q 1469 391 1925 391
Q 2381 391 2643 752
Q 2906 1113 2906 1747
Q 2906 2381 2643 2742
Q 2381 3103 1925 3103
Q 1469 3103 1208 2742
Q 947 2381 947 1747
z
M 2906 525
Q 2725 213 2448 61
Q 2172 -91 1784 -91
Q 1150 -91 751 415
Q 353 922 353 1747
Q 353 2572 751 3078
Q 1150 3584 1784 3584
Q 2172 3584 2448 3432
Q 2725 3281 2906 2969
L 2906 3500
L 3481 3500
L 3481 -1331
L 2906 -1331
L 2906 525
z
" transform="scale(0.015625)"/>
       <path id="DejaVuSans-51" d="M 3513 2113
L 3513 0
L 2938 0
L 2938 2094
Q 2938 2591 2744 2837
Q 2550 3084 2163 3084
Q 1697 3084 1428 2787
Q 1159 2491 1159 1978
L 1159 0
L 581 0
L 581 3500
L 1159 3500
L 1159 2956
Q 1366 3272 1645 3428
Q 1925 3584 2291 3584
Q 2894 3584 3203 3211
Q 3513 2838 3513 2113
z
" transform="scale(0.015625)"/>
      </defs>
      <use xlink:href="#DejaVuSans-48"/>
      <use xlink:href="#DejaVuSans-54" transform="translate(61.53125 0)"/>
      <use xlink:href="#DejaVuSans-58" transform="translate(125.015625 0)"/>
      <use xlink:href="#DejaVuSans-44" transform="translate(188.390625 0)"/>
      <use xlink:href="#DejaVuSans-57" transform="translate(249.671875 0)"/>
      <use xlink:href="#DejaVuSans-4c" transform="translate(288.875 0)"/>
      <use xlink:href="#DejaVuSans-52" transform="translate(316.65625 0)"/>
      <use xlink:href="#DejaVuSans-51" transform="translate(377.84375 0)"/>
      <use xlink:href="#DejaVuSans-56" transform="translate(441.21875 0)"/>
     </g>
    </g>
   </g>
   <g id="text_6">
    <g id="patch_16">
     <path d="M 340.731138 321.382649
L 387.961138 321.382649
L 387.961138 314.342149
L 340.731138 314.342149
z
" clip-path="url(#p608f50c3d5)" style="fill: #ffffff; opacity: 0.75"/>
    </g>
    <g clip-path="url(#p608f50c3d5)">
     <!-- registered refs -->
     <g style="fill: #334155" transform="translate(341.051138 319.525149) scale(0.064 -0.064)">
      <defs>
       <path id="DejaVuSans-47" d="M 2906 2969
L 2906 4863
L 3481 4863
L 3481 0
L 2906 0
L 2906 525
Q 2725 213 2448 61
Q 2172 -91 1784 -91
Q 1150 -91 751 415
Q 353 922 353 1747
Q 353 2572 751 3078
Q 1150 3584 1784 3584
Q 2172 3584 2448 3432
Q 2725 3281 2906 2969
z
M 947 1747
Q 947 1113 1208 752
Q 1469 391 1925 391
Q 2381 391 2643 752
Q 2906 1113 2906 1747
Q 2906 2381 2643 2742
Q 2381 3103 1925 3103
Q 1469 3103 1208 2742
Q 947 2381 947 1747
z
" transform="scale(0.015625)"/>
       <path id="DejaVuSans-49" d="M 2375 4863
L 2375 4384
L 1825 4384
Q 1516 4384 1395 4259
Q 1275 4134 1275 3809
L 1275 3500
L 2222 3500
L 2222 3053
L 1275 3053
L 1275 0
L 697 0
L 697 3053
L 147 3053
L 147 3500
L 697 3500
L 697 3744
Q 697 4328 969 4595
Q 1241 4863 1831 4863
L 2375 4863
z
" transform="scale(0.015625)"/>
      </defs>
      <use xlink:href="#DejaVuSans-55"/>
      <use xlink:href="#DejaVuSans-48" transform="translate(38.90625 0)"/>
      <use xlink:href="#DejaVuSans-4a" transform="translate(100.4375 0)"/>
      <use xlink:href="#DejaVuSans-4c" transform="translate(163.921875 0)"/>
      <use xlink:href="#DejaVuSans-56" transform="translate(191.703125 0)"/>
      <use xlink:href="#DejaVuSans-57" transform="translate(243.796875 0)"/>
      <use xlink:href="#DejaVuSans-48" transform="translate(283 0)"/>
      <use xlink:href="#DejaVuSans-55" transform="translate(344.53125 0)"/>
      <use xlink:href="#DejaVuSans-48" transform="translate(383.4375 0)"/>
      <use xlink:href="#DejaVuSans-47" transform="translate(444.96875 0)"/>
      <use xlink:href="#DejaVuSans-3" transform="translate(508.453125 0)"/>
      <use xlink:href="#DejaVuSans-55" transform="translate(540.234375 0)"/>
      <use xlink:href="#DejaVuSans-48" transform="translate(579.140625 0)"/>
      <use xlink:href="#DejaVuSans-49" transform="translate(640.671875 0)"/>
      <use xlink:href="#DejaVuSans-56" transform="translate(675.875 0)"/>
     </g>
    </g>
   </g>
   <g id="text_7">
    <g id="patch_17">
     <path d="M 476.867674 238.921054
L 498.072674 238.921054
L 498.072674 231.880554
L 476.867674 231.880554
z
" clip-path="url(#p608f50c3d5)" style="fill: #ffffff; opacity: 0.75"/>
    </g>
    <g clip-path="url(#p608f50c3d5)">
     <!-- claims -->
     <g style="fill: #334155" transform="translate(477.187674 237.063554) scale(0.064 -0.064)">
      <defs>
       <path id="DejaVuSans-50" d="M 3328 2828
Q 3544 3216 3844 3400
Q 4144 3584 4550 3584
Q 5097 3584 5394 3201
Q 5691 2819 5691 2113
L 5691 0
L 5113 0
L 5113 2094
Q 5113 2597 4934 2840
Q 4756 3084 4391 3084
Q 3944 3084 3684 2787
Q 3425 2491 3425 1978
L 3425 0
L 2847 0
L 2847 2094
Q 2847 2600 2669 2842
Q 2491 3084 2119 3084
Q 1678 3084 1418 2786
Q 1159 2488 1159 1978
L 1159 0
L 581 0
L 581 3500
L 1159 3500
L 1159 2956
Q 1356 3278 1631 3431
Q 1906 3584 2284 3584
Q 2666 3584 2933 3390
Q 3200 3197 3328 2828
z
" transform="scale(0.015625)"/>
      </defs>
      <use xlink:href="#DejaVuSans-46"/>
      <use xlink:href="#DejaVuSans-4f" transform="translate(54.984375 0)"/>
      <use xlink:href="#DejaVuSans-44" transform="translate(82.765625 0)"/>
      <use xlink:href="#DejaVuSans-4c" transform="translate(144.046875 0)"/>
      <use xlink:href="#DejaVuSans-50" transform="translate(171.828125 0)"/>
      <use xlink:href="#DejaVuSans-56" transform="translate(269.234375 0)"/>
     </g>
    </g>
   </g>
   <g id="text_8">
    <g id="patch_18">
     <path d="M 584.602381 238.920804
L 603.008381 238.920804
L 603.008381 231.880804
L 584.602381 231.880804
z
" clip-path="url(#p608f50c3d5)" style="fill: #ffffff; opacity: 0.75"/>
    </g>
    <g clip-path="url(#p608f50c3d5)">
     <!-- gates -->
     <g style="fill: #334155" transform="translate(584.922381 237.063304) scale(0.064 -0.064)">
      <use xlink:href="#DejaVuSans-4a"/>
      <use xlink:href="#DejaVuSans-44" transform="translate(63.484375 0)"/>
      <use xlink:href="#DejaVuSans-57" transform="translate(124.765625 0)"/>
      <use xlink:href="#DejaVuSans-48" transform="translate(163.96875 0)"/>
      <use xlink:href="#DejaVuSans-56" transform="translate(225.5 0)"/>
     </g>
    </g>
   </g>
   <g id="text_9">
    <g id="patch_19">
     <path d="M 333.658935 238.921054
L 378.240935 238.921054
L 378.240935 231.880554
L 333.658935 231.880554
z
" clip-path="url(#p608f50c3d5)" style="fill: #ffffff; opacity: 0.75"/>
    </g>
    <g clip-path="url(#p608f50c3d5)">
     <!-- fork feedback -->
     <g style="fill: #334155" transform="translate(333.978935 237.063554) scale(0.064 -0.064)">
      <defs>
       <path id="DejaVuSans-4e" d="M 581 4863
L 1159 4863
L 1159 1991
L 2875 3500
L 3609 3500
L 1753 1863
L 3688 0
L 2938 0
L 1159 1709
L 1159 0
L 581 0
L 581 4863
z
" transform="scale(0.015625)"/>
       <path id="DejaVuSans-45" d="M 3116 1747
Q 3116 2381 2855 2742
Q 2594 3103 2138 3103
Q 1681 3103 1420 2742
Q 1159 2381 1159 1747
Q 1159 1113 1420 752
Q 1681 391 2138 391
Q 2594 391 2855 752
Q 3116 1113 3116 1747
z
M 1159 2969
Q 1341 3281 1617 3432
Q 1894 3584 2278 3584
Q 2916 3584 3314 3078
Q 3713 2572 3713 1747
Q 3713 922 3314 415
Q 2916 -91 2278 -91
Q 1894 -91 1617 61
Q 1341 213 1159 525
L 1159 0
L 581 0
L 581 4863
L 1159 4863
L 1159 2969
z
" transform="scale(0.015625)"/>
      </defs>
      <use xlink:href="#DejaVuSans-49"/>
      <use xlink:href="#DejaVuSans-52" transform="translate(35.203125 0)"/>
      <use xlink:href="#DejaVuSans-55" transform="translate(96.390625 0)"/>
      <use xlink:href="#DejaVuSans-4e" transform="translate(137.5 0)"/>
      <use xlink:href="#DejaVuSans-3" transform="translate(195.40625 0)"/>
      <use xlink:href="#DejaVuSans-49" transform="translate(227.1875 0)"/>
      <use xlink:href="#DejaVuSans-48" transform="translate(262.390625 0)"/>
      <use xlink:href="#DejaVuSans-48" transform="translate(323.921875 0)"/>
      <use xlink:href="#DejaVuSans-47" transform="translate(385.453125 0)"/>
      <use xlink:href="#DejaVuSans-45" transform="translate(448.9375 0)"/>
      <use xlink:href="#DejaVuSans-44" transform="translate(512.421875 0)"/>
      <use xlink:href="#DejaVuSans-46" transform="translate(573.703125 0)"/>
      <use xlink:href="#DejaVuSans-4e" transform="translate(628.6875 0)"/>
     </g>
    </g>
   </g>
   <g id="PathCollection_1">
    <defs>
     <path id="C0_0_0d9d9760fc" d="M 0 25.495098
C 6.761379 25.495098 13.24674 22.808773 18.027756 18.027756
C 22.808773 13.24674 25.495098 6.761379 25.495098 -0
C 25.495098 -6.761379 22.808773 -13.24674 18.027756 -18.027756
C 13.24674 -22.808773 6.761379 -25.495098 0 -25.495098
C -6.761379 -25.495098 -13.24674 -22.808773 -18.027756 -18.027756
C -22.808773 -13.24674 -25.495098 -6.761379 -25.495098 0
C -25.495098 6.761379 -22.808773 13.24674 -18.027756 18.027756
C -13.24674 22.808773 -6.761379 25.495098 0 25.495098
z
"/>
    </defs>
    <g clip-path="url(#p608f50c3d5)">
     <use xlink:href="#C0_0_0d9d9760fc" x="67.72686" y="235.400804" style="fill: #264653; fill-opacity: 0.94; stroke: #111827; stroke-opacity: 0.94; stroke-width: 0.8"/>
    </g>
    <g clip-path="url(#p608f50c3d5)">
     <use xlink:href="#C0_0_0d9d9760fc" x="174.06161" y="70.474448" style="fill: #2a9d8f; fill-opacity: 0.94; stroke: #111827; stroke-opacity: 0.94; stroke-width: 0.8"/>
    </g>
    <g clip-path="url(#p608f50c3d5)">
     <use xlink:href="#C0_0_0d9d9760fc" x="174.06161" y="400.32716" style="fill: #e9c46a; fill-opacity: 0.94; stroke: #111827; stroke-opacity: 0.94; stroke-width: 0.8"/>
    </g>
    <g clip-path="url(#p608f50c3d5)">
     <use xlink:href="#C0_0_0d9d9760fc" x="297.186059" y="70.474448" style="fill: #2a9d8f; fill-opacity: 0.94; stroke: #111827; stroke-opacity: 0.94; stroke-width: 0.8"/>
    </g>
    <g clip-path="url(#p608f50c3d5)">
     <use xlink:href="#C0_0_0d9d9760fc" x="297.186059" y="400.32716" style="fill: #e9c46a; fill-opacity: 0.94; stroke: #111827; stroke-opacity: 0.94; stroke-width: 0.8"/>
    </g>
    <g clip-path="url(#p608f50c3d5)">
     <use xlink:href="#C0_0_0d9d9760fc" x="431.503639" y="235.400804" style="fill: #f4a261; fill-opacity: 0.94; stroke: #111827; stroke-opacity: 0.94; stroke-width: 0.8"/>
    </g>
    <g clip-path="url(#p608f50c3d5)">
     <use xlink:href="#C0_0_0d9d9760fc" x="543.434955" y="235.400804" style="fill: #e76f51; fill-opacity: 0.94; stroke: #111827; stroke-opacity: 0.94; stroke-width: 0.8"/>
    </g>
    <g clip-path="url(#p608f50c3d5)">
     <use xlink:href="#C0_0_0d9d9760fc" x="644.17314" y="235.400804" style="fill: #577590; fill-opacity: 0.94; stroke: #111827; stroke-opacity: 0.94; stroke-width: 0.8"/>
    </g>
   </g>
   <g id="text_10">
    <g clip-path="url(#p608f50c3d5)">
     <!-- Config ore -->
     <g style="fill: #111827" transform="translate(48.699031 232.882347) scale(0.074 -0.074)">
      <defs>
       <path id="DejaVuSans-26" d="M 4122 4306
L 4122 3641
Q 3803 3938 3442 4084
Q 3081 4231 2675 4231
Q 1875 4231 1450 3742
Q 1025 3253 1025 2328
Q 1025 1406 1450 917
Q 1875 428 2675 428
Q 3081 428 3442 575
Q 3803 722 4122 1019
L 4122 359
Q 3791 134 3420 21
Q 3050 -91 2638 -91
Q 1578 -91 968 557
Q 359 1206 359 2328
Q 359 3453 968 4101
Q 1578 4750 2638 4750
Q 3056 4750 3426 4639
Q 3797 4528 4122 4306
z
" transform="scale(0.015625)"/>
       <path id="DejaVuSans-13af" d="M 3431 3500
L 3431 0
L 2853 0
L 2853 3053
L 1275 3053
L 1275 0
L 697 0
L 697 3053
L 147 3053
L 147 3500
L 697 3500
L 697 3744
Q 697 4316 967 4589
Q 1238 4863 1797 4863
L 2375 4863
L 2375 4384
L 1825 4384
Q 1516 4384 1395 4259
Q 1275 4134 1275 3809
L 1275 3500
L 3431 3500
z
M 2853 4856
L 3431 4856
L 3431 4128
L 2853 4128
L 2853 4856
z
" transform="scale(0.015625)"/>
      </defs>
      <use xlink:href="#DejaVuSans-26"/>
      <use xlink:href="#DejaVuSans-52" transform="translate(69.828125 0)"/>
      <use xlink:href="#DejaVuSans-51" transform="translate(131.015625 0)"/>
      <use xlink:href="#DejaVuSans-13af" transform="translate(194.390625 0)"/>
      <use xlink:href="#DejaVuSans-4a" transform="translate(257.375 0)"/>
      <use xlink:href="#DejaVuSans-3" transform="translate(320.859375 0)"/>
      <use xlink:href="#DejaVuSans-52" transform="translate(352.640625 0)"/>
      <use xlink:href="#DejaVuSans-55" transform="translate(413.828125 0)"/>
      <use xlink:href="#DejaVuSans-48" transform="translate(452.734375 0)"/>
     </g>
    </g>
    <g clip-path="url(#p608f50c3d5)">
     <!-- config.yaml -->
     <g style="fill: #111827" transform="translate(46.139094 241.76437) scale(0.074 -0.074)">
      <defs>
       <path id="DejaVuSans-11" d="M 684 794
L 1344 794
L 1344 0
L 684 0
L 684 794
z
" transform="scale(0.015625)"/>
      </defs>
      <use xlink:href="#DejaVuSans-46"/>
      <use xlink:href="#DejaVuSans-52" transform="translate(54.984375 0)"/>
      <use xlink:href="#DejaVuSans-51" transform="translate(116.171875 0)"/>
      <use xlink:href="#DejaVuSans-13af" transform="translate(179.546875 0)"/>
      <use xlink:href="#DejaVuSans-4a" transform="translate(242.53125 0)"/>
      <use xlink:href="#DejaVuSans-11" transform="translate(306.015625 0)"/>
      <use xlink:href="#DejaVuSans-5c" transform="translate(337.796875 0)"/>
      <use xlink:href="#DejaVuSans-44" transform="translate(396.984375 0)"/>
      <use xlink:href="#DejaVuSans-50" transform="translate(458.265625 0)"/>
      <use xlink:href="#DejaVuSans-4f" transform="translate(555.671875 0)"/>
     </g>
    </g>
   </g>
   <g id="text_11">
    <g clip-path="url(#p608f50c3d5)">
     <!-- Refinery code -->
     <g style="fill: #111827" transform="translate(148.617173 67.955991) scale(0.074 -0.074)">
      <defs>
       <path id="DejaVuSans-35" d="M 2841 2188
Q 3044 2119 3236 1894
Q 3428 1669 3622 1275
L 4263 0
L 3584 0
L 2988 1197
Q 2756 1666 2539 1819
Q 2322 1972 1947 1972
L 1259 1972
L 1259 0
L 628 0
L 628 4666
L 2053 4666
Q 2853 4666 3247 4331
Q 3641 3997 3641 3322
Q 3641 2881 3436 2590
Q 3231 2300 2841 2188
z
M 1259 4147
L 1259 2491
L 2053 2491
Q 2509 2491 2742 2702
Q 2975 2913 2975 3322
Q 2975 3731 2742 3939
Q 2509 4147 2053 4147
L 1259 4147
z
" transform="scale(0.015625)"/>
      </defs>
      <use xlink:href="#DejaVuSans-35"/>
      <use xlink:href="#DejaVuSans-48" transform="translate(65 0)"/>
      <use xlink:href="#DejaVuSans-13af" transform="translate(126.53125 0)"/>
      <use xlink:href="#DejaVuSans-51" transform="translate(189.515625 0)"/>
      <use xlink:href="#DejaVuSans-48" transform="translate(252.890625 0)"/>
      <use xlink:href="#DejaVuSans-55" transform="translate(314.421875 0)"/>
      <use xlink:href="#DejaVuSans-5c" transform="translate(355.53125 0)"/>
      <use xlink:href="#DejaVuSans-3" transform="translate(414.71875 0)"/>
      <use xlink:href="#DejaVuSans-46" transform="translate(446.5 0)"/>
      <use xlink:href="#DejaVuSans-52" transform="translate(501.484375 0)"/>
      <use xlink:href="#DejaVuSans-47" transform="translate(562.671875 0)"/>
      <use xlink:href="#DejaVuSans-48" transform="translate(626.15625 0)"/>
     </g>
    </g>
    <g clip-path="url(#p608f50c3d5)">
     <!-- purity stages -->
     <g style="fill: #111827" transform="translate(149.804063 76.838015) scale(0.074 -0.074)">
      <use xlink:href="#DejaVuSans-53"/>
      <use xlink:href="#DejaVuSans-58" transform="translate(63.484375 0)"/>
      <use xlink:href="#DejaVuSans-55" transform="translate(126.859375 0)"/>
      <use xlink:href="#DejaVuSans-4c" transform="translate(167.96875 0)"/>
      <use xlink:href="#DejaVuSans-57" transform="translate(195.75 0)"/>
      <use xlink:href="#DejaVuSans-5c" transform="translate(234.953125 0)"/>
      <use xlink:href="#DejaVuSans-3" transform="translate(294.140625 0)"/>
      <use xlink:href="#DejaVuSans-56" transform="translate(325.921875 0)"/>
      <use xlink:href="#DejaVuSans-57" transform="translate(378.015625 0)"/>
      <use xlink:href="#DejaVuSans-44" transform="translate(417.21875 0)"/>
      <use xlink:href="#DejaVuSans-4a" transform="translate(478.5 0)"/>
      <use xlink:href="#DejaVuSans-48" transform="translate(541.984375 0)"/>
      <use xlink:href="#DejaVuSans-56" transform="translate(603.515625 0)"/>
     </g>
    </g>
   </g>
   <g id="text_12">
    <g clip-path="url(#p608f50c3d5)">
     <!-- Token plan digest -->
     <g style="fill: #111827" transform="translate(141.812642 397.808703) scale(0.074 -0.074)">
      <defs>
       <path id="DejaVuSans-37" d="M -19 4666
L 3928 4666
L 3928 4134
L 2272 4134
L 2272 0
L 1638 0
L 1638 4134
L -19 4134
L -19 4666
z
" transform="scale(0.015625)"/>
      </defs>
      <use xlink:href="#DejaVuSans-37"/>
      <use xlink:href="#DejaVuSans-52" transform="translate(44.09375 0)"/>
      <use xlink:href="#DejaVuSans-4e" transform="translate(105.28125 0)"/>
      <use xlink:href="#DejaVuSans-48" transform="translate(159.625 0)"/>
      <use xlink:href="#DejaVuSans-51" transform="translate(221.15625 0)"/>
      <use xlink:href="#DejaVuSans-3" transform="translate(284.53125 0)"/>
      <use xlink:href="#DejaVuSans-53" transform="translate(316.3125 0)"/>
      <use xlink:href="#DejaVuSans-4f" transform="translate(379.796875 0)"/>
      <use xlink:href="#DejaVuSans-44" transform="translate(407.578125 0)"/>
      <use xlink:href="#DejaVuSans-51" transform="translate(468.859375 0)"/>
      <use xlink:href="#DejaVuSans-3" transform="translate(532.234375 0)"/>
      <use xlink:href="#DejaVuSans-47" transform="translate(564.015625 0)"/>
      <use xlink:href="#DejaVuSans-4c" transform="translate(627.5 0)"/>
      <use xlink:href="#DejaVuSans-4a" transform="translate(655.28125 0)"/>
      <use xlink:href="#DejaVuSans-48" transform="translate(718.765625 0)"/>
      <use xlink:href="#DejaVuSans-56" transform="translate(780.296875 0)"/>
      <use xlink:href="#DejaVuSans-57" transform="translate(832.390625 0)"/>
     </g>
    </g>
    <g clip-path="url(#p608f50c3d5)">
     <!-- selections -->
     <g style="fill: #111827" transform="translate(155.503798 406.690726) scale(0.074 -0.074)">
      <use xlink:href="#DejaVuSans-56"/>
      <use xlink:href="#DejaVuSans-48" transform="translate(52.09375 0)"/>
      <use xlink:href="#DejaVuSans-4f" transform="translate(113.625 0)"/>
      <use xlink:href="#DejaVuSans-48" transform="translate(141.40625 0)"/>
      <use xlink:href="#DejaVuSans-46" transform="translate(202.9375 0)"/>
      <use xlink:href="#DejaVuSans-57" transform="translate(257.921875 0)"/>
      <use xlink:href="#DejaVuSans-4c" transform="translate(297.125 0)"/>
      <use xlink:href="#DejaVuSans-52" transform="translate(324.90625 0)"/>
      <use xlink:href="#DejaVuSans-51" transform="translate(386.09375 0)"/>
      <use xlink:href="#DejaVuSans-56" transform="translate(449.46875 0)"/>
     </g>
    </g>
   </g>
   <g id="text_13">
    <g clip-path="url(#p608f50c3d5)">
     <!-- Formalisms -->
     <g style="fill: #111827" transform="translate(276.08334 67.955991) scale(0.074 -0.074)">
      <defs>
       <path id="DejaVuSans-29" d="M 628 4666
L 3309 4666
L 3309 4134
L 1259 4134
L 1259 2759
L 3109 2759
L 3109 2228
L 1259 2228
L 1259 0
L 628 0
L 628 4666
z
" transform="scale(0.015625)"/>
      </defs>
      <use xlink:href="#DejaVuSans-29"/>
      <use xlink:href="#DejaVuSans-52" transform="translate(53.953125 0)"/>
      <use xlink:href="#DejaVuSans-55" transform="translate(115.140625 0)"/>
      <use xlink:href="#DejaVuSans-50" transform="translate(154.5 0)"/>
      <use xlink:href="#DejaVuSans-44" transform="translate(251.90625 0)"/>
      <use xlink:href="#DejaVuSans-4f" transform="translate(313.1875 0)"/>
      <use xlink:href="#DejaVuSans-4c" transform="translate(340.96875 0)"/>
      <use xlink:href="#DejaVuSans-56" transform="translate(368.75 0)"/>
      <use xlink:href="#DejaVuSans-50" transform="translate(420.84375 0)"/>
      <use xlink:href="#DejaVuSans-56" transform="translate(518.25 0)"/>
     </g>
    </g>
    <g clip-path="url(#p608f50c3d5)">
     <!-- equation labels -->
     <g style="fill: #111827" transform="translate(268.808793 76.838015) scale(0.074 -0.074)">
      <use xlink:href="#DejaVuSans-48"/>
      <use xlink:href="#DejaVuSans-54" transform="translate(61.53125 0)"/>
      <use xlink:href="#DejaVuSans-58" transform="translate(125.015625 0)"/>
      <use xlink:href="#DejaVuSans-44" transform="translate(188.390625 0)"/>
      <use xlink:href="#DejaVuSans-57" transform="translate(249.671875 0)"/>
      <use xlink:href="#DejaVuSans-4c" transform="translate(288.875 0)"/>
      <use xlink:href="#DejaVuSans-52" transform="translate(316.65625 0)"/>
      <use xlink:href="#DejaVuSans-51" transform="translate(377.84375 0)"/>
      <use xlink:href="#DejaVuSans-3" transform="translate(441.21875 0)"/>
      <use xlink:href="#DejaVuSans-4f" transform="translate(473 0)"/>
      <use xlink:href="#DejaVuSans-44" transform="translate(500.78125 0)"/>
      <use xlink:href="#DejaVuSans-45" transform="translate(562.0625 0)"/>
      <use xlink:href="#DejaVuSans-48" transform="translate(625.546875 0)"/>
      <use xlink:href="#DejaVuSans-4f" transform="translate(687.078125 0)"/>
      <use xlink:href="#DejaVuSans-56" transform="translate(714.859375 0)"/>
     </g>
    </g>
   </g>
   <g id="text_14">
    <g clip-path="url(#p608f50c3d5)">
     <!-- Figures PNG + SVG -->
     <g style="fill: #111827" transform="translate(261.720981 397.808703) scale(0.074 -0.074)">
      <defs>
       <path id="DejaVuSans-33" d="M 1259 4147
L 1259 2394
L 2053 2394
Q 2494 2394 2734 2622
Q 2975 2850 2975 3272
Q 2975 3691 2734 3919
Q 2494 4147 2053 4147
L 1259 4147
z
M 628 4666
L 2053 4666
Q 2838 4666 3239 4311
Q 3641 3956 3641 3272
Q 3641 2581 3239 2228
Q 2838 1875 2053 1875
L 1259 1875
L 1259 0
L 628 0
L 628 4666
z
" transform="scale(0.015625)"/>
       <path id="DejaVuSans-31" d="M 628 4666
L 1478 4666
L 3547 763
L 3547 4666
L 4159 4666
L 4159 0
L 3309 0
L 1241 3903
L 1241 0
L 628 0
L 628 4666
z
" transform="scale(0.015625)"/>
       <path id="DejaVuSans-2a" d="M 3809 666
L 3809 1919
L 2778 1919
L 2778 2438
L 4434 2438
L 4434 434
Q 4069 175 3628 42
Q 3188 -91 2688 -91
Q 1594 -91 976 548
Q 359 1188 359 2328
Q 359 3472 976 4111
Q 1594 4750 2688 4750
Q 3144 4750 3555 4637
Q 3966 4525 4313 4306
L 4313 3634
Q 3963 3931 3569 4081
Q 3175 4231 2741 4231
Q 1884 4231 1454 3753
Q 1025 3275 1025 2328
Q 1025 1384 1454 906
Q 1884 428 2741 428
Q 3075 428 3337 486
Q 3600 544 3809 666
z
" transform="scale(0.015625)"/>
       <path id="DejaVuSans-e" d="M 2944 4013
L 2944 2272
L 4684 2272
L 4684 1741
L 2944 1741
L 2944 0
L 2419 0
L 2419 1741
L 678 1741
L 678 2272
L 2419 2272
L 2419 4013
L 2944 4013
z
" transform="scale(0.015625)"/>
       <path id="DejaVuSans-36" d="M 3425 4513
L 3425 3897
Q 3066 4069 2747 4153
Q 2428 4238 2131 4238
Q 1616 4238 1336 4038
Q 1056 3838 1056 3469
Q 1056 3159 1242 3001
Q 1428 2844 1947 2747
L 2328 2669
Q 3034 2534 3370 2195
Q 3706 1856 3706 1288
Q 3706 609 3251 259
Q 2797 -91 1919 -91
Q 1588 -91 1214 -16
Q 841 59 441 206
L 441 856
Q 825 641 1194 531
Q 1563 422 1919 422
Q 2459 422 2753 634
Q 3047 847 3047 1241
Q 3047 1584 2836 1778
Q 2625 1972 2144 2069
L 1759 2144
Q 1053 2284 737 2584
Q 422 2884 422 3419
Q 422 4038 858 4394
Q 1294 4750 2059 4750
Q 2388 4750 2728 4690
Q 3069 4631 3425 4513
z
" transform="scale(0.015625)"/>
       <path id="DejaVuSans-39" d="M 1831 0
L 50 4666
L 709 4666
L 2188 738
L 3669 4666
L 4325 4666
L 2547 0
L 1831 0
z
" transform="scale(0.015625)"/>
      </defs>
      <use xlink:href="#DejaVuSans-29"/>
      <use xlink:href="#DejaVuSans-4c" transform="translate(50.234375 0)"/>
      <use xlink:href="#DejaVuSans-4a" transform="translate(78.015625 0)"/>
      <use xlink:href="#DejaVuSans-58" transform="translate(141.5 0)"/>
      <use xlink:href="#DejaVuSans-55" transform="translate(204.875 0)"/>
      <use xlink:href="#DejaVuSans-48" transform="translate(243.78125 0)"/>
      <use xlink:href="#DejaVuSans-56" transform="translate(305.3125 0)"/>
      <use xlink:href="#DejaVuSans-3" transform="translate(357.40625 0)"/>
      <use xlink:href="#DejaVuSans-33" transform="translate(389.1875 0)"/>
      <use xlink:href="#DejaVuSans-31" transform="translate(449.484375 0)"/>
      <use xlink:href="#DejaVuSans-2a" transform="translate(524.296875 0)"/>
      <use xlink:href="#DejaVuSans-3" transform="translate(601.78125 0)"/>
      <use xlink:href="#DejaVuSans-e" transform="translate(633.5625 0)"/>
      <use xlink:href="#DejaVuSans-3" transform="translate(717.359375 0)"/>
      <use xlink:href="#DejaVuSans-36" transform="translate(749.140625 0)"/>
      <use xlink:href="#DejaVuSans-39" transform="translate(812.625 0)"/>
      <use xlink:href="#DejaVuSans-2a" transform="translate(881.03125 0)"/>
     </g>
    </g>
    <g clip-path="url(#p608f50c3d5)">
     <!-- registry -->
     <g style="fill: #111827" transform="translate(283.004074 406.690726) scale(0.074 -0.074)">
      <use xlink:href="#DejaVuSans-55"/>
      <use xlink:href="#DejaVuSans-48" transform="translate(38.90625 0)"/>
      <use xlink:href="#DejaVuSans-4a" transform="translate(100.4375 0)"/>
      <use xlink:href="#DejaVuSans-4c" transform="translate(163.921875 0)"/>
      <use xlink:href="#DejaVuSans-56" transform="translate(191.703125 0)"/>
      <use xlink:href="#DejaVuSans-57" transform="translate(243.796875 0)"/>
      <use xlink:href="#DejaVuSans-55" transform="translate(283 0)"/>
      <use xlink:href="#DejaVuSans-5c" transform="translate(324.109375 0)"/>
     </g>
    </g>
   </g>
   <g id="text_15">
    <g clip-path="url(#p608f50c3d5)">
     <!-- Hydrated -->
     <g style="fill: #111827" transform="translate(414.317717 228.441335) scale(0.074 -0.074)">
      <defs>
       <path id="DejaVuSans-2b" d="M 628 4666
L 1259 4666
L 1259 2753
L 3553 2753
L 3553 4666
L 4184 4666
L 4184 0
L 3553 0
L 3553 2222
L 1259 2222
L 1259 0
L 628 0
L 628 4666
z
" transform="scale(0.015625)"/>
      </defs>
      <use xlink:href="#DejaVuSans-2b"/>
      <use xlink:href="#DejaVuSans-5c" transform="translate(75.203125 0)"/>
      <use xlink:href="#DejaVuSans-47" transform="translate(134.390625 0)"/>
      <use xlink:href="#DejaVuSans-55" transform="translate(197.875 0)"/>
      <use xlink:href="#DejaVuSans-44" transform="translate(238.984375 0)"/>
      <use xlink:href="#DejaVuSans-57" transform="translate(300.265625 0)"/>
      <use xlink:href="#DejaVuSans-48" transform="translate(339.46875 0)"/>
      <use xlink:href="#DejaVuSans-47" transform="translate(401 0)"/>
     </g>
    </g>
    <g clip-path="url(#p608f50c3d5)">
     <!-- manuscript -->
     <g style="fill: #111827" transform="translate(410.63217 237.323359) scale(0.074 -0.074)">
      <use xlink:href="#DejaVuSans-50"/>
      <use xlink:href="#DejaVuSans-44" transform="translate(97.40625 0)"/>
      <use xlink:href="#DejaVuSans-51" transform="translate(158.6875 0)"/>
      <use xlink:href="#DejaVuSans-58" transform="translate(222.0625 0)"/>
      <use xlink:href="#DejaVuSans-56" transform="translate(285.4375 0)"/>
      <use xlink:href="#DejaVuSans-46" transform="translate(337.53125 0)"/>
      <use xlink:href="#DejaVuSans-55" transform="translate(392.515625 0)"/>
      <use xlink:href="#DejaVuSans-4c" transform="translate(433.625 0)"/>
      <use xlink:href="#DejaVuSans-53" transform="translate(461.40625 0)"/>
      <use xlink:href="#DejaVuSans-57" transform="translate(524.890625 0)"/>
     </g>
    </g>
    <g clip-path="url(#p608f50c3d5)">
     <!-- resolved variables -->
     <g style="fill: #111827" transform="translate(397.722061 246.205382) scale(0.074 -0.074)">
      <use xlink:href="#DejaVuSans-55"/>
      <use xlink:href="#DejaVuSans-48" transform="translate(38.90625 0)"/>
      <use xlink:href="#DejaVuSans-56" transform="translate(100.4375 0)"/>
      <use xlink:href="#DejaVuSans-52" transform="translate(152.53125 0)"/>
      <use xlink:href="#DejaVuSans-4f" transform="translate(213.71875 0)"/>
      <use xlink:href="#DejaVuSans-59" transform="translate(241.5 0)"/>
      <use xlink:href="#DejaVuSans-48" transform="translate(300.6875 0)"/>
      <use xlink:href="#DejaVuSans-47" transform="translate(362.21875 0)"/>
      <use xlink:href="#DejaVuSans-3" transform="translate(425.703125 0)"/>
      <use xlink:href="#DejaVuSans-59" transform="translate(457.484375 0)"/>
      <use xlink:href="#DejaVuSans-44" transform="translate(516.671875 0)"/>
      <use xlink:href="#DejaVuSans-55" transform="translate(577.953125 0)"/>
      <use xlink:href="#DejaVuSans-4c" transform="translate(619.0625 0)"/>
      <use xlink:href="#DejaVuSans-44" transform="translate(646.84375 0)"/>
      <use xlink:href="#DejaVuSans-45" transform="translate(708.125 0)"/>
      <use xlink:href="#DejaVuSans-4f" transform="translate(771.609375 0)"/>
      <use xlink:href="#DejaVuSans-48" transform="translate(799.390625 0)"/>
      <use xlink:href="#DejaVuSans-56" transform="translate(860.921875 0)"/>
     </g>
    </g>
   </g>
   <g id="text_16">
    <g clip-path="url(#p608f50c3d5)">
     <!-- Validators pytest/ -->
     <g style="fill: #111827" transform="translate(511.022377 232.882347) scale(0.074 -0.074)">
      <defs>
       <path id="DejaVuSans-12" d="M 1625 4666
L 2156 4666
L 531 -594
L 0 -594
L 1625 4666
z
" transform="scale(0.015625)"/>
      </defs>
      <use xlink:href="#DejaVuSans-39"/>
      <use xlink:href="#DejaVuSans-44" transform="translate(60.640625 0)"/>
      <use xlink:href="#DejaVuSans-4f" transform="translate(121.921875 0)"/>
      <use xlink:href="#DejaVuSans-4c" transform="translate(149.703125 0)"/>
      <use xlink:href="#DejaVuSans-47" transform="translate(177.484375 0)"/>
      <use xlink:href="#DejaVuSans-44" transform="translate(240.96875 0)"/>
      <use xlink:href="#DejaVuSans-57" transform="translate(302.25 0)"/>
      <use xlink:href="#DejaVuSans-52" transform="translate(341.453125 0)"/>
      <use xlink:href="#DejaVuSans-55" transform="translate(402.640625 0)"/>
      <use xlink:href="#DejaVuSans-56" transform="translate(443.75 0)"/>
      <use xlink:href="#DejaVuSans-3" transform="translate(495.84375 0)"/>
      <use xlink:href="#DejaVuSans-53" transform="translate(527.625 0)"/>
      <use xlink:href="#DejaVuSans-5c" transform="translate(591.109375 0)"/>
      <use xlink:href="#DejaVuSans-57" transform="translate(650.296875 0)"/>
      <use xlink:href="#DejaVuSans-48" transform="translate(689.5 0)"/>
      <use xlink:href="#DejaVuSans-56" transform="translate(751.03125 0)"/>
      <use xlink:href="#DejaVuSans-57" transform="translate(803.125 0)"/>
      <use xlink:href="#DejaVuSans-12" transform="translate(842.328125 0)"/>
     </g>
    </g>
    <g clip-path="url(#p608f50c3d5)">
     <!-- evidence/render -->
     <g style="fill: #111827" transform="translate(513.204799 241.76437) scale(0.074 -0.074)">
      <use xlink:href="#DejaVuSans-48"/>
      <use xlink:href="#DejaVuSans-59" transform="translate(61.53125 0)"/>
      <use xlink:href="#DejaVuSans-4c" transform="translate(120.71875 0)"/>
      <use xlink:href="#DejaVuSans-47" transform="translate(148.5 0)"/>
      <use xlink:href="#DejaVuSans-48" transform="translate(211.984375 0)"/>
      <use xlink:href="#DejaVuSans-51" transform="translate(273.515625 0)"/>
      <use xlink:href="#DejaVuSans-46" transform="translate(336.890625 0)"/>
      <use xlink:href="#DejaVuSans-48" transform="translate(391.875 0)"/>
      <use xlink:href="#DejaVuSans-12" transform="translate(453.40625 0)"/>
      <use xlink:href="#DejaVuSans-55" transform="translate(487.09375 0)"/>
      <use xlink:href="#DejaVuSans-48" transform="translate(526 0)"/>
      <use xlink:href="#DejaVuSans-51" transform="translate(587.53125 0)"/>
      <use xlink:href="#DejaVuSans-47" transform="translate(650.90625 0)"/>
      <use xlink:href="#DejaVuSans-48" transform="translate(714.390625 0)"/>
      <use xlink:href="#DejaVuSans-55" transform="translate(775.921875 0)"/>
     </g>
    </g>
   </g>
   <g id="text_17">
    <g clip-path="url(#p608f50c3d5)">
     <!-- Publication metal -->
     <g style="fill: #111827" transform="translate(612.065812 232.882636) scale(0.074 -0.074)">
      <use xlink:href="#DejaVuSans-33"/>
      <use xlink:href="#DejaVuSans-58" transform="translate(58.546875 0)"/>
      <use xlink:href="#DejaVuSans-45" transform="translate(121.921875 0)"/>
      <use xlink:href="#DejaVuSans-4f" transform="translate(185.40625 0)"/>
      <use xlink:href="#DejaVuSans-4c" transform="translate(213.1875 0)"/>
      <use xlink:href="#DejaVuSans-46" transform="translate(240.96875 0)"/>
      <use xlink:href="#DejaVuSans-44" transform="translate(295.953125 0)"/>
      <use xlink:href="#DejaVuSans-57" transform="translate(357.234375 0)"/>
      <use xlink:href="#DejaVuSans-4c" transform="translate(396.4375 0)"/>
      <use xlink:href="#DejaVuSans-52" transform="translate(424.21875 0)"/>
      <use xlink:href="#DejaVuSans-51" transform="translate(485.40625 0)"/>
      <use xlink:href="#DejaVuSans-3" transform="translate(548.78125 0)"/>
      <use xlink:href="#DejaVuSans-50" transform="translate(580.5625 0)"/>
      <use xlink:href="#DejaVuSans-48" transform="translate(677.96875 0)"/>
      <use xlink:href="#DejaVuSans-57" transform="translate(739.5 0)"/>
      <use xlink:href="#DejaVuSans-44" transform="translate(778.703125 0)"/>
      <use xlink:href="#DejaVuSans-4f" transform="translate(839.984375 0)"/>
     </g>
    </g>
    <g clip-path="url(#p608f50c3d5)">
     <!-- PDF + HTML -->
     <g style="fill: #111827" transform="translate(621.216375 241.764081) scale(0.074 -0.074)">
      <defs>
       <path id="DejaVuSans-27" d="M 1259 4147
L 1259 519
L 2022 519
Q 2988 519 3436 956
Q 3884 1394 3884 2338
Q 3884 3275 3436 3711
Q 2988 4147 2022 4147
L 1259 4147
z
M 628 4666
L 1925 4666
Q 3281 4666 3915 4102
Q 4550 3538 4550 2338
Q 4550 1131 3912 565
Q 3275 0 1925 0
L 628 0
L 628 4666
z
" transform="scale(0.015625)"/>
       <path id="DejaVuSans-30" d="M 628 4666
L 1569 4666
L 2759 1491
L 3956 4666
L 4897 4666
L 4897 0
L 4281 0
L 4281 4097
L 3078 897
L 2444 897
L 1241 4097
L 1241 0
L 628 0
L 628 4666
z
" transform="scale(0.015625)"/>
       <path id="DejaVuSans-2f" d="M 628 4666
L 1259 4666
L 1259 531
L 3531 531
L 3531 0
L 628 0
L 628 4666
z
" transform="scale(0.015625)"/>
      </defs>
      <use xlink:href="#DejaVuSans-33"/>
      <use xlink:href="#DejaVuSans-27" transform="translate(60.296875 0)"/>
      <use xlink:href="#DejaVuSans-29" transform="translate(137.296875 0)"/>
      <use xlink:href="#DejaVuSans-3" transform="translate(194.8125 0)"/>
      <use xlink:href="#DejaVuSans-e" transform="translate(226.59375 0)"/>
      <use xlink:href="#DejaVuSans-3" transform="translate(310.390625 0)"/>
      <use xlink:href="#DejaVuSans-2b" transform="translate(342.171875 0)"/>
      <use xlink:href="#DejaVuSans-37" transform="translate(417.375 0)"/>
      <use xlink:href="#DejaVuSans-30" transform="translate(478.453125 0)"/>
      <use xlink:href="#DejaVuSans-2f" transform="translate(564.734375 0)"/>
     </g>
    </g>
   </g>
   <g id="text_18">
    <!-- A fork changes the left side first; generated artifacts and validators then prove whether the manuscript still refines. -->
    <g style="fill: #334155" transform="translate(146.074045 223.865281) scale(0.085 -0.085)">
     <defs>
      <path id="DejaVuSans-24" d="M 2188 4044
L 1331 1722
L 3047 1722
L 2188 4044
z
M 1831 4666
L 2547 4666
L 4325 0
L 3669 0
L 3244 1197
L 1141 1197
L 716 0
L 50 0
L 1831 4666
z
" transform="scale(0.015625)"/>
      <path id="DejaVuSans-4b" d="M 3513 2113
L 3513 0
L 2938 0
L 2938 2094
Q 2938 2591 2744 2837
Q 2550 3084 2163 3084
Q 1697 3084 1428 2787
Q 1159 2491 1159 1978
L 1159 0
L 581 0
L 581 4863
L 1159 4863
L 1159 2956
Q 1366 3272 1645 3428
Q 1925 3584 2291 3584
Q 2894 3584 3203 3211
Q 3513 2838 3513 2113
z
" transform="scale(0.015625)"/>
      <path id="DejaVuSans-1e" d="M 750 3309
L 1409 3309
L 1409 2516
L 750 2516
L 750 3309
z
M 750 794
L 1409 794
L 1409 256
L 897 -744
L 494 -744
L 750 256
L 750 794
z
" transform="scale(0.015625)"/>
     </defs>
     <use xlink:href="#DejaVuSans-24"/>
     <use xlink:href="#DejaVuSans-3" transform="translate(68.40625 0)"/>
     <use xlink:href="#DejaVuSans-49" transform="translate(100.1875 0)"/>
     <use xlink:href="#DejaVuSans-52" transform="translate(135.390625 0)"/>
     <use xlink:href="#DejaVuSans-55" transform="translate(196.578125 0)"/>
     <use xlink:href="#DejaVuSans-4e" transform="translate(237.6875 0)"/>
     <use xlink:href="#DejaVuSans-3" transform="translate(295.59375 0)"/>
     <use xlink:href="#DejaVuSans-46" transform="translate(327.375 0)"/>
     <use xlink:href="#DejaVuSans-4b" transform="translate(382.359375 0)"/>
     <use xlink:href="#DejaVuSans-44" transform="translate(445.734375 0)"/>
     <use xlink:href="#DejaVuSans-51" transform="translate(507.015625 0)"/>
     <use xlink:href="#DejaVuSans-4a" transform="translate(570.390625 0)"/>
     <use xlink:href="#DejaVuSans-48" transform="translate(633.875 0)"/>
     <use xlink:href="#DejaVuSans-56" transform="translate(695.40625 0)"/>
     <use xlink:href="#DejaVuSans-3" transform="translate(747.5 0)"/>
     <use xlink:href="#DejaVuSans-57" transform="translate(779.28125 0)"/>
     <use xlink:href="#DejaVuSans-4b" transform="translate(818.484375 0)"/>
     <use xlink:href="#DejaVuSans-48" transform="translate(881.859375 0)"/>
     <use xlink:href="#DejaVuSans-3" transform="translate(943.390625 0)"/>
     <use xlink:href="#DejaVuSans-4f" transform="translate(975.171875 0)"/>
     <use xlink:href="#DejaVuSans-48" transform="translate(1002.953125 0)"/>
     <use xlink:href="#DejaVuSans-49" transform="translate(1064.484375 0)"/>
     <use xlink:href="#DejaVuSans-57" transform="translate(1097.9375 0)"/>
     <use xlink:href="#DejaVuSans-3" transform="translate(1137.140625 0)"/>
     <use xlink:href="#DejaVuSans-56" transform="translate(1168.921875 0)"/>
     <use xlink:href="#DejaVuSans-4c" transform="translate(1221.015625 0)"/>
     <use xlink:href="#DejaVuSans-47" transform="translate(1248.796875 0)"/>
     <use xlink:href="#DejaVuSans-48" transform="translate(1312.28125 0)"/>
     <use xlink:href="#DejaVuSans-3" transform="translate(1373.8125 0)"/>
     <use xlink:href="#DejaVuSans-13af" transform="translate(1405.59375 0)"/>
     <use xlink:href="#DejaVuSans-55" transform="translate(1468.578125 0)"/>
     <use xlink:href="#DejaVuSans-56" transform="translate(1509.6875 0)"/>
     <use xlink:href="#DejaVuSans-57" transform="translate(1561.78125 0)"/>
     <use xlink:href="#DejaVuSans-1e" transform="translate(1600.984375 0)"/>
     <use xlink:href="#DejaVuSans-3" transform="translate(1634.671875 0)"/>
     <use xlink:href="#DejaVuSans-4a" transform="translate(1666.453125 0)"/>
     <use xlink:href="#DejaVuSans-48" transform="translate(1729.9375 0)"/>
     <use xlink:href="#DejaVuSans-51" transform="translate(1791.46875 0)"/>
     <use xlink:href="#DejaVuSans-48" transform="translate(1854.84375 0)"/>
     <use xlink:href="#DejaVuSans-55" transform="translate(1916.375 0)"/>
     <use xlink:href="#DejaVuSans-44" transform="translate(1957.484375 0)"/>
     <use xlink:href="#DejaVuSans-57" transform="translate(2018.765625 0)"/>
     <use xlink:href="#DejaVuSans-48" transform="translate(2057.96875 0)"/>
     <use xlink:href="#DejaVuSans-47" transform="translate(2119.5 0)"/>
     <use xlink:href="#DejaVuSans-3" transform="translate(2182.984375 0)"/>
     <use xlink:href="#DejaVuSans-44" transform="translate(2214.765625 0)"/>
     <use xlink:href="#DejaVuSans-55" transform="translate(2276.046875 0)"/>
     <use xlink:href="#DejaVuSans-57" transform="translate(2317.15625 0)"/>
     <use xlink:href="#DejaVuSans-4c" transform="translate(2356.359375 0)"/>
     <use xlink:href="#DejaVuSans-49" transform="translate(2384.140625 0)"/>
     <use xlink:href="#DejaVuSans-44" transform="translate(2419.34375 0)"/>
     <use xlink:href="#DejaVuSans-46" transform="translate(2480.625 0)"/>
     <use xlink:href="#DejaVuSans-57" transform="translate(2535.609375 0)"/>
     <use xlink:href="#DejaVuSans-56" transform="translate(2574.8125 0)"/>
     <use xlink:href="#DejaVuSans-3" transform="translate(2626.90625 0)"/>
     <use xlink:href="#DejaVuSans-44" transform="translate(2658.6875 0)"/>
     <use xlink:href="#DejaVuSans-51" transform="translate(2719.96875 0)"/>
     <use xlink:href="#DejaVuSans-47" transform="translate(2783.34375 0)"/>
     <use xlink:href="#DejaVuSans-3" transform="translate(2846.828125 0)"/>
     <use xlink:href="#DejaVuSans-59" transform="translate(2878.609375 0)"/>
     <use xlink:href="#DejaVuSans-44" transform="translate(2937.796875 0)"/>
     <use xlink:href="#DejaVuSans-4f" transform="translate(2999.078125 0)"/>
     <use xlink:href="#DejaVuSans-4c" transform="translate(3026.859375 0)"/>
     <use xlink:href="#DejaVuSans-47" transform="translate(3054.640625 0)"/>
     <use xlink:href="#DejaVuSans-44" transform="translate(3118.125 0)"/>
     <use xlink:href="#DejaVuSans-57" transform="translate(3179.40625 0)"/>
     <use xlink:href="#DejaVuSans-52" transform="translate(3218.609375 0)"/>
     <use xlink:href="#DejaVuSans-55" transform="translate(3279.796875 0)"/>
     <use xlink:href="#DejaVuSans-56" transform="translate(3320.90625 0)"/>
     <use xlink:href="#DejaVuSans-3" transform="translate(3373 0)"/>
     <use xlink:href="#DejaVuSans-57" transform="translate(3404.78125 0)"/>
     <use xlink:href="#DejaVuSans-4b" transform="translate(3443.984375 0)"/>
     <use xlink:href="#DejaVuSans-48" transform="translate(3507.359375 0)"/>
     <use xlink:href="#DejaVuSans-51" transform="translate(3568.890625 0)"/>
     <use xlink:href="#DejaVuSans-3" transform="translate(3632.265625 0)"/>
     <use xlink:href="#DejaVuSans-53" transform="translate(3664.046875 0)"/>
     <use xlink:href="#DejaVuSans-55" transform="translate(3727.53125 0)"/>
     <use xlink:href="#DejaVuSans-52" transform="translate(3766.4375 0)"/>
     <use xlink:href="#DejaVuSans-59" transform="translate(3827.625 0)"/>
     <use xlink:href="#DejaVuSans-48" transform="translate(3886.8125 0)"/>
     <use xlink:href="#DejaVuSans-3" transform="translate(3948.34375 0)"/>
     <use xlink:href="#DejaVuSans-5a" transform="translate(3980.125 0)"/>
     <use xlink:href="#DejaVuSans-4b" transform="translate(4061.90625 0)"/>
     <use xlink:href="#DejaVuSans-48" transform="translate(4125.28125 0)"/>
     <use xlink:href="#DejaVuSans-57" transform="translate(4186.8125 0)"/>
     <use xlink:href="#DejaVuSans-4b" transform="translate(4226.015625 0)"/>
     <use xlink:href="#DejaVuSans-48" transform="translate(4289.390625 0)"/>
     <use xlink:href="#DejaVuSans-55" transform="translate(4350.921875 0)"/>
     <use xlink:href="#DejaVuSans-3" transform="translate(4392.03125 0)"/>
     <use xlink:href="#DejaVuSans-57" transform="translate(4423.8125 0)"/>
     <use xlink:href="#DejaVuSans-4b" transform="translate(4463.015625 0)"/>
     <use xlink:href="#DejaVuSans-48" transform="translate(4526.390625 0)"/>
     <use xlink:href="#DejaVuSans-3" transform="translate(4587.921875 0)"/>
     <use xlink:href="#DejaVuSans-50" transform="translate(4619.703125 0)"/>
     <use xlink:href="#DejaVuSans-44" transform="translate(4717.109375 0)"/>
     <use xlink:href="#DejaVuSans-51" transform="translate(4778.390625 0)"/>
     <use xlink:href="#DejaVuSans-58" transform="translate(4841.765625 0)"/>
     <use xlink:href="#DejaVuSans-56" transform="translate(4905.140625 0)"/>
     <use xlink:href="#DejaVuSans-46" transform="translate(4957.234375 0)"/>
     <use xlink:href="#DejaVuSans-55" transform="translate(5012.21875 0)"/>
     <use xlink:href="#DejaVuSans-4c" transform="translate(5053.328125 0)"/>
     <use xlink:href="#DejaVuSans-53" transform="translate(5081.109375 0)"/>
     <use xlink:href="#DejaVuSans-57" transform="translate(5144.59375 0)"/>
     <use xlink:href="#DejaVuSans-3" transform="translate(5183.796875 0)"/>
     <use xlink:href="#DejaVuSans-56" transform="translate(5215.578125 0)"/>
     <use xlink:href="#DejaVuSans-57" transform="translate(5267.671875 0)"/>
     <use xlink:href="#DejaVuSans-4c" transform="translate(5306.875 0)"/>
     <use xlink:href="#DejaVuSans-4f" transform="translate(5334.65625 0)"/>
     <use xlink:href="#DejaVuSans-4f" transform="translate(5362.4375 0)"/>
     <use xlink:href="#DejaVuSans-3" transform="translate(5390.21875 0)"/>
     <use xlink:href="#DejaVuSans-55" transform="translate(5422 0)"/>
     <use xlink:href="#DejaVuSans-48" transform="translate(5460.90625 0)"/>
     <use xlink:href="#DejaVuSans-13af" transform="translate(5522.4375 0)"/>
     <use xlink:href="#DejaVuSans-51" transform="translate(5585.421875 0)"/>
     <use xlink:href="#DejaVuSans-48" transform="translate(5648.796875 0)"/>
     <use xlink:href="#DejaVuSans-56" transform="translate(5710.328125 0)"/>
     <use xlink:href="#DejaVuSans-11" transform="translate(5762.421875 0)"/>
    </g>
   </g>
   <g id="text_19">
    <!-- Gold Refinement Implementation Circuit -->
    <g transform="translate(214.75125 17.837812) scale(0.14 -0.14)">
     <defs>
      <path id="DejaVuSans-2c" d="M 628 4666
L 1259 4666
L 1259 0
L 628 0
L 628 4666
z
" transform="scale(0.015625)"/>
     </defs>
     <use xlink:href="#DejaVuSans-2a"/>
     <use xlink:href="#DejaVuSans-52" transform="translate(77.484375 0)"/>
     <use xlink:href="#DejaVuSans-4f" transform="translate(138.671875 0)"/>
     <use xlink:href="#DejaVuSans-47" transform="translate(166.453125 0)"/>
     <use xlink:href="#DejaVuSans-3" transform="translate(229.9375 0)"/>
     <use xlink:href="#DejaVuSans-35" transform="translate(261.71875 0)"/>
     <use xlink:href="#DejaVuSans-48" transform="translate(326.71875 0)"/>
     <use xlink:href="#DejaVuSans-13af" transform="translate(388.25 0)"/>
     <use xlink:href="#DejaVuSans-51" transform="translate(451.234375 0)"/>
     <use xlink:href="#DejaVuSans-48" transform="translate(514.609375 0)"/>
     <use xlink:href="#DejaVuSans-50" transform="translate(576.140625 0)"/>
     <use xlink:href="#DejaVuSans-48" transform="translate(673.546875 0)"/>
     <use xlink:href="#DejaVuSans-51" transform="translate(735.078125 0)"/>
     <use xlink:href="#DejaVuSans-57" transform="translate(798.453125 0)"/>
     <use xlink:href="#DejaVuSans-3" transform="translate(837.65625 0)"/>
     <use xlink:href="#DejaVuSans-2c" transform="translate(869.4375 0)"/>
     <use xlink:href="#DejaVuSans-50" transform="translate(898.9375 0)"/>
     <use xlink:href="#DejaVuSans-53" transform="translate(996.34375 0)"/>
     <use xlink:href="#DejaVuSans-4f" transform="translate(1059.828125 0)"/>
     <use xlink:href="#DejaVuSans-48" transform="translate(1087.609375 0)"/>
     <use xlink:href="#DejaVuSans-50" transform="translate(1149.140625 0)"/>
     <use xlink:href="#DejaVuSans-48" transform="translate(1246.546875 0)"/>
     <use xlink:href="#DejaVuSans-51" transform="translate(1308.078125 0)"/>
     <use xlink:href="#DejaVuSans-57" transform="translate(1371.453125 0)"/>
     <use xlink:href="#DejaVuSans-44" transform="translate(1410.65625 0)"/>
     <use xlink:href="#DejaVuSans-57" transform="translate(1471.9375 0)"/>
     <use xlink:href="#DejaVuSans-4c" transform="translate(1511.140625 0)"/>
     <use xlink:href="#DejaVuSans-52" transform="translate(1538.921875 0)"/>
     <use xlink:href="#DejaVuSans-51" transform="translate(1600.109375 0)"/>
     <use xlink:href="#DejaVuSans-3" transform="translate(1663.484375 0)"/>
     <use xlink:href="#DejaVuSans-26" transform="translate(1695.265625 0)"/>
     <use xlink:href="#DejaVuSans-4c" transform="translate(1765.09375 0)"/>
     <use xlink:href="#DejaVuSans-55" transform="translate(1792.875 0)"/>
     <use xlink:href="#DejaVuSans-46" transform="translate(1831.78125 0)"/>
     <use xlink:href="#DejaVuSans-58" transform="translate(1886.765625 0)"/>
     <use xlink:href="#DejaVuSans-4c" transform="translate(1950.140625 0)"/>
     <use xlink:href="#DejaVuSans-57" transform="translate(1977.921875 0)"/>
    </g>
   </g>
  </g>
 </g>
 <defs>
  <clipPath id="p608f50c3d5">
   <rect x="7.2" y="35.837812" width="697.5" height="399.168"/>
  </clipPath>
 </defs>
</svg>
