<?xml version="1.0" encoding="utf-8" standalone="no"?>
<!DOCTYPE svg PUBLIC "-//W3C//DTD SVG 1.1//EN"
  "http://www.w3.org/Graphics/SVG/1.1/DTD/svg11.dtd">
<svg xmlns:xlink="http://www.w3.org/1999/xlink" width="711.9pt" height="442.205812pt" viewBox="0 0 711.9 442.205812" xmlns="http://www.w3.org/2000/svg" version="1.1">
 <metadata>
  <rdf:RDF xmlns:dc="http://purl.org/dc/elements/1.1/" xmlns:cc="http://creativecommons.org/ns#" xmlns:rdf="http://www.w3.org/1999/02/22-rdf-syntax-ns#">
   <cc:Work>
    <dc:type rdf:resource="http://purl.org/dc/dcmitype/StillImage"/>
    <dc:format>image/svg+xml</dc:format>
    <dc:creator>
     <cc:Agent>
      <dc:title>template_gold_refinement</dc:title>
     </cc:Agent>
    </dc:creator>
   </cc:Work>
  </rdf:RDF>
 </metadata>
 <defs>
  <style type="text/css">*{stroke-linejoin: round; stroke-linecap: butt}</style>
 </defs>
 <g id="figure_1">
  <g id="patch_1">
   <path d="M 0 442.205812
L 711.9 442.205812
L 711.9 -0
L 0 -0
z
" style="fill: #ffffff"/>
  </g>
  <g id="axes_1">
   <g id="patch_2">
    <path d="M 73.090845 228.602189
Q 128.448112 157.807432 169.358228 79.552683
" clip-path="url(#p608f50c3d5)" style="fill: none; stroke: #475569; stroke-width: 1.4; stroke-linecap: round"/>
    <path d="M 164.282417 83.218218
L 169.358228 79.552683
L 169.24517 85.812652
z
" clip-path="url(#p608f50c3d5)" style="fill: #475569; stroke: #475569; stroke-width: 1.4; stroke-linecap: round"/>
   </g>
   <g id="patch_3">
    <path d="M 71.705457 243.092636
Q 113.340802 322.734476 167.733967 392.296153
" clip-path="url(#p608f50c3d5)" style="fill: none; stroke: #475569; stroke-width: 1.4; stroke-linecap: round"/>
    <path d="M 166.490194 386.159946
L 167.733967 392.296153
L 162.078738 389.609447
z
" clip-path="url(#p608f50c3d5)" style="fill: #475569; stroke: #475569; stroke-width: 1.4; stroke-linecap: round"/>
   </g>
   <g id="patch_4">
    <path d="M 182.684981 71.276389
Q 235.625306 75.828856 287.00614 71.410248
" clip-path="url(#p608f50c3d5)" style="fill: none; stroke: #475569; stroke-width: 1.4; stroke-linecap: round"/>
    <path d="M 281.186827 69.100358
L 287.00614 71.410248
L 281.66664 74.679765
z
" clip-path="url(#p608f50c3d5)" style="fill: #475569; stroke: #475569; stroke-width: 1.4; stroke-linecap: round"/>
   </g>
   <g id="patch_5">
    <path d="M 182.684981 401.129101
Q 235.625306 405.681568 287.00614 401.26296
" clip-path="url(#p608f50c3d5)" style="fill: none; stroke: #475569; stroke-width: 1.4; stroke-linecap: round"/>
    <path d="M 281.186827 398.95307
L 287.00614 401.26296
L 281.66664 404.532476
z
" clip-path="url(#p608f50c3d5)" style="fill: #475569; stroke: #475569; stroke-width: 1.4; stroke-linecap: round"/>
   </g>
   <g id="patch_6">
    <path d="M 301.990098 77.683472
Q 356.740315 159.131379 424.321766 228.119216
" clip-path="url(#p608f50c3d5)" style="fill: none; stroke: #475569; stroke-width: 1.4; stroke-linecap: round"/>
    <path d="M 422.403136 222.159447
L 424.321766 228.119216
L 418.402772 226.078259
z
" clip-path="url(#p608f50c3d5)" style="fill: #475569; stroke: #475569; stroke-width: 1.4; stroke-linecap: round"/>
   </g>
   <g id="patch_7">
    <path d="M 303.273188 394.163097
Q 371.94992 324.057075 425.826855 243.90815
" clip-path="url(#p608f50c3d5)" style="fill: none; stroke: #475569; stroke-width: 1.4; stroke-linecap: round"/>
    <path d="M 420.378941 246.993639
L 425.826855 243.90815
L 425.026498 250.117774
z
" clip-path="url(#p608f50c3d5)" style="fill: #475569; stroke: #475569; stroke-width: 1.4; stroke-linecap: round"/>
   </g>
   <g id="patch_8">
    <path d="M 440.128717 236.19685
Q 487.470579 240.201433 533.252764 236.328571
" clip-path="url(#p608f50c3d5)" style="fill: none; stroke: #475569; stroke-width: 1.4; stroke-linecap: round"/>
    <path d="M 527.436676 234.010572
L 533.252764 236.328571
L 527.908712 239.590642
z
" clip-path="url(#p608f50c3d5)" style="fill: #475569; stroke: #475569; stroke-width: 1.4; stroke-linecap: round"/>
   </g>
   <g id="patch_9">
    <path d="M 552.058326 236.189324
Q 593.804879 239.649263 633.991533 236.318475
" clip-path="url(#p608f50c3d5)" style="fill: none; stroke: #475569; stroke-width: 1.4; stroke-linecap: round"/>
    <path d="M 628.179391 233.990601
L 633.991533 236.318475
L 628.641949 239.571465
z
" clip-path="url(#p608f50c3d5)" style="fill: #475569; stroke: #475569; stroke-width: 1.4; stroke-linecap: round"/>
   </g>
   <g id="patch_10">
    <path d="M 635.557584 234.552125
Q 355.950599 207.427227 77.901548 234.400873
" clip-path="url(#p608f50c3d5)" style="fill: none; stroke: #475569; stroke-width: 1.4; stroke-linecap: round"/>
    <path d="M 83.745742 236.64707
L 77.901548 234.400873
L 83.205022 231.073237
z
" clip-path="url(#p608f50c3d5)" style="fill: #475569; stroke: #475569; stroke-width: 1.4; stroke-linecap: round"/>
   </g>
   <g id="text_1">
    <g id="patch_11">
     <path d="M 109.17848 156.352695
L 132.61248 156.352695
L 132.61248 149.518695
L 109.17848 149.518695
z
" clip-path="url(#p608f50c3d5)" style="fill: #ffffff; opacity: 0.75"/>
    </g>
    <g clip-path="url(#p608f50c3d5)">
     <!-- targets -->
     <g style="fill: #334155" transform="translate(109.49848 154.701695) scale(0.064 -0.064)">
      <defs>
       <path id="DejaVuSans-74" d="M 1172 4494
L 1172 3500
L 2356 3500
L 2356 3053
L 1172 3053
L 1172 1153
Q 1172 725 1289 603
Q 1406 481 1766 481
L 2356 481
L 2356 0
L 1766 0
Q 1100 0 847 248
Q 594 497 594 1153
L 594 3053
L 172 3053
L 172 3500
L 594 3500
L 594 4494
L 1172 4494
z
" transform="scale(0.015625)"/>
       <path id="DejaVuSans-61" d="M 2194 1759
Q 1497 1759 1228 1600
Q 959 1441 959 1056
Q 959 750 1161 570
Q 1363 391 1709 391
Q 2188 391 2477 730
Q 2766 1069 2766 1631
L 2766 1759
L 2194 1759
z
M 3341 1997
L 3341 0
L 2766 0
L 2766 531
Q 2569 213 2275 61
Q 1981 -91 1556 -91
Q 1019 -91 701 211
Q 384 513 384 1019
Q 384 1609 779 1909
Q 1175 2209 1959 2209
L 2766 2209
L 2766 2266
Q 2766 2663 2505 2880
Q 2244 3097 1772 3097
Q 1472 3097 1187 3025
Q 903 2953 641 2809
L 641 3341
Q 956 3463 1253 3523
Q 1550 3584 1831 3584
Q 2591 3584 2966 3190
Q 3341 2797 3341 1997
z
" transform="scale(0.015625)"/>
       <path id="DejaVuSans-72" d="M 2631 2963
Q 2534 3019 2420 3045
Q 2306 3072 2169 3072
Q 1681 3072 1420 2755
Q 1159 2438 1159 1844
L 1159 0
L 581 0
L 581 3500
L 1159 3500
L 1159 2956
Q 1341 3275 1631 3429
Q 1922 3584 2338 3584
Q 2397 3584 2469 3576
Q 2541 3569 2628 3553
L 2631 2963
z
" transform="scale(0.015625)"/>
       <path id="DejaVuSans-67" d="M 2906 1791
Q 2906 2416 2648 2759
Q 2391 3103 1925 3103
Q 1463 3103 1205 2759
Q 947 2416 947 1791
Q 947 1169 1205 825
Q 1463 481 1925 481
Q 2391 481 2648 825
Q 2906 1169 2906 1791
z
M 3481 434
Q 3481 -459 3084 -895
Q 2688 -1331 1869 -1331
Q 1566 -1331 1297 -1286
Q 1028 -1241 775 -1147
L 775 -588
Q 1028 -725 1275 -790
Q 1522 -856 1778 -856
Q 2344 -856 2625 -561
Q 2906 -266 2906 331
L 2906 616
Q 2728 306 2450 153
Q 2172 0 1784 0
Q 1141 0 747 490
Q 353 981 353 1791
Q 353 2603 747 3093
Q 1141 3584 1784 3584
Q 2172 3584 2450 3431
Q 2728 3278 2906 2969
L 2906 3500
L 3481 3500
L 3481 434
z
" transform="scale(0.015625)"/>
       <path id="DejaVuSans-65" d="M 3597 1894
L 3597 1613
L 953 1613
Q 991 1019 1311 708
Q 1631 397 2203 397
Q 2534 397 2845 478
Q 3156 559 3463 722
L 3463 178
Q 3153 47 2828 -22
Q 2503 -91 2169 -91
Q 1331 -91 842 396
Q 353 884 353 1716
Q 353 2575 817 3079
Q 1281 3584 2069 3584
Q 2775 3584 3186 3129
Q 3597 2675 3597 1894
z
M 3022 2063
Q 3016 2534 2758 2815
Q 2500 3097 2075 3097
Q 1594 3097 1305 2825
Q 1016 2553 972 2059
L 3022 2063
z
" transform="scale(0.015625)"/>
       <path id="DejaVuSans-73" d="M 2834 3397
L 2834 2853
Q 2591 2978 2328 3040
Q 2066 3103 1784 3103
Q 1356 3103 1142 2972
Q 928 2841 928 2578
Q 928 2378 1081 2264
Q 1234 2150 1697 2047
L 1894 2003
Q 2506 1872 2764 1633
Q 3022 1394 3022 966
Q 3022 478 2636 193
Q 2250 -91 1575 -91
Q 1294 -91 989 -36
Q 684 19 347 128
L 347 722
Q 666 556 975 473
Q 1284 391 1588 391
Q 1994 391 2212 530
Q 2431 669 2431 922
Q 2431 1156 2273 1281
Q 2116 1406 1581 1522
L 1381 1569
Q 847 1681 609 1914
Q 372 2147 372 2553
Q 372 3047 722 3315
Q 1072 3584 1716 3584
Q 2034 3584 2315 3537
Q 2597 3491 2834 3397
z
" transform="scale(0.015625)"/>
      </defs>
      <use xlink:href="#DejaVuSans-74"/>
      <use xlink:href="#DejaVuSans-61" transform="translate(39.208984 0)"/>
      <use xlink:href="#DejaVuSans-72" transform="translate(100.488281 0)"/>
      <use xlink:href="#DejaVuSans-67" transform="translate(139.851562 0)"/>
      <use xlink:href="#DejaVuSans-65" transform="translate(203.328125 0)"/>
      <use xlink:href="#DejaVuSans-74" transform="translate(264.851562 0)"/>
      <use xlink:href="#DejaVuSans-73" transform="translate(304.060547 0)"/>
     </g>
    </g>
   </g>
   <g id="text_2">
    <g id="patch_12">
     <path d="M 113.13998 321.282913
L 128.65098 321.282913
L 128.65098 314.448913
L 113.13998 314.448913
z
" clip-path="url(#p608f50c3d5)" style="fill: #ffffff; opacity: 0.75"/>
    </g>
    <g clip-path="url(#p608f50c3d5)">
     <!-- slots -->
     <g style="fill: #334155" transform="translate(113.45998 319.631913) scale(0.064 -0.064)">
      <defs>
       <path id="DejaVuSans-6c" d="M 603 4863
L 1178 4863
L 1178 0
L 603 0
L 603 4863
z
" transform="scale(0.015625)"/>
       <path id="DejaVuSans-6f" d="M 1959 3097
Q 1497 3097 1228 2736
Q 959 2375 959 1747
Q 959 1119 1226 758
Q 1494 397 1959 397
Q 2419 397 2687 759
Q 2956 1122 2956 1747
Q 2956 2369 2687 2733
Q 2419 3097 1959 3097
z
M 1959 3584
Q 2709 3584 3137 3096
Q 3566 2609 3566 1747
Q 3566 888 3137 398
Q 2709 -91 1959 -91
Q 1206 -91 779 398
Q 353 888 353 1747
Q 353 2609 779 3096
Q 1206 3584 1959 3584
z
" transform="scale(0.015625)"/>
      </defs>
      <use xlink:href="#DejaVuSans-73"/>
      <use xlink:href="#DejaVuSans-6c" transform="translate(52.099609 0)"/>
      <use xlink:href="#DejaVuSans-6f" transform="translate(79.882812 0)"/>
      <use xlink:href="#DejaVuSans-74" transform="translate(141.064453 0)"/>
      <use xlink:href="#DejaVuSans-73" transform="translate(180.273438 0)"/>
     </g>
    </g>
   </g>
   <g id="text_3">
    <g id="patch_13">
     <path d="M 219.408049 73.891448
L 251.841049 73.891448
L 251.841049 67.057448
L 219.408049 67.057448
z
" clip-path="url(#p608f50c3d5)" style="fill: #ffffff; opacity: 0.75"/>
    </g>
    <g clip-path="url(#p608f50c3d5)">
     <!-- purity law -->
     <g style="fill: #334155" transform="translate(219.728049 72.240448) scale(0.064 -0.064)">
      <defs>
       <path id="DejaVuSans-70" d="M 1159 525
L 1159 -1331
L 581 -1331
L 581 3500
L 1159 3500
L 1159 2969
Q 1341 3281 1617 3432
Q 1894 3584 2278 3584
Q 2916 3584 3314 3078
Q 3713 2572 3713 1747
Q 3713 922 3314 415
Q 2916 -91 2278 -91
Q 1894 -91 1617 61
Q 1341 213 1159 525
z
M 3116 1747
Q 3116 2381 2855 2742
Q 2594 3103 2138 3103
Q 1681 3103 1420 2742
Q 1159 2381 1159 1747
Q 1159 1113 1420 752
Q 1681 391 2138 391
Q 2594 391 2855 752
Q 3116 1113 3116 1747
z
" transform="scale(0.015625)"/>
       <path id="DejaVuSans-75" d="M 544 1381
L 544 3500
L 1119 3500
L 1119 1403
Q 1119 906 1312 657
Q 1506 409 1894 409
Q 2359 409 2629 706
Q 2900 1003 2900 1516
L 2900 3500
L 3475 3500
L 3475 0
L 2900 0
L 2900 538
Q 2691 219 2414 64
Q 2138 -91 1772 -91
Q 1169 -91 856 284
Q 544 659 544 1381
z
M 1991 3584
L 1991 3584
z
" transform="scale(0.015625)"/>
       <path id="DejaVuSans-69" d="M 603 3500
L 1178 3500
L 1178 0
L 603 0
L 603 3500
z
M 603 4863
L 1178 4863
L 1178 4134
L 603 4134
L 603 4863
z
" transform="scale(0.015625)"/>
       <path id="DejaVuSans-79" d="M 2059 -325
Q 1816 -950 1584 -1140
Q 1353 -1331 966 -1331
L 506 -1331
L 506 -850
L 844 -850
Q 1081 -850 1212 -737
Q 1344 -625 1503 -206
L 1606 56
L 191 3500
L 800 3500
L 1894 763
L 2988 3500
L 3597 3500
L 2059 -325
z
" transform="scale(0.015625)"/>
       <path id="DejaVuSans-20" transform="scale(0.015625)"/>
       <path id="DejaVuSans-77" d="M 269 3500
L 844 3500
L 1563 769
L 2278 3500
L 2956 3500
L 3675 769
L 4391 3500
L 4966 3500
L 4050 0
L 3372 0
L 2619 2869
L 1863 0
L 1184 0
L 269 3500
z
" transform="scale(0.015625)"/>
      </defs>
      <use xlink:href="#DejaVuSans-70"/>
      <use xlink:href="#DejaVuSans-75" transform="translate(63.476562 0)"/>
      <use xlink:href="#DejaVuSans-72" transform="translate(126.855469 0)"/>
      <use xlink:href="#DejaVuSans-69" transform="translate(167.96875 0)"/>
      <use xlink:href="#DejaVuSans-74" transform="translate(195.751953 0)"/>
      <use xlink:href="#DejaVuSans-79" transform="translate(234.960938 0)"/>
      <use xlink:href="#DejaVuSans-20" transform="translate(294.140625 0)"/>
      <use xlink:href="#DejaVuSans-6c" transform="translate(325.927734 0)"/>
      <use xlink:href="#DejaVuSans-61" transform="translate(353.710938 0)"/>
      <use xlink:href="#DejaVuSans-77" transform="translate(414.990234 0)"/>
     </g>
    </g>
   </g>
   <g id="text_4">
    <g id="patch_14">
     <path d="M 220.447049 403.74416
L 250.802049 403.74416
L 250.802049 396.91016
L 220.447049 396.91016
z
" clip-path="url(#p608f50c3d5)" style="fill: #ffffff; opacity: 0.75"/>
    </g>
    <g clip-path="url(#p608f50c3d5)">
     <!-- coverage -->
     <g style="fill: #334155" transform="translate(220.767049 402.09316) scale(0.064 -0.064)">
      <defs>
       <path id="DejaVuSans-63" d="M 3122 3366
L 3122 2828
Q 2878 2963 2633 3030
Q 2388 3097 2138 3097
Q 1578 3097 1268 2742
Q 959 2388 959 1747
Q 959 1106 1268 751
Q 1578 397 2138 397
Q 2388 397 2633 464
Q 2878 531 3122 666
L 3122 134
Q 2881 22 2623 -34
Q 2366 -91 2075 -91
Q 1284 -91 818 406
Q 353 903 353 1747
Q 353 2603 823 3093
Q 1294 3584 2113 3584
Q 2378 3584 2631 3529
Q 2884 3475 3122 3366
z
" transform="scale(0.015625)"/>
       <path id="DejaVuSans-76" d="M 191 3500
L 800 3500
L 1894 563
L 2988 3500
L 3597 3500
L 2284 0
L 1503 0
L 191 3500
z
" transform="scale(0.015625)"/>
      </defs>
      <use xlink:href="#DejaVuSans-63"/>
      <use xlink:href="#DejaVuSans-6f" transform="translate(54.980469 0)"/>
      <use xlink:href="#DejaVuSans-76" transform="translate(116.162109 0)"/>
      <use xlink:href="#DejaVuSans-65" transform="translate(175.341797 0)"/>
      <use xlink:href="#DejaVuSans-72" transform="translate(236.865234 0)"/>
      <use xlink:href="#DejaVuSans-61" transform="translate(277.978516 0)"/>
      <use xlink:href="#DejaVuSans-67" transform="translate(339.257812 0)"/>
      <use xlink:href="#DejaVuSans-65" transform="translate(402.734375 0)"/>
     </g>
    </g>
   </g>
   <g id="text_5">
    <g id="patch_15">
     <path d="M 348.240138 156.356209
L 380.452138 156.356209
L 380.452138 149.522209
L 348.240138 149.522209
z
" clip-path="url(#p608f50c3d5)" style="fill: #ffffff; opacity: 0.75"/>
    </g>
    <g clip-path="url(#p608f50c3d5)">
     <!-- equations -->
     <g style="fill: #334155" transform="translate(348.560138 154.705209) scale(0.064 -0.064)">
      <defs>
       <path id="DejaVuSans-71" d="M 947 1747
Q 947 1113 1208 752
Q 1469 391 1925 391
Q 2381 391 2643 752
Q 2906 1113 2906 1747
Q 2906 2381 2643 2742
Q 2381 3103 1925 3103
Q 1469 3103 1208 2742
Q 947 2381 947 1747
z
M 2906 525
Q 2725 213 2448 61
Q 2172 -91 1784 -91
Q 1150 -91 751 415
Q 353 922 353 1747
Q 353 2572 751 3078
Q 1150 3584 1784 3584
Q 2172 3584 2448 3432
Q 2725 3281 2906 2969
L 2906 3500
L 3481 3500
L 3481 -1331
L 2906 -1331
L 2906 525
z
" transform="scale(0.015625)"/>
       <path id="DejaVuSans-6e" d="M 3513 2113
L 3513 0
L 2938 0
L 2938 2094
Q 2938 2591 2744 2837
Q 2550 3084 2163 3084
Q 1697 3084 1428 2787
Q 1159 2491 1159 1978
L 1159 0
L 581 0
L 581 3500
L 1159 3500
L 1159 2956
Q 1366 3272 1645 3428
Q 1925 3584 2291 3584
Q 2894 3584 3203 3211
Q 3513 2838 3513 2113
z
" transform="scale(0.015625)"/>
      </defs>
      <use xlink:href="#DejaVuSans-65"/>
      <use xlink:href="#DejaVuSans-71" transform="translate(61.523438 0)"/>
      <use xlink:href="#DejaVuSans-75" transform="translate(125 0)"/>
      <use xlink:href="#DejaVuSans-61" transform="translate(188.378906 0)"/>
      <use xlink:href="#DejaVuSans-74" transform="translate(249.658203 0)"/>
      <use xlink:href="#DejaVuSans-69" transform="translate(288.867188 0)"/>
      <use xlink:href="#DejaVuSans-6f" transform="translate(316.650391 0)"/>
      <use xlink:href="#DejaVuSans-6e" transform="translate(377.832031 0)"/>
      <use xlink:href="#DejaVuSans-73" transform="translate(441.210938 0)"/>
     </g>
    </g>
   </g>
   <g id="text_6">
    <g id="patch_16">
     <path d="M 340.735638 321.279399
L 387.956638 321.279399
L 387.956638 314.445399
L 340.735638 314.445399
z
" clip-path="url(#p608f50c3d5)" style="fill: #ffffff; opacity: 0.75"/>
    </g>
    <g clip-path="url(#p608f50c3d5)">
     <!-- registered refs -->
     <g style="fill: #334155" transform="translate(341.055638 319.628399) scale(0.064 -0.064)">
      <defs>
       <path id="DejaVuSans-64" d="M 2906 2969
L 2906 4863
L 3481 4863
L 3481 0
L 2906 0
L 2906 525
Q 2725 213 2448 61
Q 2172 -91 1784 -91
Q 1150 -91 751 415
Q 353 922 353 1747
Q 353 2572 751 3078
Q 1150 3584 1784 3584
Q 2172 3584 2448 3432
Q 2725 3281 2906 2969
z
M 947 1747
Q 947 1113 1208 752
Q 1469 391 1925 391
Q 2381 391 2643 752
Q 2906 1113 2906 1747
Q 2906 2381 2643 2742
Q 2381 3103 1925 3103
Q 1469 3103 1208 2742
Q 947 2381 947 1747
z
" transform="scale(0.015625)"/>
       <path id="DejaVuSans-66" d="M 2375 4863
L 2375 4384
L 1825 4384
Q 1516 4384 1395 4259
Q 1275 4134 1275 3809
L 1275 3500
L 2222 3500
L 2222 3053
L 1275 3053
L 1275 0
L 697 0
L 697 3053
L 147 3053
L 147 3500
L 697 3500
L 697 3744
Q 697 4328 969 4595
Q 1241 4863 1831 4863
L 2375 4863
z
" transform="scale(0.015625)"/>
      </defs>
      <use xlink:href="#DejaVuSans-72"/>
      <use xlink:href="#DejaVuSans-65" transform="translate(38.863281 0)"/>
      <use xlink:href="#DejaVuSans-67" transform="translate(100.386719 0)"/>
      <use xlink:href="#DejaVuSans-69" transform="translate(163.863281 0)"/>
      <use xlink:href="#DejaVuSans-73" transform="translate(191.646484 0)"/>
      <use xlink:href="#DejaVuSans-74" transform="translate(243.746094 0)"/>
      <use xlink:href="#DejaVuSans-65" transform="translate(282.955078 0)"/>
      <use xlink:href="#DejaVuSans-72" transform="translate(344.478516 0)"/>
      <use xlink:href="#DejaVuSans-65" transform="translate(383.341797 0)"/>
      <use xlink:href="#DejaVuSans-64" transform="translate(444.865234 0)"/>
      <use xlink:href="#DejaVuSans-20" transform="translate(508.341797 0)"/>
      <use xlink:href="#DejaVuSans-72" transform="translate(540.128906 0)"/>
      <use xlink:href="#DejaVuSans-65" transform="translate(578.992188 0)"/>
      <use xlink:href="#DejaVuSans-66" transform="translate(640.515625 0)"/>
      <use xlink:href="#DejaVuSans-73" transform="translate(675.720703 0)"/>
     </g>
    </g>
   </g>
   <g id="text_7">
    <g id="patch_17">
     <path d="M 476.867674 238.817804
L 498.072674 238.817804
L 498.072674 231.983804
L 476.867674 231.983804
z
" clip-path="url(#p608f50c3d5)" style="fill: #ffffff; opacity: 0.75"/>
    </g>
    <g clip-path="url(#p608f50c3d5)">
     <!-- claims -->
     <g style="fill: #334155" transform="translate(477.187674 237.166804) scale(0.064 -0.064)">
      <defs>
       <path id="DejaVuSans-6d" d="M 3328 2828
Q 3544 3216 3844 3400
Q 4144 3584 4550 3584
Q 5097 3584 5394 3201
Q 5691 2819 5691 2113
L 5691 0
L 5113 0
L 5113 2094
Q 5113 2597 4934 2840
Q 4756 3084 4391 3084
Q 3944 3084 3684 2787
Q 3425 2491 3425 1978
L 3425 0
L 2847 0
L 2847 2094
Q 2847 2600 2669 2842
Q 2491 3084 2119 3084
Q 1678 3084 1418 2786
Q 1159 2488 1159 1978
L 1159 0
L 581 0
L 581 3500
L 1159 3500
L 1159 2956
Q 1356 3278 1631 3431
Q 1906 3584 2284 3584
Q 2666 3584 2933 3390
Q 3200 3197 3328 2828
z
" transform="scale(0.015625)"/>
      </defs>
      <use xlink:href="#DejaVuSans-63"/>
      <use xlink:href="#DejaVuSans-6c" transform="translate(54.980469 0)"/>
      <use xlink:href="#DejaVuSans-61" transform="translate(82.763672 0)"/>
      <use xlink:href="#DejaVuSans-69" transform="translate(144.042969 0)"/>
      <use xlink:href="#DejaVuSans-6d" transform="translate(171.826172 0)"/>
      <use xlink:href="#DejaVuSans-73" transform="translate(269.238281 0)"/>
     </g>
    </g>
   </g>
   <g id="text_8">
    <g id="patch_18">
     <path d="M 584.602381 238.817804
L 603.008381 238.817804
L 603.008381 231.983804
L 584.602381 231.983804
z
" clip-path="url(#p608f50c3d5)" style="fill: #ffffff; opacity: 0.75"/>
    </g>
    <g clip-path="url(#p608f50c3d5)">
     <!-- gates -->
     <g style="fill: #334155" transform="translate(584.922381 237.166804) scale(0.064 -0.064)">
      <use xlink:href="#DejaVuSans-67"/>
      <use xlink:href="#DejaVuSans-61" transform="translate(63.476562 0)"/>
      <use xlink:href="#DejaVuSans-74" transform="translate(124.755859 0)"/>
      <use xlink:href="#DejaVuSans-65" transform="translate(163.964844 0)"/>
      <use xlink:href="#DejaVuSans-73" transform="translate(225.488281 0)"/>
     </g>
    </g>
   </g>
   <g id="text_9">
    <g id="patch_19">
     <path d="M 333.658935 238.817804
L 378.240935 238.817804
L 378.240935 231.983804
L 333.658935 231.983804
z
" clip-path="url(#p608f50c3d5)" style="fill: #ffffff; opacity: 0.75"/>
    </g>
    <g clip-path="url(#p608f50c3d5)">
     <!-- fork feedback -->
     <g style="fill: #334155" transform="translate(333.978935 237.166804) scale(0.064 -0.064)">
      <defs>
       <path id="DejaVuSans-6b" d="M 581 4863
L 1159 4863
L 1159 1991
L 2875 3500
L 3609 3500
L 1753 1863
L 3688 0
L 2938 0
L 1159 1709
L 1159 0
L 581 0
L 581 4863
z
" transform="scale(0.015625)"/>
       <path id="DejaVuSans-62" d="M 3116 1747
Q 3116 2381 2855 2742
Q 2594 3103 2138 3103
Q 1681 3103 1420 2742
Q 1159 2381 1159 1747
Q 1159 1113 1420 752
Q 1681 391 2138 391
Q 2594 391 2855 752
Q 3116 1113 3116 1747
z
M 1159 2969
Q 1341 3281 1617 3432
Q 1894 3584 2278 3584
Q 2916 3584 3314 3078
Q 3713 2572 3713 1747
Q 3713 922 3314 415
Q 2916 -91 2278 -91
Q 1894 -91 1617 61
Q 1341 213 1159 525
L 1159 0
L 581 0
L 581 4863
L 1159 4863
L 1159 2969
z
" transform="scale(0.015625)"/>
      </defs>
      <use xlink:href="#DejaVuSans-66"/>
      <use xlink:href="#DejaVuSans-6f" transform="translate(35.205078 0)"/>
      <use xlink:href="#DejaVuSans-72" transform="translate(96.386719 0)"/>
      <use xlink:href="#DejaVuSans-6b" transform="translate(137.5 0)"/>
      <use xlink:href="#DejaVuSans-20" transform="translate(195.410156 0)"/>
      <use xlink:href="#DejaVuSans-66" transform="translate(227.197266 0)"/>
      <use xlink:href="#DejaVuSans-65" transform="translate(262.402344 0)"/>
      <use xlink:href="#DejaVuSans-65" transform="translate(323.925781 0)"/>
      <use xlink:href="#DejaVuSans-64" transform="translate(385.449219 0)"/>
      <use xlink:href="#DejaVuSans-62" transform="translate(448.925781 0)"/>
      <use xlink:href="#DejaVuSans-61" transform="translate(512.402344 0)"/>
      <use xlink:href="#DejaVuSans-63" transform="translate(573.681641 0)"/>
      <use xlink:href="#DejaVuSans-6b" transform="translate(628.662109 0)"/>
     </g>
    </g>
   </g>
   <g id="PathCollection_1">
    <defs>
     <path id="C0_0_0d9d9760fc" d="M 0 25.495098
C 6.761379 25.495098 13.24674 22.808773 18.027756 18.027756
C 22.808773 13.24674 25.495098 6.761379 25.495098 -0
C 25.495098 -6.761379 22.808773 -13.24674 18.027756 -18.027756
C 13.24674 -22.808773 6.761379 -25.495098 0 -25.495098
C -6.761379 -25.495098 -13.24674 -22.808773 -18.027756 -18.027756
C -22.808773 -13.24674 -25.495098 -6.761379 -25.495098 0
C -25.495098 6.761379 -22.808773 13.24674 -18.027756 18.027756
C -13.24674 22.808773 -6.761379 25.495098 0 25.495098
z
"/>
    </defs>
    <g clip-path="url(#p608f50c3d5)">
     <use xlink:href="#C0_0_0d9d9760fc" x="67.72686" y="235.400804" style="fill: #264653; fill-opacity: 0.94; stroke: #111827; stroke-opacity: 0.94; stroke-width: 0.8"/>
    </g>
    <g clip-path="url(#p608f50c3d5)">
     <use xlink:href="#C0_0_0d9d9760fc" x="174.06161" y="70.474448" style="fill: #2a9d8f; fill-opacity: 0.94; stroke: #111827; stroke-opacity: 0.94; stroke-width: 0.8"/>
    </g>
    <g clip-path="url(#p608f50c3d5)">
     <use xlink:href="#C0_0_0d9d9760fc" x="174.06161" y="400.32716" style="fill: #e9c46a; fill-opacity: 0.94; stroke: #111827; stroke-opacity: 0.94; stroke-width: 0.8"/>
    </g>
    <g clip-path="url(#p608f50c3d5)">
     <use xlink:href="#C0_0_0d9d9760fc" x="297.186059" y="70.474448" style="fill: #2a9d8f; fill-opacity: 0.94; stroke: #111827; stroke-opacity: 0.94; stroke-width: 0.8"/>
    </g>
    <g clip-path="url(#p608f50c3d5)">
     <use xlink:href="#C0_0_0d9d9760fc" x="297.186059" y="400.32716" style="fill: #e9c46a; fill-opacity: 0.94; stroke: #111827; stroke-opacity: 0.94; stroke-width: 0.8"/>
    </g>
    <g clip-path="url(#p608f50c3d5)">
     <use xlink:href="#C0_0_0d9d9760fc" x="431.503639" y="235.400804" style="fill: #f4a261; fill-opacity: 0.94; stroke: #111827; stroke-opacity: 0.94; stroke-width: 0.8"/>
    </g>
    <g clip-path="url(#p608f50c3d5)">
     <use xlink:href="#C0_0_0d9d9760fc" x="543.434955" y="235.400804" style="fill: #e76f51; fill-opacity: 0.94; stroke: #111827; stroke-opacity: 0.94; stroke-width: 0.8"/>
    </g>
    <g clip-path="url(#p608f50c3d5)">
     <use xlink:href="#C0_0_0d9d9760fc" x="644.17314" y="235.400804" style="fill: #577590; fill-opacity: 0.94; stroke: #111827; stroke-opacity: 0.94; stroke-width: 0.8"/>
    </g>
   </g>
   <g id="text_10">
    <g clip-path="url(#p608f50c3d5)">
     <!-- Config ore -->
     <g style="fill: #111827" transform="translate(48.700766 233.299551) scale(0.074 -0.074)">
      <defs>
       <path id="DejaVuSans-43" d="M 4122 4306
L 4122 3641
Q 3803 3938 3442 4084
Q 3081 4231 2675 4231
Q 1875 4231 1450 3742
Q 1025 3253 1025 2328
Q 1025 1406 1450 917
Q 1875 428 2675 428
Q 3081 428 3442 575
Q 3803 722 4122 1019
L 4122 359
Q 3791 134 3420 21
Q 3050 -91 2638 -91
Q 1578 -91 968 557
Q 359 1206 359 2328
Q 359 3453 968 4101
Q 1578 4750 2638 4750
Q 3056 4750 3426 4639
Q 3797 4528 4122 4306
z
" transform="scale(0.015625)"/>
      </defs>
      <use xlink:href="#DejaVuSans-43"/>
      <use xlink:href="#DejaVuSans-6f" transform="translate(69.824219 0)"/>
      <use xlink:href="#DejaVuSans-6e" transform="translate(131.005859 0)"/>
      <use xlink:href="#DejaVuSans-66" transform="translate(194.384766 0)"/>
      <use xlink:href="#DejaVuSans-69" transform="translate(229.589844 0)"/>
      <use xlink:href="#DejaVuSans-67" transform="translate(257.373047 0)"/>
      <use xlink:href="#DejaVuSans-20" transform="translate(320.849609 0)"/>
      <use xlink:href="#DejaVuSans-6f" transform="translate(352.636719 0)"/>
      <use xlink:href="#DejaVuSans-72" transform="translate(413.818359 0)"/>
      <use xlink:href="#DejaVuSans-65" transform="translate(452.681641 0)"/>
     </g>
    </g>
    <g clip-path="url(#p608f50c3d5)">
     <!-- config.yaml -->
     <g style="fill: #111827" transform="translate(46.139094 241.585932) scale(0.074 -0.074)">
      <defs>
       <path id="DejaVuSans-2e" d="M 684 794
L 1344 794
L 1344 0
L 684 0
L 684 794
z
" transform="scale(0.015625)"/>
      </defs>
      <use xlink:href="#DejaVuSans-63"/>
      <use xlink:href="#DejaVuSans-6f" transform="translate(54.980469 0)"/>
      <use xlink:href="#DejaVuSans-6e" transform="translate(116.162109 0)"/>
      <use xlink:href="#DejaVuSans-66" transform="translate(179.541016 0)"/>
      <use xlink:href="#DejaVuSans-69" transform="translate(214.746094 0)"/>
      <use xlink:href="#DejaVuSans-67" transform="translate(242.529297 0)"/>
      <use xlink:href="#DejaVuSans-2e" transform="translate(306.005859 0)"/>
      <use xlink:href="#DejaVuSans-79" transform="translate(337.792969 0)"/>
      <use xlink:href="#DejaVuSans-61" transform="translate(396.972656 0)"/>
      <use xlink:href="#DejaVuSans-6d" transform="translate(458.251953 0)"/>
      <use xlink:href="#DejaVuSans-6c" transform="translate(555.664062 0)"/>
     </g>
    </g>
   </g>
   <g id="text_11">
    <g clip-path="url(#p608f50c3d5)">
     <!-- Refinery code -->
     <g style="fill: #111827" transform="translate(148.617751 68.373195) scale(0.074 -0.074)">
      <defs>
       <path id="DejaVuSans-52" d="M 2841 2188
Q 3044 2119 3236 1894
Q 3428 1669 3622 1275
L 4263 0
L 3584 0
L 2988 1197
Q 2756 1666 2539 1819
Q 2322 1972 1947 1972
L 1259 1972
L 1259 0
L 628 0
L 628 4666
L 2053 4666
Q 2853 4666 3247 4331
Q 3641 3997 3641 3322
Q 3641 2881 3436 2590
Q 3231 2300 2841 2188
z
M 1259 4147
L 1259 2491
L 2053 2491
Q 2509 2491 2742 2702
Q 2975 2913 2975 3322
Q 2975 3731 2742 3939
Q 2509 4147 2053 4147
L 1259 4147
z
" transform="scale(0.015625)"/>
      </defs>
      <use xlink:href="#DejaVuSans-52"/>
      <use xlink:href="#DejaVuSans-65" transform="translate(64.982422 0)"/>
      <use xlink:href="#DejaVuSans-66" transform="translate(126.505859 0)"/>
      <use xlink:href="#DejaVuSans-69" transform="translate(161.710938 0)"/>
      <use xlink:href="#DejaVuSans-6e" transform="translate(189.494141 0)"/>
      <use xlink:href="#DejaVuSans-65" transform="translate(252.873047 0)"/>
      <use xlink:href="#DejaVuSans-72" transform="translate(314.396484 0)"/>
      <use xlink:href="#DejaVuSans-79" transform="translate(355.509766 0)"/>
      <use xlink:href="#DejaVuSans-20" transform="translate(414.689453 0)"/>
      <use xlink:href="#DejaVuSans-63" transform="translate(446.476562 0)"/>
      <use xlink:href="#DejaVuSans-6f" transform="translate(501.457031 0)"/>
      <use xlink:href="#DejaVuSans-64" transform="translate(562.638672 0)"/>
      <use xlink:href="#DejaVuSans-65" transform="translate(626.115234 0)"/>
     </g>
    </g>
    <g clip-path="url(#p608f50c3d5)">
     <!-- purity stages -->
     <g style="fill: #111827" transform="translate(149.804063 76.659576) scale(0.074 -0.074)">
      <use xlink:href="#DejaVuSans-70"/>
      <use xlink:href="#DejaVuSans-75" transform="translate(63.476562 0)"/>
      <use xlink:href="#DejaVuSans-72" transform="translate(126.855469 0)"/>
      <use xlink:href="#DejaVuSans-69" transform="translate(167.96875 0)"/>
      <use xlink:href="#DejaVuSans-74" transform="translate(195.751953 0)"/>
      <use xlink:href="#DejaVuSans-79" transform="translate(234.960938 0)"/>
      <use xlink:href="#DejaVuSans-20" transform="translate(294.140625 0)"/>
      <use xlink:href="#DejaVuSans-73" transform="translate(325.927734 0)"/>
      <use xlink:href="#DejaVuSans-74" transform="translate(378.027344 0)"/>
      <use xlink:href="#DejaVuSans-61" transform="translate(417.236328 0)"/>
      <use xlink:href="#DejaVuSans-67" transform="translate(478.515625 0)"/>
      <use xlink:href="#DejaVuSans-65" transform="translate(541.992188 0)"/>
      <use xlink:href="#DejaVuSans-73" transform="translate(603.515625 0)"/>
     </g>
    </g>
   </g>
   <g id="text_12">
    <g clip-path="url(#p608f50c3d5)">
     <!-- Token plan digest -->
     <g style="fill: #111827" transform="translate(141.815532 398.225907) scale(0.074 -0.074)">
      <defs>
       <path id="DejaVuSans-54" d="M -19 4666
L 3928 4666
L 3928 4134
L 2272 4134
L 2272 0
L 1638 0
L 1638 4134
L -19 4134
L -19 4666
z
" transform="scale(0.015625)"/>
      </defs>
      <use xlink:href="#DejaVuSans-54"/>
      <use xlink:href="#DejaVuSans-6f" transform="translate(44.083984 0)"/>
      <use xlink:href="#DejaVuSans-6b" transform="translate(105.265625 0)"/>
      <use xlink:href="#DejaVuSans-65" transform="translate(159.550781 0)"/>
      <use xlink:href="#DejaVuSans-6e" transform="translate(221.074219 0)"/>
      <use xlink:href="#DejaVuSans-20" transform="translate(284.453125 0)"/>
      <use xlink:href="#DejaVuSans-70" transform="translate(316.240234 0)"/>
      <use xlink:href="#DejaVuSans-6c" transform="translate(379.716797 0)"/>
      <use xlink:href="#DejaVuSans-61" transform="translate(407.5 0)"/>
      <use xlink:href="#DejaVuSans-6e" transform="translate(468.779297 0)"/>
      <use xlink:href="#DejaVuSans-20" transform="translate(532.158203 0)"/>
      <use xlink:href="#DejaVuSans-64" transform="translate(563.945312 0)"/>
      <use xlink:href="#DejaVuSans-69" transform="translate(627.421875 0)"/>
      <use xlink:href="#DejaVuSans-67" transform="translate(655.205078 0)"/>
      <use xlink:href="#DejaVuSans-65" transform="translate(718.681641 0)"/>
      <use xlink:href="#DejaVuSans-73" transform="translate(780.205078 0)"/>
      <use xlink:href="#DejaVuSans-74" transform="translate(832.304688 0)"/>
     </g>
    </g>
    <g clip-path="url(#p608f50c3d5)">
     <!-- selections -->
     <g style="fill: #111827" transform="translate(155.503798 406.512288) scale(0.074 -0.074)">
      <use xlink:href="#DejaVuSans-73"/>
      <use xlink:href="#DejaVuSans-65" transform="translate(52.099609 0)"/>
      <use xlink:href="#DejaVuSans-6c" transform="translate(113.623047 0)"/>
      <use xlink:href="#DejaVuSans-65" transform="translate(141.40625 0)"/>
      <use xlink:href="#DejaVuSans-63" transform="translate(202.929688 0)"/>
      <use xlink:href="#DejaVuSans-74" transform="translate(257.910156 0)"/>
      <use xlink:href="#DejaVuSans-69" transform="translate(297.119141 0)"/>
      <use xlink:href="#DejaVuSans-6f" transform="translate(324.902344 0)"/>
      <use xlink:href="#DejaVuSans-6e" transform="translate(386.083984 0)"/>
      <use xlink:href="#DejaVuSans-73" transform="translate(449.462891 0)"/>
     </g>
    </g>
   </g>
   <g id="text_13">
    <g clip-path="url(#p608f50c3d5)">
     <!-- Formalisms -->
     <g style="fill: #111827" transform="translate(276.085652 68.373195) scale(0.074 -0.074)">
      <defs>
       <path id="DejaVuSans-46" d="M 628 4666
L 3309 4666
L 3309 4134
L 1259 4134
L 1259 2759
L 3109 2759
L 3109 2228
L 1259 2228
L 1259 0
L 628 0
L 628 4666
z
" transform="scale(0.015625)"/>
      </defs>
      <use xlink:href="#DejaVuSans-46"/>
      <use xlink:href="#DejaVuSans-6f" transform="translate(53.894531 0)"/>
      <use xlink:href="#DejaVuSans-72" transform="translate(115.076172 0)"/>
      <use xlink:href="#DejaVuSans-6d" transform="translate(154.439453 0)"/>
      <use xlink:href="#DejaVuSans-61" transform="translate(251.851562 0)"/>
      <use xlink:href="#DejaVuSans-6c" transform="translate(313.130859 0)"/>
      <use xlink:href="#DejaVuSans-69" transform="translate(340.914062 0)"/>
      <use xlink:href="#DejaVuSans-73" transform="translate(368.697266 0)"/>
      <use xlink:href="#DejaVuSans-6d" transform="translate(420.796875 0)"/>
      <use xlink:href="#DejaVuSans-73" transform="translate(518.208984 0)"/>
     </g>
    </g>
    <g clip-path="url(#p608f50c3d5)">
     <!-- equation labels -->
     <g style="fill: #111827" transform="translate(268.808793 76.659576) scale(0.074 -0.074)">
      <use xlink:href="#DejaVuSans-65"/>
      <use xlink:href="#DejaVuSans-71" transform="translate(61.523438 0)"/>
      <use xlink:href="#DejaVuSans-75" transform="translate(125 0)"/>
      <use xlink:href="#DejaVuSans-61" transform="translate(188.378906 0)"/>
      <use xlink:href="#DejaVuSans-74" transform="translate(249.658203 0)"/>
      <use xlink:href="#DejaVuSans-69" transform="translate(288.867188 0)"/>
      <use xlink:href="#DejaVuSans-6f" transform="translate(316.650391 0)"/>
      <use xlink:href="#DejaVuSans-6e" transform="translate(377.832031 0)"/>
      <use xlink:href="#DejaVuSans-20" transform="translate(441.210938 0)"/>
      <use xlink:href="#DejaVuSans-6c" transform="translate(472.998047 0)"/>
      <use xlink:href="#DejaVuSans-61" transform="translate(500.78125 0)"/>
      <use xlink:href="#DejaVuSans-62" transform="translate(562.060547 0)"/>
      <use xlink:href="#DejaVuSans-65" transform="translate(625.537109 0)"/>
      <use xlink:href="#DejaVuSans-6c" transform="translate(687.060547 0)"/>
      <use xlink:href="#DejaVuSans-73" transform="translate(714.84375 0)"/>
     </g>
    </g>
   </g>
   <g id="text_14">
    <g clip-path="url(#p608f50c3d5)">
     <!-- Figures PNG + SVG -->
     <g style="fill: #111827" transform="translate(261.721559 398.225907) scale(0.074 -0.074)">
      <defs>
       <path id="DejaVuSans-50" d="M 1259 4147
L 1259 2394
L 2053 2394
Q 2494 2394 2734 2622
Q 2975 2850 2975 3272
Q 2975 3691 2734 3919
Q 2494 4147 2053 4147
L 1259 4147
z
M 628 4666
L 2053 4666
Q 2838 4666 3239 4311
Q 3641 3956 3641 3272
Q 3641 2581 3239 2228
Q 2838 1875 2053 1875
L 1259 1875
L 1259 0
L 628 0
L 628 4666
z
" transform="scale(0.015625)"/>
       <path id="DejaVuSans-4e" d="M 628 4666
L 1478 4666
L 3547 763
L 3547 4666
L 4159 4666
L 4159 0
L 3309 0
L 1241 3903
L 1241 0
L 628 0
L 628 4666
z
" transform="scale(0.015625)"/>
       <path id="DejaVuSans-47" d="M 3809 666
L 3809 1919
L 2778 1919
L 2778 2438
L 4434 2438
L 4434 434
Q 4069 175 3628 42
Q 3188 -91 2688 -91
Q 1594 -91 976 548
Q 359 1188 359 2328
Q 359 3472 976 4111
Q 1594 4750 2688 4750
Q 3144 4750 3555 4637
Q 3966 4525 4313 4306
L 4313 3634
Q 3963 3931 3569 4081
Q 3175 4231 2741 4231
Q 1884 4231 1454 3753
Q 1025 3275 1025 2328
Q 1025 1384 1454 906
Q 1884 428 2741 428
Q 3075 428 3337 486
Q 3600 544 3809 666
z
" transform="scale(0.015625)"/>
       <path id="DejaVuSans-2b" d="M 2944 4013
L 2944 2272
L 4684 2272
L 4684 1741
L 2944 1741
L 2944 0
L 2419 0
L 2419 1741
L 678 1741
L 678 2272
L 2419 2272
L 2419 4013
L 2944 4013
z
" transform="scale(0.015625)"/>
       <path id="DejaVuSans-53" d="M 3425 4513
L 3425 3897
Q 3066 4069 2747 4153
Q 2428 4238 2131 4238
Q 1616 4238 1336 4038
Q 1056 3838 1056 3469
Q 1056 3159 1242 3001
Q 1428 2844 1947 2747
L 2328 2669
Q 3034 2534 3370 2195
Q 3706 1856 3706 1288
Q 3706 609 3251 259
Q 2797 -91 1919 -91
Q 1588 -91 1214 -16
Q 841 59 441 206
L 441 856
Q 825 641 1194 531
Q 1563 422 1919 422
Q 2459 422 2753 634
Q 3047 847 3047 1241
Q 3047 1584 2836 1778
Q 2625 1972 2144 2069
L 1759 2144
Q 1053 2284 737 2584
Q 422 2884 422 3419
Q 422 4038 858 4394
Q 1294 4750 2059 4750
Q 2388 4750 2728 4690
Q 3069 4631 3425 4513
z
" transform="scale(0.015625)"/>
       <path id="DejaVuSans-56" d="M 1831 0
L 50 4666
L 709 4666
L 2188 738
L 3669 4666
L 4325 4666
L 2547 0
L 1831 0
z
" transform="scale(0.015625)"/>
      </defs>
      <use xlink:href="#DejaVuSans-46"/>
      <use xlink:href="#DejaVuSans-69" transform="translate(50.269531 0)"/>
      <use xlink:href="#DejaVuSans-67" transform="translate(78.052734 0)"/>
      <use xlink:href="#DejaVuSans-75" transform="translate(141.529297 0)"/>
      <use xlink:href="#DejaVuSans-72" transform="translate(204.908203 0)"/>
      <use xlink:href="#DejaVuSans-65" transform="translate(243.771484 0)"/>
      <use xlink:href="#DejaVuSans-73" transform="translate(305.294922 0)"/>
      <use xlink:href="#DejaVuSans-20" transform="translate(357.394531 0)"/>
      <use xlink:href="#DejaVuSans-50" transform="translate(389.181641 0)"/>
      <use xlink:href="#DejaVuSans-4e" transform="translate(449.484375 0)"/>
      <use xlink:href="#DejaVuSans-47" transform="translate(524.289062 0)"/>
      <use xlink:href="#DejaVuSans-20" transform="translate(601.779297 0)"/>
      <use xlink:href="#DejaVuSans-2b" transform="translate(633.566406 0)"/>
      <use xlink:href="#DejaVuSans-20" transform="translate(717.355469 0)"/>
      <use xlink:href="#DejaVuSans-53" transform="translate(749.142578 0)"/>
      <use xlink:href="#DejaVuSans-56" transform="translate(812.619141 0)"/>
      <use xlink:href="#DejaVuSans-47" transform="translate(881.027344 0)"/>
     </g>
    </g>
    <g clip-path="url(#p608f50c3d5)">
     <!-- registry -->
     <g style="fill: #111827" transform="translate(283.005809 406.512288) scale(0.074 -0.074)">
      <use xlink:href="#DejaVuSans-72"/>
      <use xlink:href="#DejaVuSans-65" transform="translate(38.863281 0)"/>
      <use xlink:href="#DejaVuSans-67" transform="translate(100.386719 0)"/>
      <use xlink:href="#DejaVuSans-69" transform="translate(163.863281 0)"/>
      <use xlink:href="#DejaVuSans-73" transform="translate(191.646484 0)"/>
      <use xlink:href="#DejaVuSans-74" transform="translate(243.746094 0)"/>
      <use xlink:href="#DejaVuSans-72" transform="translate(282.955078 0)"/>
      <use xlink:href="#DejaVuSans-79" transform="translate(324.068359 0)"/>
     </g>
    </g>
   </g>
   <g id="text_15">
    <g clip-path="url(#p608f50c3d5)">
     <!-- Hydrated -->
     <g style="fill: #111827" transform="translate(414.317717 229.15636) scale(0.074 -0.074)">
      <defs>
       <path id="DejaVuSans-48" d="M 628 4666
L 1259 4666
L 1259 2753
L 3553 2753
L 3553 4666
L 4184 4666
L 4184 0
L 3553 0
L 3553 2222
L 1259 2222
L 1259 0
L 628 0
L 628 4666
z
" transform="scale(0.015625)"/>
      </defs>
      <use xlink:href="#DejaVuSans-48"/>
      <use xlink:href="#DejaVuSans-79" transform="translate(75.195312 0)"/>
      <use xlink:href="#DejaVuSans-64" transform="translate(134.375 0)"/>
      <use xlink:href="#DejaVuSans-72" transform="translate(197.851562 0)"/>
      <use xlink:href="#DejaVuSans-61" transform="translate(238.964844 0)"/>
      <use xlink:href="#DejaVuSans-74" transform="translate(300.244141 0)"/>
      <use xlink:href="#DejaVuSans-65" transform="translate(339.453125 0)"/>
      <use xlink:href="#DejaVuSans-64" transform="translate(400.976562 0)"/>
     </g>
    </g>
    <g clip-path="url(#p608f50c3d5)">
     <!-- manuscript -->
     <g style="fill: #111827" transform="translate(410.63217 237.442742) scale(0.074 -0.074)">
      <use xlink:href="#DejaVuSans-6d"/>
      <use xlink:href="#DejaVuSans-61" transform="translate(97.412109 0)"/>
      <use xlink:href="#DejaVuSans-6e" transform="translate(158.691406 0)"/>
      <use xlink:href="#DejaVuSans-75" transform="translate(222.070312 0)"/>
      <use xlink:href="#DejaVuSans-73" transform="translate(285.449219 0)"/>
      <use xlink:href="#DejaVuSans-63" transform="translate(337.548828 0)"/>
      <use xlink:href="#DejaVuSans-72" transform="translate(392.529297 0)"/>
      <use xlink:href="#DejaVuSans-69" transform="translate(433.642578 0)"/>
      <use xlink:href="#DejaVuSans-70" transform="translate(461.425781 0)"/>
      <use xlink:href="#DejaVuSans-74" transform="translate(524.902344 0)"/>
     </g>
    </g>
    <g clip-path="url(#p608f50c3d5)">
     <!-- resolved variables -->
     <g style="fill: #111827" transform="translate(397.723795 245.729123) scale(0.074 -0.074)">
      <use xlink:href="#DejaVuSans-72"/>
      <use xlink:href="#DejaVuSans-65" transform="translate(38.863281 0)"/>
      <use xlink:href="#DejaVuSans-73" transform="translate(100.386719 0)"/>
      <use xlink:href="#DejaVuSans-6f" transform="translate(152.486328 0)"/>
      <use xlink:href="#DejaVuSans-6c" transform="translate(213.667969 0)"/>
      <use xlink:href="#DejaVuSans-76" transform="translate(241.451172 0)"/>
      <use xlink:href="#DejaVuSans-65" transform="translate(300.630859 0)"/>
      <use xlink:href="#DejaVuSans-64" transform="translate(362.154297 0)"/>
      <use xlink:href="#DejaVuSans-20" transform="translate(425.630859 0)"/>
      <use xlink:href="#DejaVuSans-76" transform="translate(457.417969 0)"/>
      <use xlink:href="#DejaVuSans-61" transform="translate(516.597656 0)"/>
      <use xlink:href="#DejaVuSans-72" transform="translate(577.876953 0)"/>
      <use xlink:href="#DejaVuSans-69" transform="translate(618.990234 0)"/>
      <use xlink:href="#DejaVuSans-61" transform="translate(646.773438 0)"/>
      <use xlink:href="#DejaVuSans-62" transform="translate(708.052734 0)"/>
      <use xlink:href="#DejaVuSans-6c" transform="translate(771.529297 0)"/>
      <use xlink:href="#DejaVuSans-65" transform="translate(799.3125 0)"/>
      <use xlink:href="#DejaVuSans-73" transform="translate(860.835938 0)"/>
     </g>
    </g>
   </g>
   <g id="text_16">
    <g clip-path="url(#p608f50c3d5)">
     <!-- Validators pytest/ -->
     <g style="fill: #111827" transform="translate(511.021799 233.299551) scale(0.074 -0.074)">
      <defs>
       <path id="DejaVuSans-2f" d="M 1625 4666
L 2156 4666
L 531 -594
L 0 -594
L 1625 4666
z
" transform="scale(0.015625)"/>
      </defs>
      <use xlink:href="#DejaVuSans-56"/>
      <use xlink:href="#DejaVuSans-61" transform="translate(60.658203 0)"/>
      <use xlink:href="#DejaVuSans-6c" transform="translate(121.9375 0)"/>
      <use xlink:href="#DejaVuSans-69" transform="translate(149.720703 0)"/>
      <use xlink:href="#DejaVuSans-64" transform="translate(177.503906 0)"/>
      <use xlink:href="#DejaVuSans-61" transform="translate(240.980469 0)"/>
      <use xlink:href="#DejaVuSans-74" transform="translate(302.259766 0)"/>
      <use xlink:href="#DejaVuSans-6f" transform="translate(341.46875 0)"/>
      <use xlink:href="#DejaVuSans-72" transform="translate(402.650391 0)"/>
      <use xlink:href="#DejaVuSans-73" transform="translate(443.763672 0)"/>
      <use xlink:href="#DejaVuSans-20" transform="translate(495.863281 0)"/>
      <use xlink:href="#DejaVuSans-70" transform="translate(527.650391 0)"/>
      <use xlink:href="#DejaVuSans-79" transform="translate(591.126953 0)"/>
      <use xlink:href="#DejaVuSans-74" transform="translate(650.306641 0)"/>
      <use xlink:href="#DejaVuSans-65" transform="translate(689.515625 0)"/>
      <use xlink:href="#DejaVuSans-73" transform="translate(751.039062 0)"/>
      <use xlink:href="#DejaVuSans-74" transform="translate(803.138672 0)"/>
      <use xlink:href="#DejaVuSans-2f" transform="translate(842.347656 0)"/>
     </g>
    </g>
    <g clip-path="url(#p608f50c3d5)">
     <!-- evidence/render -->
     <g style="fill: #111827" transform="translate(513.206534 241.585932) scale(0.074 -0.074)">
      <use xlink:href="#DejaVuSans-65"/>
      <use xlink:href="#DejaVuSans-76" transform="translate(61.523438 0)"/>
      <use xlink:href="#DejaVuSans-69" transform="translate(120.703125 0)"/>
      <use xlink:href="#DejaVuSans-64" transform="translate(148.486328 0)"/>
      <use xlink:href="#DejaVuSans-65" transform="translate(211.962891 0)"/>
      <use xlink:href="#DejaVuSans-6e" transform="translate(273.486328 0)"/>
      <use xlink:href="#DejaVuSans-63" transform="translate(336.865234 0)"/>
      <use xlink:href="#DejaVuSans-65" transform="translate(391.845703 0)"/>
      <use xlink:href="#DejaVuSans-2f" transform="translate(453.369141 0)"/>
      <use xlink:href="#DejaVuSans-72" transform="translate(487.060547 0)"/>
      <use xlink:href="#DejaVuSans-65" transform="translate(525.923828 0)"/>
      <use xlink:href="#DejaVuSans-6e" transform="translate(587.447266 0)"/>
      <use xlink:href="#DejaVuSans-64" transform="translate(650.826172 0)"/>
      <use xlink:href="#DejaVuSans-65" transform="translate(714.302734 0)"/>
      <use xlink:href="#DejaVuSans-72" transform="translate(775.826172 0)"/>
     </g>
    </g>
   </g>
   <g id="text_17">
    <g clip-path="url(#p608f50c3d5)">
     <!-- Publication metal -->
     <g style="fill: #111827" transform="translate(612.065812 233.299551) scale(0.074 -0.074)">
      <use xlink:href="#DejaVuSans-50"/>
      <use xlink:href="#DejaVuSans-75" transform="translate(58.552734 0)"/>
      <use xlink:href="#DejaVuSans-62" transform="translate(121.931641 0)"/>
      <use xlink:href="#DejaVuSans-6c" transform="translate(185.408203 0)"/>
      <use xlink:href="#DejaVuSans-69" transform="translate(213.191406 0)"/>
      <use xlink:href="#DejaVuSans-63" transform="translate(240.974609 0)"/>
      <use xlink:href="#DejaVuSans-61" transform="translate(295.955078 0)"/>
      <use xlink:href="#DejaVuSans-74" transform="translate(357.234375 0)"/>
      <use xlink:href="#DejaVuSans-69" transform="translate(396.443359 0)"/>
      <use xlink:href="#DejaVuSans-6f" transform="translate(424.226562 0)"/>
      <use xlink:href="#DejaVuSans-6e" transform="translate(485.408203 0)"/>
      <use xlink:href="#DejaVuSans-20" transform="translate(548.787109 0)"/>
      <use xlink:href="#DejaVuSans-6d" transform="translate(580.574219 0)"/>
      <use xlink:href="#DejaVuSans-65" transform="translate(677.986328 0)"/>
      <use xlink:href="#DejaVuSans-74" transform="translate(739.509766 0)"/>
      <use xlink:href="#DejaVuSans-61" transform="translate(778.71875 0)"/>
      <use xlink:href="#DejaVuSans-6c" transform="translate(839.998047 0)"/>
     </g>
    </g>
    <g clip-path="url(#p608f50c3d5)">
     <!-- PDF + HTML -->
     <g style="fill: #111827" transform="translate(621.216375 241.585932) scale(0.074 -0.074)">
      <defs>
       <path id="DejaVuSans-44" d="M 1259 4147
L 1259 519
L 2022 519
Q 2988 519 3436 956
Q 3884 1394 3884 2338
Q 3884 3275 3436 3711
Q 2988 4147 2022 4147
L 1259 4147
z
M 628 4666
L 1925 4666
Q 3281 4666 3915 4102
Q 4550 3538 4550 2338
Q 4550 1131 3912 565
Q 3275 0 1925 0
L 628 0
L 628 4666
z
" transform="scale(0.015625)"/>
       <path id="DejaVuSans-4d" d="M 628 4666
L 1569 4666
L 2759 1491
L 3956 4666
L 4897 4666
L 4897 0
L 4281 0
L 4281 4097
L 3078 897
L 2444 897
L 1241 4097
L 1241 0
L 628 0
L 628 4666
z
" transform="scale(0.015625)"/>
       <path id="DejaVuSans-4c" d="M 628 4666
L 1259 4666
L 1259 531
L 3531 531
L 3531 0
L 628 0
L 628 4666
z
" transform="scale(0.015625)"/>
      </defs>
      <use xlink:href="#DejaVuSans-50"/>
      <use xlink:href="#DejaVuSans-44" transform="translate(60.302734 0)"/>
      <use xlink:href="#DejaVuSans-46" transform="translate(137.304688 0)"/>
      <use xlink:href="#DejaVuSans-20" transform="translate(194.824219 0)"/>
      <use xlink:href="#DejaVuSans-2b" transform="translate(226.611328 0)"/>
      <use xlink:href="#DejaVuSans-20" transform="translate(310.400391 0)"/>
      <use xlink:href="#DejaVuSans-48" transform="translate(342.1875 0)"/>
      <use xlink:href="#DejaVuSans-54" transform="translate(417.382812 0)"/>
      <use xlink:href="#DejaVuSans-4d" transform="translate(478.466797 0)"/>
      <use xlink:href="#DejaVuSans-4c" transform="translate(564.746094 0)"/>
     </g>
    </g>
   </g>
   <g id="text_18">
    <!-- A fork changes the left side first; generated artifacts and validators then prove whether the manuscript still refines. -->
    <g style="fill: #334155" transform="translate(146.078029 224.00241) scale(0.085 -0.085)">
     <defs>
      <path id="DejaVuSans-41" d="M 2188 4044
L 1331 1722
L 3047 1722
L 2188 4044
z
M 1831 4666
L 2547 4666
L 4325 0
L 3669 0
L 3244 1197
L 1141 1197
L 716 0
L 50 0
L 1831 4666
z
" transform="scale(0.015625)"/>
      <path id="DejaVuSans-68" d="M 3513 2113
L 3513 0
L 2938 0
L 2938 2094
Q 2938 2591 2744 2837
Q 2550 3084 2163 3084
Q 1697 3084 1428 2787
Q 1159 2491 1159 1978
L 1159 0
L 581 0
L 581 4863
L 1159 4863
L 1159 2956
Q 1366 3272 1645 3428
Q 1925 3584 2291 3584
Q 2894 3584 3203 3211
Q 3513 2838 3513 2113
z
" transform="scale(0.015625)"/>
      <path id="DejaVuSans-3b" d="M 750 3309
L 1409 3309
L 1409 2516
L 750 2516
L 750 3309
z
M 750 794
L 1409 794
L 1409 256
L 897 -744
L 494 -744
L 750 256
L 750 794
z
" transform="scale(0.015625)"/>
     </defs>
     <use xlink:href="#DejaVuSans-41"/>
     <use xlink:href="#DejaVuSans-20" transform="translate(68.408203 0)"/>
     <use xlink:href="#DejaVuSans-66" transform="translate(100.195312 0)"/>
     <use xlink:href="#DejaVuSans-6f" transform="translate(135.400391 0)"/>
     <use xlink:href="#DejaVuSans-72" transform="translate(196.582031 0)"/>
     <use xlink:href="#DejaVuSans-6b" transform="translate(237.695312 0)"/>
     <use xlink:href="#DejaVuSans-20" transform="translate(295.605469 0)"/>
     <use xlink:href="#DejaVuSans-63" transform="translate(327.392578 0)"/>
     <use xlink:href="#DejaVuSans-68" transform="translate(382.373047 0)"/>
     <use xlink:href="#DejaVuSans-61" transform="translate(445.751953 0)"/>
     <use xlink:href="#DejaVuSans-6e" transform="translate(507.03125 0)"/>
     <use xlink:href="#DejaVuSans-67" transform="translate(570.410156 0)"/>
     <use xlink:href="#DejaVuSans-65" transform="translate(633.886719 0)"/>
     <use xlink:href="#DejaVuSans-73" transform="translate(695.410156 0)"/>
     <use xlink:href="#DejaVuSans-20" transform="translate(747.509766 0)"/>
     <use xlink:href="#DejaVuSans-74" transform="translate(779.296875 0)"/>
     <use xlink:href="#DejaVuSans-68" transform="translate(818.505859 0)"/>
     <use xlink:href="#DejaVuSans-65" transform="translate(881.884766 0)"/>
     <use xlink:href="#DejaVuSans-20" transform="translate(943.408203 0)"/>
     <use xlink:href="#DejaVuSans-6c" transform="translate(975.195312 0)"/>
     <use xlink:href="#DejaVuSans-65" transform="translate(1002.978516 0)"/>
     <use xlink:href="#DejaVuSans-66" transform="translate(1064.501953 0)"/>
     <use xlink:href="#DejaVuSans-74" transform="translate(1097.957031 0)"/>
     <use xlink:href="#DejaVuSans-20" transform="translate(1137.166016 0)"/>
     <use xlink:href="#DejaVuSans-73" transform="translate(1168.953125 0)"/>
     <use xlink:href="#DejaVuSans-69" transform="translate(1221.052734 0)"/>
     <use xlink:href="#DejaVuSans-64" transform="translate(1248.835938 0)"/>
     <use xlink:href="#DejaVuSans-65" transform="translate(1312.3125 0)"/>
     <use xlink:href="#DejaVuSans-20" transform="translate(1373.835938 0)"/>
     <use xlink:href="#DejaVuSans-66" transform="translate(1405.623047 0)"/>
     <use xlink:href="#DejaVuSans-69" transform="translate(1440.828125 0)"/>
     <use xlink:href="#DejaVuSans-72" transform="translate(1468.611328 0)"/>
     <use xlink:href="#DejaVuSans-73" transform="translate(1509.724609 0)"/>
     <use xlink:href="#DejaVuSans-74" transform="translate(1561.824219 0)"/>
     <use xlink:href="#DejaVuSans-3b" transform="translate(1601.033203 0)"/>
     <use xlink:href="#DejaVuSans-20" transform="translate(1634.724609 0)"/>
     <use xlink:href="#DejaVuSans-67" transform="translate(1666.511719 0)"/>
     <use xlink:href="#DejaVuSans-65" transform="translate(1729.988281 0)"/>
     <use xlink:href="#DejaVuSans-6e" transform="translate(1791.511719 0)"/>
     <use xlink:href="#DejaVuSans-65" transform="translate(1854.890625 0)"/>
     <use xlink:href="#DejaVuSans-72" transform="translate(1916.414062 0)"/>
     <use xlink:href="#DejaVuSans-61" transform="translate(1957.527344 0)"/>
     <use xlink:href="#DejaVuSans-74" transform="translate(2018.806641 0)"/>
     <use xlink:href="#DejaVuSans-65" transform="translate(2058.015625 0)"/>
     <use xlink:href="#DejaVuSans-64" transform="translate(2119.539062 0)"/>
     <use xlink:href="#DejaVuSans-20" transform="translate(2183.015625 0)"/>
     <use xlink:href="#DejaVuSans-61" transform="translate(2214.802734 0)"/>
     <use xlink:href="#DejaVuSans-72" transform="translate(2276.082031 0)"/>
     <use xlink:href="#DejaVuSans-74" transform="translate(2317.195312 0)"/>
     <use xlink:href="#DejaVuSans-69" transform="translate(2356.404297 0)"/>
     <use xlink:href="#DejaVuSans-66" transform="translate(2384.1875 0)"/>
     <use xlink:href="#DejaVuSans-61" transform="translate(2419.392578 0)"/>
     <use xlink:href="#DejaVuSans-63" transform="translate(2480.671875 0)"/>
     <use xlink:href="#DejaVuSans-74" transform="translate(2535.652344 0)"/>
     <use xlink:href="#DejaVuSans-73" transform="translate(2574.861328 0)"/>
     <use xlink:href="#DejaVuSans-20" transform="translate(2626.960938 0)"/>
     <use xlink:href="#DejaVuSans-61" transform="translate(2658.748047 0)"/>
     <use xlink:href="#DejaVuSans-6e" transform="translate(2720.027344 0)"/>
     <use xlink:href="#DejaVuSans-64" transform="translate(2783.40625 0)"/>
     <use xlink:href="#DejaVuSans-20" transform="translate(2846.882812 0)"/>
     <use xlink:href="#DejaVuSans-76" transform="translate(2878.669922 0)"/>
     <use xlink:href="#DejaVuSans-61" transform="translate(2937.849609 0)"/>
     <use xlink:href="#DejaVuSans-6c" transform="translate(2999.128906 0)"/>
     <use xlink:href="#DejaVuSans-69" transform="translate(3026.912109 0)"/>
     <use xlink:href="#DejaVuSans-64" transform="translate(3054.695312 0)"/>
     <use xlink:href="#DejaVuSans-61" transform="translate(3118.171875 0)"/>
     <use xlink:href="#DejaVuSans-74" transform="translate(3179.451172 0)"/>
     <use xlink:href="#DejaVuSans-6f" transform="translate(3218.660156 0)"/>
     <use xlink:href="#DejaVuSans-72" transform="translate(3279.841797 0)"/>
     <use xlink:href="#DejaVuSans-73" transform="translate(3320.955078 0)"/>
     <use xlink:href="#DejaVuSans-20" transform="translate(3373.054688 0)"/>
     <use xlink:href="#DejaVuSans-74" transform="translate(3404.841797 0)"/>
     <use xlink:href="#DejaVuSans-68" transform="translate(3444.050781 0)"/>
     <use xlink:href="#DejaVuSans-65" transform="translate(3507.429688 0)"/>
     <use xlink:href="#DejaVuSans-6e" transform="translate(3568.953125 0)"/>
     <use xlink:href="#DejaVuSans-20" transform="translate(3632.332031 0)"/>
     <use xlink:href="#DejaVuSans-70" transform="translate(3664.119141 0)"/>
     <use xlink:href="#DejaVuSans-72" transform="translate(3727.595703 0)"/>
     <use xlink:href="#DejaVuSans-6f" transform="translate(3766.458984 0)"/>
     <use xlink:href="#DejaVuSans-76" transform="translate(3827.640625 0)"/>
     <use xlink:href="#DejaVuSans-65" transform="translate(3886.820312 0)"/>
     <use xlink:href="#DejaVuSans-20" transform="translate(3948.34375 0)"/>
     <use xlink:href="#DejaVuSans-77" transform="translate(3980.130859 0)"/>
     <use xlink:href="#DejaVuSans-68" transform="translate(4061.917969 0)"/>
     <use xlink:href="#DejaVuSans-65" transform="translate(4125.296875 0)"/>
     <use xlink:href="#DejaVuSans-74" transform="translate(4186.820312 0)"/>
     <use xlink:href="#DejaVuSans-68" transform="translate(4226.029297 0)"/>
     <use xlink:href="#DejaVuSans-65" transform="translate(4289.408203 0)"/>
     <use xlink:href="#DejaVuSans-72" transform="translate(4350.931641 0)"/>
     <use xlink:href="#DejaVuSans-20" transform="translate(4392.044922 0)"/>
     <use xlink:href="#DejaVuSans-74" transform="translate(4423.832031 0)"/>
     <use xlink:href="#DejaVuSans-68" transform="translate(4463.041016 0)"/>
     <use xlink:href="#DejaVuSans-65" transform="translate(4526.419922 0)"/>
     <use xlink:href="#DejaVuSans-20" transform="translate(4587.943359 0)"/>
     <use xlink:href="#DejaVuSans-6d" transform="translate(4619.730469 0)"/>
     <use xlink:href="#DejaVuSans-61" transform="translate(4717.142578 0)"/>
     <use xlink:href="#DejaVuSans-6e" transform="translate(4778.421875 0)"/>
     <use xlink:href="#DejaVuSans-75" transform="translate(4841.800781 0)"/>
     <use xlink:href="#DejaVuSans-73" transform="translate(4905.179688 0)"/>
     <use xlink:href="#DejaVuSans-63" transform="translate(4957.279297 0)"/>
     <use xlink:href="#DejaVuSans-72" transform="translate(5012.259766 0)"/>
     <use xlink:href="#DejaVuSans-69" transform="translate(5053.373047 0)"/>
     <use xlink:href="#DejaVuSans-70" transform="translate(5081.15625 0)"/>
     <use xlink:href="#DejaVuSans-74" transform="translate(5144.632812 0)"/>
     <use xlink:href="#DejaVuSans-20" transform="translate(5183.841797 0)"/>
     <use xlink:href="#DejaVuSans-73" transform="translate(5215.628906 0)"/>
     <use xlink:href="#DejaVuSans-74" transform="translate(5267.728516 0)"/>
     <use xlink:href="#DejaVuSans-69" transform="translate(5306.9375 0)"/>
     <use xlink:href="#DejaVuSans-6c" transform="translate(5334.720703 0)"/>
     <use xlink:href="#DejaVuSans-6c" transform="translate(5362.503906 0)"/>
     <use xlink:href="#DejaVuSans-20" transform="translate(5390.287109 0)"/>
     <use xlink:href="#DejaVuSans-72" transform="translate(5422.074219 0)"/>
     <use xlink:href="#DejaVuSans-65" transform="translate(5460.9375 0)"/>
     <use xlink:href="#DejaVuSans-66" transform="translate(5522.460938 0)"/>
     <use xlink:href="#DejaVuSans-69" transform="translate(5557.666016 0)"/>
     <use xlink:href="#DejaVuSans-6e" transform="translate(5585.449219 0)"/>
     <use xlink:href="#DejaVuSans-65" transform="translate(5648.828125 0)"/>
     <use xlink:href="#DejaVuSans-73" transform="translate(5710.351562 0)"/>
     <use xlink:href="#DejaVuSans-2e" transform="translate(5762.451172 0)"/>
    </g>
   </g>
   <g id="text_19">
    <!-- Gold Refinement Implementation Circuit -->
    <g transform="translate(214.755625 17.837812) scale(0.14 -0.14)">
     <defs>
      <path id="DejaVuSans-49" d="M 628 4666
L 1259 4666
L 1259 0
L 628 0
L 628 4666
z
" transform="scale(0.015625)"/>
     </defs>
     <use xlink:href="#DejaVuSans-47"/>
     <use xlink:href="#DejaVuSans-6f" transform="translate(77.490234 0)"/>
     <use xlink:href="#DejaVuSans-6c" transform="translate(138.671875 0)"/>
     <use xlink:href="#DejaVuSans-64" transform="translate(166.455078 0)"/>
     <use xlink:href="#DejaVuSans-20" transform="translate(229.931641 0)"/>
     <use xlink:href="#DejaVuSans-52" transform="translate(261.71875 0)"/>
     <use xlink:href="#DejaVuSans-65" transform="translate(326.701172 0)"/>
     <use xlink:href="#DejaVuSans-66" transform="translate(388.224609 0)"/>
     <use xlink:href="#DejaVuSans-69" transform="translate(423.429688 0)"/>
     <use xlink:href="#DejaVuSans-6e" transform="translate(451.212891 0)"/>
     <use xlink:href="#DejaVuSans-65" transform="translate(514.591797 0)"/>
     <use xlink:href="#DejaVuSans-6d" transform="translate(576.115234 0)"/>
     <use xlink:href="#DejaVuSans-65" transform="translate(673.527344 0)"/>
     <use xlink:href="#DejaVuSans-6e" transform="translate(735.050781 0)"/>
     <use xlink:href="#DejaVuSans-74" transform="translate(798.429688 0)"/>
     <use xlink:href="#DejaVuSans-20" transform="translate(837.638672 0)"/>
     <use xlink:href="#DejaVuSans-49" transform="translate(869.425781 0)"/>
     <use xlink:href="#DejaVuSans-6d" transform="translate(898.917969 0)"/>
     <use xlink:href="#DejaVuSans-70" transform="translate(996.330078 0)"/>
     <use xlink:href="#DejaVuSans-6c" transform="translate(1059.806641 0)"/>
     <use xlink:href="#DejaVuSans-65" transform="translate(1087.589844 0)"/>
     <use xlink:href="#DejaVuSans-6d" transform="translate(1149.113281 0)"/>
     <use xlink:href="#DejaVuSans-65" transform="translate(1246.525391 0)"/>
     <use xlink:href="#DejaVuSans-6e" transform="translate(1308.048828 0)"/>
     <use xlink:href="#DejaVuSans-74" transform="translate(1371.427734 0)"/>
     <use xlink:href="#DejaVuSans-61" transform="translate(1410.636719 0)"/>
     <use xlink:href="#DejaVuSans-74" transform="translate(1471.916016 0)"/>
     <use xlink:href="#DejaVuSans-69" transform="translate(1511.125 0)"/>
     <use xlink:href="#DejaVuSans-6f" transform="translate(1538.908203 0)"/>
     <use xlink:href="#DejaVuSans-6e" transform="translate(1600.089844 0)"/>
     <use xlink:href="#DejaVuSans-20" transform="translate(1663.46875 0)"/>
     <use xlink:href="#DejaVuSans-43" transform="translate(1695.255859 0)"/>
     <use xlink:href="#DejaVuSans-69" transform="translate(1765.080078 0)"/>
     <use xlink:href="#DejaVuSans-72" transform="translate(1792.863281 0)"/>
     <use xlink:href="#DejaVuSans-63" transform="translate(1831.726562 0)"/>
     <use xlink:href="#DejaVuSans-75" transform="translate(1886.707031 0)"/>
     <use xlink:href="#DejaVuSans-69" transform="translate(1950.085938 0)"/>
     <use xlink:href="#DejaVuSans-74" transform="translate(1977.869141 0)"/>
    </g>
   </g>
  </g>
 </g>
 <defs>
  <clipPath id="p608f50c3d5">
   <rect x="7.2" y="35.837812" width="697.5" height="399.168"/>
  </clipPath>
 </defs>
</svg>
