<?xml version="1.0" encoding="utf-8" standalone="no"?>
<!DOCTYPE svg PUBLIC "-//W3C//DTD SVG 1.1//EN"
  "http://www.w3.org/Graphics/SVG/1.1/DTD/svg11.dtd">
<svg xmlns:xlink="http://www.w3.org/1999/xlink" width="599.440625pt" height="457.474062pt" viewBox="0 0 599.440625 457.474062" xmlns="http://www.w3.org/2000/svg" version="1.1">
 <metadata>
  <rdf:RDF xmlns:dc="http://purl.org/dc/elements/1.1/" xmlns:cc="http://creativecommons.org/ns#" xmlns:rdf="http://www.w3.org/1999/02/22-rdf-syntax-ns#">
   <cc:Work>
    <dc:type rdf:resource="http://purl.org/dc/dcmitype/StillImage"/>
    <dc:format>image/svg+xml</dc:format>
    <dc:creator>
     <cc:Agent>
      <dc:title>template_gold_refinement</dc:title>
     </cc:Agent>
    </dc:creator>
   </cc:Work>
  </rdf:RDF>
 </metadata>
 <defs>
  <style type="text/css">*{stroke-linejoin: round; stroke-linecap: butt}</style>
 </defs>
 <g id="figure_1">
  <g id="patch_1">
   <path d="M 0 457.474062
L 599.440625 457.474062
L 599.440625 0
L 0 0
z
" style="fill: #ffffff"/>
  </g>
  <g id="axes_1">
   <g id="patch_2">
    <path d="M 34.240625 419.917812
L 592.240625 419.917812
L 592.240625 31.837812
L 34.240625 31.837812
z
" style="fill: #ffffff"/>
   </g>
   <g id="PathCollection_1">
    <path d="M 536.440625 156.32407
C 538.578761 156.32407 540.629612 155.47458 542.141502 153.96269
C 543.653392 152.450799 544.502883 150.399948 544.502883 148.261812
C 544.502883 146.123677 543.653392 144.072826 542.141502 142.560935
C 540.629612 141.049045 538.578761 140.199555 536.440625 140.199555
C 534.302489 140.199555 532.251638 141.049045 530.739748 142.560935
C 529.227858 144.072826 528.378367 146.123677 528.378367 148.261812
C 528.378367 150.399948 529.227858 152.450799 530.739748 153.96269
C 532.251638 155.47458 534.302489 156.32407 536.440625 156.32407
z
" clip-path="url(#p4d2e87baab)" style="fill: #264653; fill-opacity: 0.86; stroke: #1f2937; stroke-opacity: 0.86; stroke-width: 0.8"/>
    <path d="M 536.440625 233.377812
C 538.429648 233.377812 540.337474 232.587565 541.743926 231.181113
C 543.150378 229.774662 543.940625 227.866836 543.940625 225.877812
C 543.940625 223.888789 543.150378 221.980963 541.743926 220.574512
C 540.337474 219.16806 538.429648 218.377812 536.440625 218.377812
C 534.451602 218.377812 532.543776 219.16806 531.137324 220.574512
C 529.730872 221.980963 528.940625 223.888789 528.940625 225.877812
C 528.940625 227.866836 529.730872 229.774662 531.137324 231.181113
C 532.543776 232.587565 534.451602 233.377812 536.440625 233.377812
z
" clip-path="url(#p4d2e87baab)" style="fill: #577590; fill-opacity: 0.86; stroke: #1f2937; stroke-opacity: 0.86; stroke-width: 0.8"/>
    <path d="M 536.440625 79.233595
C 538.718131 79.233595 540.902664 78.328732 542.513104 76.718291
C 544.123544 75.107851 545.028407 72.923319 545.028407 70.645812
C 545.028407 68.368306 544.123544 66.183774 542.513104 64.573334
C 540.902664 62.962893 538.718131 62.05803 536.440625 62.05803
C 534.163119 62.05803 531.978586 62.962893 530.368146 64.573334
C 528.757706 66.183774 527.852843 68.368306 527.852843 70.645812
C 527.852843 72.923319 528.757706 75.107851 530.368146 76.718291
C 531.978586 78.328732 534.163119 79.233595 536.440625 79.233595
z
" clip-path="url(#p4d2e87baab)" style="fill: #3a0ca3; fill-opacity: 0.86; stroke: #1f2937; stroke-opacity: 0.86; stroke-width: 0.8"/>
    <path d="M 313.240625 83.344238
C 316.608287 83.344238 319.838471 82.006251 322.219767 79.624955
C 324.601064 77.243659 325.93905 74.013474 325.93905 70.645812
C 325.93905 67.278151 324.601064 64.047966 322.219767 61.66667
C 319.838471 59.285374 316.608287 57.947387 313.240625 57.947387
C 309.872963 57.947387 306.642779 59.285374 304.261483 61.66667
C 301.880186 64.047966 300.5422 67.278151 300.5422 70.645812
C 300.5422 74.013474 301.880186 77.243659 304.261483 79.624955
C 306.642779 82.006251 309.872963 83.344238 313.240625 83.344238
z
" clip-path="url(#p4d2e87baab)" style="fill: #f4a261; fill-opacity: 0.86; stroke: #1f2937; stroke-opacity: 0.86; stroke-width: 0.8"/>
    <path d="M 424.840625 81.485554
C 427.715358 81.485554 430.472737 80.343411 432.50548 78.310667
C 434.538223 76.277924 435.680367 73.520546 435.680367 70.645812
C 435.680367 67.771079 434.538223 65.013701 432.50548 62.980958
C 430.472737 60.948214 427.715358 59.806071 424.840625 59.806071
C 421.965892 59.806071 419.208513 60.948214 417.17577 62.980958
C 415.143027 65.013701 414.000883 67.771079 414.000883 70.645812
C 414.000883 73.520546 415.143027 76.277924 417.17577 78.310667
C 419.208513 80.343411 421.965892 81.485554 424.840625 81.485554
z
" clip-path="url(#p4d2e87baab)" style="fill: #2a9d8f; fill-opacity: 0.86; stroke: #1f2937; stroke-opacity: 0.86; stroke-width: 0.8"/>
    <path d="M 424.840625 158.261812
C 427.492656 158.261812 430.036424 157.208149 431.911693 155.33288
C 433.786962 153.457611 434.840625 150.913843 434.840625 148.261812
C 434.840625 145.609781 433.786962 143.066014 431.911693 141.190745
C 430.036424 139.315476 427.492656 138.261812 424.840625 138.261812
C 422.188594 138.261812 419.644826 139.315476 417.769557 141.190745
C 415.894288 143.066014 414.840625 145.609781 414.840625 148.261812
C 414.840625 150.913843 415.894288 153.457611 417.769557 155.33288
C 419.644826 157.208149 422.188594 158.261812 424.840625 158.261812
z
" clip-path="url(#p4d2e87baab)" style="fill: #2a9d8f; fill-opacity: 0.86; stroke: #1f2937; stroke-opacity: 0.86; stroke-width: 0.8"/>
    <path d="M 536.440625 156.32407
C 538.578761 156.32407 540.629612 155.47458 542.141502 153.96269
C 543.653392 152.450799 544.502883 150.399948 544.502883 148.261812
C 544.502883 146.123677 543.653392 144.072826 542.141502 142.560935
C 540.629612 141.049045 538.578761 140.199555 536.440625 140.199555
C 534.302489 140.199555 532.251638 141.049045 530.739748 142.560935
C 529.227858 144.072826 528.378367 146.123677 528.378367 148.261812
C 528.378367 150.399948 529.227858 152.450799 530.739748 153.96269
C 532.251638 155.47458 534.302489 156.32407 536.440625 156.32407
z
" clip-path="url(#p4d2e87baab)" style="fill: #90be6d; fill-opacity: 0.86; stroke: #1f2937; stroke-opacity: 0.86; stroke-width: 0.8"/>
    <path d="M 424.840625 158.261812
C 427.492656 158.261812 430.036424 157.208149 431.911693 155.33288
C 433.786962 153.457611 434.840625 150.913843 434.840625 148.261812
C 434.840625 145.609781 433.786962 143.066014 431.911693 141.190745
C 430.036424 139.315476 427.492656 138.261812 424.840625 138.261812
C 422.188594 138.261812 419.644826 139.315476 417.769557 141.190745
C 415.894288 143.066014 414.840625 145.609781 414.840625 148.261812
C 414.840625 150.913843 415.894288 153.457611 417.769557 155.33288
C 419.644826 157.208149 422.188594 158.261812 424.840625 158.261812
z
" clip-path="url(#p4d2e87baab)" style="fill: #e76f51; fill-opacity: 0.86; stroke: #1f2937; stroke-opacity: 0.86; stroke-width: 0.8"/>
    <path d="M 313.240625 83.344238
C 316.608287 83.344238 319.838471 82.006251 322.219767 79.624955
C 324.601064 77.243659 325.93905 74.013474 325.93905 70.645812
C 325.93905 67.278151 324.601064 64.047966 322.219767 61.66667
C 319.838471 59.285374 316.608287 57.947387 313.240625 57.947387
C 309.872963 57.947387 306.642779 59.285374 304.261483 61.66667
C 301.880186 64.047966 300.5422 67.278151 300.5422 70.645812
C 300.5422 74.013474 301.880186 77.243659 304.261483 79.624955
C 306.642779 82.006251 309.872963 83.344238 313.240625 83.344238
z
" clip-path="url(#p4d2e87baab)" style="fill: #264653; fill-opacity: 0.86; stroke: #1f2937; stroke-opacity: 0.86; stroke-width: 0.8"/>
   </g>
   <g id="patch_3">
    <path d="M 34.240625 109.453812
L 592.240625 109.453812
L 592.240625 31.837812
L 34.240625 31.837812
z
" clip-path="url(#p4d2e87baab)" style="fill: #fee2e2; opacity: 0.25; stroke: #fee2e2; stroke-linejoin: miter"/>
   </g>
   <g id="patch_4">
    <path d="M 34.240625 419.917812
L 257.440625 419.917812
L 257.440625 31.837812
L 34.240625 31.837812
z
" clip-path="url(#p4d2e87baab)" style="fill: #fef3c7; opacity: 0.22; stroke: #fef3c7; stroke-linejoin: miter"/>
   </g>
   <g id="PathCollection_2"/>
   <g id="PathCollection_3"/>
   <g id="PathCollection_4"/>
   <g id="PathCollection_5"/>
   <g id="PathCollection_6"/>
   <g id="PathCollection_7"/>
   <g id="PathCollection_8"/>
   <g id="PathCollection_9"/>
   <g id="PathCollection_10"/>
   <g id="PathCollection_11"/>
   <g id="matplotlib.axis_1">
    <g id="xtick_1">
     <g id="line2d_1">
      <path d="M 90.040625 419.917812
L 90.040625 31.837812
" clip-path="url(#p4d2e87baab)" style="fill: none; stroke: #b0b0b0; stroke-opacity: 0.25; stroke-width: 0.8; stroke-linecap: square"/>
     </g>
     <g id="line2d_2">
      <defs>
       <path id="mc314ece0ef" d="M 0 0
L 0 3.5
" style="stroke: #000000; stroke-width: 0.8"/>
      </defs>
      <g>
       <use xlink:href="#mc314ece0ef" x="90.040625" y="419.917812" style="stroke: #000000; stroke-width: 0.8"/>
      </g>
     </g>
     <g id="text_1">
      <!-- 1 -->
      <g transform="translate(86.859375 434.51625) scale(0.1 -0.1)">
       <defs>
        <path id="DejaVuSans-31" d="M 794 531
L 1825 531
L 1825 4091
L 703 3866
L 703 4441
L 1819 4666
L 2450 4666
L 2450 531
L 3481 531
L 3481 0
L 794 0
L 794 531
z
" transform="scale(0.015625)"/>
       </defs>
       <use xlink:href="#DejaVuSans-31"/>
      </g>
     </g>
    </g>
    <g id="xtick_2">
     <g id="line2d_3">
      <path d="M 201.640625 419.917812
L 201.640625 31.837812
" clip-path="url(#p4d2e87baab)" style="fill: none; stroke: #b0b0b0; stroke-opacity: 0.25; stroke-width: 0.8; stroke-linecap: square"/>
     </g>
     <g id="line2d_4">
      <g>
       <use xlink:href="#mc314ece0ef" x="201.640625" y="419.917812" style="stroke: #000000; stroke-width: 0.8"/>
      </g>
     </g>
     <g id="text_2">
      <!-- 2 -->
      <g transform="translate(198.459375 434.51625) scale(0.1 -0.1)">
       <defs>
        <path id="DejaVuSans-32" d="M 1228 531
L 3431 531
L 3431 0
L 469 0
L 469 531
Q 828 903 1448 1529
Q 2069 2156 2228 2338
Q 2531 2678 2651 2914
Q 2772 3150 2772 3378
Q 2772 3750 2511 3984
Q 2250 4219 1831 4219
Q 1534 4219 1204 4116
Q 875 4013 500 3803
L 500 4441
Q 881 4594 1212 4672
Q 1544 4750 1819 4750
Q 2544 4750 2975 4387
Q 3406 4025 3406 3419
Q 3406 3131 3298 2873
Q 3191 2616 2906 2266
Q 2828 2175 2409 1742
Q 1991 1309 1228 531
z
" transform="scale(0.015625)"/>
       </defs>
       <use xlink:href="#DejaVuSans-32"/>
      </g>
     </g>
    </g>
    <g id="xtick_3">
     <g id="line2d_5">
      <path d="M 313.240625 419.917812
L 313.240625 31.837812
" clip-path="url(#p4d2e87baab)" style="fill: none; stroke: #b0b0b0; stroke-opacity: 0.25; stroke-width: 0.8; stroke-linecap: square"/>
     </g>
     <g id="line2d_6">
      <g>
       <use xlink:href="#mc314ece0ef" x="313.240625" y="419.917812" style="stroke: #000000; stroke-width: 0.8"/>
      </g>
     </g>
     <g id="text_3">
      <!-- 3 -->
      <g transform="translate(310.059375 434.51625) scale(0.1 -0.1)">
       <defs>
        <path id="DejaVuSans-33" d="M 2597 2516
Q 3050 2419 3304 2112
Q 3559 1806 3559 1356
Q 3559 666 3084 287
Q 2609 -91 1734 -91
Q 1441 -91 1130 -33
Q 819 25 488 141
L 488 750
Q 750 597 1062 519
Q 1375 441 1716 441
Q 2309 441 2620 675
Q 2931 909 2931 1356
Q 2931 1769 2642 2001
Q 2353 2234 1838 2234
L 1294 2234
L 1294 2753
L 1863 2753
Q 2328 2753 2575 2939
Q 2822 3125 2822 3475
Q 2822 3834 2567 4026
Q 2313 4219 1838 4219
Q 1578 4219 1281 4162
Q 984 4106 628 3988
L 628 4550
Q 988 4650 1302 4700
Q 1616 4750 1894 4750
Q 2613 4750 3031 4423
Q 3450 4097 3450 3541
Q 3450 3153 3228 2886
Q 3006 2619 2597 2516
z
" transform="scale(0.015625)"/>
       </defs>
       <use xlink:href="#DejaVuSans-33"/>
      </g>
     </g>
    </g>
    <g id="xtick_4">
     <g id="line2d_7">
      <path d="M 424.840625 419.917812
L 424.840625 31.837812
" clip-path="url(#p4d2e87baab)" style="fill: none; stroke: #b0b0b0; stroke-opacity: 0.25; stroke-width: 0.8; stroke-linecap: square"/>
     </g>
     <g id="line2d_8">
      <g>
       <use xlink:href="#mc314ece0ef" x="424.840625" y="419.917812" style="stroke: #000000; stroke-width: 0.8"/>
      </g>
     </g>
     <g id="text_4">
      <!-- 4 -->
      <g transform="translate(421.659375 434.51625) scale(0.1 -0.1)">
       <defs>
        <path id="DejaVuSans-34" d="M 2419 4116
L 825 1625
L 2419 1625
L 2419 4116
z
M 2253 4666
L 3047 4666
L 3047 1625
L 3713 1625
L 3713 1100
L 3047 1100
L 3047 0
L 2419 0
L 2419 1100
L 313 1100
L 313 1709
L 2253 4666
z
" transform="scale(0.015625)"/>
       </defs>
       <use xlink:href="#DejaVuSans-34"/>
      </g>
     </g>
    </g>
    <g id="xtick_5">
     <g id="line2d_9">
      <path d="M 536.440625 419.917812
L 536.440625 31.837812
" clip-path="url(#p4d2e87baab)" style="fill: none; stroke: #b0b0b0; stroke-opacity: 0.25; stroke-width: 0.8; stroke-linecap: square"/>
     </g>
     <g id="line2d_10">
      <g>
       <use xlink:href="#mc314ece0ef" x="536.440625" y="419.917812" style="stroke: #000000; stroke-width: 0.8"/>
      </g>
     </g>
     <g id="text_5">
      <!-- 5 -->
      <g transform="translate(533.259375 434.51625) scale(0.1 -0.1)">
       <defs>
        <path id="DejaVuSans-35" d="M 691 4666
L 3169 4666
L 3169 4134
L 1269 4134
L 1269 2991
Q 1406 3038 1543 3061
Q 1681 3084 1819 3084
Q 2600 3084 3056 2656
Q 3513 2228 3513 1497
Q 3513 744 3044 326
Q 2575 -91 1722 -91
Q 1428 -91 1123 -41
Q 819 9 494 109
L 494 744
Q 775 591 1075 516
Q 1375 441 1709 441
Q 2250 441 2565 725
Q 2881 1009 2881 1497
Q 2881 1984 2565 2268
Q 2250 2553 1709 2553
Q 1456 2553 1204 2497
Q 953 2441 691 2322
L 691 4666
z
" transform="scale(0.015625)"/>
       </defs>
       <use xlink:href="#DejaVuSans-35"/>
      </g>
     </g>
    </g>
    <g id="text_6">
     <!-- Detectability (1 = hard to detect, 5 = easy) -->
     <g transform="translate(204.201563 448.194375) scale(0.1 -0.1)">
      <defs>
       <path id="DejaVuSans-44" d="M 1259 4147
L 1259 519
L 2022 519
Q 2988 519 3436 956
Q 3884 1394 3884 2338
Q 3884 3275 3436 3711
Q 2988 4147 2022 4147
L 1259 4147
z
M 628 4666
L 1925 4666
Q 3281 4666 3915 4102
Q 4550 3538 4550 2338
Q 4550 1131 3912 565
Q 3275 0 1925 0
L 628 0
L 628 4666
z
" transform="scale(0.015625)"/>
       <path id="DejaVuSans-65" d="M 3597 1894
L 3597 1613
L 953 1613
Q 991 1019 1311 708
Q 1631 397 2203 397
Q 2534 397 2845 478
Q 3156 559 3463 722
L 3463 178
Q 3153 47 2828 -22
Q 2503 -91 2169 -91
Q 1331 -91 842 396
Q 353 884 353 1716
Q 353 2575 817 3079
Q 1281 3584 2069 3584
Q 2775 3584 3186 3129
Q 3597 2675 3597 1894
z
M 3022 2063
Q 3016 2534 2758 2815
Q 2500 3097 2075 3097
Q 1594 3097 1305 2825
Q 1016 2553 972 2059
L 3022 2063
z
" transform="scale(0.015625)"/>
       <path id="DejaVuSans-74" d="M 1172 4494
L 1172 3500
L 2356 3500
L 2356 3053
L 1172 3053
L 1172 1153
Q 1172 725 1289 603
Q 1406 481 1766 481
L 2356 481
L 2356 0
L 1766 0
Q 1100 0 847 248
Q 594 497 594 1153
L 594 3053
L 172 3053
L 172 3500
L 594 3500
L 594 4494
L 1172 4494
z
" transform="scale(0.015625)"/>
       <path id="DejaVuSans-63" d="M 3122 3366
L 3122 2828
Q 2878 2963 2633 3030
Q 2388 3097 2138 3097
Q 1578 3097 1268 2742
Q 959 2388 959 1747
Q 959 1106 1268 751
Q 1578 397 2138 397
Q 2388 397 2633 464
Q 2878 531 3122 666
L 3122 134
Q 2881 22 2623 -34
Q 2366 -91 2075 -91
Q 1284 -91 818 406
Q 353 903 353 1747
Q 353 2603 823 3093
Q 1294 3584 2113 3584
Q 2378 3584 2631 3529
Q 2884 3475 3122 3366
z
" transform="scale(0.015625)"/>
       <path id="DejaVuSans-61" d="M 2194 1759
Q 1497 1759 1228 1600
Q 959 1441 959 1056
Q 959 750 1161 570
Q 1363 391 1709 391
Q 2188 391 2477 730
Q 2766 1069 2766 1631
L 2766 1759
L 2194 1759
z
M 3341 1997
L 3341 0
L 2766 0
L 2766 531
Q 2569 213 2275 61
Q 1981 -91 1556 -91
Q 1019 -91 701 211
Q 384 513 384 1019
Q 384 1609 779 1909
Q 1175 2209 1959 2209
L 2766 2209
L 2766 2266
Q 2766 2663 2505 2880
Q 2244 3097 1772 3097
Q 1472 3097 1187 3025
Q 903 2953 641 2809
L 641 3341
Q 956 3463 1253 3523
Q 1550 3584 1831 3584
Q 2591 3584 2966 3190
Q 3341 2797 3341 1997
z
" transform="scale(0.015625)"/>
       <path id="DejaVuSans-62" d="M 3116 1747
Q 3116 2381 2855 2742
Q 2594 3103 2138 3103
Q 1681 3103 1420 2742
Q 1159 2381 1159 1747
Q 1159 1113 1420 752
Q 1681 391 2138 391
Q 2594 391 2855 752
Q 3116 1113 3116 1747
z
M 1159 2969
Q 1341 3281 1617 3432
Q 1894 3584 2278 3584
Q 2916 3584 3314 3078
Q 3713 2572 3713 1747
Q 3713 922 3314 415
Q 2916 -91 2278 -91
Q 1894 -91 1617 61
Q 1341 213 1159 525
L 1159 0
L 581 0
L 581 4863
L 1159 4863
L 1159 2969
z
" transform="scale(0.015625)"/>
       <path id="DejaVuSans-69" d="M 603 3500
L 1178 3500
L 1178 0
L 603 0
L 603 3500
z
M 603 4863
L 1178 4863
L 1178 4134
L 603 4134
L 603 4863
z
" transform="scale(0.015625)"/>
       <path id="DejaVuSans-6c" d="M 603 4863
L 1178 4863
L 1178 0
L 603 0
L 603 4863
z
" transform="scale(0.015625)"/>
       <path id="DejaVuSans-79" d="M 2059 -325
Q 1816 -950 1584 -1140
Q 1353 -1331 966 -1331
L 506 -1331
L 506 -850
L 844 -850
Q 1081 -850 1212 -737
Q 1344 -625 1503 -206
L 1606 56
L 191 3500
L 800 3500
L 1894 763
L 2988 3500
L 3597 3500
L 2059 -325
z
" transform="scale(0.015625)"/>
       <path id="DejaVuSans-20" transform="scale(0.015625)"/>
       <path id="DejaVuSans-28" d="M 1984 4856
Q 1566 4138 1362 3434
Q 1159 2731 1159 2009
Q 1159 1288 1364 580
Q 1569 -128 1984 -844
L 1484 -844
Q 1016 -109 783 600
Q 550 1309 550 2009
Q 550 2706 781 3412
Q 1013 4119 1484 4856
L 1984 4856
z
" transform="scale(0.015625)"/>
       <path id="DejaVuSans-3d" d="M 678 2906
L 4684 2906
L 4684 2381
L 678 2381
L 678 2906
z
M 678 1631
L 4684 1631
L 4684 1100
L 678 1100
L 678 1631
z
" transform="scale(0.015625)"/>
       <path id="DejaVuSans-68" d="M 3513 2113
L 3513 0
L 2938 0
L 2938 2094
Q 2938 2591 2744 2837
Q 2550 3084 2163 3084
Q 1697 3084 1428 2787
Q 1159 2491 1159 1978
L 1159 0
L 581 0
L 581 4863
L 1159 4863
L 1159 2956
Q 1366 3272 1645 3428
Q 1925 3584 2291 3584
Q 2894 3584 3203 3211
Q 3513 2838 3513 2113
z
" transform="scale(0.015625)"/>
       <path id="DejaVuSans-72" d="M 2631 2963
Q 2534 3019 2420 3045
Q 2306 3072 2169 3072
Q 1681 3072 1420 2755
Q 1159 2438 1159 1844
L 1159 0
L 581 0
L 581 3500
L 1159 3500
L 1159 2956
Q 1341 3275 1631 3429
Q 1922 3584 2338 3584
Q 2397 3584 2469 3576
Q 2541 3569 2628 3553
L 2631 2963
z
" transform="scale(0.015625)"/>
       <path id="DejaVuSans-64" d="M 2906 2969
L 2906 4863
L 3481 4863
L 3481 0
L 2906 0
L 2906 525
Q 2725 213 2448 61
Q 2172 -91 1784 -91
Q 1150 -91 751 415
Q 353 922 353 1747
Q 353 2572 751 3078
Q 1150 3584 1784 3584
Q 2172 3584 2448 3432
Q 2725 3281 2906 2969
z
M 947 1747
Q 947 1113 1208 752
Q 1469 391 1925 391
Q 2381 391 2643 752
Q 2906 1113 2906 1747
Q 2906 2381 2643 2742
Q 2381 3103 1925 3103
Q 1469 3103 1208 2742
Q 947 2381 947 1747
z
" transform="scale(0.015625)"/>
       <path id="DejaVuSans-6f" d="M 1959 3097
Q 1497 3097 1228 2736
Q 959 2375 959 1747
Q 959 1119 1226 758
Q 1494 397 1959 397
Q 2419 397 2687 759
Q 2956 1122 2956 1747
Q 2956 2369 2687 2733
Q 2419 3097 1959 3097
z
M 1959 3584
Q 2709 3584 3137 3096
Q 3566 2609 3566 1747
Q 3566 888 3137 398
Q 2709 -91 1959 -91
Q 1206 -91 779 398
Q 353 888 353 1747
Q 353 2609 779 3096
Q 1206 3584 1959 3584
z
" transform="scale(0.015625)"/>
       <path id="DejaVuSans-2c" d="M 750 794
L 1409 794
L 1409 256
L 897 -744
L 494 -744
L 750 256
L 750 794
z
" transform="scale(0.015625)"/>
       <path id="DejaVuSans-73" d="M 2834 3397
L 2834 2853
Q 2591 2978 2328 3040
Q 2066 3103 1784 3103
Q 1356 3103 1142 2972
Q 928 2841 928 2578
Q 928 2378 1081 2264
Q 1234 2150 1697 2047
L 1894 2003
Q 2506 1872 2764 1633
Q 3022 1394 3022 966
Q 3022 478 2636 193
Q 2250 -91 1575 -91
Q 1294 -91 989 -36
Q 684 19 347 128
L 347 722
Q 666 556 975 473
Q 1284 391 1588 391
Q 1994 391 2212 530
Q 2431 669 2431 922
Q 2431 1156 2273 1281
Q 2116 1406 1581 1522
L 1381 1569
Q 847 1681 609 1914
Q 372 2147 372 2553
Q 372 3047 722 3315
Q 1072 3584 1716 3584
Q 2034 3584 2315 3537
Q 2597 3491 2834 3397
z
" transform="scale(0.015625)"/>
       <path id="DejaVuSans-29" d="M 513 4856
L 1013 4856
Q 1481 4119 1714 3412
Q 1947 2706 1947 2009
Q 1947 1309 1714 600
Q 1481 -109 1013 -844
L 513 -844
Q 928 -128 1133 580
Q 1338 1288 1338 2009
Q 1338 2731 1133 3434
Q 928 4138 513 4856
z
" transform="scale(0.015625)"/>
      </defs>
      <use xlink:href="#DejaVuSans-44"/>
      <use xlink:href="#DejaVuSans-65" transform="translate(77.001953 0)"/>
      <use xlink:href="#DejaVuSans-74" transform="translate(138.525391 0)"/>
      <use xlink:href="#DejaVuSans-65" transform="translate(177.734375 0)"/>
      <use xlink:href="#DejaVuSans-63" transform="translate(239.257812 0)"/>
      <use xlink:href="#DejaVuSans-74" transform="translate(294.238281 0)"/>
      <use xlink:href="#DejaVuSans-61" transform="translate(333.447266 0)"/>
      <use xlink:href="#DejaVuSans-62" transform="translate(394.726562 0)"/>
      <use xlink:href="#DejaVuSans-69" transform="translate(458.203125 0)"/>
      <use xlink:href="#DejaVuSans-6c" transform="translate(485.986328 0)"/>
      <use xlink:href="#DejaVuSans-69" transform="translate(513.769531 0)"/>
      <use xlink:href="#DejaVuSans-74" transform="translate(541.552734 0)"/>
      <use xlink:href="#DejaVuSans-79" transform="translate(580.761719 0)"/>
      <use xlink:href="#DejaVuSans-20" transform="translate(639.941406 0)"/>
      <use xlink:href="#DejaVuSans-28" transform="translate(671.728516 0)"/>
      <use xlink:href="#DejaVuSans-31" transform="translate(710.742188 0)"/>
      <use xlink:href="#DejaVuSans-20" transform="translate(774.365234 0)"/>
      <use xlink:href="#DejaVuSans-3d" transform="translate(806.152344 0)"/>
      <use xlink:href="#DejaVuSans-20" transform="translate(889.941406 0)"/>
      <use xlink:href="#DejaVuSans-68" transform="translate(921.728516 0)"/>
      <use xlink:href="#DejaVuSans-61" transform="translate(985.107422 0)"/>
      <use xlink:href="#DejaVuSans-72" transform="translate(1046.386719 0)"/>
      <use xlink:href="#DejaVuSans-64" transform="translate(1085.75 0)"/>
      <use xlink:href="#DejaVuSans-20" transform="translate(1149.226562 0)"/>
      <use xlink:href="#DejaVuSans-74" transform="translate(1181.013672 0)"/>
      <use xlink:href="#DejaVuSans-6f" transform="translate(1220.222656 0)"/>
      <use xlink:href="#DejaVuSans-20" transform="translate(1281.404297 0)"/>
      <use xlink:href="#DejaVuSans-64" transform="translate(1313.191406 0)"/>
      <use xlink:href="#DejaVuSans-65" transform="translate(1376.667969 0)"/>
      <use xlink:href="#DejaVuSans-74" transform="translate(1438.191406 0)"/>
      <use xlink:href="#DejaVuSans-65" transform="translate(1477.400391 0)"/>
      <use xlink:href="#DejaVuSans-63" transform="translate(1538.923828 0)"/>
      <use xlink:href="#DejaVuSans-74" transform="translate(1593.904297 0)"/>
      <use xlink:href="#DejaVuSans-2c" transform="translate(1633.113281 0)"/>
      <use xlink:href="#DejaVuSans-20" transform="translate(1664.900391 0)"/>
      <use xlink:href="#DejaVuSans-35" transform="translate(1696.6875 0)"/>
      <use xlink:href="#DejaVuSans-20" transform="translate(1760.310547 0)"/>
      <use xlink:href="#DejaVuSans-3d" transform="translate(1792.097656 0)"/>
      <use xlink:href="#DejaVuSans-20" transform="translate(1875.886719 0)"/>
      <use xlink:href="#DejaVuSans-65" transform="translate(1907.673828 0)"/>
      <use xlink:href="#DejaVuSans-61" transform="translate(1969.197266 0)"/>
      <use xlink:href="#DejaVuSans-73" transform="translate(2030.476562 0)"/>
      <use xlink:href="#DejaVuSans-79" transform="translate(2082.576172 0)"/>
      <use xlink:href="#DejaVuSans-29" transform="translate(2141.755859 0)"/>
     </g>
    </g>
   </g>
   <g id="matplotlib.axis_2">
    <g id="ytick_1">
     <g id="line2d_11">
      <path d="M 34.240625 381.109812
L 592.240625 381.109812
" clip-path="url(#p4d2e87baab)" style="fill: none; stroke: #b0b0b0; stroke-opacity: 0.25; stroke-width: 0.8; stroke-linecap: square"/>
     </g>
     <g id="line2d_12">
      <defs>
       <path id="m60b724e8b3" d="M 0 0
L -3.5 0
" style="stroke: #000000; stroke-width: 0.8"/>
      </defs>
      <g>
       <use xlink:href="#m60b724e8b3" x="34.240625" y="381.109812" style="stroke: #000000; stroke-width: 0.8"/>
      </g>
     </g>
     <g id="text_7">
      <!-- 1 -->
      <g transform="translate(20.878125 384.909031) scale(0.1 -0.1)">
       <use xlink:href="#DejaVuSans-31"/>
      </g>
     </g>
    </g>
    <g id="ytick_2">
     <g id="line2d_13">
      <path d="M 34.240625 303.493812
L 592.240625 303.493812
" clip-path="url(#p4d2e87baab)" style="fill: none; stroke: #b0b0b0; stroke-opacity: 0.25; stroke-width: 0.8; stroke-linecap: square"/>
     </g>
     <g id="line2d_14">
      <g>
       <use xlink:href="#m60b724e8b3" x="34.240625" y="303.493812" style="stroke: #000000; stroke-width: 0.8"/>
      </g>
     </g>
     <g id="text_8">
      <!-- 2 -->
      <g transform="translate(20.878125 307.293031) scale(0.1 -0.1)">
       <use xlink:href="#DejaVuSans-32"/>
      </g>
     </g>
    </g>
    <g id="ytick_3">
     <g id="line2d_15">
      <path d="M 34.240625 225.877812
L 592.240625 225.877812
" clip-path="url(#p4d2e87baab)" style="fill: none; stroke: #b0b0b0; stroke-opacity: 0.25; stroke-width: 0.8; stroke-linecap: square"/>
     </g>
     <g id="line2d_16">
      <g>
       <use xlink:href="#m60b724e8b3" x="34.240625" y="225.877812" style="stroke: #000000; stroke-width: 0.8"/>
      </g>
     </g>
     <g id="text_9">
      <!-- 3 -->
      <g transform="translate(20.878125 229.677031) scale(0.1 -0.1)">
       <use xlink:href="#DejaVuSans-33"/>
      </g>
     </g>
    </g>
    <g id="ytick_4">
     <g id="line2d_17">
      <path d="M 34.240625 148.261812
L 592.240625 148.261812
" clip-path="url(#p4d2e87baab)" style="fill: none; stroke: #b0b0b0; stroke-opacity: 0.25; stroke-width: 0.8; stroke-linecap: square"/>
     </g>
     <g id="line2d_18">
      <g>
       <use xlink:href="#m60b724e8b3" x="34.240625" y="148.261812" style="stroke: #000000; stroke-width: 0.8"/>
      </g>
     </g>
     <g id="text_10">
      <!-- 4 -->
      <g transform="translate(20.878125 152.061031) scale(0.1 -0.1)">
       <use xlink:href="#DejaVuSans-34"/>
      </g>
     </g>
    </g>
    <g id="ytick_5">
     <g id="line2d_19">
      <path d="M 34.240625 70.645812
L 592.240625 70.645812
" clip-path="url(#p4d2e87baab)" style="fill: none; stroke: #b0b0b0; stroke-opacity: 0.25; stroke-width: 0.8; stroke-linecap: square"/>
     </g>
     <g id="line2d_20">
      <g>
       <use xlink:href="#m60b724e8b3" x="34.240625" y="70.645812" style="stroke: #000000; stroke-width: 0.8"/>
      </g>
     </g>
     <g id="text_11">
      <!-- 5 -->
      <g transform="translate(20.878125 74.445031) scale(0.1 -0.1)">
       <use xlink:href="#DejaVuSans-35"/>
      </g>
     </g>
    </g>
    <g id="text_12">
     <!-- Severity (1 = low, 5 = high) -->
     <g transform="translate(14.798438 295.734062) rotate(-90) scale(0.1 -0.1)">
      <defs>
       <path id="DejaVuSans-53" d="M 3425 4513
L 3425 3897
Q 3066 4069 2747 4153
Q 2428 4238 2131 4238
Q 1616 4238 1336 4038
Q 1056 3838 1056 3469
Q 1056 3159 1242 3001
Q 1428 2844 1947 2747
L 2328 2669
Q 3034 2534 3370 2195
Q 3706 1856 3706 1288
Q 3706 609 3251 259
Q 2797 -91 1919 -91
Q 1588 -91 1214 -16
Q 841 59 441 206
L 441 856
Q 825 641 1194 531
Q 1563 422 1919 422
Q 2459 422 2753 634
Q 3047 847 3047 1241
Q 3047 1584 2836 1778
Q 2625 1972 2144 2069
L 1759 2144
Q 1053 2284 737 2584
Q 422 2884 422 3419
Q 422 4038 858 4394
Q 1294 4750 2059 4750
Q 2388 4750 2728 4690
Q 3069 4631 3425 4513
z
" transform="scale(0.015625)"/>
       <path id="DejaVuSans-76" d="M 191 3500
L 800 3500
L 1894 563
L 2988 3500
L 3597 3500
L 2284 0
L 1503 0
L 191 3500
z
" transform="scale(0.015625)"/>
       <path id="DejaVuSans-77" d="M 269 3500
L 844 3500
L 1563 769
L 2278 3500
L 2956 3500
L 3675 769
L 4391 3500
L 4966 3500
L 4050 0
L 3372 0
L 2619 2869
L 1863 0
L 1184 0
L 269 3500
z
" transform="scale(0.015625)"/>
       <path id="DejaVuSans-67" d="M 2906 1791
Q 2906 2416 2648 2759
Q 2391 3103 1925 3103
Q 1463 3103 1205 2759
Q 947 2416 947 1791
Q 947 1169 1205 825
Q 1463 481 1925 481
Q 2391 481 2648 825
Q 2906 1169 2906 1791
z
M 3481 434
Q 3481 -459 3084 -895
Q 2688 -1331 1869 -1331
Q 1566 -1331 1297 -1286
Q 1028 -1241 775 -1147
L 775 -588
Q 1028 -725 1275 -790
Q 1522 -856 1778 -856
Q 2344 -856 2625 -561
Q 2906 -266 2906 331
L 2906 616
Q 2728 306 2450 153
Q 2172 0 1784 0
Q 1141 0 747 490
Q 353 981 353 1791
Q 353 2603 747 3093
Q 1141 3584 1784 3584
Q 2172 3584 2450 3431
Q 2728 3278 2906 2969
L 2906 3500
L 3481 3500
L 3481 434
z
" transform="scale(0.015625)"/>
      </defs>
      <use xlink:href="#DejaVuSans-53"/>
      <use xlink:href="#DejaVuSans-65" transform="translate(63.476562 0)"/>
      <use xlink:href="#DejaVuSans-76" transform="translate(125 0)"/>
      <use xlink:href="#DejaVuSans-65" transform="translate(184.179688 0)"/>
      <use xlink:href="#DejaVuSans-72" transform="translate(245.703125 0)"/>
      <use xlink:href="#DejaVuSans-69" transform="translate(286.816406 0)"/>
      <use xlink:href="#DejaVuSans-74" transform="translate(314.599609 0)"/>
      <use xlink:href="#DejaVuSans-79" transform="translate(353.808594 0)"/>
      <use xlink:href="#DejaVuSans-20" transform="translate(412.988281 0)"/>
      <use xlink:href="#DejaVuSans-28" transform="translate(444.775391 0)"/>
      <use xlink:href="#DejaVuSans-31" transform="translate(483.789062 0)"/>
      <use xlink:href="#DejaVuSans-20" transform="translate(547.412109 0)"/>
      <use xlink:href="#DejaVuSans-3d" transform="translate(579.199219 0)"/>
      <use xlink:href="#DejaVuSans-20" transform="translate(662.988281 0)"/>
      <use xlink:href="#DejaVuSans-6c" transform="translate(694.775391 0)"/>
      <use xlink:href="#DejaVuSans-6f" transform="translate(722.558594 0)"/>
      <use xlink:href="#DejaVuSans-77" transform="translate(783.740234 0)"/>
      <use xlink:href="#DejaVuSans-2c" transform="translate(865.527344 0)"/>
      <use xlink:href="#DejaVuSans-20" transform="translate(897.314453 0)"/>
      <use xlink:href="#DejaVuSans-35" transform="translate(929.101562 0)"/>
      <use xlink:href="#DejaVuSans-20" transform="translate(992.724609 0)"/>
      <use xlink:href="#DejaVuSans-3d" transform="translate(1024.511719 0)"/>
      <use xlink:href="#DejaVuSans-20" transform="translate(1108.300781 0)"/>
      <use xlink:href="#DejaVuSans-68" transform="translate(1140.087891 0)"/>
      <use xlink:href="#DejaVuSans-69" transform="translate(1203.466797 0)"/>
      <use xlink:href="#DejaVuSans-67" transform="translate(1231.25 0)"/>
      <use xlink:href="#DejaVuSans-68" transform="translate(1294.726562 0)"/>
      <use xlink:href="#DejaVuSans-29" transform="translate(1358.105469 0)"/>
     </g>
    </g>
   </g>
   <g id="patch_5">
    <path d="M 34.240625 419.917812
L 34.240625 31.837812
" style="fill: none; stroke: #000000; stroke-width: 0.8; stroke-linejoin: miter; stroke-linecap: square"/>
   </g>
   <g id="patch_6">
    <path d="M 592.240625 419.917812
L 592.240625 31.837812
" style="fill: none; stroke: #000000; stroke-width: 0.8; stroke-linejoin: miter; stroke-linecap: square"/>
   </g>
   <g id="patch_7">
    <path d="M 34.240625 419.917812
L 592.240625 419.917812
" style="fill: none; stroke: #000000; stroke-width: 0.8; stroke-linejoin: miter; stroke-linecap: square"/>
   </g>
   <g id="patch_8">
    <path d="M 34.240625 31.837812
L 592.240625 31.837812
" style="fill: none; stroke: #000000; stroke-width: 0.8; stroke-linejoin: miter; stroke-linecap: square"/>
   </g>
   <g id="text_13">
    <!-- I1 -->
    <g transform="translate(541.440625 143.261812) scale(0.08 -0.08)">
     <defs>
      <path id="DejaVuSans-Bold-49" d="M 588 4666
L 1791 4666
L 1791 0
L 588 0
L 588 4666
z
" transform="scale(0.015625)"/>
      <path id="DejaVuSans-Bold-31" d="M 750 831
L 1813 831
L 1813 3847
L 722 3622
L 722 4441
L 1806 4666
L 2950 4666
L 2950 831
L 4013 831
L 4013 0
L 750 0
L 750 831
z
" transform="scale(0.015625)"/>
     </defs>
     <use xlink:href="#DejaVuSans-Bold-49"/>
     <use xlink:href="#DejaVuSans-Bold-31" transform="translate(37.207031 0)"/>
    </g>
   </g>
   <g id="text_14">
    <!-- I2 -->
    <g transform="translate(541.440625 220.877812) scale(0.08 -0.08)">
     <defs>
      <path id="DejaVuSans-Bold-32" d="M 1844 884
L 3897 884
L 3897 0
L 506 0
L 506 884
L 2209 2388
Q 2438 2594 2547 2791
Q 2656 2988 2656 3200
Q 2656 3528 2436 3728
Q 2216 3928 1850 3928
Q 1569 3928 1234 3808
Q 900 3688 519 3450
L 519 4475
Q 925 4609 1322 4679
Q 1719 4750 2100 4750
Q 2938 4750 3402 4381
Q 3866 4013 3866 3353
Q 3866 2972 3669 2642
Q 3472 2313 2841 1759
L 1844 884
z
" transform="scale(0.015625)"/>
     </defs>
     <use xlink:href="#DejaVuSans-Bold-49"/>
     <use xlink:href="#DejaVuSans-Bold-32" transform="translate(37.207031 0)"/>
    </g>
   </g>
   <g id="text_15">
    <!-- I3 -->
    <g transform="translate(541.440625 65.645812) scale(0.08 -0.08)">
     <defs>
      <path id="DejaVuSans-Bold-33" d="M 2981 2516
Q 3453 2394 3698 2092
Q 3944 1791 3944 1325
Q 3944 631 3412 270
Q 2881 -91 1863 -91
Q 1503 -91 1142 -33
Q 781 25 428 141
L 428 1069
Q 766 900 1098 814
Q 1431 728 1753 728
Q 2231 728 2486 893
Q 2741 1059 2741 1369
Q 2741 1688 2480 1852
Q 2219 2016 1709 2016
L 1228 2016
L 1228 2791
L 1734 2791
Q 2188 2791 2409 2933
Q 2631 3075 2631 3366
Q 2631 3634 2415 3781
Q 2200 3928 1806 3928
Q 1516 3928 1219 3862
Q 922 3797 628 3669
L 628 4550
Q 984 4650 1334 4700
Q 1684 4750 2022 4750
Q 2931 4750 3382 4451
Q 3834 4153 3834 3553
Q 3834 3144 3618 2883
Q 3403 2622 2981 2516
z
" transform="scale(0.015625)"/>
     </defs>
     <use xlink:href="#DejaVuSans-Bold-49"/>
     <use xlink:href="#DejaVuSans-Bold-33" transform="translate(37.207031 0)"/>
    </g>
   </g>
   <g id="text_16">
    <!-- I4 -->
    <g transform="translate(318.240625 65.645812) scale(0.08 -0.08)">
     <defs>
      <path id="DejaVuSans-Bold-34" d="M 2356 3675
L 1038 1722
L 2356 1722
L 2356 3675
z
M 2156 4666
L 3494 4666
L 3494 1722
L 4159 1722
L 4159 850
L 3494 850
L 3494 0
L 2356 0
L 2356 850
L 288 850
L 288 1881
L 2156 4666
z
" transform="scale(0.015625)"/>
     </defs>
     <use xlink:href="#DejaVuSans-Bold-49"/>
     <use xlink:href="#DejaVuSans-Bold-34" transform="translate(37.207031 0)"/>
    </g>
   </g>
   <g id="text_17">
    <!-- I5 -->
    <g transform="translate(429.840625 65.645812) scale(0.08 -0.08)">
     <defs>
      <path id="DejaVuSans-Bold-35" d="M 678 4666
L 3669 4666
L 3669 3781
L 1638 3781
L 1638 3059
Q 1775 3097 1914 3117
Q 2053 3138 2203 3138
Q 3056 3138 3531 2711
Q 4006 2284 4006 1522
Q 4006 766 3489 337
Q 2972 -91 2053 -91
Q 1656 -91 1267 -14
Q 878 63 494 219
L 494 1166
Q 875 947 1217 837
Q 1559 728 1863 728
Q 2300 728 2551 942
Q 2803 1156 2803 1522
Q 2803 1891 2551 2103
Q 2300 2316 1863 2316
Q 1603 2316 1309 2248
Q 1016 2181 678 2041
L 678 4666
z
" transform="scale(0.015625)"/>
     </defs>
     <use xlink:href="#DejaVuSans-Bold-49"/>
     <use xlink:href="#DejaVuSans-Bold-35" transform="translate(37.207031 0)"/>
    </g>
   </g>
   <g id="text_18">
    <!-- I6 -->
    <g transform="translate(429.840625 143.261812) scale(0.08 -0.08)">
     <defs>
      <path id="DejaVuSans-Bold-36" d="M 2316 2303
Q 2000 2303 1842 2098
Q 1684 1894 1684 1484
Q 1684 1075 1842 870
Q 2000 666 2316 666
Q 2634 666 2792 870
Q 2950 1075 2950 1484
Q 2950 1894 2792 2098
Q 2634 2303 2316 2303
z
M 3803 4544
L 3803 3681
Q 3506 3822 3243 3889
Q 2981 3956 2731 3956
Q 2194 3956 1894 3657
Q 1594 3359 1544 2772
Q 1750 2925 1990 3001
Q 2231 3078 2516 3078
Q 3231 3078 3670 2659
Q 4109 2241 4109 1563
Q 4109 813 3618 361
Q 3128 -91 2303 -91
Q 1394 -91 895 523
Q 397 1138 397 2266
Q 397 3422 980 4083
Q 1563 4744 2578 4744
Q 2900 4744 3203 4694
Q 3506 4644 3803 4544
z
" transform="scale(0.015625)"/>
     </defs>
     <use xlink:href="#DejaVuSans-Bold-49"/>
     <use xlink:href="#DejaVuSans-Bold-36" transform="translate(37.207031 0)"/>
    </g>
   </g>
   <g id="text_19">
    <!-- I7 -->
    <g transform="translate(541.440625 143.261812) scale(0.08 -0.08)">
     <defs>
      <path id="DejaVuSans-Bold-37" d="M 428 4666
L 3944 4666
L 3944 3988
L 2125 0
L 953 0
L 2675 3781
L 428 3781
L 428 4666
z
" transform="scale(0.015625)"/>
     </defs>
     <use xlink:href="#DejaVuSans-Bold-49"/>
     <use xlink:href="#DejaVuSans-Bold-37" transform="translate(37.207031 0)"/>
    </g>
   </g>
   <g id="text_20">
    <!-- I8 -->
    <g transform="translate(429.840625 143.261812) scale(0.08 -0.08)">
     <defs>
      <path id="DejaVuSans-Bold-38" d="M 2228 2088
Q 1891 2088 1709 1903
Q 1528 1719 1528 1375
Q 1528 1031 1709 848
Q 1891 666 2228 666
Q 2563 666 2741 848
Q 2919 1031 2919 1375
Q 2919 1722 2741 1905
Q 2563 2088 2228 2088
z
M 1350 2484
Q 925 2613 709 2878
Q 494 3144 494 3541
Q 494 4131 934 4440
Q 1375 4750 2228 4750
Q 3075 4750 3515 4442
Q 3956 4134 3956 3541
Q 3956 3144 3739 2878
Q 3522 2613 3097 2484
Q 3572 2353 3814 2058
Q 4056 1763 4056 1313
Q 4056 619 3595 264
Q 3134 -91 2228 -91
Q 1319 -91 855 264
Q 391 619 391 1313
Q 391 1763 633 2058
Q 875 2353 1350 2484
z
M 1631 3419
Q 1631 3141 1786 2991
Q 1941 2841 2228 2841
Q 2509 2841 2662 2991
Q 2816 3141 2816 3419
Q 2816 3697 2662 3845
Q 2509 3994 2228 3994
Q 1941 3994 1786 3844
Q 1631 3694 1631 3419
z
" transform="scale(0.015625)"/>
     </defs>
     <use xlink:href="#DejaVuSans-Bold-49"/>
     <use xlink:href="#DejaVuSans-Bold-38" transform="translate(37.207031 0)"/>
    </g>
   </g>
   <g id="text_21">
    <!-- I9 -->
    <g transform="translate(318.240625 65.645812) scale(0.08 -0.08)">
     <defs>
      <path id="DejaVuSans-Bold-39" d="M 641 103
L 641 966
Q 928 831 1190 764
Q 1453 697 1709 697
Q 2247 697 2547 995
Q 2847 1294 2900 1881
Q 2688 1725 2447 1647
Q 2206 1569 1925 1569
Q 1209 1569 770 1986
Q 331 2403 331 3084
Q 331 3838 820 4291
Q 1309 4744 2131 4744
Q 3044 4744 3544 4128
Q 4044 3513 4044 2388
Q 4044 1231 3459 570
Q 2875 -91 1856 -91
Q 1528 -91 1228 -42
Q 928 6 641 103
z
M 2125 2350
Q 2441 2350 2600 2554
Q 2759 2759 2759 3169
Q 2759 3575 2600 3781
Q 2441 3988 2125 3988
Q 1809 3988 1650 3781
Q 1491 3575 1491 3169
Q 1491 2759 1650 2554
Q 1809 2350 2125 2350
z
" transform="scale(0.015625)"/>
     </defs>
     <use xlink:href="#DejaVuSans-Bold-49"/>
     <use xlink:href="#DejaVuSans-Bold-39" transform="translate(37.207031 0)"/>
    </g>
   </g>
   <g id="text_22">
    <g id="patch_9">
     <path d="M 40.430625 417.126212
L 186.213281 417.126212
L 186.213281 327.788494
L 40.430625 327.788494
z
" style="fill: #ffffff; opacity: 0.92; stroke: #d1d5db; stroke-linejoin: miter"/>
    </g>
    <!-- I1: Monotone refinery | source_code -->
    <g style="fill: #111827" transform="translate(45.400625 338.108025) scale(0.07 -0.07)">
     <defs>
      <path id="DejaVuSans-49" d="M 628 4666
L 1259 4666
L 1259 0
L 628 0
L 628 4666
z
" transform="scale(0.015625)"/>
      <path id="DejaVuSans-3a" d="M 750 794
L 1409 794
L 1409 0
L 750 0
L 750 794
z
M 750 3309
L 1409 3309
L 1409 2516
L 750 2516
L 750 3309
z
" transform="scale(0.015625)"/>
      <path id="DejaVuSans-4d" d="M 628 4666
L 1569 4666
L 2759 1491
L 3956 4666
L 4897 4666
L 4897 0
L 4281 0
L 4281 4097
L 3078 897
L 2444 897
L 1241 4097
L 1241 0
L 628 0
L 628 4666
z
" transform="scale(0.015625)"/>
      <path id="DejaVuSans-6e" d="M 3513 2113
L 3513 0
L 2938 0
L 2938 2094
Q 2938 2591 2744 2837
Q 2550 3084 2163 3084
Q 1697 3084 1428 2787
Q 1159 2491 1159 1978
L 1159 0
L 581 0
L 581 3500
L 1159 3500
L 1159 2956
Q 1366 3272 1645 3428
Q 1925 3584 2291 3584
Q 2894 3584 3203 3211
Q 3513 2838 3513 2113
z
" transform="scale(0.015625)"/>
      <path id="DejaVuSans-66" d="M 2375 4863
L 2375 4384
L 1825 4384
Q 1516 4384 1395 4259
Q 1275 4134 1275 3809
L 1275 3500
L 2222 3500
L 2222 3053
L 1275 3053
L 1275 0
L 697 0
L 697 3053
L 147 3053
L 147 3500
L 697 3500
L 697 3744
Q 697 4328 969 4595
Q 1241 4863 1831 4863
L 2375 4863
z
" transform="scale(0.015625)"/>
      <path id="DejaVuSans-7c" d="M 1344 4891
L 1344 -1509
L 813 -1509
L 813 4891
L 1344 4891
z
" transform="scale(0.015625)"/>
      <path id="DejaVuSans-75" d="M 544 1381
L 544 3500
L 1119 3500
L 1119 1403
Q 1119 906 1312 657
Q 1506 409 1894 409
Q 2359 409 2629 706
Q 2900 1003 2900 1516
L 2900 3500
L 3475 3500
L 3475 0
L 2900 0
L 2900 538
Q 2691 219 2414 64
Q 2138 -91 1772 -91
Q 1169 -91 856 284
Q 544 659 544 1381
z
M 1991 3584
L 1991 3584
z
" transform="scale(0.015625)"/>
      <path id="DejaVuSans-5f" d="M 3263 -1063
L 3263 -1509
L -63 -1509
L -63 -1063
L 3263 -1063
z
" transform="scale(0.015625)"/>
     </defs>
     <use xlink:href="#DejaVuSans-49"/>
     <use xlink:href="#DejaVuSans-31" transform="translate(29.492188 0)"/>
     <use xlink:href="#DejaVuSans-3a" transform="translate(93.115234 0)"/>
     <use xlink:href="#DejaVuSans-20" transform="translate(126.806641 0)"/>
     <use xlink:href="#DejaVuSans-4d" transform="translate(158.59375 0)"/>
     <use xlink:href="#DejaVuSans-6f" transform="translate(244.873047 0)"/>
     <use xlink:href="#DejaVuSans-6e" transform="translate(306.054688 0)"/>
     <use xlink:href="#DejaVuSans-6f" transform="translate(369.433594 0)"/>
     <use xlink:href="#DejaVuSans-74" transform="translate(430.615234 0)"/>
     <use xlink:href="#DejaVuSans-6f" transform="translate(469.824219 0)"/>
     <use xlink:href="#DejaVuSans-6e" transform="translate(531.005859 0)"/>
     <use xlink:href="#DejaVuSans-65" transform="translate(594.384766 0)"/>
     <use xlink:href="#DejaVuSans-20" transform="translate(655.908203 0)"/>
     <use xlink:href="#DejaVuSans-72" transform="translate(687.695312 0)"/>
     <use xlink:href="#DejaVuSans-65" transform="translate(726.558594 0)"/>
     <use xlink:href="#DejaVuSans-66" transform="translate(788.082031 0)"/>
     <use xlink:href="#DejaVuSans-69" transform="translate(823.287109 0)"/>
     <use xlink:href="#DejaVuSans-6e" transform="translate(851.070312 0)"/>
     <use xlink:href="#DejaVuSans-65" transform="translate(914.449219 0)"/>
     <use xlink:href="#DejaVuSans-72" transform="translate(975.972656 0)"/>
     <use xlink:href="#DejaVuSans-79" transform="translate(1017.085938 0)"/>
     <use xlink:href="#DejaVuSans-20" transform="translate(1076.265625 0)"/>
     <use xlink:href="#DejaVuSans-7c" transform="translate(1108.052734 0)"/>
     <use xlink:href="#DejaVuSans-20" transform="translate(1141.744141 0)"/>
     <use xlink:href="#DejaVuSans-73" transform="translate(1173.53125 0)"/>
     <use xlink:href="#DejaVuSans-6f" transform="translate(1225.630859 0)"/>
     <use xlink:href="#DejaVuSans-75" transform="translate(1286.8125 0)"/>
     <use xlink:href="#DejaVuSans-72" transform="translate(1350.191406 0)"/>
     <use xlink:href="#DejaVuSans-63" transform="translate(1389.054688 0)"/>
     <use xlink:href="#DejaVuSans-65" transform="translate(1444.035156 0)"/>
     <use xlink:href="#DejaVuSans-5f" transform="translate(1505.558594 0)"/>
     <use xlink:href="#DejaVuSans-63" transform="translate(1555.558594 0)"/>
     <use xlink:href="#DejaVuSans-6f" transform="translate(1610.539062 0)"/>
     <use xlink:href="#DejaVuSans-64" transform="translate(1671.720703 0)"/>
     <use xlink:href="#DejaVuSans-65" transform="translate(1735.197266 0)"/>
    </g>
    <!-- I2: Lexicon completeness | config -->
    <g style="fill: #111827" transform="translate(45.400625 346.177931) scale(0.07 -0.07)">
     <defs>
      <path id="DejaVuSans-4c" d="M 628 4666
L 1259 4666
L 1259 531
L 3531 531
L 3531 0
L 628 0
L 628 4666
z
" transform="scale(0.015625)"/>
      <path id="DejaVuSans-78" d="M 3513 3500
L 2247 1797
L 3578 0
L 2900 0
L 1881 1375
L 863 0
L 184 0
L 1544 1831
L 300 3500
L 978 3500
L 1906 2253
L 2834 3500
L 3513 3500
z
" transform="scale(0.015625)"/>
      <path id="DejaVuSans-6d" d="M 3328 2828
Q 3544 3216 3844 3400
Q 4144 3584 4550 3584
Q 5097 3584 5394 3201
Q 5691 2819 5691 2113
L 5691 0
L 5113 0
L 5113 2094
Q 5113 2597 4934 2840
Q 4756 3084 4391 3084
Q 3944 3084 3684 2787
Q 3425 2491 3425 1978
L 3425 0
L 2847 0
L 2847 2094
Q 2847 2600 2669 2842
Q 2491 3084 2119 3084
Q 1678 3084 1418 2786
Q 1159 2488 1159 1978
L 1159 0
L 581 0
L 581 3500
L 1159 3500
L 1159 2956
Q 1356 3278 1631 3431
Q 1906 3584 2284 3584
Q 2666 3584 2933 3390
Q 3200 3197 3328 2828
z
" transform="scale(0.015625)"/>
      <path id="DejaVuSans-70" d="M 1159 525
L 1159 -1331
L 581 -1331
L 581 3500
L 1159 3500
L 1159 2969
Q 1341 3281 1617 3432
Q 1894 3584 2278 3584
Q 2916 3584 3314 3078
Q 3713 2572 3713 1747
Q 3713 922 3314 415
Q 2916 -91 2278 -91
Q 1894 -91 1617 61
Q 1341 213 1159 525
z
M 3116 1747
Q 3116 2381 2855 2742
Q 2594 3103 2138 3103
Q 1681 3103 1420 2742
Q 1159 2381 1159 1747
Q 1159 1113 1420 752
Q 1681 391 2138 391
Q 2594 391 2855 752
Q 3116 1113 3116 1747
z
" transform="scale(0.015625)"/>
     </defs>
     <use xlink:href="#DejaVuSans-49"/>
     <use xlink:href="#DejaVuSans-32" transform="translate(29.492188 0)"/>
     <use xlink:href="#DejaVuSans-3a" transform="translate(93.115234 0)"/>
     <use xlink:href="#DejaVuSans-20" transform="translate(126.806641 0)"/>
     <use xlink:href="#DejaVuSans-4c" transform="translate(158.59375 0)"/>
     <use xlink:href="#DejaVuSans-65" transform="translate(212.556641 0)"/>
     <use xlink:href="#DejaVuSans-78" transform="translate(272.330078 0)"/>
     <use xlink:href="#DejaVuSans-69" transform="translate(331.509766 0)"/>
     <use xlink:href="#DejaVuSans-63" transform="translate(359.292969 0)"/>
     <use xlink:href="#DejaVuSans-6f" transform="translate(414.273438 0)"/>
     <use xlink:href="#DejaVuSans-6e" transform="translate(475.455078 0)"/>
     <use xlink:href="#DejaVuSans-20" transform="translate(538.833984 0)"/>
     <use xlink:href="#DejaVuSans-63" transform="translate(570.621094 0)"/>
     <use xlink:href="#DejaVuSans-6f" transform="translate(625.601562 0)"/>
     <use xlink:href="#DejaVuSans-6d" transform="translate(686.783203 0)"/>
     <use xlink:href="#DejaVuSans-70" transform="translate(784.195312 0)"/>
     <use xlink:href="#DejaVuSans-6c" transform="translate(847.671875 0)"/>
     <use xlink:href="#DejaVuSans-65" transform="translate(875.455078 0)"/>
     <use xlink:href="#DejaVuSans-74" transform="translate(936.978516 0)"/>
     <use xlink:href="#DejaVuSans-65" transform="translate(976.1875 0)"/>
     <use xlink:href="#DejaVuSans-6e" transform="translate(1037.710938 0)"/>
     <use xlink:href="#DejaVuSans-65" transform="translate(1101.089844 0)"/>
     <use xlink:href="#DejaVuSans-73" transform="translate(1162.613281 0)"/>
     <use xlink:href="#DejaVuSans-73" transform="translate(1214.712891 0)"/>
     <use xlink:href="#DejaVuSans-20" transform="translate(1266.8125 0)"/>
     <use xlink:href="#DejaVuSans-7c" transform="translate(1298.599609 0)"/>
     <use xlink:href="#DejaVuSans-20" transform="translate(1332.291016 0)"/>
     <use xlink:href="#DejaVuSans-63" transform="translate(1364.078125 0)"/>
     <use xlink:href="#DejaVuSans-6f" transform="translate(1419.058594 0)"/>
     <use xlink:href="#DejaVuSans-6e" transform="translate(1480.240234 0)"/>
     <use xlink:href="#DejaVuSans-66" transform="translate(1543.619141 0)"/>
     <use xlink:href="#DejaVuSans-69" transform="translate(1578.824219 0)"/>
     <use xlink:href="#DejaVuSans-67" transform="translate(1606.607422 0)"/>
    </g>
    <!-- I3: Token hydration | generated_metric -->
    <g style="fill: #111827" transform="translate(45.400625 354.247837) scale(0.07 -0.07)">
     <defs>
      <path id="DejaVuSans-54" d="M -19 4666
L 3928 4666
L 3928 4134
L 2272 4134
L 2272 0
L 1638 0
L 1638 4134
L -19 4134
L -19 4666
z
" transform="scale(0.015625)"/>
      <path id="DejaVuSans-6b" d="M 581 4863
L 1159 4863
L 1159 1991
L 2875 3500
L 3609 3500
L 1753 1863
L 3688 0
L 2938 0
L 1159 1709
L 1159 0
L 581 0
L 581 4863
z
" transform="scale(0.015625)"/>
     </defs>
     <use xlink:href="#DejaVuSans-49"/>
     <use xlink:href="#DejaVuSans-33" transform="translate(29.492188 0)"/>
     <use xlink:href="#DejaVuSans-3a" transform="translate(93.115234 0)"/>
     <use xlink:href="#DejaVuSans-20" transform="translate(126.806641 0)"/>
     <use xlink:href="#DejaVuSans-54" transform="translate(158.59375 0)"/>
     <use xlink:href="#DejaVuSans-6f" transform="translate(202.677734 0)"/>
     <use xlink:href="#DejaVuSans-6b" transform="translate(263.859375 0)"/>
     <use xlink:href="#DejaVuSans-65" transform="translate(318.144531 0)"/>
     <use xlink:href="#DejaVuSans-6e" transform="translate(379.667969 0)"/>
     <use xlink:href="#DejaVuSans-20" transform="translate(443.046875 0)"/>
     <use xlink:href="#DejaVuSans-68" transform="translate(474.833984 0)"/>
     <use xlink:href="#DejaVuSans-79" transform="translate(538.212891 0)"/>
     <use xlink:href="#DejaVuSans-64" transform="translate(597.392578 0)"/>
     <use xlink:href="#DejaVuSans-72" transform="translate(660.869141 0)"/>
     <use xlink:href="#DejaVuSans-61" transform="translate(701.982422 0)"/>
     <use xlink:href="#DejaVuSans-74" transform="translate(763.261719 0)"/>
     <use xlink:href="#DejaVuSans-69" transform="translate(802.470703 0)"/>
     <use xlink:href="#DejaVuSans-6f" transform="translate(830.253906 0)"/>
     <use xlink:href="#DejaVuSans-6e" transform="translate(891.435547 0)"/>
     <use xlink:href="#DejaVuSans-20" transform="translate(954.814453 0)"/>
     <use xlink:href="#DejaVuSans-7c" transform="translate(986.601562 0)"/>
     <use xlink:href="#DejaVuSans-20" transform="translate(1020.292969 0)"/>
     <use xlink:href="#DejaVuSans-67" transform="translate(1052.080078 0)"/>
     <use xlink:href="#DejaVuSans-65" transform="translate(1115.556641 0)"/>
     <use xlink:href="#DejaVuSans-6e" transform="translate(1177.080078 0)"/>
     <use xlink:href="#DejaVuSans-65" transform="translate(1240.458984 0)"/>
     <use xlink:href="#DejaVuSans-72" transform="translate(1301.982422 0)"/>
     <use xlink:href="#DejaVuSans-61" transform="translate(1343.095703 0)"/>
     <use xlink:href="#DejaVuSans-74" transform="translate(1404.375 0)"/>
     <use xlink:href="#DejaVuSans-65" transform="translate(1443.583984 0)"/>
     <use xlink:href="#DejaVuSans-64" transform="translate(1505.107422 0)"/>
     <use xlink:href="#DejaVuSans-5f" transform="translate(1568.583984 0)"/>
     <use xlink:href="#DejaVuSans-6d" transform="translate(1618.583984 0)"/>
     <use xlink:href="#DejaVuSans-65" transform="translate(1715.996094 0)"/>
     <use xlink:href="#DejaVuSans-74" transform="translate(1777.519531 0)"/>
     <use xlink:href="#DejaVuSans-72" transform="translate(1816.728516 0)"/>
     <use xlink:href="#DejaVuSans-69" transform="translate(1857.841797 0)"/>
     <use xlink:href="#DejaVuSans-63" transform="translate(1885.625 0)"/>
    </g>
    <!-- I4: Analogy boundary | claim_ledger -->
    <g style="fill: #111827" transform="translate(45.400625 362.317744) scale(0.07 -0.07)">
     <defs>
      <path id="DejaVuSans-41" d="M 2188 4044
L 1331 1722
L 3047 1722
L 2188 4044
z
M 1831 4666
L 2547 4666
L 4325 0
L 3669 0
L 3244 1197
L 1141 1197
L 716 0
L 50 0
L 1831 4666
z
" transform="scale(0.015625)"/>
     </defs>
     <use xlink:href="#DejaVuSans-49"/>
     <use xlink:href="#DejaVuSans-34" transform="translate(29.492188 0)"/>
     <use xlink:href="#DejaVuSans-3a" transform="translate(93.115234 0)"/>
     <use xlink:href="#DejaVuSans-20" transform="translate(126.806641 0)"/>
     <use xlink:href="#DejaVuSans-41" transform="translate(158.59375 0)"/>
     <use xlink:href="#DejaVuSans-6e" transform="translate(227.001953 0)"/>
     <use xlink:href="#DejaVuSans-61" transform="translate(290.380859 0)"/>
     <use xlink:href="#DejaVuSans-6c" transform="translate(351.660156 0)"/>
     <use xlink:href="#DejaVuSans-6f" transform="translate(379.443359 0)"/>
     <use xlink:href="#DejaVuSans-67" transform="translate(440.625 0)"/>
     <use xlink:href="#DejaVuSans-79" transform="translate(504.101562 0)"/>
     <use xlink:href="#DejaVuSans-20" transform="translate(563.28125 0)"/>
     <use xlink:href="#DejaVuSans-62" transform="translate(595.068359 0)"/>
     <use xlink:href="#DejaVuSans-6f" transform="translate(658.544922 0)"/>
     <use xlink:href="#DejaVuSans-75" transform="translate(719.726562 0)"/>
     <use xlink:href="#DejaVuSans-6e" transform="translate(783.105469 0)"/>
     <use xlink:href="#DejaVuSans-64" transform="translate(846.484375 0)"/>
     <use xlink:href="#DejaVuSans-61" transform="translate(909.960938 0)"/>
     <use xlink:href="#DejaVuSans-72" transform="translate(971.240234 0)"/>
     <use xlink:href="#DejaVuSans-79" transform="translate(1012.353516 0)"/>
     <use xlink:href="#DejaVuSans-20" transform="translate(1071.533203 0)"/>
     <use xlink:href="#DejaVuSans-7c" transform="translate(1103.320312 0)"/>
     <use xlink:href="#DejaVuSans-20" transform="translate(1137.011719 0)"/>
     <use xlink:href="#DejaVuSans-63" transform="translate(1168.798828 0)"/>
     <use xlink:href="#DejaVuSans-6c" transform="translate(1223.779297 0)"/>
     <use xlink:href="#DejaVuSans-61" transform="translate(1251.5625 0)"/>
     <use xlink:href="#DejaVuSans-69" transform="translate(1312.841797 0)"/>
     <use xlink:href="#DejaVuSans-6d" transform="translate(1340.625 0)"/>
     <use xlink:href="#DejaVuSans-5f" transform="translate(1438.037109 0)"/>
     <use xlink:href="#DejaVuSans-6c" transform="translate(1488.037109 0)"/>
     <use xlink:href="#DejaVuSans-65" transform="translate(1515.820312 0)"/>
     <use xlink:href="#DejaVuSans-64" transform="translate(1577.34375 0)"/>
     <use xlink:href="#DejaVuSans-67" transform="translate(1640.820312 0)"/>
     <use xlink:href="#DejaVuSans-65" transform="translate(1704.296875 0)"/>
     <use xlink:href="#DejaVuSans-72" transform="translate(1765.820312 0)"/>
    </g>
    <!-- I5: Claim support | artifact -->
    <g style="fill: #111827" transform="translate(45.400625 370.38765) scale(0.07 -0.07)">
     <defs>
      <path id="DejaVuSans-43" d="M 4122 4306
L 4122 3641
Q 3803 3938 3442 4084
Q 3081 4231 2675 4231
Q 1875 4231 1450 3742
Q 1025 3253 1025 2328
Q 1025 1406 1450 917
Q 1875 428 2675 428
Q 3081 428 3442 575
Q 3803 722 4122 1019
L 4122 359
Q 3791 134 3420 21
Q 3050 -91 2638 -91
Q 1578 -91 968 557
Q 359 1206 359 2328
Q 359 3453 968 4101
Q 1578 4750 2638 4750
Q 3056 4750 3426 4639
Q 3797 4528 4122 4306
z
" transform="scale(0.015625)"/>
     </defs>
     <use xlink:href="#DejaVuSans-49"/>
     <use xlink:href="#DejaVuSans-35" transform="translate(29.492188 0)"/>
     <use xlink:href="#DejaVuSans-3a" transform="translate(93.115234 0)"/>
     <use xlink:href="#DejaVuSans-20" transform="translate(126.806641 0)"/>
     <use xlink:href="#DejaVuSans-43" transform="translate(158.59375 0)"/>
     <use xlink:href="#DejaVuSans-6c" transform="translate(228.417969 0)"/>
     <use xlink:href="#DejaVuSans-61" transform="translate(256.201172 0)"/>
     <use xlink:href="#DejaVuSans-69" transform="translate(317.480469 0)"/>
     <use xlink:href="#DejaVuSans-6d" transform="translate(345.263672 0)"/>
     <use xlink:href="#DejaVuSans-20" transform="translate(442.675781 0)"/>
     <use xlink:href="#DejaVuSans-73" transform="translate(474.462891 0)"/>
     <use xlink:href="#DejaVuSans-75" transform="translate(526.5625 0)"/>
     <use xlink:href="#DejaVuSans-70" transform="translate(589.941406 0)"/>
     <use xlink:href="#DejaVuSans-70" transform="translate(653.417969 0)"/>
     <use xlink:href="#DejaVuSans-6f" transform="translate(716.894531 0)"/>
     <use xlink:href="#DejaVuSans-72" transform="translate(778.076172 0)"/>
     <use xlink:href="#DejaVuSans-74" transform="translate(819.189453 0)"/>
     <use xlink:href="#DejaVuSans-20" transform="translate(858.398438 0)"/>
     <use xlink:href="#DejaVuSans-7c" transform="translate(890.185547 0)"/>
     <use xlink:href="#DejaVuSans-20" transform="translate(923.876953 0)"/>
     <use xlink:href="#DejaVuSans-61" transform="translate(955.664062 0)"/>
     <use xlink:href="#DejaVuSans-72" transform="translate(1016.943359 0)"/>
     <use xlink:href="#DejaVuSans-74" transform="translate(1058.056641 0)"/>
     <use xlink:href="#DejaVuSans-69" transform="translate(1097.265625 0)"/>
     <use xlink:href="#DejaVuSans-66" transform="translate(1125.048828 0)"/>
     <use xlink:href="#DejaVuSans-61" transform="translate(1160.253906 0)"/>
     <use xlink:href="#DejaVuSans-63" transform="translate(1221.533203 0)"/>
     <use xlink:href="#DejaVuSans-74" transform="translate(1276.513672 0)"/>
    </g>
    <!-- I6: Figure registry | artifact -->
    <g style="fill: #111827" transform="translate(45.400625 378.457556) scale(0.07 -0.07)">
     <defs>
      <path id="DejaVuSans-36" d="M 2113 2584
Q 1688 2584 1439 2293
Q 1191 2003 1191 1497
Q 1191 994 1439 701
Q 1688 409 2113 409
Q 2538 409 2786 701
Q 3034 994 3034 1497
Q 3034 2003 2786 2293
Q 2538 2584 2113 2584
z
M 3366 4563
L 3366 3988
Q 3128 4100 2886 4159
Q 2644 4219 2406 4219
Q 1781 4219 1451 3797
Q 1122 3375 1075 2522
Q 1259 2794 1537 2939
Q 1816 3084 2150 3084
Q 2853 3084 3261 2657
Q 3669 2231 3669 1497
Q 3669 778 3244 343
Q 2819 -91 2113 -91
Q 1303 -91 875 529
Q 447 1150 447 2328
Q 447 3434 972 4092
Q 1497 4750 2381 4750
Q 2619 4750 2861 4703
Q 3103 4656 3366 4563
z
" transform="scale(0.015625)"/>
      <path id="DejaVuSans-46" d="M 628 4666
L 3309 4666
L 3309 4134
L 1259 4134
L 1259 2759
L 3109 2759
L 3109 2228
L 1259 2228
L 1259 0
L 628 0
L 628 4666
z
" transform="scale(0.015625)"/>
     </defs>
     <use xlink:href="#DejaVuSans-49"/>
     <use xlink:href="#DejaVuSans-36" transform="translate(29.492188 0)"/>
     <use xlink:href="#DejaVuSans-3a" transform="translate(93.115234 0)"/>
     <use xlink:href="#DejaVuSans-20" transform="translate(126.806641 0)"/>
     <use xlink:href="#DejaVuSans-46" transform="translate(158.59375 0)"/>
     <use xlink:href="#DejaVuSans-69" transform="translate(208.863281 0)"/>
     <use xlink:href="#DejaVuSans-67" transform="translate(236.646484 0)"/>
     <use xlink:href="#DejaVuSans-75" transform="translate(300.123047 0)"/>
     <use xlink:href="#DejaVuSans-72" transform="translate(363.501953 0)"/>
     <use xlink:href="#DejaVuSans-65" transform="translate(402.365234 0)"/>
     <use xlink:href="#DejaVuSans-20" transform="translate(463.888672 0)"/>
     <use xlink:href="#DejaVuSans-72" transform="translate(495.675781 0)"/>
     <use xlink:href="#DejaVuSans-65" transform="translate(534.539062 0)"/>
     <use xlink:href="#DejaVuSans-67" transform="translate(596.0625 0)"/>
     <use xlink:href="#DejaVuSans-69" transform="translate(659.539062 0)"/>
     <use xlink:href="#DejaVuSans-73" transform="translate(687.322266 0)"/>
     <use xlink:href="#DejaVuSans-74" transform="translate(739.421875 0)"/>
     <use xlink:href="#DejaVuSans-72" transform="translate(778.630859 0)"/>
     <use xlink:href="#DejaVuSans-79" transform="translate(819.744141 0)"/>
     <use xlink:href="#DejaVuSans-20" transform="translate(878.923828 0)"/>
     <use xlink:href="#DejaVuSans-7c" transform="translate(910.710938 0)"/>
     <use xlink:href="#DejaVuSans-20" transform="translate(944.402344 0)"/>
     <use xlink:href="#DejaVuSans-61" transform="translate(976.189453 0)"/>
     <use xlink:href="#DejaVuSans-72" transform="translate(1037.46875 0)"/>
     <use xlink:href="#DejaVuSans-74" transform="translate(1078.582031 0)"/>
     <use xlink:href="#DejaVuSans-69" transform="translate(1117.791016 0)"/>
     <use xlink:href="#DejaVuSans-66" transform="translate(1145.574219 0)"/>
     <use xlink:href="#DejaVuSans-61" transform="translate(1180.779297 0)"/>
     <use xlink:href="#DejaVuSans-63" transform="translate(1242.058594 0)"/>
     <use xlink:href="#DejaVuSans-74" transform="translate(1297.039062 0)"/>
    </g>
    <!-- I7: Citation hygiene | bibliography -->
    <g style="fill: #111827" transform="translate(45.400625 386.527462) scale(0.07 -0.07)">
     <defs>
      <path id="DejaVuSans-37" d="M 525 4666
L 3525 4666
L 3525 4397
L 1831 0
L 1172 0
L 2766 4134
L 525 4134
L 525 4666
z
" transform="scale(0.015625)"/>
     </defs>
     <use xlink:href="#DejaVuSans-49"/>
     <use xlink:href="#DejaVuSans-37" transform="translate(29.492188 0)"/>
     <use xlink:href="#DejaVuSans-3a" transform="translate(93.115234 0)"/>
     <use xlink:href="#DejaVuSans-20" transform="translate(126.806641 0)"/>
     <use xlink:href="#DejaVuSans-43" transform="translate(158.59375 0)"/>
     <use xlink:href="#DejaVuSans-69" transform="translate(228.417969 0)"/>
     <use xlink:href="#DejaVuSans-74" transform="translate(256.201172 0)"/>
     <use xlink:href="#DejaVuSans-61" transform="translate(295.410156 0)"/>
     <use xlink:href="#DejaVuSans-74" transform="translate(356.689453 0)"/>
     <use xlink:href="#DejaVuSans-69" transform="translate(395.898438 0)"/>
     <use xlink:href="#DejaVuSans-6f" transform="translate(423.681641 0)"/>
     <use xlink:href="#DejaVuSans-6e" transform="translate(484.863281 0)"/>
     <use xlink:href="#DejaVuSans-20" transform="translate(548.242188 0)"/>
     <use xlink:href="#DejaVuSans-68" transform="translate(580.029297 0)"/>
     <use xlink:href="#DejaVuSans-79" transform="translate(643.408203 0)"/>
     <use xlink:href="#DejaVuSans-67" transform="translate(702.587891 0)"/>
     <use xlink:href="#DejaVuSans-69" transform="translate(766.064453 0)"/>
     <use xlink:href="#DejaVuSans-65" transform="translate(793.847656 0)"/>
     <use xlink:href="#DejaVuSans-6e" transform="translate(855.371094 0)"/>
     <use xlink:href="#DejaVuSans-65" transform="translate(918.75 0)"/>
     <use xlink:href="#DejaVuSans-20" transform="translate(980.273438 0)"/>
     <use xlink:href="#DejaVuSans-7c" transform="translate(1012.060547 0)"/>
     <use xlink:href="#DejaVuSans-20" transform="translate(1045.751953 0)"/>
     <use xlink:href="#DejaVuSans-62" transform="translate(1077.539062 0)"/>
     <use xlink:href="#DejaVuSans-69" transform="translate(1141.015625 0)"/>
     <use xlink:href="#DejaVuSans-62" transform="translate(1168.798828 0)"/>
     <use xlink:href="#DejaVuSans-6c" transform="translate(1232.275391 0)"/>
     <use xlink:href="#DejaVuSans-69" transform="translate(1260.058594 0)"/>
     <use xlink:href="#DejaVuSans-6f" transform="translate(1287.841797 0)"/>
     <use xlink:href="#DejaVuSans-67" transform="translate(1349.023438 0)"/>
     <use xlink:href="#DejaVuSans-72" transform="translate(1412.5 0)"/>
     <use xlink:href="#DejaVuSans-61" transform="translate(1453.613281 0)"/>
     <use xlink:href="#DejaVuSans-70" transform="translate(1514.892578 0)"/>
     <use xlink:href="#DejaVuSans-68" transform="translate(1578.369141 0)"/>
     <use xlink:href="#DejaVuSans-79" transform="translate(1641.748047 0)"/>
    </g>
    <!-- I8: Render readiness | validation -->
    <g style="fill: #111827" transform="translate(45.400625 394.597369) scale(0.07 -0.07)">
     <defs>
      <path id="DejaVuSans-38" d="M 2034 2216
Q 1584 2216 1326 1975
Q 1069 1734 1069 1313
Q 1069 891 1326 650
Q 1584 409 2034 409
Q 2484 409 2743 651
Q 3003 894 3003 1313
Q 3003 1734 2745 1975
Q 2488 2216 2034 2216
z
M 1403 2484
Q 997 2584 770 2862
Q 544 3141 544 3541
Q 544 4100 942 4425
Q 1341 4750 2034 4750
Q 2731 4750 3128 4425
Q 3525 4100 3525 3541
Q 3525 3141 3298 2862
Q 3072 2584 2669 2484
Q 3125 2378 3379 2068
Q 3634 1759 3634 1313
Q 3634 634 3220 271
Q 2806 -91 2034 -91
Q 1263 -91 848 271
Q 434 634 434 1313
Q 434 1759 690 2068
Q 947 2378 1403 2484
z
M 1172 3481
Q 1172 3119 1398 2916
Q 1625 2713 2034 2713
Q 2441 2713 2670 2916
Q 2900 3119 2900 3481
Q 2900 3844 2670 4047
Q 2441 4250 2034 4250
Q 1625 4250 1398 4047
Q 1172 3844 1172 3481
z
" transform="scale(0.015625)"/>
      <path id="DejaVuSans-52" d="M 2841 2188
Q 3044 2119 3236 1894
Q 3428 1669 3622 1275
L 4263 0
L 3584 0
L 2988 1197
Q 2756 1666 2539 1819
Q 2322 1972 1947 1972
L 1259 1972
L 1259 0
L 628 0
L 628 4666
L 2053 4666
Q 2853 4666 3247 4331
Q 3641 3997 3641 3322
Q 3641 2881 3436 2590
Q 3231 2300 2841 2188
z
M 1259 4147
L 1259 2491
L 2053 2491
Q 2509 2491 2742 2702
Q 2975 2913 2975 3322
Q 2975 3731 2742 3939
Q 2509 4147 2053 4147
L 1259 4147
z
" transform="scale(0.015625)"/>
     </defs>
     <use xlink:href="#DejaVuSans-49"/>
     <use xlink:href="#DejaVuSans-38" transform="translate(29.492188 0)"/>
     <use xlink:href="#DejaVuSans-3a" transform="translate(93.115234 0)"/>
     <use xlink:href="#DejaVuSans-20" transform="translate(126.806641 0)"/>
     <use xlink:href="#DejaVuSans-52" transform="translate(158.59375 0)"/>
     <use xlink:href="#DejaVuSans-65" transform="translate(223.576172 0)"/>
     <use xlink:href="#DejaVuSans-6e" transform="translate(285.099609 0)"/>
     <use xlink:href="#DejaVuSans-64" transform="translate(348.478516 0)"/>
     <use xlink:href="#DejaVuSans-65" transform="translate(411.955078 0)"/>
     <use xlink:href="#DejaVuSans-72" transform="translate(473.478516 0)"/>
     <use xlink:href="#DejaVuSans-20" transform="translate(514.591797 0)"/>
     <use xlink:href="#DejaVuSans-72" transform="translate(546.378906 0)"/>
     <use xlink:href="#DejaVuSans-65" transform="translate(585.242188 0)"/>
     <use xlink:href="#DejaVuSans-61" transform="translate(646.765625 0)"/>
     <use xlink:href="#DejaVuSans-64" transform="translate(708.044922 0)"/>
     <use xlink:href="#DejaVuSans-69" transform="translate(771.521484 0)"/>
     <use xlink:href="#DejaVuSans-6e" transform="translate(799.304688 0)"/>
     <use xlink:href="#DejaVuSans-65" transform="translate(862.683594 0)"/>
     <use xlink:href="#DejaVuSans-73" transform="translate(924.207031 0)"/>
     <use xlink:href="#DejaVuSans-73" transform="translate(976.306641 0)"/>
     <use xlink:href="#DejaVuSans-20" transform="translate(1028.40625 0)"/>
     <use xlink:href="#DejaVuSans-7c" transform="translate(1060.193359 0)"/>
     <use xlink:href="#DejaVuSans-20" transform="translate(1093.884766 0)"/>
     <use xlink:href="#DejaVuSans-76" transform="translate(1125.671875 0)"/>
     <use xlink:href="#DejaVuSans-61" transform="translate(1184.851562 0)"/>
     <use xlink:href="#DejaVuSans-6c" transform="translate(1246.130859 0)"/>
     <use xlink:href="#DejaVuSans-69" transform="translate(1273.914062 0)"/>
     <use xlink:href="#DejaVuSans-64" transform="translate(1301.697266 0)"/>
     <use xlink:href="#DejaVuSans-61" transform="translate(1365.173828 0)"/>
     <use xlink:href="#DejaVuSans-74" transform="translate(1426.453125 0)"/>
     <use xlink:href="#DejaVuSans-69" transform="translate(1465.662109 0)"/>
     <use xlink:href="#DejaVuSans-6f" transform="translate(1493.445312 0)"/>
     <use xlink:href="#DejaVuSans-6e" transform="translate(1554.626953 0)"/>
    </g>
    <!-- I9: Adversarial security -->
    <g style="fill: #111827" transform="translate(45.400625 402.630525) scale(0.07 -0.07)">
     <defs>
      <path id="DejaVuSans-39" d="M 703 97
L 703 672
Q 941 559 1184 500
Q 1428 441 1663 441
Q 2288 441 2617 861
Q 2947 1281 2994 2138
Q 2813 1869 2534 1725
Q 2256 1581 1919 1581
Q 1219 1581 811 2004
Q 403 2428 403 3163
Q 403 3881 828 4315
Q 1253 4750 1959 4750
Q 2769 4750 3195 4129
Q 3622 3509 3622 2328
Q 3622 1225 3098 567
Q 2575 -91 1691 -91
Q 1453 -91 1209 -44
Q 966 3 703 97
z
M 1959 2075
Q 2384 2075 2632 2365
Q 2881 2656 2881 3163
Q 2881 3666 2632 3958
Q 2384 4250 1959 4250
Q 1534 4250 1286 3958
Q 1038 3666 1038 3163
Q 1038 2656 1286 2365
Q 1534 2075 1959 2075
z
" transform="scale(0.015625)"/>
     </defs>
     <use xlink:href="#DejaVuSans-49"/>
     <use xlink:href="#DejaVuSans-39" transform="translate(29.492188 0)"/>
     <use xlink:href="#DejaVuSans-3a" transform="translate(93.115234 0)"/>
     <use xlink:href="#DejaVuSans-20" transform="translate(126.806641 0)"/>
     <use xlink:href="#DejaVuSans-41" transform="translate(158.59375 0)"/>
     <use xlink:href="#DejaVuSans-64" transform="translate(225.251953 0)"/>
     <use xlink:href="#DejaVuSans-76" transform="translate(288.728516 0)"/>
     <use xlink:href="#DejaVuSans-65" transform="translate(347.908203 0)"/>
     <use xlink:href="#DejaVuSans-72" transform="translate(409.431641 0)"/>
     <use xlink:href="#DejaVuSans-73" transform="translate(450.544922 0)"/>
     <use xlink:href="#DejaVuSans-61" transform="translate(502.644531 0)"/>
     <use xlink:href="#DejaVuSans-72" transform="translate(563.923828 0)"/>
     <use xlink:href="#DejaVuSans-69" transform="translate(605.037109 0)"/>
     <use xlink:href="#DejaVuSans-61" transform="translate(632.820312 0)"/>
     <use xlink:href="#DejaVuSans-6c" transform="translate(694.099609 0)"/>
     <use xlink:href="#DejaVuSans-20" transform="translate(721.882812 0)"/>
     <use xlink:href="#DejaVuSans-73" transform="translate(753.669922 0)"/>
     <use xlink:href="#DejaVuSans-65" transform="translate(805.769531 0)"/>
     <use xlink:href="#DejaVuSans-63" transform="translate(867.292969 0)"/>
     <use xlink:href="#DejaVuSans-75" transform="translate(922.273438 0)"/>
     <use xlink:href="#DejaVuSans-72" transform="translate(985.652344 0)"/>
     <use xlink:href="#DejaVuSans-69" transform="translate(1026.765625 0)"/>
     <use xlink:href="#DejaVuSans-74" transform="translate(1054.548828 0)"/>
     <use xlink:href="#DejaVuSans-79" transform="translate(1093.757812 0)"/>
    </g>
    <!-- assay | source_code -->
    <g style="fill: #111827" transform="translate(45.400625 410.505744) scale(0.07 -0.07)">
     <use xlink:href="#DejaVuSans-61"/>
     <use xlink:href="#DejaVuSans-73" transform="translate(61.279297 0)"/>
     <use xlink:href="#DejaVuSans-73" transform="translate(113.378906 0)"/>
     <use xlink:href="#DejaVuSans-61" transform="translate(165.478516 0)"/>
     <use xlink:href="#DejaVuSans-79" transform="translate(226.757812 0)"/>
     <use xlink:href="#DejaVuSans-20" transform="translate(285.9375 0)"/>
     <use xlink:href="#DejaVuSans-7c" transform="translate(317.724609 0)"/>
     <use xlink:href="#DejaVuSans-20" transform="translate(351.416016 0)"/>
     <use xlink:href="#DejaVuSans-73" transform="translate(383.203125 0)"/>
     <use xlink:href="#DejaVuSans-6f" transform="translate(435.302734 0)"/>
     <use xlink:href="#DejaVuSans-75" transform="translate(496.484375 0)"/>
     <use xlink:href="#DejaVuSans-72" transform="translate(559.863281 0)"/>
     <use xlink:href="#DejaVuSans-63" transform="translate(598.726562 0)"/>
     <use xlink:href="#DejaVuSans-65" transform="translate(653.707031 0)"/>
     <use xlink:href="#DejaVuSans-5f" transform="translate(715.230469 0)"/>
     <use xlink:href="#DejaVuSans-63" transform="translate(765.230469 0)"/>
     <use xlink:href="#DejaVuSans-6f" transform="translate(820.210938 0)"/>
     <use xlink:href="#DejaVuSans-64" transform="translate(881.392578 0)"/>
     <use xlink:href="#DejaVuSans-65" transform="translate(944.869141 0)"/>
    </g>
   </g>
   <g id="text_23">
    <!-- Scientific-Integrity Risk Matrix -->
    <g transform="translate(208.084219 17.837812) scale(0.14 -0.14)">
     <defs>
      <path id="DejaVuSans-2d" d="M 313 2009
L 1997 2009
L 1997 1497
L 313 1497
L 313 2009
z
" transform="scale(0.015625)"/>
     </defs>
     <use xlink:href="#DejaVuSans-53"/>
     <use xlink:href="#DejaVuSans-63" transform="translate(63.476562 0)"/>
     <use xlink:href="#DejaVuSans-69" transform="translate(118.457031 0)"/>
     <use xlink:href="#DejaVuSans-65" transform="translate(146.240234 0)"/>
     <use xlink:href="#DejaVuSans-6e" transform="translate(207.763672 0)"/>
     <use xlink:href="#DejaVuSans-74" transform="translate(271.142578 0)"/>
     <use xlink:href="#DejaVuSans-69" transform="translate(310.351562 0)"/>
     <use xlink:href="#DejaVuSans-66" transform="translate(338.134766 0)"/>
     <use xlink:href="#DejaVuSans-69" transform="translate(373.339844 0)"/>
     <use xlink:href="#DejaVuSans-63" transform="translate(401.123047 0)"/>
     <use xlink:href="#DejaVuSans-2d" transform="translate(456.103516 0)"/>
     <use xlink:href="#DejaVuSans-49" transform="translate(492.1875 0)"/>
     <use xlink:href="#DejaVuSans-6e" transform="translate(521.679688 0)"/>
     <use xlink:href="#DejaVuSans-74" transform="translate(585.058594 0)"/>
     <use xlink:href="#DejaVuSans-65" transform="translate(624.267578 0)"/>
     <use xlink:href="#DejaVuSans-67" transform="translate(685.791016 0)"/>
     <use xlink:href="#DejaVuSans-72" transform="translate(749.267578 0)"/>
     <use xlink:href="#DejaVuSans-69" transform="translate(790.380859 0)"/>
     <use xlink:href="#DejaVuSans-74" transform="translate(818.164062 0)"/>
     <use xlink:href="#DejaVuSans-79" transform="translate(857.373047 0)"/>
     <use xlink:href="#DejaVuSans-20" transform="translate(916.552734 0)"/>
     <use xlink:href="#DejaVuSans-52" transform="translate(948.339844 0)"/>
     <use xlink:href="#DejaVuSans-69" transform="translate(1017.822266 0)"/>
     <use xlink:href="#DejaVuSans-73" transform="translate(1045.605469 0)"/>
     <use xlink:href="#DejaVuSans-6b" transform="translate(1097.705078 0)"/>
     <use xlink:href="#DejaVuSans-20" transform="translate(1155.615234 0)"/>
     <use xlink:href="#DejaVuSans-4d" transform="translate(1187.402344 0)"/>
     <use xlink:href="#DejaVuSans-61" transform="translate(1273.681641 0)"/>
     <use xlink:href="#DejaVuSans-74" transform="translate(1334.960938 0)"/>
     <use xlink:href="#DejaVuSans-72" transform="translate(1374.169922 0)"/>
     <use xlink:href="#DejaVuSans-69" transform="translate(1415.283203 0)"/>
     <use xlink:href="#DejaVuSans-78" transform="translate(1443.066406 0)"/>
    </g>
   </g>
   <g id="legend_1">
    <g id="patch_10">
     <path d="M 502.742344 123.122812
L 587.340625 123.122812
Q 588.740625 123.122812 588.740625 121.722812
L 588.740625 36.737812
Q 588.740625 35.337812 587.340625 35.337812
L 502.742344 35.337812
Q 501.342344 35.337812 501.342344 36.737812
L 501.342344 121.722812
Q 501.342344 123.122812 502.742344 123.122812
z
" style="fill: #ffffff; opacity: 0.8; stroke: #cccccc; stroke-linejoin: miter"/>
    </g>
    <g id="text_24">
     <!-- Source tier -->
     <g transform="translate(517.800078 45.73625) scale(0.1 -0.1)">
      <use xlink:href="#DejaVuSans-53"/>
      <use xlink:href="#DejaVuSans-6f" transform="translate(63.476562 0)"/>
      <use xlink:href="#DejaVuSans-75" transform="translate(124.658203 0)"/>
      <use xlink:href="#DejaVuSans-72" transform="translate(188.037109 0)"/>
      <use xlink:href="#DejaVuSans-63" transform="translate(226.900391 0)"/>
      <use xlink:href="#DejaVuSans-65" transform="translate(281.880859 0)"/>
      <use xlink:href="#DejaVuSans-20" transform="translate(343.404297 0)"/>
      <use xlink:href="#DejaVuSans-74" transform="translate(375.191406 0)"/>
      <use xlink:href="#DejaVuSans-69" transform="translate(414.400391 0)"/>
      <use xlink:href="#DejaVuSans-65" transform="translate(442.183594 0)"/>
      <use xlink:href="#DejaVuSans-72" transform="translate(503.707031 0)"/>
     </g>
    </g>
    <g id="PathCollection_12">
     <defs>
      <path id="m1319f63d30" d="M 0 5.244044
C 1.390737 5.244044 2.7247 4.691499 3.708099 3.708099
C 4.691499 2.7247 5.244044 1.390737 5.244044 0
C 5.244044 -1.390737 4.691499 -2.7247 3.708099 -3.708099
C 2.7247 -4.691499 1.390737 -5.244044 0 -5.244044
C -1.390737 -5.244044 -2.7247 -4.691499 -3.708099 -3.708099
C -4.691499 -2.7247 -5.244044 -1.390737 -5.244044 0
C -5.244044 1.390737 -4.691499 2.7247 -3.708099 3.708099
C -2.7247 4.691499 -1.390737 5.244044 0 5.244044
z
" style="stroke: #1f2937; stroke-width: 0.8"/>
     </defs>
     <g>
      <use xlink:href="#m1319f63d30" x="511.142344" y="54.797344" style="fill: #2a9d8f; stroke: #1f2937; stroke-width: 0.8"/>
     </g>
    </g>
    <g id="text_25">
     <!-- artifact -->
     <g transform="translate(523.742344 56.634844) scale(0.07 -0.07)">
      <use xlink:href="#DejaVuSans-61"/>
      <use xlink:href="#DejaVuSans-72" transform="translate(61.279297 0)"/>
      <use xlink:href="#DejaVuSans-74" transform="translate(102.392578 0)"/>
      <use xlink:href="#DejaVuSans-69" transform="translate(141.601562 0)"/>
      <use xlink:href="#DejaVuSans-66" transform="translate(169.384766 0)"/>
      <use xlink:href="#DejaVuSans-61" transform="translate(204.589844 0)"/>
      <use xlink:href="#DejaVuSans-63" transform="translate(265.869141 0)"/>
      <use xlink:href="#DejaVuSans-74" transform="translate(320.849609 0)"/>
     </g>
    </g>
    <g id="PathCollection_13">
     <defs>
      <path id="m69283d2d12" d="M 0 5.244044
C 1.390737 5.244044 2.7247 4.691499 3.708099 3.708099
C 4.691499 2.7247 5.244044 1.390737 5.244044 0
C 5.244044 -1.390737 4.691499 -2.7247 3.708099 -3.708099
C 2.7247 -4.691499 1.390737 -5.244044 0 -5.244044
C -1.390737 -5.244044 -2.7247 -4.691499 -3.708099 -3.708099
C -4.691499 -2.7247 -5.244044 -1.390737 -5.244044 0
C -5.244044 1.390737 -4.691499 2.7247 -3.708099 3.708099
C -2.7247 4.691499 -1.390737 5.244044 0 5.244044
z
" style="stroke: #1f2937; stroke-width: 0.8"/>
     </defs>
     <g>
      <use xlink:href="#m69283d2d12" x="511.142344" y="65.072031" style="fill: #90be6d; stroke: #1f2937; stroke-width: 0.8"/>
     </g>
    </g>
    <g id="text_26">
     <!-- bibliography -->
     <g transform="translate(523.742344 66.909531) scale(0.07 -0.07)">
      <use xlink:href="#DejaVuSans-62"/>
      <use xlink:href="#DejaVuSans-69" transform="translate(63.476562 0)"/>
      <use xlink:href="#DejaVuSans-62" transform="translate(91.259766 0)"/>
      <use xlink:href="#DejaVuSans-6c" transform="translate(154.736328 0)"/>
      <use xlink:href="#DejaVuSans-69" transform="translate(182.519531 0)"/>
      <use xlink:href="#DejaVuSans-6f" transform="translate(210.302734 0)"/>
      <use xlink:href="#DejaVuSans-67" transform="translate(271.484375 0)"/>
      <use xlink:href="#DejaVuSans-72" transform="translate(334.960938 0)"/>
      <use xlink:href="#DejaVuSans-61" transform="translate(376.074219 0)"/>
      <use xlink:href="#DejaVuSans-70" transform="translate(437.353516 0)"/>
      <use xlink:href="#DejaVuSans-68" transform="translate(500.830078 0)"/>
      <use xlink:href="#DejaVuSans-79" transform="translate(564.208984 0)"/>
     </g>
    </g>
    <g id="PathCollection_14">
     <defs>
      <path id="m473c8349c4" d="M 0 5.244044
C 1.390737 5.244044 2.7247 4.691499 3.708099 3.708099
C 4.691499 2.7247 5.244044 1.390737 5.244044 0
C 5.244044 -1.390737 4.691499 -2.7247 3.708099 -3.708099
C 2.7247 -4.691499 1.390737 -5.244044 0 -5.244044
C -1.390737 -5.244044 -2.7247 -4.691499 -3.708099 -3.708099
C -4.691499 -2.7247 -5.244044 -1.390737 -5.244044 0
C -5.244044 1.390737 -4.691499 2.7247 -3.708099 3.708099
C -2.7247 4.691499 -1.390737 5.244044 0 5.244044
z
" style="stroke: #1f2937; stroke-width: 0.8"/>
     </defs>
     <g>
      <use xlink:href="#m473c8349c4" x="511.142344" y="75.346719" style="fill: #f4a261; stroke: #1f2937; stroke-width: 0.8"/>
     </g>
    </g>
    <g id="text_27">
     <!-- claim_ledger -->
     <g transform="translate(523.742344 77.184219) scale(0.07 -0.07)">
      <use xlink:href="#DejaVuSans-63"/>
      <use xlink:href="#DejaVuSans-6c" transform="translate(54.980469 0)"/>
      <use xlink:href="#DejaVuSans-61" transform="translate(82.763672 0)"/>
      <use xlink:href="#DejaVuSans-69" transform="translate(144.042969 0)"/>
      <use xlink:href="#DejaVuSans-6d" transform="translate(171.826172 0)"/>
      <use xlink:href="#DejaVuSans-5f" transform="translate(269.238281 0)"/>
      <use xlink:href="#DejaVuSans-6c" transform="translate(319.238281 0)"/>
      <use xlink:href="#DejaVuSans-65" transform="translate(347.021484 0)"/>
      <use xlink:href="#DejaVuSans-64" transform="translate(408.544922 0)"/>
      <use xlink:href="#DejaVuSans-67" transform="translate(472.021484 0)"/>
      <use xlink:href="#DejaVuSans-65" transform="translate(535.498047 0)"/>
      <use xlink:href="#DejaVuSans-72" transform="translate(597.021484 0)"/>
     </g>
    </g>
    <g id="PathCollection_15">
     <defs>
      <path id="m9073bc70df" d="M 0 5.244044
C 1.390737 5.244044 2.7247 4.691499 3.708099 3.708099
C 4.691499 2.7247 5.244044 1.390737 5.244044 0
C 5.244044 -1.390737 4.691499 -2.7247 3.708099 -3.708099
C 2.7247 -4.691499 1.390737 -5.244044 0 -5.244044
C -1.390737 -5.244044 -2.7247 -4.691499 -3.708099 -3.708099
C -4.691499 -2.7247 -5.244044 -1.390737 -5.244044 0
C -5.244044 1.390737 -4.691499 2.7247 -3.708099 3.708099
C -2.7247 4.691499 -1.390737 5.244044 0 5.244044
z
" style="stroke: #1f2937; stroke-width: 0.8"/>
     </defs>
     <g>
      <use xlink:href="#m9073bc70df" x="511.142344" y="85.816094" style="fill: #577590; stroke: #1f2937; stroke-width: 0.8"/>
     </g>
    </g>
    <g id="text_28">
     <!-- config -->
     <g transform="translate(523.742344 87.653594) scale(0.07 -0.07)">
      <use xlink:href="#DejaVuSans-63"/>
      <use xlink:href="#DejaVuSans-6f" transform="translate(54.980469 0)"/>
      <use xlink:href="#DejaVuSans-6e" transform="translate(116.162109 0)"/>
      <use xlink:href="#DejaVuSans-66" transform="translate(179.541016 0)"/>
      <use xlink:href="#DejaVuSans-69" transform="translate(214.746094 0)"/>
      <use xlink:href="#DejaVuSans-67" transform="translate(242.529297 0)"/>
     </g>
    </g>
    <g id="PathCollection_16">
     <defs>
      <path id="m44403495a0" d="M 0 5.244044
C 1.390737 5.244044 2.7247 4.691499 3.708099 3.708099
C 4.691499 2.7247 5.244044 1.390737 5.244044 0
C 5.244044 -1.390737 4.691499 -2.7247 3.708099 -3.708099
C 2.7247 -4.691499 1.390737 -5.244044 0 -5.244044
C -1.390737 -5.244044 -2.7247 -4.691499 -3.708099 -3.708099
C -4.691499 -2.7247 -5.244044 -1.390737 -5.244044 0
C -5.244044 1.390737 -4.691499 2.7247 -3.708099 3.708099
C -2.7247 4.691499 -1.390737 5.244044 0 5.244044
z
" style="stroke: #1f2937; stroke-width: 0.8"/>
     </defs>
     <g>
      <use xlink:href="#m44403495a0" x="511.142344" y="96.090781" style="fill: #3a0ca3; stroke: #1f2937; stroke-width: 0.8"/>
     </g>
    </g>
    <g id="text_29">
     <!-- generated_metric -->
     <g transform="translate(523.742344 97.928281) scale(0.07 -0.07)">
      <use xlink:href="#DejaVuSans-67"/>
      <use xlink:href="#DejaVuSans-65" transform="translate(63.476562 0)"/>
      <use xlink:href="#DejaVuSans-6e" transform="translate(125 0)"/>
      <use xlink:href="#DejaVuSans-65" transform="translate(188.378906 0)"/>
      <use xlink:href="#DejaVuSans-72" transform="translate(249.902344 0)"/>
      <use xlink:href="#DejaVuSans-61" transform="translate(291.015625 0)"/>
      <use xlink:href="#DejaVuSans-74" transform="translate(352.294922 0)"/>
      <use xlink:href="#DejaVuSans-65" transform="translate(391.503906 0)"/>
      <use xlink:href="#DejaVuSans-64" transform="translate(453.027344 0)"/>
      <use xlink:href="#DejaVuSans-5f" transform="translate(516.503906 0)"/>
      <use xlink:href="#DejaVuSans-6d" transform="translate(566.503906 0)"/>
      <use xlink:href="#DejaVuSans-65" transform="translate(663.916016 0)"/>
      <use xlink:href="#DejaVuSans-74" transform="translate(725.439453 0)"/>
      <use xlink:href="#DejaVuSans-72" transform="translate(764.648438 0)"/>
      <use xlink:href="#DejaVuSans-69" transform="translate(805.761719 0)"/>
      <use xlink:href="#DejaVuSans-63" transform="translate(833.544922 0)"/>
     </g>
    </g>
    <g id="PathCollection_17">
     <defs>
      <path id="me38915c872" d="M 0 5.244044
C 1.390737 5.244044 2.7247 4.691499 3.708099 3.708099
C 4.691499 2.7247 5.244044 1.390737 5.244044 0
C 5.244044 -1.390737 4.691499 -2.7247 3.708099 -3.708099
C 2.7247 -4.691499 1.390737 -5.244044 0 -5.244044
C -1.390737 -5.244044 -2.7247 -4.691499 -3.708099 -3.708099
C -4.691499 -2.7247 -5.244044 -1.390737 -5.244044 0
C -5.244044 1.390737 -4.691499 2.7247 -3.708099 3.708099
C -2.7247 4.691499 -1.390737 5.244044 0 5.244044
z
" style="stroke: #1f2937; stroke-width: 0.8"/>
     </defs>
     <g>
      <use xlink:href="#me38915c872" x="511.142344" y="106.560156" style="fill: #264653; stroke: #1f2937; stroke-width: 0.8"/>
     </g>
    </g>
    <g id="text_30">
     <!-- source_code -->
     <g transform="translate(523.742344 108.397656) scale(0.07 -0.07)">
      <use xlink:href="#DejaVuSans-73"/>
      <use xlink:href="#DejaVuSans-6f" transform="translate(52.099609 0)"/>
      <use xlink:href="#DejaVuSans-75" transform="translate(113.28125 0)"/>
      <use xlink:href="#DejaVuSans-72" transform="translate(176.660156 0)"/>
      <use xlink:href="#DejaVuSans-63" transform="translate(215.523438 0)"/>
      <use xlink:href="#DejaVuSans-65" transform="translate(270.503906 0)"/>
      <use xlink:href="#DejaVuSans-5f" transform="translate(332.027344 0)"/>
      <use xlink:href="#DejaVuSans-63" transform="translate(382.027344 0)"/>
      <use xlink:href="#DejaVuSans-6f" transform="translate(437.007812 0)"/>
      <use xlink:href="#DejaVuSans-64" transform="translate(498.189453 0)"/>
      <use xlink:href="#DejaVuSans-65" transform="translate(561.666016 0)"/>
     </g>
    </g>
    <g id="PathCollection_18">
     <defs>
      <path id="m3b8950bdf3" d="M 0 5.244044
C 1.390737 5.244044 2.7247 4.691499 3.708099 3.708099
C 4.691499 2.7247 5.244044 1.390737 5.244044 0
C 5.244044 -1.390737 4.691499 -2.7247 3.708099 -3.708099
C 2.7247 -4.691499 1.390737 -5.244044 0 -5.244044
C -1.390737 -5.244044 -2.7247 -4.691499 -3.708099 -3.708099
C -4.691499 -2.7247 -5.244044 -1.390737 -5.244044 0
C -5.244044 1.390737 -4.691499 2.7247 -3.708099 3.708099
C -2.7247 4.691499 -1.390737 5.244044 0 5.244044
z
" style="stroke: #1f2937; stroke-width: 0.8"/>
     </defs>
     <g>
      <use xlink:href="#m3b8950bdf3" x="511.142344" y="117.029531" style="fill: #e76f51; stroke: #1f2937; stroke-width: 0.8"/>
     </g>
    </g>
    <g id="text_31">
     <!-- validation -->
     <g transform="translate(523.742344 118.867031) scale(0.07 -0.07)">
      <use xlink:href="#DejaVuSans-76"/>
      <use xlink:href="#DejaVuSans-61" transform="translate(59.179688 0)"/>
      <use xlink:href="#DejaVuSans-6c" transform="translate(120.458984 0)"/>
      <use xlink:href="#DejaVuSans-69" transform="translate(148.242188 0)"/>
      <use xlink:href="#DejaVuSans-64" transform="translate(176.025391 0)"/>
      <use xlink:href="#DejaVuSans-61" transform="translate(239.501953 0)"/>
      <use xlink:href="#DejaVuSans-74" transform="translate(300.78125 0)"/>
      <use xlink:href="#DejaVuSans-69" transform="translate(339.990234 0)"/>
      <use xlink:href="#DejaVuSans-6f" transform="translate(367.773438 0)"/>
      <use xlink:href="#DejaVuSans-6e" transform="translate(428.955078 0)"/>
     </g>
    </g>
   </g>
   <g id="legend_2">
    <g id="patch_11">
     <path d="M 521.242188 416.417812
L 587.340625 416.417812
Q 588.740625 416.417812 588.740625 415.017812
L 588.740625 371.715625
Q 588.740625 370.315625 587.340625 370.315625
L 521.242188 370.315625
Q 519.842188 370.315625 519.842188 371.715625
L 519.842188 415.017812
Q 519.842188 416.417812 521.242188 416.417812
z
" style="fill: #ffffff; opacity: 0.8; stroke: #cccccc; stroke-linejoin: miter"/>
    </g>
    <g id="text_32">
     <!-- Residual risk -->
     <g transform="translate(522.642187 380.714062) scale(0.1 -0.1)">
      <use xlink:href="#DejaVuSans-52"/>
      <use xlink:href="#DejaVuSans-65" transform="translate(64.982422 0)"/>
      <use xlink:href="#DejaVuSans-73" transform="translate(126.505859 0)"/>
      <use xlink:href="#DejaVuSans-69" transform="translate(178.605469 0)"/>
      <use xlink:href="#DejaVuSans-64" transform="translate(206.388672 0)"/>
      <use xlink:href="#DejaVuSans-75" transform="translate(269.865234 0)"/>
      <use xlink:href="#DejaVuSans-61" transform="translate(333.244141 0)"/>
      <use xlink:href="#DejaVuSans-6c" transform="translate(394.523438 0)"/>
      <use xlink:href="#DejaVuSans-20" transform="translate(422.306641 0)"/>
      <use xlink:href="#DejaVuSans-72" transform="translate(454.09375 0)"/>
      <use xlink:href="#DejaVuSans-69" transform="translate(495.207031 0)"/>
      <use xlink:href="#DejaVuSans-73" transform="translate(522.990234 0)"/>
      <use xlink:href="#DejaVuSans-6b" transform="translate(575.089844 0)"/>
     </g>
    </g>
    <g id="PathCollection_19">
     <defs>
      <path id="m4d7cb07689" d="M 0 7.5
C 1.989023 7.5 3.896849 6.709753 5.303301 5.303301
C 6.709753 3.896849 7.5 1.989023 7.5 0
C 7.5 -1.989023 6.709753 -3.896849 5.303301 -5.303301
C 3.896849 -6.709753 1.989023 -7.5 0 -7.5
C -1.989023 -7.5 -3.896849 -6.709753 -5.303301 -5.303301
C -6.709753 -3.896849 -7.5 -1.989023 -7.5 0
C -7.5 1.989023 -6.709753 3.896849 -5.303301 5.303301
C -3.896849 6.709753 -1.989023 7.5 0 7.5
z
" style="stroke: #1f2937"/>
     </defs>
     <g>
      <use xlink:href="#m4d7cb07689" x="547.037656" y="389.775156" style="fill: #d1d5db; stroke: #1f2937"/>
     </g>
    </g>
    <g id="text_33">
     <!-- 3 -->
     <g transform="translate(559.637656 391.612656) scale(0.07 -0.07)">
      <use xlink:href="#DejaVuSans-33"/>
     </g>
    </g>
    <g id="PathCollection_20">
     <defs>
      <path id="md48c246f4b" d="M 0 10
C 2.652031 10 5.195799 8.946337 7.071068 7.071068
C 8.946337 5.195799 10 2.652031 10 0
C 10 -2.652031 8.946337 -5.195799 7.071068 -7.071068
C 5.195799 -8.946337 2.652031 -10 0 -10
C -2.652031 -10 -5.195799 -8.946337 -7.071068 -7.071068
C -8.946337 -5.195799 -10 -2.652031 -10 0
C -10 2.652031 -8.946337 5.195799 -7.071068 7.071068
C -5.195799 8.946337 -2.652031 10 0 10
z
" style="stroke: #1f2937"/>
     </defs>
     <g>
      <use xlink:href="#md48c246f4b" x="547.037656" y="400.049844" style="fill: #d1d5db; stroke: #1f2937"/>
     </g>
    </g>
    <g id="text_34">
     <!-- 8 -->
     <g transform="translate(559.637656 401.887344) scale(0.07 -0.07)">
      <use xlink:href="#DejaVuSans-38"/>
     </g>
    </g>
    <g id="PathCollection_21">
     <defs>
      <path id="md630280d07" d="M 0 12.698425
C 3.367662 12.698425 6.597846 11.360439 8.979142 8.979142
C 11.360439 6.597846 12.698425 3.367662 12.698425 0
C 12.698425 -3.367662 11.360439 -6.597846 8.979142 -8.979142
C 6.597846 -11.360439 3.367662 -12.698425 0 -12.698425
C -3.367662 -12.698425 -6.597846 -11.360439 -8.979142 -8.979142
C -11.360439 -6.597846 -12.698425 -3.367662 -12.698425 0
C -12.698425 3.367662 -11.360439 6.597846 -8.979142 8.979142
C -6.597846 11.360439 -3.367662 12.698425 0 12.698425
z
" style="stroke: #1f2937"/>
     </defs>
     <g>
      <use xlink:href="#md630280d07" x="547.037656" y="410.324531" style="fill: #d1d5db; stroke: #1f2937"/>
     </g>
    </g>
    <g id="text_35">
     <!-- 15 -->
     <g transform="translate(559.637656 412.162031) scale(0.07 -0.07)">
      <use xlink:href="#DejaVuSans-31"/>
      <use xlink:href="#DejaVuSans-35" transform="translate(63.623047 0)"/>
     </g>
    </g>
   </g>
  </g>
 </g>
 <defs>
  <clipPath id="p4d2e87baab">
   <rect x="34.240625" y="31.837812" width="558" height="388.08"/>
  </clipPath>
 </defs>
</svg>
