<?xml version="1.0" encoding="utf-8" standalone="no"?>
<!DOCTYPE svg PUBLIC "-//W3C//DTD SVG 1.1//EN"
  "http://www.w3.org/Graphics/SVG/1.1/DTD/svg11.dtd">
<svg xmlns:xlink="http://www.w3.org/1999/xlink" width="684pt" height="350.655825pt" viewBox="0 0 684 350.655825" xmlns="http://www.w3.org/2000/svg" version="1.1">
 <metadata>
  <rdf:RDF xmlns:dc="http://purl.org/dc/elements/1.1/" xmlns:cc="http://creativecommons.org/ns#" xmlns:rdf="http://www.w3.org/1999/02/22-rdf-syntax-ns#">
   <cc:Work>
    <dc:type rdf:resource="http://purl.org/dc/dcmitype/StillImage"/>
    <dc:format>image/svg+xml</dc:format>
    <dc:creator>
     <cc:Agent>
      <dc:title>template_gold_refinement</dc:title>
     </cc:Agent>
    </dc:creator>
   </cc:Work>
  </rdf:RDF>
 </metadata>
 <defs>
  <style type="text/css">*{stroke-linejoin: round; stroke-linecap: butt}</style>
 </defs>
 <g id="figure_1">
  <g id="patch_1">
   <path d="M 0 350.655825
L 684 350.655825
L 684 0
L 0 0
z
" style="fill: #ffffff"/>
  </g>
  <g id="axes_1">
   <g id="patch_2">
    <path d="M 73.928836 238.645803
Q 120.644183 242.589406 162.16053 239.084757
" clip-path="url(#p4dfc154ef4)" style="fill: none; stroke: #475569; stroke-width: 4.666667; stroke-linecap: round"/>
    <path d="M 156.34485 236.765736
L 162.16053 239.084757
L 156.815904 242.345889
z
" clip-path="url(#p4dfc154ef4)" style="fill: #475569; stroke: #475569; stroke-width: 4.666667; stroke-linecap: round"/>
   </g>
   <g id="patch_3">
    <path d="M 181.189748 230.927297
Q 239.661268 152.51499 279.904263 70.77997
" clip-path="url(#p4dfc154ef4)" style="fill: none; stroke: #475569; stroke-width: 6; stroke-linecap: round"/>
    <path d="M 274.918597 74.567204
L 279.904263 70.77997
L 279.94265 77.040843
z
" clip-path="url(#p4dfc154ef4)" style="fill: #475569; stroke: #475569; stroke-width: 6; stroke-linecap: round"/>
   </g>
   <g id="patch_4">
    <path d="M 290.456223 64.764388
Q 333.662609 152.517545 389.980495 228.041313
" clip-path="url(#p4dfc154ef4)" style="fill: none; stroke: #475569; stroke-width: 3.222667; stroke-linecap: round"/>
    <path d="M 388.877496 221.878246
L 389.980495 228.041313
L 384.388242 225.225872
z
" clip-path="url(#p4dfc154ef4)" style="fill: #475569; stroke: #475569; stroke-width: 3.222667; stroke-linecap: round"/>
   </g>
   <g id="patch_5">
    <path d="M 402.54512 230.927297
Q 461.01664 152.51499 503.187004 66.865413
" clip-path="url(#p4dfc154ef4)" style="fill: none; stroke: #475569; stroke-width: 2.097333; stroke-linecap: round"/>
    <path d="M 498.201338 70.652646
L 503.187004 66.865413
L 503.225391 73.126286
z
" clip-path="url(#p4dfc154ef4)" style="fill: #475569; stroke: #475569; stroke-width: 2.097333; stroke-linecap: round"/>
   </g>
   <g id="patch_6">
    <path d="M 511.811595 64.764388
Q 555.017981 152.517545 612.812475 230.021483
" clip-path="url(#p4dfc154ef4)" style="fill: none; stroke: #475569; stroke-width: 1.013333; stroke-linecap: round"/>
    <path d="M 611.709476 223.858416
L 612.812475 230.021483
L 607.220222 227.206042
z
" clip-path="url(#p4dfc154ef4)" style="fill: #475569; stroke: #475569; stroke-width: 1.013333; stroke-linecap: round"/>
   </g>
   <g id="text_1">
    <g id="patch_7">
     <path d="M 106.892685 241.260681
L 134.402279 241.260681
L 134.402279 234.440681
L 106.892685 234.440681
z
" clip-path="url(#p4dfc154ef4)" style="fill: #ffffff; opacity: 0.75"/>
    </g>
    <g clip-path="url(#p4dfc154ef4)">
     <!-- +0.2750 -->
     <g style="fill: #334155" transform="translate(107.202685 239.461228) scale(0.062 -0.062)">
      <defs>
       <path id="DejaVuSans-e" d="M 2944 4013
L 2944 2272
L 4684 2272
L 4684 1741
L 2944 1741
L 2944 0
L 2419 0
L 2419 1741
L 678 1741
L 678 2272
L 2419 2272
L 2419 4013
L 2944 4013
z
" transform="scale(0.015625)"/>
       <path id="DejaVuSans-13" d="M 2034 4250
Q 1547 4250 1301 3770
Q 1056 3291 1056 2328
Q 1056 1369 1301 889
Q 1547 409 2034 409
Q 2525 409 2770 889
Q 3016 1369 3016 2328
Q 3016 3291 2770 3770
Q 2525 4250 2034 4250
z
M 2034 4750
Q 2819 4750 3233 4129
Q 3647 3509 3647 2328
Q 3647 1150 3233 529
Q 2819 -91 2034 -91
Q 1250 -91 836 529
Q 422 1150 422 2328
Q 422 3509 836 4129
Q 1250 4750 2034 4750
z
" transform="scale(0.015625)"/>
       <path id="DejaVuSans-11" d="M 684 794
L 1344 794
L 1344 0
L 684 0
L 684 794
z
" transform="scale(0.015625)"/>
       <path id="DejaVuSans-15" d="M 1228 531
L 3431 531
L 3431 0
L 469 0
L 469 531
Q 828 903 1448 1529
Q 2069 2156 2228 2338
Q 2531 2678 2651 2914
Q 2772 3150 2772 3378
Q 2772 3750 2511 3984
Q 2250 4219 1831 4219
Q 1534 4219 1204 4116
Q 875 4013 500 3803
L 500 4441
Q 881 4594 1212 4672
Q 1544 4750 1819 4750
Q 2544 4750 2975 4387
Q 3406 4025 3406 3419
Q 3406 3131 3298 2873
Q 3191 2616 2906 2266
Q 2828 2175 2409 1742
Q 1991 1309 1228 531
z
" transform="scale(0.015625)"/>
       <path id="DejaVuSans-1a" d="M 525 4666
L 3525 4666
L 3525 4397
L 1831 0
L 1172 0
L 2766 4134
L 525 4134
L 525 4666
z
" transform="scale(0.015625)"/>
       <path id="DejaVuSans-18" d="M 691 4666
L 3169 4666
L 3169 4134
L 1269 4134
L 1269 2991
Q 1406 3038 1543 3061
Q 1681 3084 1819 3084
Q 2600 3084 3056 2656
Q 3513 2228 3513 1497
Q 3513 744 3044 326
Q 2575 -91 1722 -91
Q 1428 -91 1123 -41
Q 819 9 494 109
L 494 744
Q 775 591 1075 516
Q 1375 441 1709 441
Q 2250 441 2565 725
Q 2881 1009 2881 1497
Q 2881 1984 2565 2268
Q 2250 2553 1709 2553
Q 1456 2553 1204 2497
Q 953 2441 691 2322
L 691 4666
z
" transform="scale(0.015625)"/>
      </defs>
      <use xlink:href="#DejaVuSans-e"/>
      <use xlink:href="#DejaVuSans-13" transform="translate(83.796875 0)"/>
      <use xlink:href="#DejaVuSans-11" transform="translate(147.421875 0)"/>
      <use xlink:href="#DejaVuSans-15" transform="translate(179.203125 0)"/>
      <use xlink:href="#DejaVuSans-1a" transform="translate(242.828125 0)"/>
      <use xlink:href="#DejaVuSans-18" transform="translate(306.453125 0)"/>
      <use xlink:href="#DejaVuSans-13" transform="translate(370.078125 0)"/>
     </g>
    </g>
   </g>
   <g id="text_2">
    <g id="patch_8">
     <path d="M 217.567522 150.824069
L 245.077116 150.824069
L 245.077116 144.004069
L 217.567522 144.004069
z
" clip-path="url(#p4dfc154ef4)" style="fill: #ffffff; opacity: 0.75"/>
    </g>
    <g clip-path="url(#p4dfc154ef4)">
     <!-- +0.3750 -->
     <g style="fill: #334155" transform="translate(217.877522 149.024615) scale(0.062 -0.062)">
      <defs>
       <path id="DejaVuSans-16" d="M 2597 2516
Q 3050 2419 3304 2112
Q 3559 1806 3559 1356
Q 3559 666 3084 287
Q 2609 -91 1734 -91
Q 1441 -91 1130 -33
Q 819 25 488 141
L 488 750
Q 750 597 1062 519
Q 1375 441 1716 441
Q 2309 441 2620 675
Q 2931 909 2931 1356
Q 2931 1769 2642 2001
Q 2353 2234 1838 2234
L 1294 2234
L 1294 2753
L 1863 2753
Q 2328 2753 2575 2939
Q 2822 3125 2822 3475
Q 2822 3834 2567 4026
Q 2313 4219 1838 4219
Q 1578 4219 1281 4162
Q 984 4106 628 3988
L 628 4550
Q 988 4650 1302 4700
Q 1616 4750 1894 4750
Q 2613 4750 3031 4423
Q 3450 4097 3450 3541
Q 3450 3153 3228 2886
Q 3006 2619 2597 2516
z
" transform="scale(0.015625)"/>
      </defs>
      <use xlink:href="#DejaVuSans-e"/>
      <use xlink:href="#DejaVuSans-13" transform="translate(83.796875 0)"/>
      <use xlink:href="#DejaVuSans-11" transform="translate(147.421875 0)"/>
      <use xlink:href="#DejaVuSans-16" transform="translate(179.203125 0)"/>
      <use xlink:href="#DejaVuSans-1a" transform="translate(242.828125 0)"/>
      <use xlink:href="#DejaVuSans-18" transform="translate(306.453125 0)"/>
      <use xlink:href="#DejaVuSans-13" transform="translate(370.078125 0)"/>
     </g>
    </g>
   </g>
   <g id="text_3">
    <g id="patch_9">
     <path d="M 328.245208 150.824086
L 355.754802 150.824086
L 355.754802 144.004086
L 328.245208 144.004086
z
" clip-path="url(#p4dfc154ef4)" style="fill: #ffffff; opacity: 0.75"/>
    </g>
    <g clip-path="url(#p4dfc154ef4)">
     <!-- +0.1667 -->
     <g style="fill: #334155" transform="translate(328.555208 149.024632) scale(0.062 -0.062)">
      <defs>
       <path id="DejaVuSans-14" d="M 794 531
L 1825 531
L 1825 4091
L 703 3866
L 703 4441
L 1819 4666
L 2450 4666
L 2450 531
L 3481 531
L 3481 0
L 794 0
L 794 531
z
" transform="scale(0.015625)"/>
       <path id="DejaVuSans-19" d="M 2113 2584
Q 1688 2584 1439 2293
Q 1191 2003 1191 1497
Q 1191 994 1439 701
Q 1688 409 2113 409
Q 2538 409 2786 701
Q 3034 994 3034 1497
Q 3034 2003 2786 2293
Q 2538 2584 2113 2584
z
M 3366 4563
L 3366 3988
Q 3128 4100 2886 4159
Q 2644 4219 2406 4219
Q 1781 4219 1451 3797
Q 1122 3375 1075 2522
Q 1259 2794 1537 2939
Q 1816 3084 2150 3084
Q 2853 3084 3261 2657
Q 3669 2231 3669 1497
Q 3669 778 3244 343
Q 2819 -91 2113 -91
Q 1303 -91 875 529
Q 447 1150 447 2328
Q 447 3434 972 4092
Q 1497 4750 2381 4750
Q 2619 4750 2861 4703
Q 3103 4656 3366 4563
z
" transform="scale(0.015625)"/>
      </defs>
      <use xlink:href="#DejaVuSans-e"/>
      <use xlink:href="#DejaVuSans-13" transform="translate(83.796875 0)"/>
      <use xlink:href="#DejaVuSans-11" transform="translate(147.421875 0)"/>
      <use xlink:href="#DejaVuSans-14" transform="translate(179.203125 0)"/>
      <use xlink:href="#DejaVuSans-19" transform="translate(242.828125 0)"/>
      <use xlink:href="#DejaVuSans-19" transform="translate(306.453125 0)"/>
      <use xlink:href="#DejaVuSans-1a" transform="translate(370.078125 0)"/>
     </g>
    </g>
   </g>
   <g id="text_4">
    <g id="patch_10">
     <path d="M 438.922894 150.824069
L 466.432488 150.824069
L 466.432488 144.004069
L 438.922894 144.004069
z
" clip-path="url(#p4dfc154ef4)" style="fill: #ffffff; opacity: 0.75"/>
    </g>
    <g clip-path="url(#p4dfc154ef4)">
     <!-- +0.0823 -->
     <g style="fill: #334155" transform="translate(439.232894 149.024615) scale(0.062 -0.062)">
      <defs>
       <path id="DejaVuSans-1b" d="M 2034 2216
Q 1584 2216 1326 1975
Q 1069 1734 1069 1313
Q 1069 891 1326 650
Q 1584 409 2034 409
Q 2484 409 2743 651
Q 3003 894 3003 1313
Q 3003 1734 2745 1975
Q 2488 2216 2034 2216
z
M 1403 2484
Q 997 2584 770 2862
Q 544 3141 544 3541
Q 544 4100 942 4425
Q 1341 4750 2034 4750
Q 2731 4750 3128 4425
Q 3525 4100 3525 3541
Q 3525 3141 3298 2862
Q 3072 2584 2669 2484
Q 3125 2378 3379 2068
Q 3634 1759 3634 1313
Q 3634 634 3220 271
Q 2806 -91 2034 -91
Q 1263 -91 848 271
Q 434 634 434 1313
Q 434 1759 690 2068
Q 947 2378 1403 2484
z
M 1172 3481
Q 1172 3119 1398 2916
Q 1625 2713 2034 2713
Q 2441 2713 2670 2916
Q 2900 3119 2900 3481
Q 2900 3844 2670 4047
Q 2441 4250 2034 4250
Q 1625 4250 1398 4047
Q 1172 3844 1172 3481
z
" transform="scale(0.015625)"/>
      </defs>
      <use xlink:href="#DejaVuSans-e"/>
      <use xlink:href="#DejaVuSans-13" transform="translate(83.796875 0)"/>
      <use xlink:href="#DejaVuSans-11" transform="translate(147.421875 0)"/>
      <use xlink:href="#DejaVuSans-13" transform="translate(179.203125 0)"/>
      <use xlink:href="#DejaVuSans-1b" transform="translate(242.828125 0)"/>
      <use xlink:href="#DejaVuSans-15" transform="translate(306.453125 0)"/>
      <use xlink:href="#DejaVuSans-16" transform="translate(370.078125 0)"/>
     </g>
    </g>
   </g>
   <g id="text_5">
    <g id="patch_11">
     <path d="M 549.60058 150.824086
L 577.110174 150.824086
L 577.110174 144.004086
L 549.60058 144.004086
z
" clip-path="url(#p4dfc154ef4)" style="fill: #ffffff; opacity: 0.75"/>
    </g>
    <g clip-path="url(#p4dfc154ef4)">
     <!-- +0.0010 -->
     <g style="fill: #334155" transform="translate(549.91058 149.024632) scale(0.062 -0.062)">
      <use xlink:href="#DejaVuSans-e"/>
      <use xlink:href="#DejaVuSans-13" transform="translate(83.796875 0)"/>
      <use xlink:href="#DejaVuSans-11" transform="translate(147.421875 0)"/>
      <use xlink:href="#DejaVuSans-13" transform="translate(179.203125 0)"/>
      <use xlink:href="#DejaVuSans-13" transform="translate(242.828125 0)"/>
      <use xlink:href="#DejaVuSans-14" transform="translate(306.453125 0)"/>
      <use xlink:href="#DejaVuSans-13" transform="translate(370.078125 0)"/>
     </g>
    </g>
   </g>
   <g id="PathCollection_1">
    <defs>
     <path id="C0_0_e6a9a4e0f6" d="M 0 25
C 6.630078 25 12.989497 22.365842 17.67767 17.67767
C 22.365842 12.989497 25 6.630078 25 -0
C 25 -6.630078 22.365842 -12.989497 17.67767 -17.67767
C 12.989497 -22.365842 6.630078 -25 0 -25
C -6.630078 -25 -12.989497 -22.365842 -17.67767 -17.67767
C -22.365842 -12.989497 -25 -6.630078 -25 0
C -25 6.630078 -22.365842 12.989497 -17.67767 17.67767
C -12.989497 22.365842 -6.630078 25 0 25
z
"/>
    </defs>
    <g clip-path="url(#p4dfc154ef4)">
     <use xlink:href="#C0_0_e6a9a4e0f6" x="65.305785" y="237.850681" style="fill: #264653; fill-opacity: 0.94; stroke: #111827; stroke-opacity: 0.94; stroke-width: 0.8"/>
    </g>
    <g clip-path="url(#p4dfc154ef4)">
     <use xlink:href="#C0_0_e6a9a4e0f6" x="175.983471" y="237.850681" style="fill: #e9c46a; fill-opacity: 0.94; stroke: #111827; stroke-opacity: 0.94; stroke-width: 0.8"/>
    </g>
    <g clip-path="url(#p4dfc154ef4)">
     <use xlink:href="#C0_0_e6a9a4e0f6" x="286.661157" y="56.977473" style="fill: #e9c46a; fill-opacity: 0.94; stroke: #111827; stroke-opacity: 0.94; stroke-width: 0.8"/>
    </g>
    <g clip-path="url(#p4dfc154ef4)">
     <use xlink:href="#C0_0_e6a9a4e0f6" x="397.338843" y="237.850681" style="fill: #e9c46a; fill-opacity: 0.94; stroke: #111827; stroke-opacity: 0.94; stroke-width: 0.8"/>
    </g>
    <g clip-path="url(#p4dfc154ef4)">
     <use xlink:href="#C0_0_e6a9a4e0f6" x="508.016529" y="56.977473" style="fill: #e9c46a; fill-opacity: 0.94; stroke: #111827; stroke-opacity: 0.94; stroke-width: 0.8"/>
    </g>
    <g clip-path="url(#p4dfc154ef4)">
     <use xlink:href="#C0_0_e6a9a4e0f6" x="618.694215" y="237.850681" style="fill: #577590; fill-opacity: 0.94; stroke: #111827; stroke-opacity: 0.94; stroke-width: 0.8"/>
    </g>
   </g>
   <g id="text_6">
    <g clip-path="url(#p4dfc154ef4)">
     <!-- Input ore 10.00% -->
     <g style="fill: #111827" transform="translate(34.150598 239.720994) scale(0.072 -0.072)">
      <defs>
       <path id="DejaVuSans-2c" d="M 628 4666
L 1259 4666
L 1259 0
L 628 0
L 628 4666
z
" transform="scale(0.015625)"/>
       <path id="DejaVuSans-51" d="M 3513 2113
L 3513 0
L 2938 0
L 2938 2094
Q 2938 2591 2744 2837
Q 2550 3084 2163 3084
Q 1697 3084 1428 2787
Q 1159 2491 1159 1978
L 1159 0
L 581 0
L 581 3500
L 1159 3500
L 1159 2956
Q 1366 3272 1645 3428
Q 1925 3584 2291 3584
Q 2894 3584 3203 3211
Q 3513 2838 3513 2113
z
" transform="scale(0.015625)"/>
       <path id="DejaVuSans-53" d="M 1159 525
L 1159 -1331
L 581 -1331
L 581 3500
L 1159 3500
L 1159 2969
Q 1341 3281 1617 3432
Q 1894 3584 2278 3584
Q 2916 3584 3314 3078
Q 3713 2572 3713 1747
Q 3713 922 3314 415
Q 2916 -91 2278 -91
Q 1894 -91 1617 61
Q 1341 213 1159 525
z
M 3116 1747
Q 3116 2381 2855 2742
Q 2594 3103 2138 3103
Q 1681 3103 1420 2742
Q 1159 2381 1159 1747
Q 1159 1113 1420 752
Q 1681 391 2138 391
Q 2594 391 2855 752
Q 3116 1113 3116 1747
z
" transform="scale(0.015625)"/>
       <path id="DejaVuSans-58" d="M 544 1381
L 544 3500
L 1119 3500
L 1119 1403
Q 1119 906 1312 657
Q 1506 409 1894 409
Q 2359 409 2629 706
Q 2900 1003 2900 1516
L 2900 3500
L 3475 3500
L 3475 0
L 2900 0
L 2900 538
Q 2691 219 2414 64
Q 2138 -91 1772 -91
Q 1169 -91 856 284
Q 544 659 544 1381
z
M 1991 3584
L 1991 3584
z
" transform="scale(0.015625)"/>
       <path id="DejaVuSans-57" d="M 1172 4494
L 1172 3500
L 2356 3500
L 2356 3053
L 1172 3053
L 1172 1153
Q 1172 725 1289 603
Q 1406 481 1766 481
L 2356 481
L 2356 0
L 1766 0
Q 1100 0 847 248
Q 594 497 594 1153
L 594 3053
L 172 3053
L 172 3500
L 594 3500
L 594 4494
L 1172 4494
z
" transform="scale(0.015625)"/>
       <path id="DejaVuSans-3" transform="scale(0.015625)"/>
       <path id="DejaVuSans-52" d="M 1959 3097
Q 1497 3097 1228 2736
Q 959 2375 959 1747
Q 959 1119 1226 758
Q 1494 397 1959 397
Q 2419 397 2687 759
Q 2956 1122 2956 1747
Q 2956 2369 2687 2733
Q 2419 3097 1959 3097
z
M 1959 3584
Q 2709 3584 3137 3096
Q 3566 2609 3566 1747
Q 3566 888 3137 398
Q 2709 -91 1959 -91
Q 1206 -91 779 398
Q 353 888 353 1747
Q 353 2609 779 3096
Q 1206 3584 1959 3584
z
" transform="scale(0.015625)"/>
       <path id="DejaVuSans-55" d="M 2631 2963
Q 2534 3019 2420 3045
Q 2306 3072 2169 3072
Q 1681 3072 1420 2755
Q 1159 2438 1159 1844
L 1159 0
L 581 0
L 581 3500
L 1159 3500
L 1159 2956
Q 1341 3275 1631 3429
Q 1922 3584 2338 3584
Q 2397 3584 2469 3576
Q 2541 3569 2628 3553
L 2631 2963
z
" transform="scale(0.015625)"/>
       <path id="DejaVuSans-48" d="M 3597 1894
L 3597 1613
L 953 1613
Q 991 1019 1311 708
Q 1631 397 2203 397
Q 2534 397 2845 478
Q 3156 559 3463 722
L 3463 178
Q 3153 47 2828 -22
Q 2503 -91 2169 -91
Q 1331 -91 842 396
Q 353 884 353 1716
Q 353 2575 817 3079
Q 1281 3584 2069 3584
Q 2775 3584 3186 3129
Q 3597 2675 3597 1894
z
M 3022 2063
Q 3016 2534 2758 2815
Q 2500 3097 2075 3097
Q 1594 3097 1305 2825
Q 1016 2553 972 2059
L 3022 2063
z
" transform="scale(0.015625)"/>
       <path id="DejaVuSans-8" d="M 4653 2053
Q 4381 2053 4226 1822
Q 4072 1591 4072 1178
Q 4072 772 4226 539
Q 4381 306 4653 306
Q 4919 306 5073 539
Q 5228 772 5228 1178
Q 5228 1588 5073 1820
Q 4919 2053 4653 2053
z
M 4653 2450
Q 5147 2450 5437 2106
Q 5728 1763 5728 1178
Q 5728 594 5436 251
Q 5144 -91 4653 -91
Q 4153 -91 3862 251
Q 3572 594 3572 1178
Q 3572 1766 3864 2108
Q 4156 2450 4653 2450
z
M 1428 4353
Q 1159 4353 1004 4120
Q 850 3888 850 3481
Q 850 3069 1003 2837
Q 1156 2606 1428 2606
Q 1700 2606 1854 2837
Q 2009 3069 2009 3481
Q 2009 3884 1853 4118
Q 1697 4353 1428 4353
z
M 4250 4750
L 4750 4750
L 1831 -91
L 1331 -91
L 4250 4750
z
M 1428 4750
Q 1922 4750 2215 4408
Q 2509 4066 2509 3481
Q 2509 2891 2217 2550
Q 1925 2209 1428 2209
Q 931 2209 642 2551
Q 353 2894 353 3481
Q 353 4063 643 4406
Q 934 4750 1428 4750
z
" transform="scale(0.015625)"/>
      </defs>
      <use xlink:href="#DejaVuSans-2c"/>
      <use xlink:href="#DejaVuSans-51" transform="translate(29.5 0)"/>
      <use xlink:href="#DejaVuSans-53" transform="translate(92.875 0)"/>
      <use xlink:href="#DejaVuSans-58" transform="translate(156.359375 0)"/>
      <use xlink:href="#DejaVuSans-57" transform="translate(219.734375 0)"/>
      <use xlink:href="#DejaVuSans-3" transform="translate(258.9375 0)"/>
      <use xlink:href="#DejaVuSans-52" transform="translate(290.71875 0)"/>
      <use xlink:href="#DejaVuSans-55" transform="translate(351.90625 0)"/>
      <use xlink:href="#DejaVuSans-48" transform="translate(390.8125 0)"/>
      <use xlink:href="#DejaVuSans-3" transform="translate(452.34375 0)"/>
      <use xlink:href="#DejaVuSans-14" transform="translate(484.125 0)"/>
      <use xlink:href="#DejaVuSans-13" transform="translate(547.75 0)"/>
      <use xlink:href="#DejaVuSans-11" transform="translate(611.375 0)"/>
      <use xlink:href="#DejaVuSans-13" transform="translate(643.15625 0)"/>
      <use xlink:href="#DejaVuSans-13" transform="translate(706.78125 0)"/>
      <use xlink:href="#DejaVuSans-8" transform="translate(770.40625 0)"/>
     </g>
    </g>
   </g>
   <g id="text_7">
    <g clip-path="url(#p4dfc154ef4)">
     <!-- 1. ore 9K 37.50% -->
     <g style="fill: #111827" transform="translate(144.919971 239.720994) scale(0.072 -0.072)">
      <defs>
       <path id="DejaVuSans-1c" d="M 703 97
L 703 672
Q 941 559 1184 500
Q 1428 441 1663 441
Q 2288 441 2617 861
Q 2947 1281 2994 2138
Q 2813 1869 2534 1725
Q 2256 1581 1919 1581
Q 1219 1581 811 2004
Q 403 2428 403 3163
Q 403 3881 828 4315
Q 1253 4750 1959 4750
Q 2769 4750 3195 4129
Q 3622 3509 3622 2328
Q 3622 1225 3098 567
Q 2575 -91 1691 -91
Q 1453 -91 1209 -44
Q 966 3 703 97
z
M 1959 2075
Q 2384 2075 2632 2365
Q 2881 2656 2881 3163
Q 2881 3666 2632 3958
Q 2384 4250 1959 4250
Q 1534 4250 1286 3958
Q 1038 3666 1038 3163
Q 1038 2656 1286 2365
Q 1534 2075 1959 2075
z
" transform="scale(0.015625)"/>
       <path id="DejaVuSans-2e" d="M 628 4666
L 1259 4666
L 1259 2694
L 3353 4666
L 4166 4666
L 1850 2491
L 4331 0
L 3500 0
L 1259 2247
L 1259 0
L 628 0
L 628 4666
z
" transform="scale(0.015625)"/>
      </defs>
      <use xlink:href="#DejaVuSans-14"/>
      <use xlink:href="#DejaVuSans-11" transform="translate(63.625 0)"/>
      <use xlink:href="#DejaVuSans-3" transform="translate(95.40625 0)"/>
      <use xlink:href="#DejaVuSans-52" transform="translate(127.1875 0)"/>
      <use xlink:href="#DejaVuSans-55" transform="translate(188.375 0)"/>
      <use xlink:href="#DejaVuSans-48" transform="translate(227.28125 0)"/>
      <use xlink:href="#DejaVuSans-3" transform="translate(288.8125 0)"/>
      <use xlink:href="#DejaVuSans-1c" transform="translate(320.59375 0)"/>
      <use xlink:href="#DejaVuSans-2e" transform="translate(384.21875 0)"/>
      <use xlink:href="#DejaVuSans-3" transform="translate(449.796875 0)"/>
      <use xlink:href="#DejaVuSans-16" transform="translate(481.578125 0)"/>
      <use xlink:href="#DejaVuSans-1a" transform="translate(545.203125 0)"/>
      <use xlink:href="#DejaVuSans-11" transform="translate(608.828125 0)"/>
      <use xlink:href="#DejaVuSans-18" transform="translate(640.609375 0)"/>
      <use xlink:href="#DejaVuSans-13" transform="translate(704.234375 0)"/>
      <use xlink:href="#DejaVuSans-8" transform="translate(767.859375 0)"/>
     </g>
    </g>
   </g>
   <g id="text_8">
    <g clip-path="url(#p4dfc154ef4)">
     <!-- 2. smelting 18K -->
     <g style="fill: #111827" transform="translate(258.420845 54.527364) scale(0.072 -0.072)">
      <defs>
       <path id="DejaVuSans-56" d="M 2834 3397
L 2834 2853
Q 2591 2978 2328 3040
Q 2066 3103 1784 3103
Q 1356 3103 1142 2972
Q 928 2841 928 2578
Q 928 2378 1081 2264
Q 1234 2150 1697 2047
L 1894 2003
Q 2506 1872 2764 1633
Q 3022 1394 3022 966
Q 3022 478 2636 193
Q 2250 -91 1575 -91
Q 1294 -91 989 -36
Q 684 19 347 128
L 347 722
Q 666 556 975 473
Q 1284 391 1588 391
Q 1994 391 2212 530
Q 2431 669 2431 922
Q 2431 1156 2273 1281
Q 2116 1406 1581 1522
L 1381 1569
Q 847 1681 609 1914
Q 372 2147 372 2553
Q 372 3047 722 3315
Q 1072 3584 1716 3584
Q 2034 3584 2315 3537
Q 2597 3491 2834 3397
z
" transform="scale(0.015625)"/>
       <path id="DejaVuSans-50" d="M 3328 2828
Q 3544 3216 3844 3400
Q 4144 3584 4550 3584
Q 5097 3584 5394 3201
Q 5691 2819 5691 2113
L 5691 0
L 5113 0
L 5113 2094
Q 5113 2597 4934 2840
Q 4756 3084 4391 3084
Q 3944 3084 3684 2787
Q 3425 2491 3425 1978
L 3425 0
L 2847 0
L 2847 2094
Q 2847 2600 2669 2842
Q 2491 3084 2119 3084
Q 1678 3084 1418 2786
Q 1159 2488 1159 1978
L 1159 0
L 581 0
L 581 3500
L 1159 3500
L 1159 2956
Q 1356 3278 1631 3431
Q 1906 3584 2284 3584
Q 2666 3584 2933 3390
Q 3200 3197 3328 2828
z
" transform="scale(0.015625)"/>
       <path id="DejaVuSans-4f" d="M 603 4863
L 1178 4863
L 1178 0
L 603 0
L 603 4863
z
" transform="scale(0.015625)"/>
       <path id="DejaVuSans-4c" d="M 603 3500
L 1178 3500
L 1178 0
L 603 0
L 603 3500
z
M 603 4863
L 1178 4863
L 1178 4134
L 603 4134
L 603 4863
z
" transform="scale(0.015625)"/>
       <path id="DejaVuSans-4a" d="M 2906 1791
Q 2906 2416 2648 2759
Q 2391 3103 1925 3103
Q 1463 3103 1205 2759
Q 947 2416 947 1791
Q 947 1169 1205 825
Q 1463 481 1925 481
Q 2391 481 2648 825
Q 2906 1169 2906 1791
z
M 3481 434
Q 3481 -459 3084 -895
Q 2688 -1331 1869 -1331
Q 1566 -1331 1297 -1286
Q 1028 -1241 775 -1147
L 775 -588
Q 1028 -725 1275 -790
Q 1522 -856 1778 -856
Q 2344 -856 2625 -561
Q 2906 -266 2906 331
L 2906 616
Q 2728 306 2450 153
Q 2172 0 1784 0
Q 1141 0 747 490
Q 353 981 353 1791
Q 353 2603 747 3093
Q 1141 3584 1784 3584
Q 2172 3584 2450 3431
Q 2728 3278 2906 2969
L 2906 3500
L 3481 3500
L 3481 434
z
" transform="scale(0.015625)"/>
      </defs>
      <use xlink:href="#DejaVuSans-15"/>
      <use xlink:href="#DejaVuSans-11" transform="translate(63.625 0)"/>
      <use xlink:href="#DejaVuSans-3" transform="translate(95.40625 0)"/>
      <use xlink:href="#DejaVuSans-56" transform="translate(127.1875 0)"/>
      <use xlink:href="#DejaVuSans-50" transform="translate(179.28125 0)"/>
      <use xlink:href="#DejaVuSans-48" transform="translate(276.6875 0)"/>
      <use xlink:href="#DejaVuSans-4f" transform="translate(338.21875 0)"/>
      <use xlink:href="#DejaVuSans-57" transform="translate(366 0)"/>
      <use xlink:href="#DejaVuSans-4c" transform="translate(405.203125 0)"/>
      <use xlink:href="#DejaVuSans-51" transform="translate(432.984375 0)"/>
      <use xlink:href="#DejaVuSans-4a" transform="translate(496.359375 0)"/>
      <use xlink:href="#DejaVuSans-3" transform="translate(559.84375 0)"/>
      <use xlink:href="#DejaVuSans-14" transform="translate(591.625 0)"/>
      <use xlink:href="#DejaVuSans-1b" transform="translate(655.25 0)"/>
      <use xlink:href="#DejaVuSans-2e" transform="translate(718.875 0)"/>
     </g>
    </g>
    <g clip-path="url(#p4dfc154ef4)">
     <!-- 75.00% -->
     <g style="fill: #111827" transform="translate(272.93447 63.16877) scale(0.072 -0.072)">
      <use xlink:href="#DejaVuSans-1a"/>
      <use xlink:href="#DejaVuSans-18" transform="translate(63.625 0)"/>
      <use xlink:href="#DejaVuSans-11" transform="translate(127.25 0)"/>
      <use xlink:href="#DejaVuSans-13" transform="translate(159.03125 0)"/>
      <use xlink:href="#DejaVuSans-13" transform="translate(222.65625 0)"/>
      <use xlink:href="#DejaVuSans-8" transform="translate(286.28125 0)"/>
     </g>
    </g>
   </g>
   <g id="text_9">
    <g clip-path="url(#p4dfc154ef4)">
     <!-- 3. assaying 22K -->
     <g style="fill: #111827" transform="translate(368.813343 235.400572) scale(0.072 -0.072)">
      <defs>
       <path id="DejaVuSans-44" d="M 2194 1759
Q 1497 1759 1228 1600
Q 959 1441 959 1056
Q 959 750 1161 570
Q 1363 391 1709 391
Q 2188 391 2477 730
Q 2766 1069 2766 1631
L 2766 1759
L 2194 1759
z
M 3341 1997
L 3341 0
L 2766 0
L 2766 531
Q 2569 213 2275 61
Q 1981 -91 1556 -91
Q 1019 -91 701 211
Q 384 513 384 1019
Q 384 1609 779 1909
Q 1175 2209 1959 2209
L 2766 2209
L 2766 2266
Q 2766 2663 2505 2880
Q 2244 3097 1772 3097
Q 1472 3097 1187 3025
Q 903 2953 641 2809
L 641 3341
Q 956 3463 1253 3523
Q 1550 3584 1831 3584
Q 2591 3584 2966 3190
Q 3341 2797 3341 1997
z
" transform="scale(0.015625)"/>
       <path id="DejaVuSans-5c" d="M 2059 -325
Q 1816 -950 1584 -1140
Q 1353 -1331 966 -1331
L 506 -1331
L 506 -850
L 844 -850
Q 1081 -850 1212 -737
Q 1344 -625 1503 -206
L 1606 56
L 191 3500
L 800 3500
L 1894 763
L 2988 3500
L 3597 3500
L 2059 -325
z
" transform="scale(0.015625)"/>
      </defs>
      <use xlink:href="#DejaVuSans-16"/>
      <use xlink:href="#DejaVuSans-11" transform="translate(63.625 0)"/>
      <use xlink:href="#DejaVuSans-3" transform="translate(95.40625 0)"/>
      <use xlink:href="#DejaVuSans-44" transform="translate(127.1875 0)"/>
      <use xlink:href="#DejaVuSans-56" transform="translate(188.46875 0)"/>
      <use xlink:href="#DejaVuSans-56" transform="translate(240.5625 0)"/>
      <use xlink:href="#DejaVuSans-44" transform="translate(292.65625 0)"/>
      <use xlink:href="#DejaVuSans-5c" transform="translate(353.9375 0)"/>
      <use xlink:href="#DejaVuSans-4c" transform="translate(413.125 0)"/>
      <use xlink:href="#DejaVuSans-51" transform="translate(440.90625 0)"/>
      <use xlink:href="#DejaVuSans-4a" transform="translate(504.28125 0)"/>
      <use xlink:href="#DejaVuSans-3" transform="translate(567.765625 0)"/>
      <use xlink:href="#DejaVuSans-15" transform="translate(599.546875 0)"/>
      <use xlink:href="#DejaVuSans-15" transform="translate(663.171875 0)"/>
      <use xlink:href="#DejaVuSans-2e" transform="translate(726.796875 0)"/>
     </g>
    </g>
    <g clip-path="url(#p4dfc154ef4)">
     <!-- 91.67% -->
     <g style="fill: #111827" transform="translate(383.612155 244.041978) scale(0.072 -0.072)">
      <use xlink:href="#DejaVuSans-1c"/>
      <use xlink:href="#DejaVuSans-14" transform="translate(63.625 0)"/>
      <use xlink:href="#DejaVuSans-11" transform="translate(127.25 0)"/>
      <use xlink:href="#DejaVuSans-19" transform="translate(159.03125 0)"/>
      <use xlink:href="#DejaVuSans-1a" transform="translate(222.65625 0)"/>
      <use xlink:href="#DejaVuSans-8" transform="translate(286.28125 0)"/>
     </g>
    </g>
   </g>
   <g id="text_10">
    <g clip-path="url(#p4dfc154ef4)">
     <!-- 4. cupellation 24K -->
     <g style="fill: #111827" transform="translate(475.488279 54.527364) scale(0.072 -0.072)">
      <defs>
       <path id="DejaVuSans-17" d="M 2419 4116
L 825 1625
L 2419 1625
L 2419 4116
z
M 2253 4666
L 3047 4666
L 3047 1625
L 3713 1625
L 3713 1100
L 3047 1100
L 3047 0
L 2419 0
L 2419 1100
L 313 1100
L 313 1709
L 2253 4666
z
" transform="scale(0.015625)"/>
       <path id="DejaVuSans-46" d="M 3122 3366
L 3122 2828
Q 2878 2963 2633 3030
Q 2388 3097 2138 3097
Q 1578 3097 1268 2742
Q 959 2388 959 1747
Q 959 1106 1268 751
Q 1578 397 2138 397
Q 2388 397 2633 464
Q 2878 531 3122 666
L 3122 134
Q 2881 22 2623 -34
Q 2366 -91 2075 -91
Q 1284 -91 818 406
Q 353 903 353 1747
Q 353 2603 823 3093
Q 1294 3584 2113 3584
Q 2378 3584 2631 3529
Q 2884 3475 3122 3366
z
" transform="scale(0.015625)"/>
      </defs>
      <use xlink:href="#DejaVuSans-17"/>
      <use xlink:href="#DejaVuSans-11" transform="translate(63.625 0)"/>
      <use xlink:href="#DejaVuSans-3" transform="translate(95.40625 0)"/>
      <use xlink:href="#DejaVuSans-46" transform="translate(127.1875 0)"/>
      <use xlink:href="#DejaVuSans-58" transform="translate(182.171875 0)"/>
      <use xlink:href="#DejaVuSans-53" transform="translate(245.546875 0)"/>
      <use xlink:href="#DejaVuSans-48" transform="translate(309.03125 0)"/>
      <use xlink:href="#DejaVuSans-4f" transform="translate(370.5625 0)"/>
      <use xlink:href="#DejaVuSans-4f" transform="translate(398.34375 0)"/>
      <use xlink:href="#DejaVuSans-44" transform="translate(426.125 0)"/>
      <use xlink:href="#DejaVuSans-57" transform="translate(487.40625 0)"/>
      <use xlink:href="#DejaVuSans-4c" transform="translate(526.609375 0)"/>
      <use xlink:href="#DejaVuSans-52" transform="translate(554.390625 0)"/>
      <use xlink:href="#DejaVuSans-51" transform="translate(615.578125 0)"/>
      <use xlink:href="#DejaVuSans-3" transform="translate(678.953125 0)"/>
      <use xlink:href="#DejaVuSans-15" transform="translate(710.734375 0)"/>
      <use xlink:href="#DejaVuSans-17" transform="translate(774.359375 0)"/>
      <use xlink:href="#DejaVuSans-2e" transform="translate(837.984375 0)"/>
     </g>
    </g>
    <g clip-path="url(#p4dfc154ef4)">
     <!-- 99.900% -->
     <g style="fill: #111827" transform="translate(491.999341 63.16877) scale(0.072 -0.072)">
      <use xlink:href="#DejaVuSans-1c"/>
      <use xlink:href="#DejaVuSans-1c" transform="translate(63.625 0)"/>
      <use xlink:href="#DejaVuSans-11" transform="translate(127.25 0)"/>
      <use xlink:href="#DejaVuSans-1c" transform="translate(159.03125 0)"/>
      <use xlink:href="#DejaVuSans-13" transform="translate(222.65625 0)"/>
      <use xlink:href="#DejaVuSans-13" transform="translate(286.28125 0)"/>
      <use xlink:href="#DejaVuSans-8" transform="translate(349.90625 0)"/>
     </g>
    </g>
   </g>
   <g id="text_11">
    <g clip-path="url(#p4dfc154ef4)">
     <!-- 5. certification -->
     <g style="fill: #111827" transform="translate(592.68084 222.437337) scale(0.072 -0.072)">
      <defs>
       <path id="DejaVuSans-13af" d="M 3431 3500
L 3431 0
L 2853 0
L 2853 3053
L 1275 3053
L 1275 0
L 697 0
L 697 3053
L 147 3053
L 147 3500
L 697 3500
L 697 3744
Q 697 4316 967 4589
Q 1238 4863 1797 4863
L 2375 4863
L 2375 4384
L 1825 4384
Q 1516 4384 1395 4259
Q 1275 4134 1275 3809
L 1275 3500
L 3431 3500
z
M 2853 4856
L 3431 4856
L 3431 4128
L 2853 4128
L 2853 4856
z
" transform="scale(0.015625)"/>
      </defs>
      <use xlink:href="#DejaVuSans-18"/>
      <use xlink:href="#DejaVuSans-11" transform="translate(63.625 0)"/>
      <use xlink:href="#DejaVuSans-3" transform="translate(95.40625 0)"/>
      <use xlink:href="#DejaVuSans-46" transform="translate(127.1875 0)"/>
      <use xlink:href="#DejaVuSans-48" transform="translate(182.171875 0)"/>
      <use xlink:href="#DejaVuSans-55" transform="translate(243.703125 0)"/>
      <use xlink:href="#DejaVuSans-57" transform="translate(284.8125 0)"/>
      <use xlink:href="#DejaVuSans-4c" transform="translate(324.015625 0)"/>
      <use xlink:href="#DejaVuSans-13af" transform="translate(351.796875 0)"/>
      <use xlink:href="#DejaVuSans-46" transform="translate(414.78125 0)"/>
      <use xlink:href="#DejaVuSans-44" transform="translate(469.765625 0)"/>
      <use xlink:href="#DejaVuSans-57" transform="translate(531.046875 0)"/>
      <use xlink:href="#DejaVuSans-4c" transform="translate(570.25 0)"/>
      <use xlink:href="#DejaVuSans-52" transform="translate(598.03125 0)"/>
      <use xlink:href="#DejaVuSans-51" transform="translate(659.21875 0)"/>
     </g>
    </g>
    <g clip-path="url(#p4dfc154ef4)">
     <!-- 24K (nine-nines -->
     <g style="fill: #111827" transform="translate(590.473027 231.079306) scale(0.072 -0.072)">
      <defs>
       <path id="DejaVuSans-b" d="M 1984 4856
Q 1566 4138 1362 3434
Q 1159 2731 1159 2009
Q 1159 1288 1364 580
Q 1569 -128 1984 -844
L 1484 -844
Q 1016 -109 783 600
Q 550 1309 550 2009
Q 550 2706 781 3412
Q 1013 4119 1484 4856
L 1984 4856
z
" transform="scale(0.015625)"/>
       <path id="DejaVuSans-10" d="M 313 2009
L 1997 2009
L 1997 1497
L 313 1497
L 313 2009
z
" transform="scale(0.015625)"/>
      </defs>
      <use xlink:href="#DejaVuSans-15"/>
      <use xlink:href="#DejaVuSans-17" transform="translate(63.625 0)"/>
      <use xlink:href="#DejaVuSans-2e" transform="translate(127.25 0)"/>
      <use xlink:href="#DejaVuSans-3" transform="translate(192.828125 0)"/>
      <use xlink:href="#DejaVuSans-b" transform="translate(224.609375 0)"/>
      <use xlink:href="#DejaVuSans-51" transform="translate(263.625 0)"/>
      <use xlink:href="#DejaVuSans-4c" transform="translate(327 0)"/>
      <use xlink:href="#DejaVuSans-51" transform="translate(354.78125 0)"/>
      <use xlink:href="#DejaVuSans-48" transform="translate(418.15625 0)"/>
      <use xlink:href="#DejaVuSans-10" transform="translate(479.6875 0)"/>
      <use xlink:href="#DejaVuSans-51" transform="translate(515.765625 0)"/>
      <use xlink:href="#DejaVuSans-4c" transform="translate(579.140625 0)"/>
      <use xlink:href="#DejaVuSans-51" transform="translate(606.921875 0)"/>
      <use xlink:href="#DejaVuSans-48" transform="translate(670.296875 0)"/>
      <use xlink:href="#DejaVuSans-56" transform="translate(731.828125 0)"/>
     </g>
    </g>
    <g clip-path="url(#p4dfc154ef4)">
     <!-- certified) -->
     <g style="fill: #111827" transform="translate(602.435715 239.721275) scale(0.072 -0.072)">
      <defs>
       <path id="DejaVuSans-47" d="M 2906 2969
L 2906 4863
L 3481 4863
L 3481 0
L 2906 0
L 2906 525
Q 2725 213 2448 61
Q 2172 -91 1784 -91
Q 1150 -91 751 415
Q 353 922 353 1747
Q 353 2572 751 3078
Q 1150 3584 1784 3584
Q 2172 3584 2448 3432
Q 2725 3281 2906 2969
z
M 947 1747
Q 947 1113 1208 752
Q 1469 391 1925 391
Q 2381 391 2643 752
Q 2906 1113 2906 1747
Q 2906 2381 2643 2742
Q 2381 3103 1925 3103
Q 1469 3103 1208 2742
Q 947 2381 947 1747
z
" transform="scale(0.015625)"/>
       <path id="DejaVuSans-c" d="M 513 4856
L 1013 4856
Q 1481 4119 1714 3412
Q 1947 2706 1947 2009
Q 1947 1309 1714 600
Q 1481 -109 1013 -844
L 513 -844
Q 928 -128 1133 580
Q 1338 1288 1338 2009
Q 1338 2731 1133 3434
Q 928 4138 513 4856
z
" transform="scale(0.015625)"/>
      </defs>
      <use xlink:href="#DejaVuSans-46"/>
      <use xlink:href="#DejaVuSans-48" transform="translate(54.984375 0)"/>
      <use xlink:href="#DejaVuSans-55" transform="translate(116.515625 0)"/>
      <use xlink:href="#DejaVuSans-57" transform="translate(157.625 0)"/>
      <use xlink:href="#DejaVuSans-4c" transform="translate(196.828125 0)"/>
      <use xlink:href="#DejaVuSans-13af" transform="translate(224.609375 0)"/>
      <use xlink:href="#DejaVuSans-48" transform="translate(287.59375 0)"/>
      <use xlink:href="#DejaVuSans-47" transform="translate(349.125 0)"/>
      <use xlink:href="#DejaVuSans-c" transform="translate(412.609375 0)"/>
     </g>
    </g>
    <g clip-path="url(#p4dfc154ef4)">
     <!-- 99.9999999% (nine- -->
     <g style="fill: #111827" transform="translate(581.889277 248.363244) scale(0.072 -0.072)">
      <use xlink:href="#DejaVuSans-1c"/>
      <use xlink:href="#DejaVuSans-1c" transform="translate(63.625 0)"/>
      <use xlink:href="#DejaVuSans-11" transform="translate(127.25 0)"/>
      <use xlink:href="#DejaVuSans-1c" transform="translate(159.03125 0)"/>
      <use xlink:href="#DejaVuSans-1c" transform="translate(222.65625 0)"/>
      <use xlink:href="#DejaVuSans-1c" transform="translate(286.28125 0)"/>
      <use xlink:href="#DejaVuSans-1c" transform="translate(349.90625 0)"/>
      <use xlink:href="#DejaVuSans-1c" transform="translate(413.53125 0)"/>
      <use xlink:href="#DejaVuSans-1c" transform="translate(477.15625 0)"/>
      <use xlink:href="#DejaVuSans-1c" transform="translate(540.78125 0)"/>
      <use xlink:href="#DejaVuSans-8" transform="translate(604.40625 0)"/>
      <use xlink:href="#DejaVuSans-3" transform="translate(699.421875 0)"/>
      <use xlink:href="#DejaVuSans-b" transform="translate(731.203125 0)"/>
      <use xlink:href="#DejaVuSans-51" transform="translate(770.21875 0)"/>
      <use xlink:href="#DejaVuSans-4c" transform="translate(833.59375 0)"/>
      <use xlink:href="#DejaVuSans-51" transform="translate(861.375 0)"/>
      <use xlink:href="#DejaVuSans-48" transform="translate(924.75 0)"/>
      <use xlink:href="#DejaVuSans-10" transform="translate(986.28125 0)"/>
     </g>
    </g>
    <g clip-path="url(#p4dfc154ef4)">
     <!-- nines) -->
     <g style="fill: #111827" transform="translate(607.636027 257.005212) scale(0.072 -0.072)">
      <use xlink:href="#DejaVuSans-51"/>
      <use xlink:href="#DejaVuSans-4c" transform="translate(63.375 0)"/>
      <use xlink:href="#DejaVuSans-51" transform="translate(91.15625 0)"/>
      <use xlink:href="#DejaVuSans-48" transform="translate(154.53125 0)"/>
      <use xlink:href="#DejaVuSans-56" transform="translate(216.0625 0)"/>
      <use xlink:href="#DejaVuSans-c" transform="translate(268.15625 0)"/>
     </g>
    </g>
   </g>
   <g id="text_12">
    <!-- Edge width encodes stage purity gain; final node encodes nine-nines certification. -->
    <g style="fill: #334155" transform="translate(167.098555 341.413832) scale(0.085 -0.085)">
     <defs>
      <path id="DejaVuSans-28" d="M 628 4666
L 3578 4666
L 3578 4134
L 1259 4134
L 1259 2753
L 3481 2753
L 3481 2222
L 1259 2222
L 1259 531
L 3634 531
L 3634 0
L 628 0
L 628 4666
z
" transform="scale(0.015625)"/>
      <path id="DejaVuSans-5a" d="M 269 3500
L 844 3500
L 1563 769
L 2278 3500
L 2956 3500
L 3675 769
L 4391 3500
L 4966 3500
L 4050 0
L 3372 0
L 2619 2869
L 1863 0
L 1184 0
L 269 3500
z
" transform="scale(0.015625)"/>
      <path id="DejaVuSans-4b" d="M 3513 2113
L 3513 0
L 2938 0
L 2938 2094
Q 2938 2591 2744 2837
Q 2550 3084 2163 3084
Q 1697 3084 1428 2787
Q 1159 2491 1159 1978
L 1159 0
L 581 0
L 581 4863
L 1159 4863
L 1159 2956
Q 1366 3272 1645 3428
Q 1925 3584 2291 3584
Q 2894 3584 3203 3211
Q 3513 2838 3513 2113
z
" transform="scale(0.015625)"/>
      <path id="DejaVuSans-1e" d="M 750 3309
L 1409 3309
L 1409 2516
L 750 2516
L 750 3309
z
M 750 794
L 1409 794
L 1409 256
L 897 -744
L 494 -744
L 750 256
L 750 794
z
" transform="scale(0.015625)"/>
     </defs>
     <use xlink:href="#DejaVuSans-28"/>
     <use xlink:href="#DejaVuSans-47" transform="translate(63.1875 0)"/>
     <use xlink:href="#DejaVuSans-4a" transform="translate(126.671875 0)"/>
     <use xlink:href="#DejaVuSans-48" transform="translate(190.15625 0)"/>
     <use xlink:href="#DejaVuSans-3" transform="translate(251.6875 0)"/>
     <use xlink:href="#DejaVuSans-5a" transform="translate(283.46875 0)"/>
     <use xlink:href="#DejaVuSans-4c" transform="translate(365.25 0)"/>
     <use xlink:href="#DejaVuSans-47" transform="translate(393.03125 0)"/>
     <use xlink:href="#DejaVuSans-57" transform="translate(456.515625 0)"/>
     <use xlink:href="#DejaVuSans-4b" transform="translate(495.71875 0)"/>
     <use xlink:href="#DejaVuSans-3" transform="translate(559.09375 0)"/>
     <use xlink:href="#DejaVuSans-48" transform="translate(590.875 0)"/>
     <use xlink:href="#DejaVuSans-51" transform="translate(652.40625 0)"/>
     <use xlink:href="#DejaVuSans-46" transform="translate(715.78125 0)"/>
     <use xlink:href="#DejaVuSans-52" transform="translate(770.765625 0)"/>
     <use xlink:href="#DejaVuSans-47" transform="translate(831.953125 0)"/>
     <use xlink:href="#DejaVuSans-48" transform="translate(895.4375 0)"/>
     <use xlink:href="#DejaVuSans-56" transform="translate(956.96875 0)"/>
     <use xlink:href="#DejaVuSans-3" transform="translate(1009.0625 0)"/>
     <use xlink:href="#DejaVuSans-56" transform="translate(1040.84375 0)"/>
     <use xlink:href="#DejaVuSans-57" transform="translate(1092.9375 0)"/>
     <use xlink:href="#DejaVuSans-44" transform="translate(1132.140625 0)"/>
     <use xlink:href="#DejaVuSans-4a" transform="translate(1193.421875 0)"/>
     <use xlink:href="#DejaVuSans-48" transform="translate(1256.90625 0)"/>
     <use xlink:href="#DejaVuSans-3" transform="translate(1318.4375 0)"/>
     <use xlink:href="#DejaVuSans-53" transform="translate(1350.21875 0)"/>
     <use xlink:href="#DejaVuSans-58" transform="translate(1413.703125 0)"/>
     <use xlink:href="#DejaVuSans-55" transform="translate(1477.078125 0)"/>
     <use xlink:href="#DejaVuSans-4c" transform="translate(1518.1875 0)"/>
     <use xlink:href="#DejaVuSans-57" transform="translate(1545.96875 0)"/>
     <use xlink:href="#DejaVuSans-5c" transform="translate(1585.171875 0)"/>
     <use xlink:href="#DejaVuSans-3" transform="translate(1644.359375 0)"/>
     <use xlink:href="#DejaVuSans-4a" transform="translate(1676.140625 0)"/>
     <use xlink:href="#DejaVuSans-44" transform="translate(1739.625 0)"/>
     <use xlink:href="#DejaVuSans-4c" transform="translate(1800.90625 0)"/>
     <use xlink:href="#DejaVuSans-51" transform="translate(1828.6875 0)"/>
     <use xlink:href="#DejaVuSans-1e" transform="translate(1892.0625 0)"/>
     <use xlink:href="#DejaVuSans-3" transform="translate(1925.75 0)"/>
     <use xlink:href="#DejaVuSans-13af" transform="translate(1957.53125 0)"/>
     <use xlink:href="#DejaVuSans-51" transform="translate(2020.515625 0)"/>
     <use xlink:href="#DejaVuSans-44" transform="translate(2083.890625 0)"/>
     <use xlink:href="#DejaVuSans-4f" transform="translate(2145.171875 0)"/>
     <use xlink:href="#DejaVuSans-3" transform="translate(2172.953125 0)"/>
     <use xlink:href="#DejaVuSans-51" transform="translate(2204.734375 0)"/>
     <use xlink:href="#DejaVuSans-52" transform="translate(2268.109375 0)"/>
     <use xlink:href="#DejaVuSans-47" transform="translate(2329.296875 0)"/>
     <use xlink:href="#DejaVuSans-48" transform="translate(2392.78125 0)"/>
     <use xlink:href="#DejaVuSans-3" transform="translate(2454.3125 0)"/>
     <use xlink:href="#DejaVuSans-48" transform="translate(2486.09375 0)"/>
     <use xlink:href="#DejaVuSans-51" transform="translate(2547.625 0)"/>
     <use xlink:href="#DejaVuSans-46" transform="translate(2611 0)"/>
     <use xlink:href="#DejaVuSans-52" transform="translate(2665.984375 0)"/>
     <use xlink:href="#DejaVuSans-47" transform="translate(2727.171875 0)"/>
     <use xlink:href="#DejaVuSans-48" transform="translate(2790.65625 0)"/>
     <use xlink:href="#DejaVuSans-56" transform="translate(2852.1875 0)"/>
     <use xlink:href="#DejaVuSans-3" transform="translate(2904.28125 0)"/>
     <use xlink:href="#DejaVuSans-51" transform="translate(2936.0625 0)"/>
     <use xlink:href="#DejaVuSans-4c" transform="translate(2999.4375 0)"/>
     <use xlink:href="#DejaVuSans-51" transform="translate(3027.21875 0)"/>
     <use xlink:href="#DejaVuSans-48" transform="translate(3090.59375 0)"/>
     <use xlink:href="#DejaVuSans-10" transform="translate(3152.125 0)"/>
     <use xlink:href="#DejaVuSans-51" transform="translate(3188.203125 0)"/>
     <use xlink:href="#DejaVuSans-4c" transform="translate(3251.578125 0)"/>
     <use xlink:href="#DejaVuSans-51" transform="translate(3279.359375 0)"/>
     <use xlink:href="#DejaVuSans-48" transform="translate(3342.734375 0)"/>
     <use xlink:href="#DejaVuSans-56" transform="translate(3404.265625 0)"/>
     <use xlink:href="#DejaVuSans-3" transform="translate(3456.359375 0)"/>
     <use xlink:href="#DejaVuSans-46" transform="translate(3488.140625 0)"/>
     <use xlink:href="#DejaVuSans-48" transform="translate(3543.125 0)"/>
     <use xlink:href="#DejaVuSans-55" transform="translate(3604.65625 0)"/>
     <use xlink:href="#DejaVuSans-57" transform="translate(3645.765625 0)"/>
     <use xlink:href="#DejaVuSans-4c" transform="translate(3684.96875 0)"/>
     <use xlink:href="#DejaVuSans-13af" transform="translate(3712.75 0)"/>
     <use xlink:href="#DejaVuSans-46" transform="translate(3775.734375 0)"/>
     <use xlink:href="#DejaVuSans-44" transform="translate(3830.71875 0)"/>
     <use xlink:href="#DejaVuSans-57" transform="translate(3892 0)"/>
     <use xlink:href="#DejaVuSans-4c" transform="translate(3931.203125 0)"/>
     <use xlink:href="#DejaVuSans-52" transform="translate(3958.984375 0)"/>
     <use xlink:href="#DejaVuSans-51" transform="translate(4020.171875 0)"/>
     <use xlink:href="#DejaVuSans-11" transform="translate(4083.546875 0)"/>
    </g>
   </g>
   <g id="text_13">
    <!-- Provenance Flow: Ore to Nine-Nines Certification -->
    <g transform="translate(171.741406 17.837812) scale(0.14 -0.14)">
     <defs>
      <path id="DejaVuSans-33" d="M 1259 4147
L 1259 2394
L 2053 2394
Q 2494 2394 2734 2622
Q 2975 2850 2975 3272
Q 2975 3691 2734 3919
Q 2494 4147 2053 4147
L 1259 4147
z
M 628 4666
L 2053 4666
Q 2838 4666 3239 4311
Q 3641 3956 3641 3272
Q 3641 2581 3239 2228
Q 2838 1875 2053 1875
L 1259 1875
L 1259 0
L 628 0
L 628 4666
z
" transform="scale(0.015625)"/>
      <path id="DejaVuSans-59" d="M 191 3500
L 800 3500
L 1894 563
L 2988 3500
L 3597 3500
L 2284 0
L 1503 0
L 191 3500
z
" transform="scale(0.015625)"/>
      <path id="DejaVuSans-29" d="M 628 4666
L 3309 4666
L 3309 4134
L 1259 4134
L 1259 2759
L 3109 2759
L 3109 2228
L 1259 2228
L 1259 0
L 628 0
L 628 4666
z
" transform="scale(0.015625)"/>
      <path id="DejaVuSans-1d" d="M 750 794
L 1409 794
L 1409 0
L 750 0
L 750 794
z
M 750 3309
L 1409 3309
L 1409 2516
L 750 2516
L 750 3309
z
" transform="scale(0.015625)"/>
      <path id="DejaVuSans-32" d="M 2522 4238
Q 1834 4238 1429 3725
Q 1025 3213 1025 2328
Q 1025 1447 1429 934
Q 1834 422 2522 422
Q 3209 422 3611 934
Q 4013 1447 4013 2328
Q 4013 3213 3611 3725
Q 3209 4238 2522 4238
z
M 2522 4750
Q 3503 4750 4090 4092
Q 4678 3434 4678 2328
Q 4678 1225 4090 567
Q 3503 -91 2522 -91
Q 1538 -91 948 565
Q 359 1222 359 2328
Q 359 3434 948 4092
Q 1538 4750 2522 4750
z
" transform="scale(0.015625)"/>
      <path id="DejaVuSans-31" d="M 628 4666
L 1478 4666
L 3547 763
L 3547 4666
L 4159 4666
L 4159 0
L 3309 0
L 1241 3903
L 1241 0
L 628 0
L 628 4666
z
" transform="scale(0.015625)"/>
      <path id="DejaVuSans-26" d="M 4122 4306
L 4122 3641
Q 3803 3938 3442 4084
Q 3081 4231 2675 4231
Q 1875 4231 1450 3742
Q 1025 3253 1025 2328
Q 1025 1406 1450 917
Q 1875 428 2675 428
Q 3081 428 3442 575
Q 3803 722 4122 1019
L 4122 359
Q 3791 134 3420 21
Q 3050 -91 2638 -91
Q 1578 -91 968 557
Q 359 1206 359 2328
Q 359 3453 968 4101
Q 1578 4750 2638 4750
Q 3056 4750 3426 4639
Q 3797 4528 4122 4306
z
" transform="scale(0.015625)"/>
     </defs>
     <use xlink:href="#DejaVuSans-33"/>
     <use xlink:href="#DejaVuSans-55" transform="translate(58.546875 0)"/>
     <use xlink:href="#DejaVuSans-52" transform="translate(97.453125 0)"/>
     <use xlink:href="#DejaVuSans-59" transform="translate(158.640625 0)"/>
     <use xlink:href="#DejaVuSans-48" transform="translate(217.828125 0)"/>
     <use xlink:href="#DejaVuSans-51" transform="translate(279.359375 0)"/>
     <use xlink:href="#DejaVuSans-44" transform="translate(342.734375 0)"/>
     <use xlink:href="#DejaVuSans-51" transform="translate(404.015625 0)"/>
     <use xlink:href="#DejaVuSans-46" transform="translate(467.390625 0)"/>
     <use xlink:href="#DejaVuSans-48" transform="translate(522.375 0)"/>
     <use xlink:href="#DejaVuSans-3" transform="translate(583.90625 0)"/>
     <use xlink:href="#DejaVuSans-29" transform="translate(615.6875 0)"/>
     <use xlink:href="#DejaVuSans-4f" transform="translate(673.203125 0)"/>
     <use xlink:href="#DejaVuSans-52" transform="translate(700.984375 0)"/>
     <use xlink:href="#DejaVuSans-5a" transform="translate(762.171875 0)"/>
     <use xlink:href="#DejaVuSans-1d" transform="translate(838.484375 0)"/>
     <use xlink:href="#DejaVuSans-3" transform="translate(872.171875 0)"/>
     <use xlink:href="#DejaVuSans-32" transform="translate(903.953125 0)"/>
     <use xlink:href="#DejaVuSans-55" transform="translate(982.671875 0)"/>
     <use xlink:href="#DejaVuSans-48" transform="translate(1021.578125 0)"/>
     <use xlink:href="#DejaVuSans-3" transform="translate(1083.109375 0)"/>
     <use xlink:href="#DejaVuSans-57" transform="translate(1114.890625 0)"/>
     <use xlink:href="#DejaVuSans-52" transform="translate(1154.09375 0)"/>
     <use xlink:href="#DejaVuSans-3" transform="translate(1215.28125 0)"/>
     <use xlink:href="#DejaVuSans-31" transform="translate(1247.0625 0)"/>
     <use xlink:href="#DejaVuSans-4c" transform="translate(1321.875 0)"/>
     <use xlink:href="#DejaVuSans-51" transform="translate(1349.65625 0)"/>
     <use xlink:href="#DejaVuSans-48" transform="translate(1413.03125 0)"/>
     <use xlink:href="#DejaVuSans-10" transform="translate(1474.5625 0)"/>
     <use xlink:href="#DejaVuSans-31" transform="translate(1510.640625 0)"/>
     <use xlink:href="#DejaVuSans-4c" transform="translate(1585.453125 0)"/>
     <use xlink:href="#DejaVuSans-51" transform="translate(1613.234375 0)"/>
     <use xlink:href="#DejaVuSans-48" transform="translate(1676.609375 0)"/>
     <use xlink:href="#DejaVuSans-56" transform="translate(1738.140625 0)"/>
     <use xlink:href="#DejaVuSans-3" transform="translate(1790.234375 0)"/>
     <use xlink:href="#DejaVuSans-26" transform="translate(1822.015625 0)"/>
     <use xlink:href="#DejaVuSans-48" transform="translate(1891.84375 0)"/>
     <use xlink:href="#DejaVuSans-55" transform="translate(1953.375 0)"/>
     <use xlink:href="#DejaVuSans-57" transform="translate(1994.484375 0)"/>
     <use xlink:href="#DejaVuSans-4c" transform="translate(2033.6875 0)"/>
     <use xlink:href="#DejaVuSans-13af" transform="translate(2061.46875 0)"/>
     <use xlink:href="#DejaVuSans-46" transform="translate(2124.453125 0)"/>
     <use xlink:href="#DejaVuSans-44" transform="translate(2179.4375 0)"/>
     <use xlink:href="#DejaVuSans-57" transform="translate(2240.71875 0)"/>
     <use xlink:href="#DejaVuSans-4c" transform="translate(2279.921875 0)"/>
     <use xlink:href="#DejaVuSans-52" transform="translate(2307.703125 0)"/>
     <use xlink:href="#DejaVuSans-51" transform="translate(2368.890625 0)"/>
    </g>
   </g>
  </g>
 </g>
 <defs>
  <clipPath id="p4dfc154ef4">
   <rect x="7.2" y="35.837812" width="669.6" height="266.112"/>
  </clipPath>
 </defs>
</svg>
