<?xml version="1.0" encoding="utf-8" standalone="no"?>
<!DOCTYPE svg PUBLIC "-//W3C//DTD SVG 1.1//EN"
  "http://www.w3.org/Graphics/SVG/1.1/DTD/svg11.dtd">
<svg xmlns:xlink="http://www.w3.org/1999/xlink" width="560.903437pt" height="418.145688pt" viewBox="0 0 560.903437 418.145688" xmlns="http://www.w3.org/2000/svg" version="1.1">
 <metadata>
  <rdf:RDF xmlns:dc="http://purl.org/dc/elements/1.1/" xmlns:cc="http://creativecommons.org/ns#" xmlns:rdf="http://www.w3.org/1999/02/22-rdf-syntax-ns#">
   <cc:Work>
    <dc:type rdf:resource="http://purl.org/dc/dcmitype/StillImage"/>
    <dc:format>image/svg+xml</dc:format>
    <dc:creator>
     <cc:Agent>
      <dc:title>template_gold_refinement</dc:title>
     </cc:Agent>
    </dc:creator>
   </cc:Work>
  </rdf:RDF>
 </metadata>
 <defs>
  <style type="text/css">*{stroke-linejoin: round; stroke-linecap: butt}</style>
 </defs>
 <g id="figure_1">
  <g id="patch_1">
   <path d="M 0 418.145688
L 560.903437 418.145688
L 560.903437 0
L 0 0
z
" style="fill: #ffffff"/>
  </g>
  <g id="axes_1">
   <g id="patch_2">
    <path d="M 45.716875 378.653813
L 536.756875 378.653813
L 536.756875 23.837812
L 45.716875 23.837812
z
" style="fill: #ffffff"/>
   </g>
   <g id="matplotlib.axis_1">
    <g id="xtick_1">
     <g id="line2d_1">
      <defs>
       <path id="mc314ece0ef" d="M 0 0
L 0 3.5
" style="stroke: #000000; stroke-width: 0.8"/>
      </defs>
      <g>
       <use xlink:href="#mc314ece0ef" x="45.716875" y="378.653813" style="stroke: #000000; stroke-width: 0.8"/>
      </g>
     </g>
     <g id="text_1">
      <!-- 0.0 -->
      <g transform="translate(37.765313 393.25225) scale(0.1 -0.1)">
       <defs>
        <path id="DejaVuSans-30" d="M 2034 4250
Q 1547 4250 1301 3770
Q 1056 3291 1056 2328
Q 1056 1369 1301 889
Q 1547 409 2034 409
Q 2525 409 2770 889
Q 3016 1369 3016 2328
Q 3016 3291 2770 3770
Q 2525 4250 2034 4250
z
M 2034 4750
Q 2819 4750 3233 4129
Q 3647 3509 3647 2328
Q 3647 1150 3233 529
Q 2819 -91 2034 -91
Q 1250 -91 836 529
Q 422 1150 422 2328
Q 422 3509 836 4129
Q 1250 4750 2034 4750
z
" transform="scale(0.015625)"/>
        <path id="DejaVuSans-2e" d="M 684 794
L 1344 794
L 1344 0
L 684 0
L 684 794
z
" transform="scale(0.015625)"/>
       </defs>
       <use xlink:href="#DejaVuSans-30"/>
       <use xlink:href="#DejaVuSans-2e" transform="translate(63.623047 0)"/>
       <use xlink:href="#DejaVuSans-30" transform="translate(95.410156 0)"/>
      </g>
     </g>
    </g>
    <g id="xtick_2">
     <g id="line2d_2">
      <g>
       <use xlink:href="#mc314ece0ef" x="134.996875" y="378.653813" style="stroke: #000000; stroke-width: 0.8"/>
      </g>
     </g>
     <g id="text_2">
      <!-- 0.2 -->
      <g transform="translate(127.045313 393.25225) scale(0.1 -0.1)">
       <defs>
        <path id="DejaVuSans-32" d="M 1228 531
L 3431 531
L 3431 0
L 469 0
L 469 531
Q 828 903 1448 1529
Q 2069 2156 2228 2338
Q 2531 2678 2651 2914
Q 2772 3150 2772 3378
Q 2772 3750 2511 3984
Q 2250 4219 1831 4219
Q 1534 4219 1204 4116
Q 875 4013 500 3803
L 500 4441
Q 881 4594 1212 4672
Q 1544 4750 1819 4750
Q 2544 4750 2975 4387
Q 3406 4025 3406 3419
Q 3406 3131 3298 2873
Q 3191 2616 2906 2266
Q 2828 2175 2409 1742
Q 1991 1309 1228 531
z
" transform="scale(0.015625)"/>
       </defs>
       <use xlink:href="#DejaVuSans-30"/>
       <use xlink:href="#DejaVuSans-2e" transform="translate(63.623047 0)"/>
       <use xlink:href="#DejaVuSans-32" transform="translate(95.410156 0)"/>
      </g>
     </g>
    </g>
    <g id="xtick_3">
     <g id="line2d_3">
      <g>
       <use xlink:href="#mc314ece0ef" x="224.276875" y="378.653813" style="stroke: #000000; stroke-width: 0.8"/>
      </g>
     </g>
     <g id="text_3">
      <!-- 0.4 -->
      <g transform="translate(216.325313 393.25225) scale(0.1 -0.1)">
       <defs>
        <path id="DejaVuSans-34" d="M 2419 4116
L 825 1625
L 2419 1625
L 2419 4116
z
M 2253 4666
L 3047 4666
L 3047 1625
L 3713 1625
L 3713 1100
L 3047 1100
L 3047 0
L 2419 0
L 2419 1100
L 313 1100
L 313 1709
L 2253 4666
z
" transform="scale(0.015625)"/>
       </defs>
       <use xlink:href="#DejaVuSans-30"/>
       <use xlink:href="#DejaVuSans-2e" transform="translate(63.623047 0)"/>
       <use xlink:href="#DejaVuSans-34" transform="translate(95.410156 0)"/>
      </g>
     </g>
    </g>
    <g id="xtick_4">
     <g id="line2d_4">
      <g>
       <use xlink:href="#mc314ece0ef" x="313.556875" y="378.653813" style="stroke: #000000; stroke-width: 0.8"/>
      </g>
     </g>
     <g id="text_4">
      <!-- 0.6 -->
      <g transform="translate(305.605313 393.25225) scale(0.1 -0.1)">
       <defs>
        <path id="DejaVuSans-36" d="M 2113 2584
Q 1688 2584 1439 2293
Q 1191 2003 1191 1497
Q 1191 994 1439 701
Q 1688 409 2113 409
Q 2538 409 2786 701
Q 3034 994 3034 1497
Q 3034 2003 2786 2293
Q 2538 2584 2113 2584
z
M 3366 4563
L 3366 3988
Q 3128 4100 2886 4159
Q 2644 4219 2406 4219
Q 1781 4219 1451 3797
Q 1122 3375 1075 2522
Q 1259 2794 1537 2939
Q 1816 3084 2150 3084
Q 2853 3084 3261 2657
Q 3669 2231 3669 1497
Q 3669 778 3244 343
Q 2819 -91 2113 -91
Q 1303 -91 875 529
Q 447 1150 447 2328
Q 447 3434 972 4092
Q 1497 4750 2381 4750
Q 2619 4750 2861 4703
Q 3103 4656 3366 4563
z
" transform="scale(0.015625)"/>
       </defs>
       <use xlink:href="#DejaVuSans-30"/>
       <use xlink:href="#DejaVuSans-2e" transform="translate(63.623047 0)"/>
       <use xlink:href="#DejaVuSans-36" transform="translate(95.410156 0)"/>
      </g>
     </g>
    </g>
    <g id="xtick_5">
     <g id="line2d_5">
      <g>
       <use xlink:href="#mc314ece0ef" x="402.836875" y="378.653813" style="stroke: #000000; stroke-width: 0.8"/>
      </g>
     </g>
     <g id="text_5">
      <!-- 0.8 -->
      <g transform="translate(394.885312 393.25225) scale(0.1 -0.1)">
       <defs>
        <path id="DejaVuSans-38" d="M 2034 2216
Q 1584 2216 1326 1975
Q 1069 1734 1069 1313
Q 1069 891 1326 650
Q 1584 409 2034 409
Q 2484 409 2743 651
Q 3003 894 3003 1313
Q 3003 1734 2745 1975
Q 2488 2216 2034 2216
z
M 1403 2484
Q 997 2584 770 2862
Q 544 3141 544 3541
Q 544 4100 942 4425
Q 1341 4750 2034 4750
Q 2731 4750 3128 4425
Q 3525 4100 3525 3541
Q 3525 3141 3298 2862
Q 3072 2584 2669 2484
Q 3125 2378 3379 2068
Q 3634 1759 3634 1313
Q 3634 634 3220 271
Q 2806 -91 2034 -91
Q 1263 -91 848 271
Q 434 634 434 1313
Q 434 1759 690 2068
Q 947 2378 1403 2484
z
M 1172 3481
Q 1172 3119 1398 2916
Q 1625 2713 2034 2713
Q 2441 2713 2670 2916
Q 2900 3119 2900 3481
Q 2900 3844 2670 4047
Q 2441 4250 2034 4250
Q 1625 4250 1398 4047
Q 1172 3844 1172 3481
z
" transform="scale(0.015625)"/>
       </defs>
       <use xlink:href="#DejaVuSans-30"/>
       <use xlink:href="#DejaVuSans-2e" transform="translate(63.623047 0)"/>
       <use xlink:href="#DejaVuSans-38" transform="translate(95.410156 0)"/>
      </g>
     </g>
    </g>
    <g id="xtick_6">
     <g id="line2d_6">
      <g>
       <use xlink:href="#mc314ece0ef" x="492.116875" y="378.653813" style="stroke: #000000; stroke-width: 0.8"/>
      </g>
     </g>
     <g id="text_6">
      <!-- 1.0 -->
      <g transform="translate(484.165312 393.25225) scale(0.1 -0.1)">
       <defs>
        <path id="DejaVuSans-31" d="M 794 531
L 1825 531
L 1825 4091
L 703 3866
L 703 4441
L 1819 4666
L 2450 4666
L 2450 531
L 3481 531
L 3481 0
L 794 0
L 794 531
z
" transform="scale(0.015625)"/>
       </defs>
       <use xlink:href="#DejaVuSans-31"/>
       <use xlink:href="#DejaVuSans-2e" transform="translate(63.623047 0)"/>
       <use xlink:href="#DejaVuSans-30" transform="translate(95.410156 0)"/>
      </g>
     </g>
    </g>
    <g id="text_7">
     <!-- Stage Output Purity (fraction) -->
     <g transform="translate(202.254063 408.450063) scale(0.12 -0.12)">
      <defs>
       <path id="DejaVuSans-53" d="M 3425 4513
L 3425 3897
Q 3066 4069 2747 4153
Q 2428 4238 2131 4238
Q 1616 4238 1336 4038
Q 1056 3838 1056 3469
Q 1056 3159 1242 3001
Q 1428 2844 1947 2747
L 2328 2669
Q 3034 2534 3370 2195
Q 3706 1856 3706 1288
Q 3706 609 3251 259
Q 2797 -91 1919 -91
Q 1588 -91 1214 -16
Q 841 59 441 206
L 441 856
Q 825 641 1194 531
Q 1563 422 1919 422
Q 2459 422 2753 634
Q 3047 847 3047 1241
Q 3047 1584 2836 1778
Q 2625 1972 2144 2069
L 1759 2144
Q 1053 2284 737 2584
Q 422 2884 422 3419
Q 422 4038 858 4394
Q 1294 4750 2059 4750
Q 2388 4750 2728 4690
Q 3069 4631 3425 4513
z
" transform="scale(0.015625)"/>
       <path id="DejaVuSans-74" d="M 1172 4494
L 1172 3500
L 2356 3500
L 2356 3053
L 1172 3053
L 1172 1153
Q 1172 725 1289 603
Q 1406 481 1766 481
L 2356 481
L 2356 0
L 1766 0
Q 1100 0 847 248
Q 594 497 594 1153
L 594 3053
L 172 3053
L 172 3500
L 594 3500
L 594 4494
L 1172 4494
z
" transform="scale(0.015625)"/>
       <path id="DejaVuSans-61" d="M 2194 1759
Q 1497 1759 1228 1600
Q 959 1441 959 1056
Q 959 750 1161 570
Q 1363 391 1709 391
Q 2188 391 2477 730
Q 2766 1069 2766 1631
L 2766 1759
L 2194 1759
z
M 3341 1997
L 3341 0
L 2766 0
L 2766 531
Q 2569 213 2275 61
Q 1981 -91 1556 -91
Q 1019 -91 701 211
Q 384 513 384 1019
Q 384 1609 779 1909
Q 1175 2209 1959 2209
L 2766 2209
L 2766 2266
Q 2766 2663 2505 2880
Q 2244 3097 1772 3097
Q 1472 3097 1187 3025
Q 903 2953 641 2809
L 641 3341
Q 956 3463 1253 3523
Q 1550 3584 1831 3584
Q 2591 3584 2966 3190
Q 3341 2797 3341 1997
z
" transform="scale(0.015625)"/>
       <path id="DejaVuSans-67" d="M 2906 1791
Q 2906 2416 2648 2759
Q 2391 3103 1925 3103
Q 1463 3103 1205 2759
Q 947 2416 947 1791
Q 947 1169 1205 825
Q 1463 481 1925 481
Q 2391 481 2648 825
Q 2906 1169 2906 1791
z
M 3481 434
Q 3481 -459 3084 -895
Q 2688 -1331 1869 -1331
Q 1566 -1331 1297 -1286
Q 1028 -1241 775 -1147
L 775 -588
Q 1028 -725 1275 -790
Q 1522 -856 1778 -856
Q 2344 -856 2625 -561
Q 2906 -266 2906 331
L 2906 616
Q 2728 306 2450 153
Q 2172 0 1784 0
Q 1141 0 747 490
Q 353 981 353 1791
Q 353 2603 747 3093
Q 1141 3584 1784 3584
Q 2172 3584 2450 3431
Q 2728 3278 2906 2969
L 2906 3500
L 3481 3500
L 3481 434
z
" transform="scale(0.015625)"/>
       <path id="DejaVuSans-65" d="M 3597 1894
L 3597 1613
L 953 1613
Q 991 1019 1311 708
Q 1631 397 2203 397
Q 2534 397 2845 478
Q 3156 559 3463 722
L 3463 178
Q 3153 47 2828 -22
Q 2503 -91 2169 -91
Q 1331 -91 842 396
Q 353 884 353 1716
Q 353 2575 817 3079
Q 1281 3584 2069 3584
Q 2775 3584 3186 3129
Q 3597 2675 3597 1894
z
M 3022 2063
Q 3016 2534 2758 2815
Q 2500 3097 2075 3097
Q 1594 3097 1305 2825
Q 1016 2553 972 2059
L 3022 2063
z
" transform="scale(0.015625)"/>
       <path id="DejaVuSans-20" transform="scale(0.015625)"/>
       <path id="DejaVuSans-4f" d="M 2522 4238
Q 1834 4238 1429 3725
Q 1025 3213 1025 2328
Q 1025 1447 1429 934
Q 1834 422 2522 422
Q 3209 422 3611 934
Q 4013 1447 4013 2328
Q 4013 3213 3611 3725
Q 3209 4238 2522 4238
z
M 2522 4750
Q 3503 4750 4090 4092
Q 4678 3434 4678 2328
Q 4678 1225 4090 567
Q 3503 -91 2522 -91
Q 1538 -91 948 565
Q 359 1222 359 2328
Q 359 3434 948 4092
Q 1538 4750 2522 4750
z
" transform="scale(0.015625)"/>
       <path id="DejaVuSans-75" d="M 544 1381
L 544 3500
L 1119 3500
L 1119 1403
Q 1119 906 1312 657
Q 1506 409 1894 409
Q 2359 409 2629 706
Q 2900 1003 2900 1516
L 2900 3500
L 3475 3500
L 3475 0
L 2900 0
L 2900 538
Q 2691 219 2414 64
Q 2138 -91 1772 -91
Q 1169 -91 856 284
Q 544 659 544 1381
z
M 1991 3584
L 1991 3584
z
" transform="scale(0.015625)"/>
       <path id="DejaVuSans-70" d="M 1159 525
L 1159 -1331
L 581 -1331
L 581 3500
L 1159 3500
L 1159 2969
Q 1341 3281 1617 3432
Q 1894 3584 2278 3584
Q 2916 3584 3314 3078
Q 3713 2572 3713 1747
Q 3713 922 3314 415
Q 2916 -91 2278 -91
Q 1894 -91 1617 61
Q 1341 213 1159 525
z
M 3116 1747
Q 3116 2381 2855 2742
Q 2594 3103 2138 3103
Q 1681 3103 1420 2742
Q 1159 2381 1159 1747
Q 1159 1113 1420 752
Q 1681 391 2138 391
Q 2594 391 2855 752
Q 3116 1113 3116 1747
z
" transform="scale(0.015625)"/>
       <path id="DejaVuSans-50" d="M 1259 4147
L 1259 2394
L 2053 2394
Q 2494 2394 2734 2622
Q 2975 2850 2975 3272
Q 2975 3691 2734 3919
Q 2494 4147 2053 4147
L 1259 4147
z
M 628 4666
L 2053 4666
Q 2838 4666 3239 4311
Q 3641 3956 3641 3272
Q 3641 2581 3239 2228
Q 2838 1875 2053 1875
L 1259 1875
L 1259 0
L 628 0
L 628 4666
z
" transform="scale(0.015625)"/>
       <path id="DejaVuSans-72" d="M 2631 2963
Q 2534 3019 2420 3045
Q 2306 3072 2169 3072
Q 1681 3072 1420 2755
Q 1159 2438 1159 1844
L 1159 0
L 581 0
L 581 3500
L 1159 3500
L 1159 2956
Q 1341 3275 1631 3429
Q 1922 3584 2338 3584
Q 2397 3584 2469 3576
Q 2541 3569 2628 3553
L 2631 2963
z
" transform="scale(0.015625)"/>
       <path id="DejaVuSans-69" d="M 603 3500
L 1178 3500
L 1178 0
L 603 0
L 603 3500
z
M 603 4863
L 1178 4863
L 1178 4134
L 603 4134
L 603 4863
z
" transform="scale(0.015625)"/>
       <path id="DejaVuSans-79" d="M 2059 -325
Q 1816 -950 1584 -1140
Q 1353 -1331 966 -1331
L 506 -1331
L 506 -850
L 844 -850
Q 1081 -850 1212 -737
Q 1344 -625 1503 -206
L 1606 56
L 191 3500
L 800 3500
L 1894 763
L 2988 3500
L 3597 3500
L 2059 -325
z
" transform="scale(0.015625)"/>
       <path id="DejaVuSans-28" d="M 1984 4856
Q 1566 4138 1362 3434
Q 1159 2731 1159 2009
Q 1159 1288 1364 580
Q 1569 -128 1984 -844
L 1484 -844
Q 1016 -109 783 600
Q 550 1309 550 2009
Q 550 2706 781 3412
Q 1013 4119 1484 4856
L 1984 4856
z
" transform="scale(0.015625)"/>
       <path id="DejaVuSans-66" d="M 2375 4863
L 2375 4384
L 1825 4384
Q 1516 4384 1395 4259
Q 1275 4134 1275 3809
L 1275 3500
L 2222 3500
L 2222 3053
L 1275 3053
L 1275 0
L 697 0
L 697 3053
L 147 3053
L 147 3500
L 697 3500
L 697 3744
Q 697 4328 969 4595
Q 1241 4863 1831 4863
L 2375 4863
z
" transform="scale(0.015625)"/>
       <path id="DejaVuSans-63" d="M 3122 3366
L 3122 2828
Q 2878 2963 2633 3030
Q 2388 3097 2138 3097
Q 1578 3097 1268 2742
Q 959 2388 959 1747
Q 959 1106 1268 751
Q 1578 397 2138 397
Q 2388 397 2633 464
Q 2878 531 3122 666
L 3122 134
Q 2881 22 2623 -34
Q 2366 -91 2075 -91
Q 1284 -91 818 406
Q 353 903 353 1747
Q 353 2603 823 3093
Q 1294 3584 2113 3584
Q 2378 3584 2631 3529
Q 2884 3475 3122 3366
z
" transform="scale(0.015625)"/>
       <path id="DejaVuSans-6f" d="M 1959 3097
Q 1497 3097 1228 2736
Q 959 2375 959 1747
Q 959 1119 1226 758
Q 1494 397 1959 397
Q 2419 397 2687 759
Q 2956 1122 2956 1747
Q 2956 2369 2687 2733
Q 2419 3097 1959 3097
z
M 1959 3584
Q 2709 3584 3137 3096
Q 3566 2609 3566 1747
Q 3566 888 3137 398
Q 2709 -91 1959 -91
Q 1206 -91 779 398
Q 353 888 353 1747
Q 353 2609 779 3096
Q 1206 3584 1959 3584
z
" transform="scale(0.015625)"/>
       <path id="DejaVuSans-6e" d="M 3513 2113
L 3513 0
L 2938 0
L 2938 2094
Q 2938 2591 2744 2837
Q 2550 3084 2163 3084
Q 1697 3084 1428 2787
Q 1159 2491 1159 1978
L 1159 0
L 581 0
L 581 3500
L 1159 3500
L 1159 2956
Q 1366 3272 1645 3428
Q 1925 3584 2291 3584
Q 2894 3584 3203 3211
Q 3513 2838 3513 2113
z
" transform="scale(0.015625)"/>
       <path id="DejaVuSans-29" d="M 513 4856
L 1013 4856
Q 1481 4119 1714 3412
Q 1947 2706 1947 2009
Q 1947 1309 1714 600
Q 1481 -109 1013 -844
L 513 -844
Q 928 -128 1133 580
Q 1338 1288 1338 2009
Q 1338 2731 1133 3434
Q 928 4138 513 4856
z
" transform="scale(0.015625)"/>
      </defs>
      <use xlink:href="#DejaVuSans-53"/>
      <use xlink:href="#DejaVuSans-74" transform="translate(63.476562 0)"/>
      <use xlink:href="#DejaVuSans-61" transform="translate(102.685547 0)"/>
      <use xlink:href="#DejaVuSans-67" transform="translate(163.964844 0)"/>
      <use xlink:href="#DejaVuSans-65" transform="translate(227.441406 0)"/>
      <use xlink:href="#DejaVuSans-20" transform="translate(288.964844 0)"/>
      <use xlink:href="#DejaVuSans-4f" transform="translate(320.751953 0)"/>
      <use xlink:href="#DejaVuSans-75" transform="translate(399.462891 0)"/>
      <use xlink:href="#DejaVuSans-74" transform="translate(462.841797 0)"/>
      <use xlink:href="#DejaVuSans-70" transform="translate(502.050781 0)"/>
      <use xlink:href="#DejaVuSans-75" transform="translate(565.527344 0)"/>
      <use xlink:href="#DejaVuSans-74" transform="translate(628.90625 0)"/>
      <use xlink:href="#DejaVuSans-20" transform="translate(668.115234 0)"/>
      <use xlink:href="#DejaVuSans-50" transform="translate(699.902344 0)"/>
      <use xlink:href="#DejaVuSans-75" transform="translate(758.455078 0)"/>
      <use xlink:href="#DejaVuSans-72" transform="translate(821.833984 0)"/>
      <use xlink:href="#DejaVuSans-69" transform="translate(862.947266 0)"/>
      <use xlink:href="#DejaVuSans-74" transform="translate(890.730469 0)"/>
      <use xlink:href="#DejaVuSans-79" transform="translate(929.939453 0)"/>
      <use xlink:href="#DejaVuSans-20" transform="translate(989.119141 0)"/>
      <use xlink:href="#DejaVuSans-28" transform="translate(1020.90625 0)"/>
      <use xlink:href="#DejaVuSans-66" transform="translate(1059.919922 0)"/>
      <use xlink:href="#DejaVuSans-72" transform="translate(1095.125 0)"/>
      <use xlink:href="#DejaVuSans-61" transform="translate(1136.238281 0)"/>
      <use xlink:href="#DejaVuSans-63" transform="translate(1197.517578 0)"/>
      <use xlink:href="#DejaVuSans-74" transform="translate(1252.498047 0)"/>
      <use xlink:href="#DejaVuSans-69" transform="translate(1291.707031 0)"/>
      <use xlink:href="#DejaVuSans-6f" transform="translate(1319.490234 0)"/>
      <use xlink:href="#DejaVuSans-6e" transform="translate(1380.671875 0)"/>
      <use xlink:href="#DejaVuSans-29" transform="translate(1444.050781 0)"/>
     </g>
    </g>
   </g>
   <g id="matplotlib.axis_2">
    <g id="ytick_1">
     <g id="line2d_7">
      <path d="M 45.716875 378.653813
L 536.756875 378.653813
" clip-path="url(#pf4e2820d8d)" style="fill: none; stroke: #b0b0b0; stroke-opacity: 0.22; stroke-width: 0.8; stroke-linecap: square"/>
     </g>
     <g id="line2d_8">
      <defs>
       <path id="m60b724e8b3" d="M 0 0
L -3.5 0
" style="stroke: #000000; stroke-width: 0.8"/>
      </defs>
      <g>
       <use xlink:href="#m60b724e8b3" x="45.716875" y="378.653813" style="stroke: #000000; stroke-width: 0.8"/>
      </g>
     </g>
     <g id="text_8">
      <!-- 0.0 -->
      <g transform="translate(22.81375 382.453031) scale(0.1 -0.1)">
       <use xlink:href="#DejaVuSans-30"/>
       <use xlink:href="#DejaVuSans-2e" transform="translate(63.623047 0)"/>
       <use xlink:href="#DejaVuSans-30" transform="translate(95.410156 0)"/>
      </g>
     </g>
    </g>
    <g id="ytick_2">
     <g id="line2d_9">
      <path d="M 45.716875 316.946682
L 536.756875 316.946682
" clip-path="url(#pf4e2820d8d)" style="fill: none; stroke: #b0b0b0; stroke-opacity: 0.22; stroke-width: 0.8; stroke-linecap: square"/>
     </g>
     <g id="line2d_10">
      <g>
       <use xlink:href="#m60b724e8b3" x="45.716875" y="316.946682" style="stroke: #000000; stroke-width: 0.8"/>
      </g>
     </g>
     <g id="text_9">
      <!-- 0.2 -->
      <g transform="translate(22.81375 320.745901) scale(0.1 -0.1)">
       <use xlink:href="#DejaVuSans-30"/>
       <use xlink:href="#DejaVuSans-2e" transform="translate(63.623047 0)"/>
       <use xlink:href="#DejaVuSans-32" transform="translate(95.410156 0)"/>
      </g>
     </g>
    </g>
    <g id="ytick_3">
     <g id="line2d_11">
      <path d="M 45.716875 255.239552
L 536.756875 255.239552
" clip-path="url(#pf4e2820d8d)" style="fill: none; stroke: #b0b0b0; stroke-opacity: 0.22; stroke-width: 0.8; stroke-linecap: square"/>
     </g>
     <g id="line2d_12">
      <g>
       <use xlink:href="#m60b724e8b3" x="45.716875" y="255.239552" style="stroke: #000000; stroke-width: 0.8"/>
      </g>
     </g>
     <g id="text_10">
      <!-- 0.4 -->
      <g transform="translate(22.81375 259.03877) scale(0.1 -0.1)">
       <use xlink:href="#DejaVuSans-30"/>
       <use xlink:href="#DejaVuSans-2e" transform="translate(63.623047 0)"/>
       <use xlink:href="#DejaVuSans-34" transform="translate(95.410156 0)"/>
      </g>
     </g>
    </g>
    <g id="ytick_4">
     <g id="line2d_13">
      <path d="M 45.716875 193.532421
L 536.756875 193.532421
" clip-path="url(#pf4e2820d8d)" style="fill: none; stroke: #b0b0b0; stroke-opacity: 0.22; stroke-width: 0.8; stroke-linecap: square"/>
     </g>
     <g id="line2d_14">
      <g>
       <use xlink:href="#m60b724e8b3" x="45.716875" y="193.532421" style="stroke: #000000; stroke-width: 0.8"/>
      </g>
     </g>
     <g id="text_11">
      <!-- 0.6 -->
      <g transform="translate(22.81375 197.33164) scale(0.1 -0.1)">
       <use xlink:href="#DejaVuSans-30"/>
       <use xlink:href="#DejaVuSans-2e" transform="translate(63.623047 0)"/>
       <use xlink:href="#DejaVuSans-36" transform="translate(95.410156 0)"/>
      </g>
     </g>
    </g>
    <g id="ytick_5">
     <g id="line2d_15">
      <path d="M 45.716875 131.825291
L 536.756875 131.825291
" clip-path="url(#pf4e2820d8d)" style="fill: none; stroke: #b0b0b0; stroke-opacity: 0.22; stroke-width: 0.8; stroke-linecap: square"/>
     </g>
     <g id="line2d_16">
      <g>
       <use xlink:href="#m60b724e8b3" x="45.716875" y="131.825291" style="stroke: #000000; stroke-width: 0.8"/>
      </g>
     </g>
     <g id="text_12">
      <!-- 0.8 -->
      <g transform="translate(22.81375 135.62451) scale(0.1 -0.1)">
       <use xlink:href="#DejaVuSans-30"/>
       <use xlink:href="#DejaVuSans-2e" transform="translate(63.623047 0)"/>
       <use xlink:href="#DejaVuSans-38" transform="translate(95.410156 0)"/>
      </g>
     </g>
    </g>
    <g id="ytick_6">
     <g id="line2d_17">
      <path d="M 45.716875 70.11816
L 536.756875 70.11816
" clip-path="url(#pf4e2820d8d)" style="fill: none; stroke: #b0b0b0; stroke-opacity: 0.22; stroke-width: 0.8; stroke-linecap: square"/>
     </g>
     <g id="line2d_18">
      <g>
       <use xlink:href="#m60b724e8b3" x="45.716875" y="70.11816" style="stroke: #000000; stroke-width: 0.8"/>
      </g>
     </g>
     <g id="text_13">
      <!-- 1.0 -->
      <g transform="translate(22.81375 73.917379) scale(0.1 -0.1)">
       <use xlink:href="#DejaVuSans-31"/>
       <use xlink:href="#DejaVuSans-2e" transform="translate(63.623047 0)"/>
       <use xlink:href="#DejaVuSans-30" transform="translate(95.410156 0)"/>
      </g>
     </g>
    </g>
    <g id="text_14">
     <!-- Project Claim-Support Rate -->
     <g transform="translate(16.318125 282.26925) rotate(-90) scale(0.12 -0.12)">
      <defs>
       <path id="DejaVuSans-6a" d="M 603 3500
L 1178 3500
L 1178 -63
Q 1178 -731 923 -1031
Q 669 -1331 103 -1331
L -116 -1331
L -116 -844
L 38 -844
Q 366 -844 484 -692
Q 603 -541 603 -63
L 603 3500
z
M 603 4863
L 1178 4863
L 1178 4134
L 603 4134
L 603 4863
z
" transform="scale(0.015625)"/>
       <path id="DejaVuSans-43" d="M 4122 4306
L 4122 3641
Q 3803 3938 3442 4084
Q 3081 4231 2675 4231
Q 1875 4231 1450 3742
Q 1025 3253 1025 2328
Q 1025 1406 1450 917
Q 1875 428 2675 428
Q 3081 428 3442 575
Q 3803 722 4122 1019
L 4122 359
Q 3791 134 3420 21
Q 3050 -91 2638 -91
Q 1578 -91 968 557
Q 359 1206 359 2328
Q 359 3453 968 4101
Q 1578 4750 2638 4750
Q 3056 4750 3426 4639
Q 3797 4528 4122 4306
z
" transform="scale(0.015625)"/>
       <path id="DejaVuSans-6c" d="M 603 4863
L 1178 4863
L 1178 0
L 603 0
L 603 4863
z
" transform="scale(0.015625)"/>
       <path id="DejaVuSans-6d" d="M 3328 2828
Q 3544 3216 3844 3400
Q 4144 3584 4550 3584
Q 5097 3584 5394 3201
Q 5691 2819 5691 2113
L 5691 0
L 5113 0
L 5113 2094
Q 5113 2597 4934 2840
Q 4756 3084 4391 3084
Q 3944 3084 3684 2787
Q 3425 2491 3425 1978
L 3425 0
L 2847 0
L 2847 2094
Q 2847 2600 2669 2842
Q 2491 3084 2119 3084
Q 1678 3084 1418 2786
Q 1159 2488 1159 1978
L 1159 0
L 581 0
L 581 3500
L 1159 3500
L 1159 2956
Q 1356 3278 1631 3431
Q 1906 3584 2284 3584
Q 2666 3584 2933 3390
Q 3200 3197 3328 2828
z
" transform="scale(0.015625)"/>
       <path id="DejaVuSans-2d" d="M 313 2009
L 1997 2009
L 1997 1497
L 313 1497
L 313 2009
z
" transform="scale(0.015625)"/>
       <path id="DejaVuSans-52" d="M 2841 2188
Q 3044 2119 3236 1894
Q 3428 1669 3622 1275
L 4263 0
L 3584 0
L 2988 1197
Q 2756 1666 2539 1819
Q 2322 1972 1947 1972
L 1259 1972
L 1259 0
L 628 0
L 628 4666
L 2053 4666
Q 2853 4666 3247 4331
Q 3641 3997 3641 3322
Q 3641 2881 3436 2590
Q 3231 2300 2841 2188
z
M 1259 4147
L 1259 2491
L 2053 2491
Q 2509 2491 2742 2702
Q 2975 2913 2975 3322
Q 2975 3731 2742 3939
Q 2509 4147 2053 4147
L 1259 4147
z
" transform="scale(0.015625)"/>
      </defs>
      <use xlink:href="#DejaVuSans-50"/>
      <use xlink:href="#DejaVuSans-72" transform="translate(58.552734 0)"/>
      <use xlink:href="#DejaVuSans-6f" transform="translate(97.416016 0)"/>
      <use xlink:href="#DejaVuSans-6a" transform="translate(158.597656 0)"/>
      <use xlink:href="#DejaVuSans-65" transform="translate(186.380859 0)"/>
      <use xlink:href="#DejaVuSans-63" transform="translate(247.904297 0)"/>
      <use xlink:href="#DejaVuSans-74" transform="translate(302.884766 0)"/>
      <use xlink:href="#DejaVuSans-20" transform="translate(342.09375 0)"/>
      <use xlink:href="#DejaVuSans-43" transform="translate(373.880859 0)"/>
      <use xlink:href="#DejaVuSans-6c" transform="translate(443.705078 0)"/>
      <use xlink:href="#DejaVuSans-61" transform="translate(471.488281 0)"/>
      <use xlink:href="#DejaVuSans-69" transform="translate(532.767578 0)"/>
      <use xlink:href="#DejaVuSans-6d" transform="translate(560.550781 0)"/>
      <use xlink:href="#DejaVuSans-2d" transform="translate(657.962891 0)"/>
      <use xlink:href="#DejaVuSans-53" transform="translate(694.046875 0)"/>
      <use xlink:href="#DejaVuSans-75" transform="translate(757.523438 0)"/>
      <use xlink:href="#DejaVuSans-70" transform="translate(820.902344 0)"/>
      <use xlink:href="#DejaVuSans-70" transform="translate(884.378906 0)"/>
      <use xlink:href="#DejaVuSans-6f" transform="translate(947.855469 0)"/>
      <use xlink:href="#DejaVuSans-72" transform="translate(1009.037109 0)"/>
      <use xlink:href="#DejaVuSans-74" transform="translate(1050.150391 0)"/>
      <use xlink:href="#DejaVuSans-20" transform="translate(1089.359375 0)"/>
      <use xlink:href="#DejaVuSans-52" transform="translate(1121.146484 0)"/>
      <use xlink:href="#DejaVuSans-61" transform="translate(1188.378906 0)"/>
      <use xlink:href="#DejaVuSans-74" transform="translate(1249.658203 0)"/>
      <use xlink:href="#DejaVuSans-65" transform="translate(1288.867188 0)"/>
     </g>
    </g>
   </g>
   <g id="line2d_19">
    <path d="M 45.716875 70.11816
L 536.756875 70.11816
" clip-path="url(#pf4e2820d8d)" style="fill: none; stroke-dasharray: 5.55,2.4; stroke-dashoffset: 0; stroke: #008000; stroke-opacity: 0.3; stroke-width: 1.5"/>
   </g>
   <g id="patch_3">
    <path d="M 45.716875 378.653813
L 45.716875 23.837812
" style="fill: none; stroke: #000000; stroke-width: 0.8; stroke-linejoin: miter; stroke-linecap: square"/>
   </g>
   <g id="patch_4">
    <path d="M 45.716875 378.653813
L 536.756875 378.653813
" style="fill: none; stroke: #000000; stroke-width: 0.8; stroke-linejoin: miter; stroke-linecap: square"/>
   </g>
   <g id="text_15">
    <!-- ore -->
    <g transform="translate(221.116875 62.11816) scale(0.09 -0.09)">
     <use xlink:href="#DejaVuSans-6f"/>
     <use xlink:href="#DejaVuSans-72" transform="translate(61.181641 0)"/>
     <use xlink:href="#DejaVuSans-65" transform="translate(100.044922 0)"/>
    </g>
   </g>
   <g id="text_16">
    <!-- smelting -->
    <g transform="translate(388.516875 62.11816) scale(0.09 -0.09)">
     <defs>
      <path id="DejaVuSans-73" d="M 2834 3397
L 2834 2853
Q 2591 2978 2328 3040
Q 2066 3103 1784 3103
Q 1356 3103 1142 2972
Q 928 2841 928 2578
Q 928 2378 1081 2264
Q 1234 2150 1697 2047
L 1894 2003
Q 2506 1872 2764 1633
Q 3022 1394 3022 966
Q 3022 478 2636 193
Q 2250 -91 1575 -91
Q 1294 -91 989 -36
Q 684 19 347 128
L 347 722
Q 666 556 975 473
Q 1284 391 1588 391
Q 1994 391 2212 530
Q 2431 669 2431 922
Q 2431 1156 2273 1281
Q 2116 1406 1581 1522
L 1381 1569
Q 847 1681 609 1914
Q 372 2147 372 2553
Q 372 3047 722 3315
Q 1072 3584 1716 3584
Q 2034 3584 2315 3537
Q 2597 3491 2834 3397
z
" transform="scale(0.015625)"/>
     </defs>
     <use xlink:href="#DejaVuSans-73"/>
     <use xlink:href="#DejaVuSans-6d" transform="translate(52.099609 0)"/>
     <use xlink:href="#DejaVuSans-65" transform="translate(149.511719 0)"/>
     <use xlink:href="#DejaVuSans-6c" transform="translate(211.035156 0)"/>
     <use xlink:href="#DejaVuSans-74" transform="translate(238.818359 0)"/>
     <use xlink:href="#DejaVuSans-69" transform="translate(278.027344 0)"/>
     <use xlink:href="#DejaVuSans-6e" transform="translate(305.810547 0)"/>
     <use xlink:href="#DejaVuSans-67" transform="translate(369.189453 0)"/>
    </g>
   </g>
   <g id="text_17">
    <!-- assaying -->
    <g transform="translate(395.279724 52.11816) scale(0.09 -0.09)">
     <use xlink:href="#DejaVuSans-61"/>
     <use xlink:href="#DejaVuSans-73" transform="translate(61.279297 0)"/>
     <use xlink:href="#DejaVuSans-73" transform="translate(113.378906 0)"/>
     <use xlink:href="#DejaVuSans-61" transform="translate(165.478516 0)"/>
     <use xlink:href="#DejaVuSans-79" transform="translate(226.757812 0)"/>
     <use xlink:href="#DejaVuSans-69" transform="translate(285.9375 0)"/>
     <use xlink:href="#DejaVuSans-6e" transform="translate(313.720703 0)"/>
     <use xlink:href="#DejaVuSans-67" transform="translate(377.099609 0)"/>
    </g>
   </g>
   <g id="text_18">
    <!-- cupellation -->
    <g transform="translate(364.011569 94.11816) scale(0.09 -0.09)">
     <use xlink:href="#DejaVuSans-63"/>
     <use xlink:href="#DejaVuSans-75" transform="translate(54.980469 0)"/>
     <use xlink:href="#DejaVuSans-70" transform="translate(118.359375 0)"/>
     <use xlink:href="#DejaVuSans-65" transform="translate(181.835938 0)"/>
     <use xlink:href="#DejaVuSans-6c" transform="translate(243.359375 0)"/>
     <use xlink:href="#DejaVuSans-6c" transform="translate(271.142578 0)"/>
     <use xlink:href="#DejaVuSans-61" transform="translate(298.925781 0)"/>
     <use xlink:href="#DejaVuSans-74" transform="translate(360.205078 0)"/>
     <use xlink:href="#DejaVuSans-69" transform="translate(399.414062 0)"/>
     <use xlink:href="#DejaVuSans-6f" transform="translate(427.197266 0)"/>
     <use xlink:href="#DejaVuSans-6e" transform="translate(488.378906 0)"/>
    </g>
   </g>
   <g id="text_19">
    <!-- certification -->
    <g transform="translate(500.116875 60.11816) scale(0.09 -0.09)">
     <use xlink:href="#DejaVuSans-63"/>
     <use xlink:href="#DejaVuSans-65" transform="translate(54.980469 0)"/>
     <use xlink:href="#DejaVuSans-72" transform="translate(116.503906 0)"/>
     <use xlink:href="#DejaVuSans-74" transform="translate(157.617188 0)"/>
     <use xlink:href="#DejaVuSans-69" transform="translate(196.826172 0)"/>
     <use xlink:href="#DejaVuSans-66" transform="translate(224.609375 0)"/>
     <use xlink:href="#DejaVuSans-69" transform="translate(259.814453 0)"/>
     <use xlink:href="#DejaVuSans-63" transform="translate(287.597656 0)"/>
     <use xlink:href="#DejaVuSans-61" transform="translate(342.578125 0)"/>
     <use xlink:href="#DejaVuSans-74" transform="translate(403.857422 0)"/>
     <use xlink:href="#DejaVuSans-69" transform="translate(443.066406 0)"/>
     <use xlink:href="#DejaVuSans-6f" transform="translate(470.849609 0)"/>
     <use xlink:href="#DejaVuSans-6e" transform="translate(532.03125 0)"/>
    </g>
   </g>
   <g id="text_20">
    <!-- One project-level assay (100%); no stagewise support trajectory is inferred -->
    <g transform="translate(55.537675 44.489124) scale(0.085 -0.085)">
     <defs>
      <path id="DejaVuSans-76" d="M 191 3500
L 800 3500
L 1894 563
L 2988 3500
L 3597 3500
L 2284 0
L 1503 0
L 191 3500
z
" transform="scale(0.015625)"/>
      <path id="DejaVuSans-25" d="M 4653 2053
Q 4381 2053 4226 1822
Q 4072 1591 4072 1178
Q 4072 772 4226 539
Q 4381 306 4653 306
Q 4919 306 5073 539
Q 5228 772 5228 1178
Q 5228 1588 5073 1820
Q 4919 2053 4653 2053
z
M 4653 2450
Q 5147 2450 5437 2106
Q 5728 1763 5728 1178
Q 5728 594 5436 251
Q 5144 -91 4653 -91
Q 4153 -91 3862 251
Q 3572 594 3572 1178
Q 3572 1766 3864 2108
Q 4156 2450 4653 2450
z
M 1428 4353
Q 1159 4353 1004 4120
Q 850 3888 850 3481
Q 850 3069 1003 2837
Q 1156 2606 1428 2606
Q 1700 2606 1854 2837
Q 2009 3069 2009 3481
Q 2009 3884 1853 4118
Q 1697 4353 1428 4353
z
M 4250 4750
L 4750 4750
L 1831 -91
L 1331 -91
L 4250 4750
z
M 1428 4750
Q 1922 4750 2215 4408
Q 2509 4066 2509 3481
Q 2509 2891 2217 2550
Q 1925 2209 1428 2209
Q 931 2209 642 2551
Q 353 2894 353 3481
Q 353 4063 643 4406
Q 934 4750 1428 4750
z
" transform="scale(0.015625)"/>
      <path id="DejaVuSans-3b" d="M 750 3309
L 1409 3309
L 1409 2516
L 750 2516
L 750 3309
z
M 750 794
L 1409 794
L 1409 256
L 897 -744
L 494 -744
L 750 256
L 750 794
z
" transform="scale(0.015625)"/>
      <path id="DejaVuSans-77" d="M 269 3500
L 844 3500
L 1563 769
L 2278 3500
L 2956 3500
L 3675 769
L 4391 3500
L 4966 3500
L 4050 0
L 3372 0
L 2619 2869
L 1863 0
L 1184 0
L 269 3500
z
" transform="scale(0.015625)"/>
      <path id="DejaVuSans-64" d="M 2906 2969
L 2906 4863
L 3481 4863
L 3481 0
L 2906 0
L 2906 525
Q 2725 213 2448 61
Q 2172 -91 1784 -91
Q 1150 -91 751 415
Q 353 922 353 1747
Q 353 2572 751 3078
Q 1150 3584 1784 3584
Q 2172 3584 2448 3432
Q 2725 3281 2906 2969
z
M 947 1747
Q 947 1113 1208 752
Q 1469 391 1925 391
Q 2381 391 2643 752
Q 2906 1113 2906 1747
Q 2906 2381 2643 2742
Q 2381 3103 1925 3103
Q 1469 3103 1208 2742
Q 947 2381 947 1747
z
" transform="scale(0.015625)"/>
     </defs>
     <use xlink:href="#DejaVuSans-4f"/>
     <use xlink:href="#DejaVuSans-6e" transform="translate(78.710938 0)"/>
     <use xlink:href="#DejaVuSans-65" transform="translate(142.089844 0)"/>
     <use xlink:href="#DejaVuSans-20" transform="translate(203.613281 0)"/>
     <use xlink:href="#DejaVuSans-70" transform="translate(235.400391 0)"/>
     <use xlink:href="#DejaVuSans-72" transform="translate(298.876953 0)"/>
     <use xlink:href="#DejaVuSans-6f" transform="translate(337.740234 0)"/>
     <use xlink:href="#DejaVuSans-6a" transform="translate(398.921875 0)"/>
     <use xlink:href="#DejaVuSans-65" transform="translate(426.705078 0)"/>
     <use xlink:href="#DejaVuSans-63" transform="translate(488.228516 0)"/>
     <use xlink:href="#DejaVuSans-74" transform="translate(543.208984 0)"/>
     <use xlink:href="#DejaVuSans-2d" transform="translate(582.417969 0)"/>
     <use xlink:href="#DejaVuSans-6c" transform="translate(618.501953 0)"/>
     <use xlink:href="#DejaVuSans-65" transform="translate(646.285156 0)"/>
     <use xlink:href="#DejaVuSans-76" transform="translate(707.808594 0)"/>
     <use xlink:href="#DejaVuSans-65" transform="translate(766.988281 0)"/>
     <use xlink:href="#DejaVuSans-6c" transform="translate(828.511719 0)"/>
     <use xlink:href="#DejaVuSans-20" transform="translate(856.294922 0)"/>
     <use xlink:href="#DejaVuSans-61" transform="translate(888.082031 0)"/>
     <use xlink:href="#DejaVuSans-73" transform="translate(949.361328 0)"/>
     <use xlink:href="#DejaVuSans-73" transform="translate(1001.460938 0)"/>
     <use xlink:href="#DejaVuSans-61" transform="translate(1053.560547 0)"/>
     <use xlink:href="#DejaVuSans-79" transform="translate(1114.839844 0)"/>
     <use xlink:href="#DejaVuSans-20" transform="translate(1174.019531 0)"/>
     <use xlink:href="#DejaVuSans-28" transform="translate(1205.806641 0)"/>
     <use xlink:href="#DejaVuSans-31" transform="translate(1244.820312 0)"/>
     <use xlink:href="#DejaVuSans-30" transform="translate(1308.443359 0)"/>
     <use xlink:href="#DejaVuSans-30" transform="translate(1372.066406 0)"/>
     <use xlink:href="#DejaVuSans-25" transform="translate(1435.689453 0)"/>
     <use xlink:href="#DejaVuSans-29" transform="translate(1530.708984 0)"/>
     <use xlink:href="#DejaVuSans-3b" transform="translate(1569.722656 0)"/>
     <use xlink:href="#DejaVuSans-20" transform="translate(1603.414062 0)"/>
     <use xlink:href="#DejaVuSans-6e" transform="translate(1635.201172 0)"/>
     <use xlink:href="#DejaVuSans-6f" transform="translate(1698.580078 0)"/>
     <use xlink:href="#DejaVuSans-20" transform="translate(1759.761719 0)"/>
     <use xlink:href="#DejaVuSans-73" transform="translate(1791.548828 0)"/>
     <use xlink:href="#DejaVuSans-74" transform="translate(1843.648438 0)"/>
     <use xlink:href="#DejaVuSans-61" transform="translate(1882.857422 0)"/>
     <use xlink:href="#DejaVuSans-67" transform="translate(1944.136719 0)"/>
     <use xlink:href="#DejaVuSans-65" transform="translate(2007.613281 0)"/>
     <use xlink:href="#DejaVuSans-77" transform="translate(2069.136719 0)"/>
     <use xlink:href="#DejaVuSans-69" transform="translate(2150.923828 0)"/>
     <use xlink:href="#DejaVuSans-73" transform="translate(2178.707031 0)"/>
     <use xlink:href="#DejaVuSans-65" transform="translate(2230.806641 0)"/>
     <use xlink:href="#DejaVuSans-20" transform="translate(2292.330078 0)"/>
     <use xlink:href="#DejaVuSans-73" transform="translate(2324.117188 0)"/>
     <use xlink:href="#DejaVuSans-75" transform="translate(2376.216797 0)"/>
     <use xlink:href="#DejaVuSans-70" transform="translate(2439.595703 0)"/>
     <use xlink:href="#DejaVuSans-70" transform="translate(2503.072266 0)"/>
     <use xlink:href="#DejaVuSans-6f" transform="translate(2566.548828 0)"/>
     <use xlink:href="#DejaVuSans-72" transform="translate(2627.730469 0)"/>
     <use xlink:href="#DejaVuSans-74" transform="translate(2668.84375 0)"/>
     <use xlink:href="#DejaVuSans-20" transform="translate(2708.052734 0)"/>
     <use xlink:href="#DejaVuSans-74" transform="translate(2739.839844 0)"/>
     <use xlink:href="#DejaVuSans-72" transform="translate(2779.048828 0)"/>
     <use xlink:href="#DejaVuSans-61" transform="translate(2820.162109 0)"/>
     <use xlink:href="#DejaVuSans-6a" transform="translate(2881.441406 0)"/>
     <use xlink:href="#DejaVuSans-65" transform="translate(2909.224609 0)"/>
     <use xlink:href="#DejaVuSans-63" transform="translate(2970.748047 0)"/>
     <use xlink:href="#DejaVuSans-74" transform="translate(3025.728516 0)"/>
     <use xlink:href="#DejaVuSans-6f" transform="translate(3064.9375 0)"/>
     <use xlink:href="#DejaVuSans-72" transform="translate(3126.119141 0)"/>
     <use xlink:href="#DejaVuSans-79" transform="translate(3167.232422 0)"/>
     <use xlink:href="#DejaVuSans-20" transform="translate(3226.412109 0)"/>
     <use xlink:href="#DejaVuSans-69" transform="translate(3258.199219 0)"/>
     <use xlink:href="#DejaVuSans-73" transform="translate(3285.982422 0)"/>
     <use xlink:href="#DejaVuSans-20" transform="translate(3338.082031 0)"/>
     <use xlink:href="#DejaVuSans-69" transform="translate(3369.869141 0)"/>
     <use xlink:href="#DejaVuSans-6e" transform="translate(3397.652344 0)"/>
     <use xlink:href="#DejaVuSans-66" transform="translate(3461.03125 0)"/>
     <use xlink:href="#DejaVuSans-65" transform="translate(3496.236328 0)"/>
     <use xlink:href="#DejaVuSans-72" transform="translate(3557.759766 0)"/>
     <use xlink:href="#DejaVuSans-72" transform="translate(3597.123047 0)"/>
     <use xlink:href="#DejaVuSans-65" transform="translate(3635.986328 0)"/>
     <use xlink:href="#DejaVuSans-64" transform="translate(3697.509766 0)"/>
    </g>
   </g>
   <g id="text_21">
    <!-- Stage Purity vs Project Claim Support -->
    <g transform="translate(160.345625 17.837812) scale(0.14 -0.14)">
     <use xlink:href="#DejaVuSans-53"/>
     <use xlink:href="#DejaVuSans-74" transform="translate(63.476562 0)"/>
     <use xlink:href="#DejaVuSans-61" transform="translate(102.685547 0)"/>
     <use xlink:href="#DejaVuSans-67" transform="translate(163.964844 0)"/>
     <use xlink:href="#DejaVuSans-65" transform="translate(227.441406 0)"/>
     <use xlink:href="#DejaVuSans-20" transform="translate(288.964844 0)"/>
     <use xlink:href="#DejaVuSans-50" transform="translate(320.751953 0)"/>
     <use xlink:href="#DejaVuSans-75" transform="translate(379.304688 0)"/>
     <use xlink:href="#DejaVuSans-72" transform="translate(442.683594 0)"/>
     <use xlink:href="#DejaVuSans-69" transform="translate(483.796875 0)"/>
     <use xlink:href="#DejaVuSans-74" transform="translate(511.580078 0)"/>
     <use xlink:href="#DejaVuSans-79" transform="translate(550.789062 0)"/>
     <use xlink:href="#DejaVuSans-20" transform="translate(609.96875 0)"/>
     <use xlink:href="#DejaVuSans-76" transform="translate(641.755859 0)"/>
     <use xlink:href="#DejaVuSans-73" transform="translate(700.935547 0)"/>
     <use xlink:href="#DejaVuSans-20" transform="translate(753.035156 0)"/>
     <use xlink:href="#DejaVuSans-50" transform="translate(784.822266 0)"/>
     <use xlink:href="#DejaVuSans-72" transform="translate(843.375 0)"/>
     <use xlink:href="#DejaVuSans-6f" transform="translate(882.238281 0)"/>
     <use xlink:href="#DejaVuSans-6a" transform="translate(943.419922 0)"/>
     <use xlink:href="#DejaVuSans-65" transform="translate(971.203125 0)"/>
     <use xlink:href="#DejaVuSans-63" transform="translate(1032.726562 0)"/>
     <use xlink:href="#DejaVuSans-74" transform="translate(1087.707031 0)"/>
     <use xlink:href="#DejaVuSans-20" transform="translate(1126.916016 0)"/>
     <use xlink:href="#DejaVuSans-43" transform="translate(1158.703125 0)"/>
     <use xlink:href="#DejaVuSans-6c" transform="translate(1228.527344 0)"/>
     <use xlink:href="#DejaVuSans-61" transform="translate(1256.310547 0)"/>
     <use xlink:href="#DejaVuSans-69" transform="translate(1317.589844 0)"/>
     <use xlink:href="#DejaVuSans-6d" transform="translate(1345.373047 0)"/>
     <use xlink:href="#DejaVuSans-20" transform="translate(1442.785156 0)"/>
     <use xlink:href="#DejaVuSans-53" transform="translate(1474.572266 0)"/>
     <use xlink:href="#DejaVuSans-75" transform="translate(1538.048828 0)"/>
     <use xlink:href="#DejaVuSans-70" transform="translate(1601.427734 0)"/>
     <use xlink:href="#DejaVuSans-70" transform="translate(1664.904297 0)"/>
     <use xlink:href="#DejaVuSans-6f" transform="translate(1728.380859 0)"/>
     <use xlink:href="#DejaVuSans-72" transform="translate(1789.5625 0)"/>
     <use xlink:href="#DejaVuSans-74" transform="translate(1830.675781 0)"/>
    </g>
   </g>
   <g id="PathCollection_1">
    <path d="M 213.116875 76.017003
C 214.681266 76.017003 216.181795 75.395464 217.287987 74.289272
C 218.394179 73.18308 219.015718 71.682552 219.015718 70.11816
C 219.015718 68.553769 218.394179 67.05324 217.287987 65.947048
C 216.181795 64.840857 214.681266 64.219317 213.116875 64.219317
C 211.552484 64.219317 210.051955 64.840857 208.945763 65.947048
C 207.839571 67.05324 207.218032 68.553769 207.218032 70.11816
C 207.218032 71.682552 207.839571 73.18308 208.945763 74.289272
C 210.051955 75.395464 211.552484 76.017003 213.116875 76.017003
z
" clip-path="url(#pf4e2820d8d)" style="fill: #8b4513; stroke: #000000"/>
    <path d="M 380.516875 76.384992
C 382.178858 76.384992 383.772994 75.724679 384.948194 74.549479
C 386.123393 73.37428 386.783706 71.780143 386.783706 70.11816
C 386.783706 68.456177 386.123393 66.862041 384.948194 65.686841
C 383.772994 64.511642 382.178858 63.851329 380.516875 63.851329
C 378.854892 63.851329 377.260756 64.511642 376.085556 65.686841
C 374.910357 66.862041 374.250044 68.456177 374.250044 70.11816
C 374.250044 71.780143 374.910357 73.37428 376.085556 74.549479
C 377.260756 75.724679 378.854892 76.384992 380.516875 76.384992
z
" clip-path="url(#pf4e2820d8d)" style="fill: #cd7f32; stroke: #000000"/>
    <path d="M 454.931755 76.799683
C 456.703715 76.799683 458.40334 76.095676 459.656305 74.84271
C 460.90927 73.589745 461.613278 71.890121 461.613278 70.11816
C 461.613278 68.3462 460.90927 66.646576 459.656305 65.39361
C 458.40334 64.140645 456.703715 63.436638 454.931755 63.436638
C 453.159795 63.436638 451.46017 64.140645 450.207205 65.39361
C 448.95424 66.646576 448.250232 68.3462 448.250232 70.11816
C 448.250232 71.890121 448.95424 73.589745 450.207205 74.84271
C 451.46017 76.095676 453.159795 76.799683 454.931755 76.799683
z
" clip-path="url(#pf4e2820d8d)" style="fill: #ffd700; stroke: #000000"/>
    <path d="M 491.670475 78.257571
C 493.829072 78.257571 495.899549 77.399951 497.425907 75.873593
C 498.952266 74.347234 499.809885 72.276757 499.809885 70.11816
C 499.809885 67.959563 498.952266 65.889087 497.425907 64.362728
C 495.899549 62.83637 493.829072 61.97875 491.670475 61.97875
C 489.511878 61.97875 487.441401 62.83637 485.915043 64.362728
C 484.388684 65.889087 483.531065 67.959563 483.531065 70.11816
C 483.531065 72.276757 484.388684 74.347234 485.915043 75.873593
C 487.441401 77.399951 489.511878 78.257571 491.670475 78.257571
z
" clip-path="url(#pf4e2820d8d)" style="fill: #ffa500; stroke: #000000"/>
    <path d="M 492.116875 81.683194
C 495.183957 81.683194 498.125833 80.464629 500.294588 78.295874
C 502.463343 76.127119 503.681908 73.185243 503.681908 70.11816
C 503.681908 67.051078 502.463343 64.109202 500.294588 61.940447
C 498.125833 59.771692 495.183957 58.553127 492.116875 58.553127
C 489.049792 58.553127 486.107916 59.771692 483.939161 61.940447
C 481.770406 64.109202 480.551841 67.051078 480.551841 70.11816
C 480.551841 73.185243 481.770406 76.127119 483.939161 78.295874
C 486.107916 80.464629 489.049792 81.683194 492.116875 81.683194
z
" clip-path="url(#pf4e2820d8d)" style="fill: #ff6347; stroke: #000000"/>
   </g>
   <g id="legend_1">
    <g id="patch_5">
     <path d="M 439.089688 46.515938
L 529.756875 46.515938
Q 531.756875 46.515938 531.756875 44.515938
L 531.756875 30.837813
Q 531.756875 28.837813 529.756875 28.837813
L 439.089688 28.837813
Q 437.089688 28.837813 437.089688 30.837813
L 437.089688 44.515938
Q 437.089688 46.515938 439.089688 46.515938
z
" style="fill: #ffffff; opacity: 0.8; stroke: #cccccc; stroke-linejoin: miter"/>
    </g>
    <g id="line2d_20">
     <path d="M 441.089688 36.93625
L 451.089688 36.93625
L 461.089688 36.93625
" style="fill: none; stroke-dasharray: 5.55,2.4; stroke-dashoffset: 0; stroke: #008000; stroke-opacity: 0.3; stroke-width: 1.5"/>
    </g>
    <g id="text_22">
     <!-- Full support -->
     <g transform="translate(469.089688 40.43625) scale(0.1 -0.1)">
      <defs>
       <path id="DejaVuSans-46" d="M 628 4666
L 3309 4666
L 3309 4134
L 1259 4134
L 1259 2759
L 3109 2759
L 3109 2228
L 1259 2228
L 1259 0
L 628 0
L 628 4666
z
" transform="scale(0.015625)"/>
      </defs>
      <use xlink:href="#DejaVuSans-46"/>
      <use xlink:href="#DejaVuSans-75" transform="translate(52.019531 0)"/>
      <use xlink:href="#DejaVuSans-6c" transform="translate(115.398438 0)"/>
      <use xlink:href="#DejaVuSans-6c" transform="translate(143.181641 0)"/>
      <use xlink:href="#DejaVuSans-20" transform="translate(170.964844 0)"/>
      <use xlink:href="#DejaVuSans-73" transform="translate(202.751953 0)"/>
      <use xlink:href="#DejaVuSans-75" transform="translate(254.851562 0)"/>
      <use xlink:href="#DejaVuSans-70" transform="translate(318.230469 0)"/>
      <use xlink:href="#DejaVuSans-70" transform="translate(381.707031 0)"/>
      <use xlink:href="#DejaVuSans-6f" transform="translate(445.183594 0)"/>
      <use xlink:href="#DejaVuSans-72" transform="translate(506.365234 0)"/>
      <use xlink:href="#DejaVuSans-74" transform="translate(547.478516 0)"/>
     </g>
    </g>
   </g>
  </g>
 </g>
 <defs>
  <clipPath id="pf4e2820d8d">
   <rect x="45.716875" y="23.837812" width="491.04" height="354.816"/>
  </clipPath>
 </defs>
</svg>
